<svg width="694" height="660" viewBox="0 0 694 660" fill="none" xmlns="http://www.w3.org/2000/svg">
<g clip-path="url(#clip0_447_6795)">
<g opacity="0.5">
<path opacity="0.5" d="M138.88 150.948H25.9072C8.84412 150.948 8.84412 131.386 23.6114 126.147C37.8513 121.218 50.3693 132.828 50.3693 132.828C50.3693 132.828 54.48 85.2553 93.3682 90.8356C124.035 95.2379 122.251 125.821 122.251 125.821C122.251 125.821 128.565 113.235 145.1 118.071C162.349 122.985 160.488 150.948 138.88 150.948Z" fill="#666666"/>
<path opacity="0.5" d="M242.344 323.04H146.574C132.132 323.04 132.148 306.469 144.635 302.083C156.703 297.851 167.329 307.71 167.329 307.71C167.329 307.71 170.803 267.407 203.766 272.057C229.764 275.793 228.244 301.726 228.244 301.726C228.244 301.726 233.595 291.046 247.618 295.092C262.246 299.339 260.663 323.04 242.344 323.04Z" fill="#F4F4F4"/>
<path opacity="0.5" d="M507.752 41.6975H429.944C418.217 41.6975 418.062 28.3667 428.471 25.685C431.596 24.879 434.862 24.7793 438.031 25.3934C441.2 26.0074 444.193 27.3197 446.79 29.2348C446.79 29.2348 449.613 -3.58078 476.402 0.309962C497.514 3.41015 496.288 24.414 496.288 24.414C496.288 24.414 500.632 15.7334 512.033 19.0196C523.915 22.4453 522.705 41.6975 507.752 41.6975Z" fill="#666666"/>
<path opacity="0.5" d="M683.315 139.152H534.401C511.955 139.152 511.676 113.622 531.609 108.491C537.591 106.946 543.842 106.755 549.907 107.932C555.973 109.109 561.698 111.625 566.666 115.296C566.666 115.296 572.048 52.5637 623.315 59.9732C663.739 65.786 661.381 106.104 661.381 106.104C661.381 106.104 669.711 89.5025 691.505 95.7804C714.261 102.291 711.795 139.152 683.315 139.152Z" fill="#666666"/>
</g>
<path d="M162.861 635.849C199.099 635.849 228.476 629.763 228.476 622.255C228.476 614.747 199.099 608.661 162.861 608.661C126.623 608.661 97.2461 614.747 97.2461 622.255C97.2461 629.763 126.623 635.849 162.861 635.849Z" fill="#331745"/>
<path d="M326.573 659.984C469.256 659.984 584.923 651.712 584.923 641.507C584.923 631.303 469.256 623.03 326.573 623.03C183.891 623.03 68.2234 631.303 68.2234 641.507C68.2234 651.712 183.891 659.984 326.573 659.984Z" fill="#331745"/>
<path d="M353.331 204.52C437.193 204.52 505.177 190.855 505.177 173.998C505.177 157.142 437.193 143.477 353.331 143.477C269.469 143.477 201.486 157.142 201.486 173.998C201.486 190.855 269.469 204.52 353.331 204.52Z" fill="#631753"/>
<path d="M254.845 190.871L265.803 113.939L298.569 118.604C296.329 120.281 294.457 122.407 293.076 124.85C291.484 127.665 290.59 130.821 290.469 134.053C290.348 137.285 291.003 140.498 292.38 143.425C293.757 146.352 295.815 148.906 298.383 150.875C300.95 152.843 303.952 154.169 307.137 154.74C310.322 155.311 313.598 155.112 316.69 154.159C319.783 153.205 322.601 151.526 324.911 149.26C327.22 146.995 328.953 144.21 329.964 141.138L330.18 140.481H330.123C331.041 137.37 331.194 134.08 330.567 130.891C329.978 127.896 328.717 125.079 326.887 122.65L359.467 127.269L354.682 161.093L354.499 162.389L355.499 161.546C358.484 159.03 362.163 157.48 366.05 157.103C369.936 156.725 373.845 157.538 377.259 159.433C380.672 161.328 383.427 164.216 385.16 167.713C386.892 171.21 387.519 175.15 386.957 179.011C386.396 182.873 384.672 186.472 382.015 189.331C379.359 192.191 375.894 194.175 372.083 195.021C368.271 195.867 364.292 195.534 360.674 194.067C357.055 192.599 353.969 190.067 351.825 186.806L351.099 185.702L350.913 187.011L346.097 220.835L269.112 209.884C269.111 209.884 269.111 209.884 269.111 209.884C264.701 209.243 260.725 206.882 258.051 203.32C255.378 199.757 254.225 195.281 254.845 190.871C254.845 190.871 254.845 190.871 254.845 190.871Z" fill="#371044" stroke="white"/>
<path d="M355.959 159.965C358.394 158.131 361.217 156.868 364.219 156.276C367.642 155.602 371.181 155.825 374.492 156.922L374.488 156.947C377.53 157.963 380.288 159.687 382.534 161.978C384.798 164.287 386.476 167.104 387.427 170.193C388.379 173.283 388.576 176.556 388.003 179.737C387.43 182.919 386.103 185.917 384.133 188.481C382.163 191.045 379.607 193.1 376.679 194.475C373.752 195.85 370.537 196.505 367.304 196.384C364.072 196.263 360.915 195.37 358.098 193.781C355.654 192.401 353.527 190.532 351.849 188.294L347.196 221.037L424.26 231.973C428.682 232.601 433.173 231.448 436.746 228.77C440.319 226.091 442.682 222.105 443.317 217.687L355.959 159.965ZM355.959 159.965L360.596 127.425L394.445 132.238L395.751 132.423L394.896 131.419C392.362 128.44 390.795 124.762 390.402 120.873C390.01 116.983 390.811 113.066 392.699 109.643C394.587 106.219 397.473 103.45 400.973 101.704C404.474 99.9584 408.423 99.3181 412.296 99.8684C416.169 100.419 419.783 102.134 422.658 104.785C425.533 107.437 427.532 110.899 428.39 114.713C429.249 118.527 428.926 122.512 427.464 126.138C426.002 129.764 423.471 132.86 420.207 135.015L419.106 135.741L420.411 135.927L454.26 140.755L443.317 217.686L355.959 159.965Z" fill="#371044" stroke="white"/>
<path d="M295.975 21.5142L372.931 32.4958L368.263 65.235C366.589 62.991 364.464 61.1143 362.02 59.7282C359.203 58.1304 356.044 57.2309 352.807 57.1052C349.57 56.9794 346.35 57.631 343.417 59.0053C340.484 60.3796 337.924 62.4366 335.95 65.0038C333.977 67.571 332.649 70.5737 332.076 73.7599C331.504 76.9462 331.704 80.2231 332.66 83.316C333.617 86.4089 335.301 89.2276 337.573 91.5356C339.844 93.8437 342.636 95.5738 345.714 96.5811C349.024 97.6715 352.56 97.889 355.979 97.2124C358.978 96.6189 361.798 95.355 364.23 93.5221L359.608 126.062L325.775 121.249L324.47 121.064L325.324 122.068C327.853 125.045 329.416 128.72 329.806 132.605C330.196 136.491 329.394 140.403 327.507 143.822C325.62 147.242 322.736 150.007 319.239 151.75C315.743 153.493 311.798 154.133 307.929 153.583C304.06 153.033 300.45 151.321 297.578 148.672C294.706 146.024 292.708 142.566 291.849 138.756C290.99 134.947 291.311 130.967 292.769 127.344C294.228 123.721 296.754 120.627 300.013 118.472L301.113 117.746L299.808 117.56L265.96 112.748L276.918 35.8157L276.919 35.8153C277.229 33.6254 277.968 31.5181 279.094 29.6139C280.22 27.7097 281.71 26.0459 283.48 24.7177C285.25 23.3895 287.265 22.4229 289.409 21.8732C291.553 21.3235 293.784 21.2016 295.975 21.5142Z" fill="#371044" stroke="white"/>
<path d="M386.48 198.009L391.428 216.812L454.825 210.27L449.256 182.772L386.48 198.009Z" fill="#D58136"/>
<path d="M204.573 539.744C239.257 569.66 300.063 556.051 300.063 556.051C300.063 556.051 304.639 493.954 269.955 464.037C235.271 434.12 174.449 447.714 174.449 447.714C174.449 447.714 169.873 509.827 204.573 539.744Z" fill="#331745"/>
<g style="mix-blend-mode:soft-light" opacity="0.5">
<g style="mix-blend-mode:soft-light" opacity="0.5">
<path d="M303.259 559.027L171.052 445.002" stroke="white" stroke-width="1.14" stroke-miterlimit="10"/>
</g>
<g style="mix-blend-mode:soft-light" opacity="0.5">
<path d="M278.161 468.703L274.112 533.884" stroke="white" stroke-width="1.14" stroke-miterlimit="10"/>
</g>
<g style="mix-blend-mode:soft-light" opacity="0.5">
<path d="M232.168 429.036L228.12 494.233" stroke="white" stroke-width="1.14" stroke-miterlimit="10"/>
</g>
<g style="mix-blend-mode:soft-light" opacity="0.5">
<path d="M249.898 513.004L183.446 515.717" stroke="white" stroke-width="1.14" stroke-miterlimit="10"/>
</g>
<g style="mix-blend-mode:soft-light" opacity="0.5">
<path d="M219.216 486.327L174.293 487.536" stroke="white" stroke-width="1.14" stroke-miterlimit="10"/>
</g>
</g>
<path d="M540.047 474.329C511.428 509.563 451.18 508.075 451.18 508.075C451.18 508.075 437.359 449.466 465.994 414.232C494.629 378.999 554.846 380.487 554.846 380.487C554.846 380.487 568.682 439.096 540.047 474.329Z" fill="#F4F4F4"/>
<path d="M449.002 512L553.002 383" stroke="#72BFBB" stroke-width="1.22" stroke-miterlimit="10"/>
<path d="M458.858 420.262L472.633 481.925" stroke="#72BFBB" stroke-width="1.22" stroke-miterlimit="10"/>
<path d="M489.002 414L498.002 452" stroke="#72BFBB" stroke-width="1.22" stroke-miterlimit="10"/>
<path d="M492.628 457.325L556.599 447.296" stroke="#72BFBB" stroke-width="1.22" stroke-miterlimit="10"/>
<path d="M517.912 425.951L561.05 418.588" stroke="#72BFBB" stroke-width="1.22" stroke-miterlimit="10"/>
<path d="M498.072 480.049C469.515 491.21 458.579 531.435 458.579 531.435C458.579 531.435 493.946 553.539 522.488 542.363C551.03 531.187 561.981 490.977 561.981 490.977C561.981 490.977 526.63 468.92 498.072 480.049Z" fill="#331745"/>
<g style="mix-blend-mode:soft-light" opacity="0.5">
<g style="mix-blend-mode:soft-light" opacity="0.5">
<path d="M455.818 532.442L564.664 489.861" stroke="white" stroke-width="1.14" stroke-miterlimit="10"/>
</g>
<g style="mix-blend-mode:soft-light" opacity="0.5">
<path d="M517.167 545.82L479.815 523.064" stroke="white" stroke-width="1.14" stroke-miterlimit="10"/>
</g>
<g style="mix-blend-mode:soft-light" opacity="0.5">
<path d="M555.032 531.001L517.679 508.246" stroke="white" stroke-width="1.14" stroke-miterlimit="10"/>
</g>
<g style="mix-blend-mode:soft-light" opacity="0.5">
<path d="M499.748 515.252L518.905 475.104" stroke="white" stroke-width="1.14" stroke-miterlimit="10"/>
</g>
<g style="mix-blend-mode:soft-light" opacity="0.5">
<path d="M525.14 505.44L538.45 478.499" stroke="white" stroke-width="1.14" stroke-miterlimit="10"/>
</g>
</g>
<path d="M464.427 420.541L491.542 620.907H265.565C265.565 620.907 273.647 570.389 279.34 527.482C281.713 509.486 283.683 492.838 284.428 481.801C284.428 481.63 284.428 481.475 284.428 481.305C238.404 478.019 221.977 469.819 221.977 469.819V364.707L174.309 351.577C174.309 351.577 196.507 281.823 195.684 265.345C195.684 249.751 203.068 174.897 203.068 174.897C224.381 216.3 516.004 212.968 502.183 167.968C571.567 277.901 482.809 400.839 464.427 420.541Z" fill="#C95194"/>
<path d="M429.479 273.468C432.02 273.157 434.542 272.707 437.033 272.119C439.5 271.561 441.904 270.817 444.432 270.197C445.746 269.856 447.077 269.582 448.419 269.376C449.998 269.129 451.611 269.224 453.15 269.655C454.91 270.179 456.447 271.269 457.524 272.755C458.436 274.043 459.128 275.473 459.572 276.987C460.365 279.629 460.885 282.345 461.123 285.094C461.371 287.698 461.542 290.317 461.619 292.937C461.764 298.185 461.552 303.436 460.983 308.655C460.43 313.891 459.46 319.074 458.083 324.156C456.601 329.383 454.212 334.31 451.025 338.712C449.429 340.88 447.621 342.885 445.627 344.695C443.681 346.495 441.578 348.119 439.344 349.547C434.964 352.352 430.281 354.656 425.384 356.414C429.636 353.614 433.703 350.544 437.561 347.222C441.262 343.991 444.457 340.224 447.038 336.045C449.465 331.872 451.233 327.349 452.281 322.637C452.576 321.474 452.778 320.265 453.026 319.072C453.274 317.878 453.429 316.607 453.6 315.383C453.972 312.918 454.267 310.438 454.484 307.958C454.954 303.001 455.161 298.024 455.104 293.046C455.104 290.55 454.996 288.054 454.825 285.574C454.738 283.21 454.463 280.857 454.003 278.537C453.806 277.567 453.477 276.628 453.026 275.747C452.715 275.058 452.163 274.507 451.475 274.196C450.577 273.82 449.608 273.646 448.636 273.685C447.425 273.659 446.213 273.7 445.006 273.809C439.844 274.505 434.605 274.39 429.479 273.468Z" fill="#631753"/>
<path d="M245.85 269.453C250.992 270.154 256.172 270.547 261.361 270.631C266.283 270.728 271.196 270.175 275.974 268.988C280.638 267.788 285.036 265.727 288.941 262.912C293.024 259.779 296.735 256.191 300.001 252.216C298.847 257.677 296.206 262.714 292.37 266.772C288.355 270.948 283.25 273.918 277.633 275.344C272.133 276.722 266.394 276.859 260.834 275.747C255.442 274.759 250.329 272.612 245.85 269.453Z" fill="#631753"/>
<path d="M222.023 422.184C229.041 424.053 236.238 425.17 243.492 425.517C250.505 425.842 257.527 425.116 264.324 423.362C271.071 421.536 277.477 418.631 283.295 414.759C289.297 410.634 294.905 405.964 300.048 400.808C296.807 407.696 292.169 413.835 286.429 418.836C280.532 423.957 273.546 427.667 265.999 429.687C258.465 431.636 250.599 431.948 242.933 430.601C235.43 429.362 228.291 426.489 222.023 422.184Z" fill="#631753"/>
<g style="mix-blend-mode:overlay">
<path d="M412.323 434.926C382.416 501.844 279.34 527.482 279.34 527.482C281.713 509.486 283.683 492.838 284.427 481.801C349.546 481.15 390.854 453.031 412.323 434.926Z" fill="#631753"/>
</g>
<path d="M284.474 481.305C300.14 479.833 315.687 477.301 331.01 473.725C338.61 471.865 346.165 469.85 353.517 467.292C360.887 464.852 368.086 461.921 375.063 458.518C388.931 451.76 401.852 442.924 411.935 431.283L412.897 430.214L413.781 429.082L415.565 426.819C416.752 425.377 417.791 423.819 418.667 422.169C419.539 420.542 420.251 418.834 420.792 417.069C421.32 415.333 421.738 413.302 422.235 411.411C424.236 403.754 426.206 396.081 428.44 388.47C427.617 396.375 426.485 404.203 425.337 412.047C425.027 414.031 424.81 415.891 424.375 417.999C423.948 420.065 423.32 422.085 422.498 424.029C421.673 425.963 420.632 427.799 419.396 429.501L417.674 432.027L416.806 433.283L415.859 434.476C405.932 447.451 392.406 457.356 377.886 464.378C370.606 467.842 363.084 470.774 355.379 473.151C347.705 475.485 339.893 477.333 331.987 478.685C316.316 481.496 300.359 482.376 284.474 481.305Z" fill="#631753"/>
<path d="M305.911 630.238C305.911 633.338 309.184 635.834 313.218 635.834H530.197C530.466 635.803 530.736 635.878 530.951 636.043C531.165 636.208 531.307 636.45 531.345 636.717V642.918C531.299 643.181 531.156 643.417 530.942 643.578C530.729 643.739 530.463 643.813 530.197 643.786H291.423C287.375 643.786 284.102 641.275 284.102 638.175V597.609C284.102 594.508 287.375 591.997 291.423 591.997H530.197C530.466 591.966 530.736 592.041 530.951 592.206C531.165 592.371 531.307 592.613 531.345 592.881V599.081C531.345 599.546 530.833 599.934 530.197 599.934H313.295C309.262 599.934 305.989 602.46 305.989 605.561L305.911 630.238Z" fill="#BE156C"/>
<path d="M303.786 600.011H521.945V635.849H303.786C301.729 635.849 299.757 635.033 298.302 633.579C296.848 632.126 296.031 630.155 296.031 628.099V607.638C296.063 605.604 296.895 603.664 298.346 602.237C299.797 600.81 301.751 600.011 303.786 600.011Z" fill="#CDE4ED"/>
<g style="mix-blend-mode:multiply">
<g style="mix-blend-mode:multiply">
<path d="M397.866 623.557H296.093V626.146H397.866V623.557Z" fill="#CDE4ED"/>
</g>
</g>
<g style="mix-blend-mode:multiply">
<g style="mix-blend-mode:multiply">
<path d="M463.589 616.442H296.093V619.031H463.589V616.442Z" fill="#CDE4ED"/>
</g>
</g>
<g style="mix-blend-mode:multiply">
<g style="mix-blend-mode:multiply">
<path d="M507.566 609.947H296.093V612.536H507.566V609.947Z" fill="#CDE4ED"/>
</g>
</g>
<g style="mix-blend-mode:multiply">
<g style="mix-blend-mode:multiply">
<path d="M487.927 603.003H320.058V605.591H487.927V603.003Z" fill="#CDE4ED"/>
</g>
</g>
<g style="mix-blend-mode:multiply">
<g style="mix-blend-mode:multiply">
<path d="M492.907 623.557H434.66V626.146H492.907V623.557Z" fill="#CDE4ED"/>
</g>
</g>
<path d="M535.859 565.103V588.742C535.859 590.54 534.029 591.997 530.259 591.997H287.654C287.049 591.997 286.584 591.78 286.584 591.486V587.858C286.584 587.579 287.049 587.347 287.654 587.347H510.032C513.786 587.347 516.811 585.89 516.811 584.092V569.769C516.811 567.955 513.786 566.498 510.032 566.498H287.654C287.049 566.498 286.584 566.266 286.584 565.987V562.344C286.584 562.065 287.049 561.832 287.654 561.832H530.259C534.029 561.832 535.859 563.305 535.859 565.103Z" fill="#631753"/>
<path d="M530.647 573.055V580.805C530.647 581.243 530.6 581.68 530.507 582.108C530.22 583.576 529.432 584.899 528.278 585.851C527.124 586.804 525.675 587.327 524.179 587.331H295.301V566.498H524.256C525.73 566.504 527.158 567.013 528.304 567.94C529.449 568.867 530.243 570.158 530.554 571.598C530.65 572.077 530.682 572.567 530.647 573.055Z" fill="#CDE4ED"/>
<g style="mix-blend-mode:multiply">
<g style="mix-blend-mode:multiply">
<path d="M530.647 571.613H434.07V574.202H530.647V571.613Z" fill="#CDE4ED"/>
</g>
</g>
<g style="mix-blend-mode:multiply">
<g style="mix-blend-mode:multiply">
<path d="M530.663 575.752H371.697V578.341H530.663V575.752Z" fill="#CDE4ED"/>
</g>
</g>
<g style="mix-blend-mode:multiply">
<g style="mix-blend-mode:multiply">
<path d="M530.663 579.534H308.952V582.123H530.663V579.534Z" fill="#CDE4ED"/>
</g>
</g>
<g style="mix-blend-mode:multiply">
<g style="mix-blend-mode:multiply">
<path d="M507.891 583.58H327.582V586.169H507.891V583.58Z" fill="#CDE4ED"/>
</g>
</g>
<g style="mix-blend-mode:multiply">
<g style="mix-blend-mode:multiply">
<path d="M399.153 571.613H322.866V574.202H399.153V571.613Z" fill="#CDE4ED"/>
</g>
</g>
<path d="M257.468 553.477L257.499 582.712L255.994 579.906L254.505 582.712L253.001 579.906L251.512 582.728L250.007 579.906L248.518 582.728L247.013 579.906L245.524 582.728L245.493 553.493L257.468 553.477Z" fill="#A1815D"/>
<g style="mix-blend-mode:multiply">
<path d="M305.105 648.312H291.423C287.375 648.312 284.102 645.801 284.102 642.701V602.073C284.102 598.973 287.375 596.462 291.423 596.462H287.654C287.049 596.462 286.584 596.244 286.584 595.95V592.323C286.584 592.044 287.049 591.811 287.654 591.811H295.41V570.962H287.654C287.049 570.962 286.584 570.73 286.584 570.451V566.855C286.584 566.576 287.049 566.343 287.654 566.343H305.012V570.993V591.842V648.343L305.105 648.312Z" fill="#CDE4ED"/>
</g>
<path d="M296.139 652.358L228.43 652.42L215.881 652.451L215.803 581.984L215.772 555.508L296.015 555.415L296.139 652.358Z" fill="#363636"/>
<g style="mix-blend-mode:multiply">
<path d="M295.98 555.448L215.737 555.531L215.755 573.063L295.998 572.979L295.98 555.448Z" fill="#CDE4ED"/>
</g>
<path d="M296.721 553.406L213.826 553.507L213.847 571.039L296.743 570.938L296.721 553.406Z" fill="#666666"/>
<path d="M262.339 553.462L262.37 582.712L260.865 579.891L259.376 582.712L257.871 579.906L256.382 582.712L254.877 579.906L253.373 582.712L251.884 579.906L250.395 582.728L250.364 553.477L262.339 553.462Z" fill="#BE156C"/>
<g style="mix-blend-mode:multiply">
<path d="M228.461 581.999L228.43 652.42L215.881 652.451L215.803 581.984L228.461 581.999Z" fill="#CDE4ED"/>
</g>
<path d="M150.731 549.447C152.437 540.394 157.618 531.838 165.824 527.25C170.546 524.373 175.919 522.735 181.444 522.491C186.277 522.515 191.055 523.506 195.498 525.405C203.26 528.513 209.482 534.557 212.809 542.224C215.2 548.677 215.573 555.704 213.88 562.375C212.406 568.854 208.761 575.52 211.165 582.278C211.848 584.2 213.833 586.324 213.228 588.478C212.53 591.036 209.583 591.858 207.504 592.958L200.059 596.911C198.29 597.857 195.731 599.856 193.575 599.05C191.419 598.244 190.783 595.547 189.542 593.904C186.284 589.595 180.576 587.703 175.581 586.51C169.821 585.247 164.481 582.53 160.069 578.62C156.133 574.971 153.205 570.368 151.569 565.258C149.934 560.147 149.645 554.702 150.731 549.447Z" fill="#F0D054"/>
<path d="M206.388 595.206C206.388 595.206 198.135 578.403 194.552 569.924C193.322 567.24 192.416 564.42 191.853 561.522C191.388 559.058 190.783 553.601 194.319 553.012C198.492 552.33 198.104 558.391 196.367 560.608C194.407 562.609 191.739 563.762 188.937 563.816C184.811 563.646 181.072 560.003 179.738 556.469C179.534 555.906 179.524 555.29 179.711 554.721C179.897 554.151 180.269 553.661 180.767 553.327C181.265 552.994 181.86 552.836 182.458 552.88C183.056 552.924 183.622 553.167 184.066 553.57C186.036 555.291 188.487 564.111 184.454 566.56C182.289 567.817 179.73 568.21 177.287 567.661C172.913 566.762 171.889 559.554 177.474 561.569C181.445 562.995 184.656 567.211 186.781 570.668C192.489 580.123 196.724 587.719 202.292 597.237" stroke="white" stroke-width="1.04" stroke-miterlimit="10"/>
<path d="M199.095 600.593L215.79 591.682L214.907 590.032L198.213 598.942L199.095 600.593Z" fill="#649DE1"/>
<path d="M198.756 607.033C198.8 606.782 198.755 606.523 198.627 606.302C198.499 606.08 198.298 605.911 198.058 605.824H197.903C197.666 605.737 197.466 605.571 197.339 605.353C197.211 605.135 197.164 604.88 197.205 604.63V604.32C197.25 604.063 197.199 603.797 197.062 603.575C196.925 603.352 196.711 603.187 196.46 603.111C196.213 603.033 196.002 602.871 195.863 602.653C195.724 602.435 195.666 602.174 195.7 601.918L195.824 601.081C195.847 600.928 195.905 600.782 195.994 600.656C196.082 600.529 196.2 600.425 196.336 600.352L212.934 591.439C213.072 591.374 213.223 591.341 213.376 591.341C213.529 591.341 213.679 591.374 213.818 591.439L214.578 591.796C214.812 591.91 214.999 592.103 215.104 592.342C215.209 592.58 215.226 592.848 215.152 593.098C215.084 593.349 215.108 593.616 215.219 593.852C215.329 594.087 215.52 594.276 215.757 594.384L216.036 594.508C216.265 594.618 216.451 594.801 216.564 595.029C216.676 595.256 216.709 595.515 216.656 595.764V595.919C216.599 596.17 216.631 596.432 216.747 596.662C216.864 596.891 217.056 597.072 217.292 597.175L217.51 597.268C217.75 597.373 217.946 597.56 218.062 597.795C218.178 598.03 218.208 598.299 218.146 598.554V598.663C218.071 598.921 217.947 599.162 217.779 599.372C217.611 599.582 217.404 599.757 217.168 599.887L201.129 608.49C200.651 608.739 200.093 608.789 199.578 608.63H199.469C199.221 608.542 199.012 608.37 198.878 608.143C198.745 607.916 198.696 607.649 198.74 607.39L198.756 607.033Z" fill="#87C0EC"/>
<path d="M197.267 602.848L197.174 602.739C197.139 602.667 197.132 602.584 197.155 602.506C197.178 602.429 197.229 602.363 197.298 602.321L205.054 598.167C205.126 598.132 205.209 598.125 205.287 598.148C205.364 598.171 205.43 598.222 205.472 598.291C205.494 598.326 205.508 598.365 205.513 598.406C205.518 598.446 205.515 598.488 205.503 598.527C205.492 598.567 205.472 598.603 205.445 598.635C205.418 598.666 205.385 598.691 205.348 598.709L197.592 602.879C197.54 602.901 197.482 602.91 197.426 602.905C197.369 602.9 197.314 602.88 197.267 602.848Z" fill="#649DE1"/>
<path d="M208.451 596.833V596.74C208.429 596.705 208.415 596.666 208.41 596.625C208.405 596.585 208.408 596.543 208.42 596.504C208.432 596.464 208.451 596.428 208.478 596.396C208.505 596.365 208.538 596.34 208.575 596.322L212.856 594.012C212.929 593.977 213.012 593.971 213.089 593.994C213.167 594.017 213.233 594.067 213.275 594.136C213.314 594.208 213.322 594.293 213.299 594.371C213.276 594.449 213.222 594.515 213.151 594.555L208.869 596.864C208.84 596.89 208.806 596.91 208.769 596.922C208.732 596.935 208.693 596.939 208.654 596.937C208.615 596.934 208.577 596.923 208.542 596.905C208.507 596.888 208.476 596.863 208.451 596.833Z" fill="#649DE1"/>
<path d="M203.673 601.84C203.651 601.834 203.631 601.822 203.615 601.805C203.598 601.789 203.586 601.769 203.58 601.747C203.545 601.675 203.538 601.591 203.561 601.514C203.584 601.437 203.635 601.371 203.704 601.329L214.919 595.314C214.954 595.293 214.993 595.279 215.034 595.274C215.075 595.269 215.116 595.272 215.156 595.284C215.195 595.295 215.232 595.315 215.263 595.342C215.295 595.368 215.32 595.401 215.338 595.438C215.359 595.474 215.373 595.513 215.378 595.554C215.384 595.594 215.38 595.636 215.369 595.675C215.357 595.715 215.337 595.751 215.31 595.782C215.284 595.814 215.251 595.839 215.214 595.857L203.999 601.871C203.948 601.901 203.889 601.914 203.831 601.908C203.772 601.903 203.717 601.879 203.673 601.84Z" fill="#649DE1"/>
<path d="M198.259 604.755L198.166 604.661C198.131 604.589 198.125 604.506 198.148 604.428C198.171 604.351 198.221 604.285 198.29 604.243L201.61 602.507C201.683 602.472 201.766 602.465 201.843 602.488C201.921 602.511 201.987 602.562 202.029 602.631C202.047 602.667 202.058 602.707 202.061 602.748C202.065 602.789 202.059 602.83 202.046 602.869C202.033 602.908 202.013 602.944 201.986 602.975C201.959 603.006 201.926 603.031 201.889 603.049L198.585 604.832C198.53 604.856 198.468 604.861 198.409 604.847C198.351 604.833 198.298 604.801 198.259 604.755Z" fill="#649DE1"/>
<path d="M208.776 601.546L208.699 601.453C208.66 601.381 208.651 601.296 208.675 601.218C208.698 601.14 208.751 601.074 208.823 601.034L214.826 597.81C214.898 597.771 214.982 597.763 215.061 597.786C215.139 597.809 215.205 597.862 215.245 597.934C215.28 598.007 215.286 598.09 215.263 598.167C215.24 598.245 215.19 598.311 215.121 598.353L209.118 601.577C209.062 601.599 209.003 601.608 208.943 601.603C208.884 601.598 208.827 601.578 208.776 601.546Z" fill="#649DE1"/>
<path d="M202.447 604.941C202.447 604.941 202.447 604.941 202.354 604.848C202.319 604.775 202.313 604.692 202.336 604.614C202.359 604.537 202.409 604.471 202.478 604.429L204.898 603.142C204.933 603.121 204.973 603.107 205.013 603.102C205.054 603.097 205.096 603.1 205.135 603.112C205.175 603.123 205.211 603.143 205.242 603.17C205.274 603.196 205.299 603.229 205.317 603.266C205.352 603.339 205.358 603.422 205.336 603.5C205.313 603.577 205.262 603.643 205.193 603.685L202.773 604.972C202.722 605.001 202.664 605.014 202.605 605.009C202.547 605.003 202.491 604.979 202.447 604.941Z" fill="#649DE1"/>
<path d="M206.512 597.857L206.418 597.764C206.384 597.691 206.377 597.608 206.4 597.53C206.423 597.453 206.474 597.387 206.543 597.345L207.411 596.88C207.484 596.845 207.567 596.838 207.644 596.861C207.722 596.884 207.788 596.935 207.83 597.004C207.851 597.039 207.865 597.078 207.87 597.119C207.876 597.16 207.873 597.201 207.861 597.241C207.849 597.28 207.829 597.317 207.803 597.348C207.776 597.379 207.743 597.405 207.706 597.422L206.837 597.888C206.787 597.917 206.728 597.93 206.669 597.925C206.611 597.919 206.556 597.895 206.512 597.857Z" fill="#649DE1"/>
<g style="mix-blend-mode:multiply">
<g style="mix-blend-mode:multiply">
<path d="M150.731 549.447C152.437 540.394 157.618 531.838 165.824 527.25C166.755 526.723 167.716 526.227 168.709 525.7C155.881 533.636 150.576 551.323 158.471 564.948C165.095 576.403 175.255 581.658 189.774 580.449C191.195 580.198 192.657 580.348 193.997 580.882C195.337 581.416 196.502 582.313 197.36 583.472C199.128 585.89 199.717 588.974 201.656 591.222C201.926 591.597 202.298 591.887 202.727 592.059C203.14 592.152 203.57 592.152 203.983 592.059C207.41 591.472 210.621 589.991 213.29 587.765C213.277 587.986 213.241 588.204 213.182 588.416C212.484 590.974 209.536 591.796 207.458 592.896L200.059 596.911C198.29 597.857 195.731 599.856 193.575 599.05C191.419 598.244 190.783 595.547 189.542 593.904C186.284 589.595 180.576 587.703 175.581 586.51C169.821 585.247 164.481 582.53 160.069 578.62C156.133 574.971 153.205 570.368 151.569 565.258C149.934 560.147 149.645 554.702 150.731 549.447Z" fill="#F0D054"/>
</g>
</g>
<path d="M153.628 583.377L153.544 652.526L224.169 652.613L224.254 583.463L153.628 583.377Z" fill="#666666"/>
<g style="mix-blend-mode:multiply" opacity="0.2">
<path d="M437.095 173.13C403.403 175.626 360.017 205.589 383.207 264.369C383.424 269.531 386.914 272.832 390.063 271.468C393.212 270.104 389.241 260.711 389.241 260.711C389.768 215.029 399.339 206.054 417.162 204.225L458.688 199.482C469.127 199.838 488.641 204.938 495.497 240.699L506.061 241.443C503.936 215.215 492.348 168.991 437.095 173.13Z" fill="#5E749C"/>
</g>
<path d="M436.506 167.798C402.814 170.278 359.427 200.257 382.618 259.021L388.652 255.378C389.179 209.681 398.75 200.722 416.495 198.893L458.083 194.134C468.538 194.491 488.75 201.45 495.621 237.211L505.471 236.08C503.346 209.945 491.759 163.721 436.506 167.798Z" fill="#F4F4F4"/>
<path d="M429.743 169.549L426.004 181.051C426.004 181.051 427.292 187.143 433.326 186.337C439.36 185.531 439.856 182.648 439.856 182.648L439.236 169.999L429.743 169.549Z" fill="#ECB7A1"/>
<path d="M454.329 157.629C449.784 168.294 447.612 171.704 440.368 174.045C430.983 177.145 419.458 171.813 422.685 155.273C425.306 141.787 431.713 143.089 437.824 142.872C443.936 142.655 459.246 146.019 454.329 157.629Z" fill="#ECB7A1"/>
<path d="M430.875 152.173C430.049 151.936 429.17 151.966 428.362 152.259C427.554 152.551 426.859 153.09 426.377 153.8C425.83 154.493 425.474 155.318 425.346 156.191C425.218 157.064 425.322 157.956 425.648 158.776C424.49 158.974 423.459 159.621 422.778 160.577C422.098 161.533 421.825 162.719 422.018 163.876C420.017 160.342 420.467 156.405 419.691 152.653C418.915 148.902 418.915 144.732 421.041 141.555C421.942 140.263 423.085 139.158 424.407 138.3C426.885 136.635 429.719 135.572 432.681 135.195C435.643 134.818 438.653 135.138 441.47 136.129C443.921 137.311 446.738 137.489 449.319 136.625C456.454 134.021 461.294 138.501 457.416 143.632C458.931 143.801 460.322 144.551 461.294 145.724C461.412 145.879 461.489 146.062 461.516 146.254C461.543 146.447 461.52 146.644 461.449 146.825C461.301 147.05 461.083 147.219 460.828 147.306C459.638 147.866 458.327 148.122 457.012 148.05C457.54 148.422 460.285 148.267 461.278 149.755C463.946 153.723 455.074 152.576 453.677 152.297C455.229 152.405 459.525 155.118 458.502 157.428C458.3 157.877 453.321 161.582 446.976 155.707C445.553 154.24 443.721 153.235 441.718 152.824C440.132 152.755 438.565 153.184 437.235 154.049C436.211 154.56 433.652 156.529 432.767 155.599C431.883 154.669 432.736 152.839 430.875 152.173Z" fill="#1B2841"/>
<path d="M496.676 237.103C495.761 242.389 494.318 243.055 496.211 243.675C498.103 244.295 499.313 241.257 499.313 241.257L507.814 241.97C507.814 241.97 505.332 236.777 503.951 236.281C502.571 235.785 496.676 237.103 496.676 237.103Z" fill="#ECB7A1"/>
<path d="M388.652 255.378C390.048 257.951 390.343 257.936 392.219 261.005C395.818 266.88 390.141 277.436 384.727 267.206C383.639 264.586 382.929 261.825 382.618 259.006L388.652 255.378Z" fill="#ECB7A1"/>
<path d="M494.66 254.991C495.777 252.159 496.143 249.087 495.722 246.072C495.3 243.057 494.106 240.202 492.255 237.785L522.705 243.908L516.593 274.351C519.461 272.193 522.918 270.958 526.505 270.809C530.092 270.66 533.64 271.604 536.677 273.517C539.714 275.43 542.097 278.22 543.511 281.518C544.924 284.816 545.3 288.466 544.589 291.982C543.878 295.499 542.114 298.716 539.53 301.207C536.947 303.699 533.666 305.346 530.124 305.93C526.582 306.515 522.946 306.009 519.698 304.48C516.45 302.951 513.744 300.472 511.94 297.37L505.813 327.814L439.624 314.514C434.909 313.568 430.764 310.79 428.099 306.79C425.435 302.79 424.469 297.896 425.415 293.185L438.724 227.027L469.344 233.227C466.898 234.639 464.826 236.616 463.3 238.992C461.775 241.368 460.841 244.075 460.576 246.885C460.311 249.696 460.724 252.529 461.779 255.148C462.834 257.766 464.501 260.095 466.64 261.938C468.78 263.781 471.33 265.086 474.077 265.743C476.825 266.4 479.69 266.391 482.432 265.715C485.175 265.04 487.717 263.718 489.844 261.86C491.971 260.003 493.622 257.663 494.66 255.037V254.991Z" fill="#331745"/>
<path d="M526.304 358.785L522.55 366.334L531.733 370.086L532.71 361.389L526.304 358.785Z" fill="#ECB7A1"/>
<path d="M531.857 334.185C511.009 343.253 519.556 365.187 532.245 362.645C538.45 361.389 541.552 341.517 541.552 341.517L531.857 334.185Z" fill="#ECB7A1"/>
<path d="M538.775 331.054C538.2 329.722 537.361 328.52 536.309 327.52C535.777 327.024 535.089 326.731 534.363 326.692C533.637 326.652 532.921 326.868 532.338 327.303C530.942 328.605 531.749 331.054 533.176 332.325C531.95 332.48 530.508 331.628 529.608 332.48C528.708 333.333 529.158 334.232 529.608 335.084C530.541 337.085 532.02 338.783 533.874 339.983C532.819 340.572 531.594 341.734 532.229 342.773C532.4 343.067 532.695 343.253 532.881 343.548C533.284 344.214 532.881 345.098 532.478 345.749C531.824 346.818 531.114 347.853 530.353 348.849C530.566 348.643 530.825 348.49 531.108 348.403C531.392 348.316 531.692 348.298 531.984 348.349C532.276 348.401 532.552 348.521 532.789 348.699C533.026 348.878 533.217 349.11 533.346 349.376C533.611 350.283 533.504 351.257 533.051 352.085C532.597 352.913 531.833 353.528 530.926 353.794C530.353 353.933 527.824 361.73 529.794 363.265C532.229 365.156 540.513 363.513 541.707 361.374C542.257 362.062 542.972 362.6 543.786 362.938C544.599 363.277 545.485 363.405 546.361 363.311C546.787 363.235 547.191 363.063 547.542 362.809C547.892 362.554 548.181 362.224 548.385 361.842C548.59 361.46 548.705 361.037 548.722 360.604C548.74 360.171 548.659 359.74 548.486 359.343C549.431 359.693 550.461 359.742 551.434 359.483C552.408 359.223 553.277 358.668 553.922 357.895C554.567 357.121 554.956 356.167 555.035 355.163C555.114 354.159 554.88 353.156 554.365 352.29C555.389 351.98 555.59 350.601 555.327 349.562C555.049 348.515 554.506 347.558 553.751 346.781C552.996 346.005 552.053 345.436 551.014 345.129C551.541 345.083 552.033 344.844 552.393 344.457C552.754 344.071 552.959 343.565 552.969 343.036C552.941 341.971 552.528 340.952 551.805 340.169C550.915 339.131 549.818 338.29 548.584 337.7C547.35 337.111 546.006 336.784 544.639 336.743C541.676 336.433 540.078 333.457 538.775 331.054Z" fill="#243F5E"/>
<path d="M519.246 554.02C519.246 554.02 507.054 559.864 505.409 561.693C505.409 561.693 529.406 562.778 531.283 561.693C533.16 560.608 527.452 554.051 527.452 554.051L519.246 554.02Z" fill="#1B2841"/>
<path d="M564.587 547.401C564.587 547.401 553.869 555.647 552.643 557.771C552.643 557.771 577.943 554.02 577.943 552.361C577.943 550.703 572.607 545.696 572.607 545.696L564.587 547.401Z" fill="#1B2841"/>
<path d="M531.035 441.033C530.585 443.514 513.894 509.377 561.671 548.874L575.507 545.773C575.507 545.773 559.406 530.675 551.805 503.518C544.623 477.833 550.332 475.306 554.644 461.154C559.406 445.498 555.854 434.12 555.854 434.12L531.035 441.033Z" fill="#494949"/>
<path d="M508.201 440.832C500.632 458.921 487.633 520.553 515.957 555.26H530.104C530.104 555.26 518.951 543.045 517.695 514.709C516.438 486.374 523.651 473.957 528.739 464.61C533.827 455.263 538.527 439.375 538.527 439.375L508.201 440.832Z" fill="#666666"/>
<path d="M498.212 328.698C494.458 341.936 493.217 366.412 512.049 376.27L524.66 373.17C524.66 373.17 501.935 361.265 506.805 331.178L498.212 328.698Z" fill="#E8E8E8"/>
<path d="M463.496 321.939L473.284 320.73C473.284 320.73 472.105 361.792 519.556 365.249C555.776 367.884 558.615 435.809 558.615 435.809C546.935 443.668 527.343 446.056 502.229 444.258C502.229 444.258 503.781 395.786 499.841 382.533C499.841 382.502 460.425 370.101 463.496 321.939Z" fill="white"/>
<path d="M451.537 314.468C449.877 316.375 456.795 318.808 463.496 321.908L472.09 320.854C472.149 319.687 472.149 318.518 472.09 317.351C471.981 315.569 471.082 314.545 470.073 316.08C469.065 317.615 464.706 318.142 462.659 316.731C460.611 315.321 453.197 312.546 451.537 314.468Z" fill="#ECB7A1"/>
<path d="M498.212 328.698C495.11 325.598 495.916 325.784 495.916 325.784L505.503 327.954C505.503 327.954 507.612 323.304 509.396 323.149C511.18 322.994 508.062 326.373 508.776 327.613C509.489 328.853 506.806 331.209 506.806 331.209L498.212 328.698Z" fill="#ECB7A1"/>
</g>
<defs>
<clipPath id="clip0_447_6795">
<rect width="694" height="660" fill="white"/>
</clipPath>
</defs>
</svg>
