<svg width="708" height="886" viewBox="0 0 708 886" fill="none" xmlns="http://www.w3.org/2000/svg">
<path d="M0 0H708V886H0V0Z" fill="url(#paint0_linear_2156_42778)"/>
<path d="M140.298 238.959H29.5161C12.784 238.959 12.784 219.397 27.2649 214.157C41.2286 209.228 53.504 220.838 53.504 220.838C53.504 220.838 57.5349 173.266 95.669 178.846C125.741 183.248 123.992 213.832 123.992 213.832C123.992 213.832 130.183 201.245 146.398 206.081C163.313 210.995 161.487 238.959 140.298 238.959Z" fill="#F4F4F4"/>
<path d="M241.756 411.051H147.843C133.682 411.051 133.697 394.48 145.942 390.093C157.776 385.862 168.195 395.72 168.195 395.72C168.195 395.72 171.603 355.418 203.926 360.068C229.42 363.804 227.929 389.737 227.929 389.737C227.929 389.737 233.177 379.057 246.928 383.102C261.272 387.35 259.72 411.051 241.756 411.051Z" fill="#F4F4F4"/>
<path d="M502.017 129.708H425.719C414.219 129.708 414.067 116.377 424.274 113.696C427.339 112.89 430.541 112.79 433.649 113.404C436.757 114.018 439.691 115.33 442.238 117.245C442.238 117.245 445.006 84.4298 471.276 88.3205C491.978 91.4207 490.776 112.425 490.776 112.425C490.776 112.425 495.035 103.744 506.216 107.03C517.867 110.456 516.681 129.708 502.017 129.708Z" fill="#F4F4F4"/>
<path d="M674.176 227.163H528.15C506.14 227.163 505.866 201.633 525.412 196.502C531.278 194.956 537.408 194.765 543.356 195.943C549.303 197.12 554.918 199.636 559.789 203.307C559.789 203.307 565.067 140.574 615.34 147.984C654.98 153.797 652.668 194.115 652.668 194.115C652.668 194.115 660.836 177.513 682.208 183.791C704.522 190.301 702.104 227.163 674.176 227.163Z" fill="#F4F4F4"/>
<path d="M163.815 723.86C199.35 723.86 228.157 717.774 228.157 710.266C228.157 702.758 199.35 696.671 163.815 696.671C128.279 696.671 99.4718 702.758 99.4718 710.266C99.4718 717.774 128.279 723.86 163.815 723.86Z" fill="#331745"/>
<path d="M324.352 747.995C464.268 747.995 577.692 739.722 577.692 729.518C577.692 719.313 464.268 711.041 324.352 711.041C184.436 711.041 71.0119 719.313 71.0119 729.518C71.0119 739.722 184.436 747.995 324.352 747.995Z" fill="#331745"/>
<path d="M350.591 292.53C432.827 292.53 499.492 278.865 499.492 262.009C499.492 245.152 432.827 231.487 350.591 231.487C268.355 231.487 201.69 245.152 201.69 262.009C201.69 278.865 268.355 292.53 350.591 292.53Z" fill="#631753"/>
<path d="M327.166 228.992C328.216 225.771 328.43 222.328 327.787 218.998C327.145 215.668 325.668 212.564 323.5 209.988L357.162 214.855L352.401 249.174C355.404 246.593 359.106 245.003 363.016 244.616C366.926 244.229 370.859 245.063 374.293 247.007C377.727 248.951 380.499 251.914 382.242 255.502C383.985 259.089 384.615 263.132 384.05 267.094C383.485 271.056 381.751 274.748 379.078 277.682C376.406 280.616 372.92 282.652 369.085 283.519C365.25 284.387 361.247 284.046 357.607 282.54C353.967 281.035 350.862 278.437 348.705 275.092L343.914 309.411L267.934 298.39C263.481 297.729 259.466 295.299 256.767 291.63C254.067 287.962 252.903 283.353 253.529 278.812L264.345 201.385L298.189 206.298C295.6 208.026 293.454 210.36 291.931 213.106C290.409 215.853 289.554 218.93 289.438 222.082C289.322 225.234 289.949 228.368 291.266 231.223C292.582 234.077 294.551 236.568 297.007 238.489C299.462 240.409 302.333 241.701 305.38 242.259C308.426 242.816 311.559 242.621 314.517 241.691C317.474 240.762 320.17 239.123 322.379 236.914C324.587 234.704 326.245 231.988 327.212 228.992H327.166Z" fill="#666666"/>
<path d="M371.187 245.407C368.021 244.337 364.636 244.12 361.363 244.777C358.09 245.435 355.039 246.944 352.508 249.159L357.299 214.87L390.977 219.753C388.427 216.698 386.85 212.924 386.455 208.933C386.061 204.943 386.867 200.924 388.766 197.412C390.666 193.899 393.569 191.059 397.091 189.267C400.612 187.476 404.585 186.819 408.482 187.384C412.378 187.948 416.014 189.708 418.906 192.428C421.798 195.148 423.81 198.701 424.673 202.614C425.537 206.527 425.212 210.615 423.741 214.336C422.271 218.056 419.724 221.232 416.44 223.442L450.117 228.341L439.317 305.768C438.677 310.318 436.291 314.422 432.683 317.18C429.075 319.939 424.541 321.125 420.075 320.478L344.02 309.473L348.827 274.983C350.522 277.62 352.813 279.805 355.507 281.356C358.201 282.906 361.22 283.777 364.312 283.895C367.403 284.012 370.478 283.374 373.278 282.033C376.078 280.692 378.523 278.688 380.407 276.187C382.291 273.686 383.56 270.762 384.108 267.659C384.657 264.556 384.468 261.365 383.558 258.351C382.648 255.338 381.043 252.59 378.877 250.338C376.712 248.086 374.049 246.396 371.111 245.407H371.187Z" fill="white"/>
<path d="M343.275 184.116C346.441 185.18 349.822 185.392 353.092 184.732C356.362 184.073 359.41 182.563 361.939 180.35L357.162 214.638L323.5 209.755C326.045 212.809 327.618 216.58 328.01 220.566C328.403 224.553 327.596 228.566 325.697 232.075C323.798 235.583 320.897 238.419 317.379 240.208C313.861 241.997 309.893 242.652 306 242.089C302.108 241.525 298.476 239.768 295.587 237.051C292.697 234.334 290.687 230.785 289.823 226.877C288.959 222.968 289.282 218.885 290.749 215.168C292.216 211.451 294.758 208.276 298.037 206.066L264.36 201.183L275.175 123.756C275.488 121.501 276.235 119.331 277.372 117.37C278.508 115.409 280.013 113.696 281.801 112.328C283.588 110.961 285.622 109.965 287.786 109.399C289.951 108.833 292.204 108.708 294.417 109.03L370.366 120.082L365.544 154.572C363.853 151.926 361.564 149.732 358.87 148.174C356.175 146.615 353.154 145.738 350.058 145.615C346.962 145.493 343.882 146.128 341.077 147.469C338.272 148.809 335.823 150.815 333.936 153.319C332.049 155.823 330.778 158.751 330.231 161.859C329.683 164.966 329.875 168.162 330.79 171.179C331.704 174.195 333.315 176.944 335.488 179.195C337.66 181.447 340.33 183.134 343.275 184.116Z" fill="white"/>
<path d="M383.097 286.02L387.95 304.822L450.117 298.281L444.656 270.782L383.097 286.02Z" fill="#D58136"/>
<path d="M204.717 627.754C238.729 657.671 298.356 644.061 298.356 644.061C298.356 644.061 302.844 581.964 268.832 552.047C234.82 522.13 175.177 535.725 175.177 535.725C175.177 535.725 170.69 597.837 204.717 627.754Z" fill="#331745"/>
<path d="M533.687 562.34C505.622 597.574 446.543 596.086 446.543 596.086C446.543 596.086 432.99 537.476 461.069 502.243C489.149 467.009 548.198 468.497 548.198 468.497C548.198 468.497 561.766 527.106 533.687 562.34Z" fill="#F4F4F4"/>
<path d="M492.526 568.06C464.522 579.221 453.798 619.446 453.798 619.446C453.798 619.446 488.479 641.55 516.468 630.374C544.456 619.198 555.195 578.988 555.195 578.988C555.195 578.988 520.529 556.93 492.526 568.06Z" fill="#331745"/>
<path d="M459.533 508.552L486.122 708.917H264.527C264.527 708.917 272.452 658.399 278.034 615.493C280.362 597.496 282.294 580.848 283.024 569.811C283.024 569.641 283.024 569.486 283.024 569.315C237.892 566.029 221.784 557.829 221.784 557.829V452.717L175.04 439.588C175.04 439.588 196.807 369.833 196.001 353.356C196.001 337.762 203.242 262.908 203.242 262.908C224.142 304.311 510.11 300.978 496.557 255.979C564.596 365.912 477.558 488.85 459.533 508.552Z" fill="#C95194"/>
<path d="M425.262 361.478C427.754 361.168 430.227 360.718 432.67 360.13C435.089 359.572 437.446 358.828 439.926 358.208C441.214 357.867 442.519 357.592 443.835 357.386C445.383 357.139 446.965 357.235 448.474 357.665C450.2 358.19 451.708 359.279 452.764 360.765C453.658 362.053 454.337 363.483 454.772 364.997C455.55 367.639 456.059 370.356 456.293 373.104C456.536 375.708 456.704 378.328 456.78 380.948C456.922 386.195 456.713 391.447 456.156 396.666C455.613 401.901 454.662 407.085 453.312 412.167C451.858 417.394 449.516 422.32 446.391 426.722C444.826 428.891 443.052 430.895 441.097 432.705C439.189 434.506 437.127 436.129 434.937 437.557C430.641 440.363 426.048 442.666 421.247 444.424C425.416 441.624 429.405 438.554 433.187 435.232C436.817 432.002 439.95 428.235 442.481 424.056C444.861 419.882 446.595 415.36 447.623 410.648C447.912 409.485 448.109 408.276 448.353 407.082C448.596 405.889 448.748 404.618 448.916 403.393C449.281 400.928 449.57 398.448 449.783 395.968C450.244 391.012 450.447 386.034 450.391 381.056C450.391 378.561 450.285 376.065 450.117 373.585C450.032 371.221 449.762 368.868 449.311 366.547C449.118 365.577 448.796 364.638 448.353 363.757C448.048 363.069 447.507 362.518 446.832 362.207C445.952 361.831 445.001 361.656 444.048 361.695C442.86 361.669 441.672 361.711 440.489 361.819C435.427 362.516 430.289 362.401 425.262 361.478Z" fill="#631753"/>
<path d="M245.194 357.464C250.237 358.165 255.316 358.558 260.405 358.642C265.231 358.738 270.049 358.186 274.734 356.999C279.307 355.799 283.62 353.738 287.45 350.922C291.454 347.79 295.092 344.201 298.296 340.227C297.163 345.688 294.574 350.725 290.812 354.782C286.875 358.959 281.869 361.928 276.361 363.354C270.967 364.732 265.34 364.87 259.888 363.757C254.6 362.77 249.586 360.622 245.194 357.464Z" fill="#631753"/>
<path d="M221.83 510.195C228.711 512.063 235.768 513.181 242.882 513.527C249.759 513.853 256.644 513.127 263.31 511.373C269.926 509.547 276.208 506.642 281.913 502.77C287.799 498.644 293.298 493.974 298.341 488.819C295.163 495.706 290.615 501.845 284.986 506.847C279.204 511.967 272.353 515.678 264.953 517.697C257.564 519.647 249.851 519.959 242.334 518.612C234.976 517.373 227.976 514.499 221.83 510.195Z" fill="#631753"/>
<path d="M408.439 522.937C379.112 589.854 278.034 615.493 278.034 615.493C280.362 597.496 282.294 580.848 283.024 569.811C346.88 569.16 387.387 541.042 408.439 522.937Z" fill="#631753"/>
<path d="M283.069 569.315C298.431 567.844 313.677 565.311 328.703 561.735C336.156 559.875 343.564 557.86 350.774 555.303C358.001 552.862 365.06 549.931 371.902 546.529C385.501 539.771 398.171 530.935 408.059 519.294L409.002 518.224L409.869 517.093L411.618 514.83C412.782 513.387 413.801 511.829 414.66 510.179C415.515 508.552 416.213 506.844 416.744 505.079C417.261 503.343 417.672 501.313 418.159 499.422C420.121 491.764 422.053 484.091 424.243 476.48C423.437 484.386 422.327 492.214 421.201 500.057C420.897 502.041 420.684 503.901 420.258 506.01C419.839 508.076 419.223 510.095 418.417 512.039C417.608 513.974 416.587 515.809 415.375 517.511L413.687 520.038L412.835 521.293L411.907 522.487C402.172 535.461 388.908 545.367 374.67 552.388C367.531 555.852 360.154 558.784 352.599 561.162C345.075 563.495 337.413 565.344 329.661 566.696C314.294 569.507 298.647 570.387 283.069 569.315Z" fill="#631753"/>
<path d="M304.091 718.249C304.091 721.349 307.301 723.844 311.255 723.844H524.028C524.291 723.813 524.556 723.888 524.767 724.053C524.977 724.218 525.116 724.46 525.153 724.728V730.928C525.109 731.191 524.967 731.427 524.758 731.589C524.55 731.75 524.288 731.824 524.028 731.796H289.884C285.914 731.796 282.704 729.285 282.704 726.185V685.619C282.704 682.519 285.914 680.008 289.884 680.008H524.028C524.291 679.977 524.556 680.052 524.767 680.217C524.977 680.382 525.116 680.624 525.153 680.891V687.092C525.153 687.557 524.651 687.944 524.028 687.944H311.331C307.377 687.944 304.167 690.471 304.167 693.571L304.091 718.249Z" fill="#BE156C"/>
<path d="M302.007 688.022H515.935V723.86H302.007C299.99 723.86 298.055 723.043 296.629 721.59C295.203 720.136 294.402 718.165 294.402 716.109V695.648C294.434 693.614 295.249 691.675 296.672 690.248C298.095 688.821 300.011 688.021 302.007 688.022Z" fill="#CDE4ED"/>
<path d="M394.262 711.568H294.462V714.156H394.262V711.568Z" fill="#CDE4ED"/>
<path d="M458.711 704.453H294.462V707.042H458.711V704.453Z" fill="#CDE4ED"/>
<path d="M501.835 697.958H294.462V700.547H501.835V697.958Z" fill="#CDE4ED"/>
<path d="M482.578 691.013H317.963V693.602H482.578V691.013Z" fill="#CDE4ED"/>
<path d="M487.46 711.568H430.343V714.156H487.46V711.568Z" fill="#CDE4ED"/>
<path d="M529.58 653.114V676.753C529.58 678.551 527.785 680.008 524.089 680.008H286.188C285.594 680.008 285.138 679.791 285.138 679.496V675.869C285.138 675.59 285.594 675.357 286.188 675.357H504.253C507.934 675.357 510.901 673.9 510.901 672.102V657.779C510.901 655.966 507.934 654.509 504.253 654.509H286.188C285.594 654.509 285.138 654.276 285.138 653.997V650.354C285.138 650.075 285.594 649.843 286.188 649.843H524.089C527.785 649.843 529.58 651.315 529.58 653.114Z" fill="#631753"/>
<path d="M524.469 661.066V668.816C524.468 669.254 524.423 669.69 524.332 670.118C524.05 671.586 523.278 672.909 522.146 673.862C521.014 674.814 519.594 675.337 518.126 675.342H293.687V654.509H518.202C519.647 654.514 521.048 655.023 522.171 655.951C523.294 656.878 524.073 658.169 524.378 659.608C524.472 660.088 524.503 660.578 524.469 661.066Z" fill="#CDE4ED"/>
<path d="M524.469 659.624H429.765V662.213H524.469V659.624Z" fill="#CDE4ED"/>
<path d="M524.484 663.763H368.601V666.351H524.484V663.763Z" fill="#CDE4ED"/>
<path d="M524.484 667.545H307.072V670.134H524.484V667.545Z" fill="#CDE4ED"/>
<path d="M502.154 671.591H325.341V674.179H502.154V671.591Z" fill="#CDE4ED"/>
<path d="M395.525 659.624H320.717V662.213H395.525V659.624Z" fill="#CDE4ED"/>
<path d="M256.587 641.488L256.617 670.723L255.142 667.917L253.682 670.723L252.206 667.917L250.746 670.738L249.27 667.917L247.81 670.738L246.335 667.917L244.874 670.738L244.844 641.503L256.587 641.488Z" fill="#A1815D"/>
<path d="M303.3 736.323H289.884C285.914 736.323 282.704 733.812 282.704 730.711V690.083C282.704 686.983 285.914 684.472 289.884 684.472H286.188C285.594 684.472 285.138 684.255 285.138 683.961V680.333C285.138 680.054 285.594 679.822 286.188 679.822H293.793V658.973H286.188C285.594 658.973 285.138 658.74 285.138 658.461V654.865C285.138 654.586 285.594 654.354 286.188 654.354H303.209V736.354L303.3 736.323Z" fill="#CDE4ED"/>
<path d="M294.508 740.369L228.112 740.431L215.806 740.462L215.73 669.994L215.7 643.518L294.386 643.425L294.508 740.369Z" fill="#363636"/>
<path d="M294.352 643.458L215.665 643.542L215.683 661.074L294.37 660.99L294.352 643.458Z" fill="#CDE4ED"/>
<path d="M295.079 641.417L213.791 641.518L213.812 659.049L295.1 658.948L295.079 641.417Z" fill="#666666"/>
<path d="M261.363 641.472L261.394 670.723L259.918 667.901L258.458 670.723L256.982 667.917L255.522 670.723L254.047 667.917L252.571 670.723L251.111 667.917L249.651 670.738L249.62 641.488L261.363 641.472Z" fill="#BE156C"/>
<path d="M228.142 670.01L228.112 740.431L215.806 740.462L215.73 669.994L228.142 670.01Z" fill="#CDE4ED"/>
<path d="M151.92 637.458C153.593 628.405 158.673 619.849 166.72 615.26C171.35 612.383 176.619 610.746 182.037 610.501C186.776 610.525 191.462 611.516 195.819 613.416C203.43 616.524 209.531 622.568 212.794 630.234C215.138 636.688 215.505 643.715 213.844 650.385C212.399 656.865 208.824 663.53 211.182 670.289C211.851 672.211 213.798 674.334 213.205 676.489C212.52 679.047 209.63 679.868 207.592 680.969L200.291 684.922C198.557 685.867 196.047 687.867 193.932 687.061C191.818 686.255 191.194 683.557 189.978 681.914C186.783 677.605 181.186 675.714 176.288 674.52C170.639 673.257 165.403 670.541 161.077 666.63C157.217 662.981 154.346 658.379 152.742 653.268C151.138 648.158 150.854 642.712 151.92 637.458Z" fill="#F0D054"/>
<path d="M199.346 688.603L215.717 679.693L214.852 678.042L198.481 686.953L199.346 688.603Z" fill="#649DE1"/>
<path d="M199.013 695.044C199.057 694.792 199.012 694.533 198.887 694.312C198.762 694.091 198.564 693.922 198.329 693.835H198.176C197.944 693.748 197.748 693.581 197.623 693.363C197.499 693.145 197.452 692.89 197.492 692.641V692.331C197.536 692.073 197.487 691.808 197.352 691.585C197.218 691.362 197.008 691.198 196.762 691.122C196.52 691.044 196.312 690.882 196.176 690.663C196.04 690.445 195.983 690.185 196.016 689.928L196.138 689.091C196.16 688.938 196.217 688.793 196.304 688.666C196.392 688.54 196.507 688.436 196.64 688.363L212.916 679.45C213.052 679.385 213.2 679.351 213.349 679.351C213.499 679.351 213.647 679.385 213.783 679.45L214.528 679.806C214.758 679.92 214.941 680.114 215.044 680.352C215.147 680.591 215.164 680.859 215.091 681.108C215.025 681.36 215.048 681.627 215.157 681.862C215.265 682.098 215.452 682.287 215.684 682.395L215.958 682.519C216.183 682.628 216.365 682.812 216.476 683.039C216.586 683.267 216.618 683.526 216.567 683.774V683.93C216.51 684.18 216.542 684.443 216.656 684.672C216.77 684.901 216.959 685.083 217.19 685.185L217.403 685.278C217.639 685.384 217.831 685.57 217.945 685.806C218.059 686.041 218.088 686.31 218.027 686.565V686.673C217.954 686.931 217.832 687.172 217.667 687.383C217.503 687.593 217.299 687.768 217.069 687.898L201.34 696.501C200.871 696.75 200.324 696.8 199.819 696.64H199.713C199.469 696.553 199.264 696.38 199.133 696.153C199.002 695.926 198.954 695.66 198.998 695.4L199.013 695.044Z" fill="#87C0EC"/>
<path d="M197.553 690.858L197.462 690.75C197.427 690.677 197.421 690.594 197.443 690.517C197.466 690.44 197.516 690.373 197.583 690.331L205.189 686.177C205.26 686.142 205.342 686.136 205.417 686.159C205.493 686.181 205.558 686.232 205.599 686.301C205.62 686.336 205.634 686.375 205.639 686.416C205.644 686.457 205.641 686.498 205.63 686.538C205.618 686.577 205.599 686.614 205.573 686.645C205.546 686.676 205.514 686.702 205.478 686.72L197.872 690.889C197.821 690.912 197.764 690.921 197.709 690.916C197.653 690.91 197.599 690.891 197.553 690.858Z" fill="#649DE1"/>
<path d="M208.52 684.844V684.751C208.499 684.716 208.485 684.677 208.48 684.636C208.475 684.595 208.478 684.554 208.49 684.514C208.501 684.475 208.521 684.438 208.547 684.407C208.573 684.376 208.605 684.35 208.642 684.333L212.84 682.023C212.911 681.988 212.993 681.981 213.069 682.004C213.145 682.027 213.209 682.078 213.251 682.147C213.289 682.219 213.297 682.303 213.274 682.382C213.251 682.46 213.199 682.526 213.129 682.565L208.931 684.875C208.902 684.901 208.868 684.92 208.832 684.933C208.796 684.945 208.757 684.95 208.719 684.947C208.681 684.944 208.643 684.934 208.609 684.916C208.575 684.898 208.545 684.874 208.52 684.844Z" fill="#649DE1"/>
<path d="M203.835 689.851C203.813 689.844 203.794 689.832 203.778 689.816C203.762 689.8 203.75 689.78 203.744 689.758C203.709 689.685 203.703 689.602 203.725 689.525C203.748 689.447 203.798 689.381 203.865 689.339L214.863 683.325C214.897 683.304 214.936 683.29 214.976 683.284C215.016 683.279 215.057 683.283 215.095 683.294C215.134 683.306 215.17 683.326 215.201 683.352C215.231 683.379 215.256 683.412 215.274 683.449C215.295 683.484 215.308 683.523 215.313 683.564C215.318 683.605 215.315 683.646 215.304 683.686C215.292 683.725 215.273 683.762 215.247 683.793C215.221 683.824 215.188 683.85 215.152 683.867L204.154 689.882C204.105 689.912 204.047 689.925 203.99 689.919C203.932 689.913 203.878 689.89 203.835 689.851Z" fill="#649DE1"/>
<path d="M198.526 692.765L198.435 692.672C198.401 692.599 198.394 692.516 198.417 692.439C198.439 692.362 198.489 692.295 198.557 692.253L201.812 690.517C201.883 690.483 201.965 690.476 202.041 690.499C202.116 690.522 202.181 690.573 202.223 690.641C202.241 690.678 202.252 690.718 202.255 690.759C202.258 690.8 202.253 690.841 202.24 690.88C202.227 690.919 202.207 690.955 202.18 690.986C202.154 691.017 202.122 691.042 202.086 691.06L198.846 692.843C198.791 692.867 198.731 692.872 198.673 692.858C198.616 692.844 198.564 692.811 198.526 692.765Z" fill="#649DE1"/>
<path d="M208.839 689.556L208.763 689.463C208.725 689.391 208.717 689.307 208.74 689.229C208.762 689.15 208.815 689.084 208.885 689.045L214.772 685.821C214.842 685.782 214.925 685.773 215.002 685.796C215.079 685.82 215.144 685.873 215.182 685.945C215.217 686.017 215.223 686.1 215.201 686.178C215.178 686.255 215.128 686.321 215.061 686.363L209.174 689.587C209.12 689.61 209.061 689.619 209.003 689.613C208.945 689.608 208.889 689.589 208.839 689.556Z" fill="#649DE1"/>
<path d="M202.633 692.951C202.633 692.951 202.633 692.951 202.542 692.858C202.508 692.785 202.501 692.702 202.524 692.625C202.546 692.548 202.596 692.482 202.664 692.44L205.037 691.153C205.071 691.132 205.109 691.118 205.15 691.112C205.19 691.107 205.23 691.11 205.269 691.122C205.308 691.134 205.343 691.154 205.374 691.18C205.405 691.207 205.43 691.24 205.447 691.277C205.481 691.35 205.488 691.433 205.465 691.51C205.443 691.587 205.393 691.653 205.326 691.695L202.953 692.982C202.903 693.012 202.845 693.025 202.788 693.019C202.731 693.014 202.676 692.99 202.633 692.951Z" fill="#649DE1"/>
<path d="M206.619 685.867L206.527 685.774C206.493 685.701 206.487 685.618 206.509 685.541C206.532 685.464 206.581 685.398 206.649 685.356L207.501 684.891C207.572 684.856 207.654 684.849 207.73 684.872C207.805 684.895 207.87 684.946 207.911 685.015C207.932 685.05 207.946 685.089 207.951 685.13C207.956 685.17 207.953 685.212 207.942 685.251C207.93 685.291 207.911 685.327 207.885 685.359C207.858 685.39 207.826 685.415 207.79 685.433L206.938 685.898C206.888 685.928 206.831 685.941 206.773 685.935C206.716 685.93 206.662 685.906 206.619 685.867Z" fill="#649DE1"/>
<path d="M151.92 637.458C153.593 628.405 158.673 619.849 166.72 615.26C167.633 614.733 168.576 614.237 169.549 613.71C156.97 621.647 151.767 639.333 159.51 652.959C166.005 664.414 175.968 669.669 190.206 668.459C191.599 668.209 193.033 668.358 194.347 668.892C195.661 669.426 196.803 670.323 197.644 671.482C199.378 673.9 199.956 676.985 201.857 679.233C202.122 679.608 202.486 679.898 202.907 680.07C203.313 680.163 203.734 680.163 204.139 680.07C207.499 679.483 210.648 678.002 213.266 675.776C213.253 675.996 213.217 676.214 213.159 676.427C212.475 678.985 209.585 679.806 207.546 680.907L200.291 684.922C198.557 685.867 196.047 687.867 193.932 687.061C191.818 686.255 191.194 683.557 189.978 681.914C186.783 677.605 181.186 675.714 176.288 674.52C170.639 673.257 165.403 670.541 161.077 666.63C157.217 662.981 154.346 658.379 152.742 653.268C151.138 648.158 150.854 642.712 151.92 637.458Z" fill="#F0D054"/>
<path d="M154.761 671.387L154.678 740.537L223.934 740.623L224.017 671.473L154.761 671.387Z" fill="#666666"/>
<path d="M432.731 261.141C399.692 263.636 357.147 293.6 379.888 352.379C380.101 357.541 383.523 360.843 386.611 359.479C389.699 358.115 385.805 348.721 385.805 348.721C386.322 303.04 395.707 294.065 413.185 292.236L453.905 287.492C464.142 287.849 483.277 292.949 490.001 328.709L500.359 329.453C498.275 303.226 486.913 257.002 432.731 261.141Z" fill="#5E749C"/>
<path d="M432.153 255.808C399.115 258.289 356.569 288.267 379.31 347.032L385.227 343.389C385.744 297.692 395.129 288.732 412.531 286.903L453.312 282.145C463.564 282.501 483.384 289.461 490.122 325.222L499.781 324.09C497.697 297.956 486.335 251.732 432.153 255.808Z" fill="#F4F4F4"/>
<path d="M425.521 257.56L421.855 269.062C421.855 269.062 423.118 275.154 429.035 274.348C434.952 273.542 435.439 270.658 435.439 270.658L434.83 258.01L425.521 257.56Z" fill="#ECB7A1"/>
<path d="M449.63 245.64C445.174 256.304 443.044 259.715 435.94 262.055C426.738 265.155 415.436 259.823 418.6 243.284C421.171 229.798 427.453 231.1 433.446 230.883C439.439 230.666 454.452 234.03 449.63 245.64Z" fill="#ECB7A1"/>
<path d="M426.631 240.183C425.822 239.947 424.959 239.977 424.167 240.269C423.375 240.561 422.694 241.101 422.22 241.811C421.684 242.504 421.335 243.328 421.21 244.202C421.084 245.075 421.186 245.966 421.505 246.787C420.371 246.984 419.359 247.632 418.692 248.587C418.025 249.543 417.756 250.73 417.946 251.887C415.984 248.352 416.425 244.415 415.664 240.664C414.904 236.913 414.904 232.743 416.987 229.565C417.872 228.274 418.993 227.168 420.288 226.31C422.719 224.645 425.497 223.582 428.402 223.206C431.307 222.829 434.258 223.149 437.02 224.14C439.425 225.321 442.186 225.499 444.717 224.636C451.714 222.032 456.46 226.512 452.657 231.642C454.143 231.811 455.507 232.561 456.46 233.735C456.576 233.89 456.651 234.072 456.678 234.265C456.705 234.458 456.682 234.654 456.612 234.836C456.468 235.06 456.253 235.229 456.004 235.316C454.837 235.877 453.551 236.133 452.262 236.06C452.779 236.432 455.471 236.277 456.445 237.765C459.061 241.734 450.361 240.586 448.992 240.307C450.513 240.416 454.726 243.129 453.722 245.438C453.524 245.888 448.642 249.593 442.42 243.718C441.025 242.25 439.228 241.246 437.264 240.834C435.709 240.766 434.172 241.194 432.868 242.059C431.864 242.571 429.354 244.539 428.487 243.609C427.62 242.679 428.457 240.85 426.631 240.183Z" fill="#1B2841"/>
<path d="M491.157 325.113C490.259 330.399 488.845 331.066 490.7 331.686C492.556 332.306 493.743 329.267 493.743 329.267L502.078 329.981C502.078 329.981 499.644 324.788 498.291 324.292C496.937 323.796 491.157 325.113 491.157 325.113Z" fill="#ECB7A1"/>
<path d="M385.227 343.389C386.596 345.962 386.885 345.947 388.725 349.016C392.254 354.891 386.687 365.447 381.378 355.216C380.311 352.596 379.615 349.836 379.31 347.016L385.227 343.389Z" fill="#ECB7A1"/>
<path d="M489.179 343.001C490.275 340.17 490.634 337.097 490.221 334.082C489.808 331.068 488.637 328.213 486.821 325.795L516.681 331.918L510.688 362.362C513.5 360.204 516.89 358.968 520.407 358.819C523.925 358.67 527.403 359.615 530.382 361.528C533.36 363.44 535.697 366.231 537.083 369.529C538.469 372.827 538.837 376.476 538.14 379.993C537.443 383.509 535.713 386.727 533.18 389.218C530.646 391.709 527.43 393.356 523.956 393.941C520.483 394.525 516.917 394.02 513.732 392.491C510.547 390.962 507.894 388.482 506.124 385.381L500.116 415.825L435.21 402.525C430.587 401.579 426.523 398.8 423.91 394.801C421.297 390.801 420.35 385.907 421.277 381.196L434.328 315.038L464.355 321.238C461.956 322.65 459.924 324.627 458.428 327.003C456.932 329.379 456.016 332.085 455.756 334.896C455.497 337.706 455.901 340.539 456.936 343.158C457.97 345.777 459.605 348.105 461.703 349.949C463.801 351.792 466.302 353.097 468.996 353.754C471.69 354.411 474.499 354.401 477.189 353.726C479.879 353.05 482.371 351.728 484.457 349.871C486.543 348.013 488.162 345.674 489.179 343.048V343.001Z" fill="#331745"/>
<path d="M520.21 446.796L516.529 454.345L525.534 458.096L526.492 449.4L520.21 446.796Z" fill="#ECB7A1"/>
<path d="M525.655 422.196C505.212 431.264 513.593 453.198 526.036 450.656C532.12 449.4 535.162 429.528 535.162 429.528L525.655 422.196Z" fill="#ECB7A1"/>
<path d="M532.44 419.065C531.875 417.732 531.053 416.53 530.021 415.53C529.5 415.035 528.824 414.742 528.112 414.702C527.401 414.663 526.698 414.879 526.127 415.313C524.758 416.615 525.549 419.065 526.948 420.336C525.747 420.491 524.332 419.638 523.45 420.491C522.568 421.343 523.009 422.242 523.45 423.095C524.365 425.096 525.815 426.793 527.633 427.993C526.598 428.582 525.397 429.745 526.02 430.783C526.188 431.078 526.477 431.264 526.659 431.558C527.055 432.225 526.659 433.108 526.264 433.759C525.622 434.829 524.927 435.864 524.18 436.86C524.389 436.653 524.643 436.501 524.921 436.414C525.199 436.327 525.493 436.308 525.78 436.36C526.066 436.411 526.337 436.531 526.569 436.71C526.801 436.888 526.988 437.12 527.116 437.387C527.375 438.293 527.27 439.267 526.826 440.096C526.381 440.924 525.632 441.538 524.743 441.804C524.18 441.944 521.701 449.741 523.632 451.276C526.02 453.167 534.143 451.524 535.314 449.384C535.854 450.072 536.555 450.61 537.353 450.949C538.15 451.288 539.019 451.416 539.878 451.322C540.296 451.246 540.692 451.074 541.036 450.819C541.38 450.565 541.662 450.234 541.863 449.852C542.063 449.471 542.176 449.047 542.194 448.615C542.211 448.182 542.131 447.751 541.962 447.354C542.888 447.704 543.898 447.753 544.853 447.493C545.808 447.234 546.66 446.679 547.292 445.905C547.924 445.132 548.306 444.177 548.384 443.174C548.461 442.17 548.232 441.166 547.727 440.301C548.731 439.991 548.928 438.611 548.67 437.573C548.397 436.526 547.865 435.568 547.125 434.792C546.384 434.016 545.46 433.446 544.441 433.139C544.958 433.094 545.44 432.854 545.793 432.468C546.147 432.082 546.348 431.575 546.358 431.047C546.33 429.982 545.925 428.963 545.217 428.179C544.344 427.141 543.268 426.301 542.058 425.711C540.848 425.121 539.53 424.795 538.189 424.753C535.284 424.443 533.717 421.467 532.44 419.065Z" fill="#243F5E"/>
<path d="M513.289 642.03C513.289 642.03 501.333 647.874 499.72 649.703C499.72 649.703 523.252 650.788 525.093 649.703C526.933 648.618 521.335 642.061 521.335 642.061L513.289 642.03Z" fill="#1B2841"/>
<path d="M557.751 635.411C557.751 635.411 547.24 643.658 546.038 645.782C546.038 645.782 570.847 642.03 570.847 640.372C570.847 638.713 565.615 633.706 565.615 633.706L557.751 635.411Z" fill="#1B2841"/>
<path d="M524.849 529.044C524.408 531.524 508.041 597.388 554.891 636.884L568.459 633.784C568.459 633.784 552.67 618.686 545.217 591.528C538.174 565.843 543.772 563.317 548 549.164C552.67 533.508 549.187 522.13 549.187 522.13L524.849 529.044Z" fill="#494949"/>
<path d="M502.458 528.842C495.035 546.932 482.289 608.564 510.064 643.27H523.936C523.936 643.27 513 631.056 511.768 602.72C510.536 574.384 517.609 561.968 522.598 552.621C527.587 543.274 532.196 527.385 532.196 527.385L502.458 528.842Z" fill="#666666"/>
<path d="M492.663 416.708C488.981 429.946 487.765 454.422 506.231 464.281L518.597 461.181C518.597 461.181 496.313 449.276 501.09 419.189L492.663 416.708Z" fill="#E8E8E8"/>
<path d="M458.62 409.95L468.218 408.741C468.218 408.741 467.062 449.803 513.593 453.26C549.111 455.895 551.894 523.82 551.894 523.82C540.44 531.679 521.229 534.066 496.602 532.268C496.602 532.268 498.123 483.797 494.26 470.543C494.26 470.512 455.608 458.112 458.62 409.95Z" fill="white"/>
<path d="M446.893 402.479C445.265 404.385 452.049 406.819 458.62 409.919L467.047 408.865C467.105 407.698 467.105 406.529 467.047 405.362C466.941 403.579 466.058 402.556 465.07 404.091C464.081 405.625 459.807 406.152 457.799 404.742C455.791 403.331 448.52 400.556 446.893 402.479Z" fill="#ECB7A1"/>
<path d="M492.663 416.708C489.62 413.608 490.411 413.794 490.411 413.794L499.812 415.964C499.812 415.964 501.881 411.314 503.63 411.159C505.379 411.004 502.322 414.383 503.021 415.623C503.721 416.863 501.09 419.22 501.09 419.22L492.663 416.708Z" fill="#ECB7A1"/>
<defs>
<linearGradient id="paint0_linear_2156_42778" x1="708" y1="443" x2="90.9849" y2="206.063" gradientUnits="userSpaceOnUse">
<stop stop-color="#DE0D6F"/>
<stop offset="1" stop-color="#731054"/>
</linearGradient>
</defs>
</svg>
