<svg width="1440" height="1013" fill="none" xmlns="http://www.w3.org/2000/svg"><path opacity=".4" fill-rule="evenodd" clip-rule="evenodd" d="M-233.572 1326.86c-1.133-3.05-.754-6.6 1.016-9.49l48.874-79.86c50.793-86.92 153.284-258.305 268.433-395.506C199.9 704.803 328.611 604.232 476.31 554.942c147.699-49.289 315.289-44.855 501.866 10.862 187.484 58.158 393.954 167.598 509.104 30.397C1602.42 459 1627.16 77.6 1768.53 11.216c141.37-66.383 399.37 182.251 528.83 307.789l127.93 124.059c1 .974 1.78 2.181 2.29 3.538l34.64 93.569c1.92 5.179-.58 11.28-5.58 13.628l-61.63 28.941c-70.69 33.192-212.06 99.575-353.43 165.958l-424.11 199.15c-141.36 66.382-282.73 132.772-424.1 199.152s-282.743 132.77-424.113 199.15c-141.369 66.38-282.739 132.77-424.108 199.15-141.37 66.38-282.74 132.77-353.424 165.96l-61.633 28.94c-5 2.35-10.606.05-12.524-5.13l-151.14-408.21Z" fill="url(#a)" fill-opacity=".2"/><defs><linearGradient id="a" x1="1983.91" y1="558.672" x2="1359.65" y2="-147.023" gradientUnits="userSpaceOnUse"><stop stop-color="#DE0D6F"/><stop offset="1" stop-color="#731054"/></linearGradient></defs></svg>