<svg width="240" height="344" fill="none" xmlns="http://www.w3.org/2000/svg"><rect x=".5" y=".5" width="239" height="343" rx="7.5" fill="#fff"/><mask id="a" fill="#fff"><path d="M0 0h240v32H0V0Z"/></mask><path d="M0 0h240v32H0V0Z" fill="#fff"/><path d="M122.906 12.295c.393-.461.799-.889 1.219-1.282.42-.394.84-.733 1.26-1.018.42-.285.833-.502 1.239-.651.42-.163.82-.245 1.199-.245.298 0 .589.055.874.163.298.095.562.251.792.468.23.204.413.468.549.794.135.326.203.713.203 1.16 0 .652-.088 1.296-.264 1.934-.176.625-.4 1.235-.671 1.832a23.194 23.194 0 0 1-.873 1.73c-.298.557-.583 1.093-.854 1.609-.271.502-.494.984-.67 1.445-.177.448-.265.862-.265 1.242 0 .298.075.515.224.651a.833.833 0 0 0 .508.183c.352 0 .765-.203 1.239-.61.488-.407.996-.93 1.524-1.568a30.905 30.905 0 0 0 1.585-2.096c.542-.774 1.057-1.527 1.545-2.26l.731.57c-.176.285-.406.665-.691 1.14-.271.461-.589.963-.955 1.506a35.33 35.33 0 0 1-1.199 1.629 13.188 13.188 0 0 1-1.381 1.486 7.805 7.805 0 0 1-1.484 1.079c-.514.271-1.029.407-1.544.407-.284 0-.562-.04-.833-.122a1.933 1.933 0 0 1-.691-.387 2.047 2.047 0 0 1-.488-.733c-.122-.298-.182-.665-.182-1.1 0-.596.101-1.18.304-1.75.204-.57.461-1.133.772-1.69.312-.556.644-1.105.996-1.648.366-.557.705-1.106 1.016-1.649.312-.543.569-1.086.772-1.628.203-.557.305-1.12.305-1.69 0-.285-.054-.509-.163-.672-.108-.176-.311-.264-.609-.264-.474 0-.975.196-1.504.59-.528.38-1.077.896-1.646 1.547a24.808 24.808 0 0 0-1.747 2.28 59.487 59.487 0 0 0-1.788 2.728c-.583.95-1.165 1.92-1.748 2.91l-1.646 2.83-1.706-.896c.718-1.479 1.388-2.802 2.011-3.97a116.118 116.118 0 0 0 1.666-3.154c.475-.95.847-1.812 1.118-2.585.271-.788.406-1.527.406-2.22a2.08 2.08 0 0 0-.04-.407.907.907 0 0 0-.163-.386.895.895 0 0 0-.325-.265c-.122-.081-.284-.122-.488-.122-.46 0-.927.217-1.402.651-.474.421-.975 1.005-1.503 1.751a42.777 42.777 0 0 0-1.707 2.585c-.596.977-1.246 2.015-1.951 3.115a86.388 86.388 0 0 1-2.255 3.4A38.563 38.563 0 0 1 108.865 24l-1.402-.936a615.3 615.3 0 0 0 1.361-2.056c.488-.733.962-1.473 1.423-2.22.474-.746.921-1.485 1.341-2.218.433-.746.813-1.452 1.138-2.117.325-.665.582-1.276.772-1.832.189-.556.284-1.032.284-1.425 0-.461-.115-.794-.345-.998-.23-.203-.528-.305-.894-.305-.434 0-.86.156-1.28.468-.407.312-.84.753-1.301 1.323-.447.57-.934 1.256-1.463 2.057-.514.787-1.104 1.655-1.768 2.605l-.731-.57c.718-1.14 1.361-2.144 1.93-3.013.583-.868 1.131-1.594 1.646-2.178.515-.583 1.023-1.024 1.524-1.323a3.265 3.265 0 0 1 1.666-.448c.176 0 .4.034.671.102.284.068.562.19.833.366.271.177.508.421.711.733.217.312.346.713.386 1.201.759-.977 1.551-1.757 2.378-2.34.826-.584 1.605-.876 2.336-.876.529 0 .976.109 1.341.326.366.203.657.475.874.814.23.34.393.726.488 1.16.108.42.162.848.162 1.283 0 .108-.006.224-.02.346 0 .122-.007.244-.02.366Z" fill="#731054"/><path d="M240 31H0v2h240v-2Z" fill="#731054" mask="url(#a)"/><path d="M58.492 215.096c-.57 0-1.064-.101-1.48-.304a2.32 2.32 0 0 1-.952-.856 2.397 2.397 0 0 1-.336-1.272c0-.475.083-.917.248-1.328.171-.411.408-.765.712-1.064.31-.304.675-.541 1.096-.712a3.797 3.797 0 0 1 1.424-.256c.502 0 .944.085 1.328.256.384.171.675.416.872.736l-.936.768a1.43 1.43 0 0 0-.552-.488 1.77 1.77 0 0 0-.8-.168c-.314 0-.6.056-.856.168a1.87 1.87 0 0 0-.664.464c-.18.197-.32.429-.416.696a2.484 2.484 0 0 0-.144.848c0 .283.062.531.184.744.123.208.302.371.536.488.235.117.518.176.848.176.288 0 .558-.051.808-.152.251-.107.478-.272.68-.496l.768.784a2.584 2.584 0 0 1-1.048.744c-.4.149-.84.224-1.32.224Zm6.204-4.464c.362 0 .672.077.928.232.256.149.437.371.544.664.112.293.125.656.04 1.088l-.48 2.384H64.48l.464-2.304c.064-.315.037-.557-.08-.728-.112-.171-.32-.256-.624-.256-.315 0-.58.091-.792.272-.208.181-.352.459-.432.832L62.584 215h-1.248l1.184-5.936h1.248l-.568 2.848-.248-.368c.208-.315.464-.544.768-.688.309-.149.634-.224.976-.224Zm4.434 4.432c-.437 0-.818-.08-1.143-.24a1.828 1.828 0 0 1-.76-.672 1.91 1.91 0 0 1-.264-1.016 2.438 2.438 0 0 1 1.256-2.176 2.722 2.722 0 0 1 1.344-.328c.442 0 .823.08 1.144.24.325.16.576.384.752.672.18.283.272.621.272 1.016a2.434 2.434 0 0 1-1.256 2.176c-.39.219-.838.328-1.345.328Zm.08-1.024c.246 0 .462-.059.649-.176a1.25 1.25 0 0 0 .448-.504c.106-.213.16-.461.16-.744 0-.288-.086-.52-.257-.696-.17-.176-.41-.264-.72-.264a1.19 1.19 0 0 0-.655.184 1.265 1.265 0 0 0-.448.496 1.64 1.64 0 0 0-.16.744c0 .293.085.528.255.704.171.171.414.256.728.256Zm5.155 1.024c-.438 0-.819-.08-1.144-.24a1.83 1.83 0 0 1-.76-.672 1.91 1.91 0 0 1-.264-1.016 2.438 2.438 0 0 1 1.256-2.176 2.723 2.723 0 0 1 1.344-.328c.443 0 .824.08 1.144.24.325.16.576.384.752.672.181.283.272.621.272 1.016a2.433 2.433 0 0 1-1.256 2.176c-.39.219-.838.328-1.344.328Zm.08-1.024c.245 0 .461-.059.648-.176a1.25 1.25 0 0 0 .448-.504 1.64 1.64 0 0 0 .16-.744c0-.288-.085-.52-.256-.696-.17-.176-.41-.264-.72-.264a1.19 1.19 0 0 0-.656.184 1.266 1.266 0 0 0-.448.496c-.107.213-.16.461-.16.744 0 .293.085.528.256.704.17.171.413.256.728.256Zm4.474 1.024c-.378 0-.736-.043-1.072-.128-.33-.085-.586-.192-.768-.32l.48-.904c.187.123.414.221.68.296.272.075.544.112.816.112.294 0 .507-.037.64-.112.134-.075.2-.176.2-.304 0-.101-.056-.176-.168-.224a1.758 1.758 0 0 0-.424-.128c-.17-.032-.354-.069-.552-.112a3.172 3.172 0 0 1-.552-.176 1.143 1.143 0 0 1-.424-.336c-.106-.149-.16-.344-.16-.584 0-.325.09-.6.272-.824a1.74 1.74 0 0 1 .768-.512c.33-.117.704-.176 1.12-.176.299 0 .59.032.872.096.283.064.523.152.72.264l-.448.912a1.84 1.84 0 0 0-.64-.256 2.946 2.946 0 0 0-.632-.072c-.293 0-.506.043-.64.128-.128.08-.192.179-.192.296 0 .101.054.181.16.24.112.053.254.099.424.136.17.032.355.069.552.112.198.037.382.096.552.176.17.075.31.184.416.328.112.139.168.328.168.568 0 .325-.096.603-.288.832a1.685 1.685 0 0 1-.768.504 3.407 3.407 0 0 1-1.112.168Zm4.97 0c-.448 0-.837-.08-1.168-.24a1.83 1.83 0 0 1-.76-.672 1.868 1.868 0 0 1-.272-1.016c0-.48.107-.907.32-1.28.219-.379.518-.677.896-.896a2.617 2.617 0 0 1 1.32-.328c.422 0 .784.08 1.088.24.304.155.539.373.704.656.17.277.256.611.256 1 0 .112-.008.224-.024.336-.01.112-.026.219-.048.32h-3.56l.128-.728h2.848l-.512.224c.043-.24.03-.44-.04-.6a.746.746 0 0 0-.336-.376 1.085 1.085 0 0 0-.56-.136c-.272 0-.504.067-.696.2a1.189 1.189 0 0 0-.424.536 1.991 1.991 0 0 0-.144.776c0 .331.09.579.272.744.187.16.467.24.84.24.219 0 .43-.035.632-.104a1.5 1.5 0 0 0 .52-.296l.52.824c-.25.197-.533.344-.848.44-.31.091-.626.136-.952.136Zm6.945 0c-.33 0-.637-.075-.92-.224a1.768 1.768 0 0 1-.68-.664c-.17-.288-.256-.635-.256-1.04 0-.363.059-.696.176-1 .123-.304.294-.568.512-.792a2.33 2.33 0 0 1 .76-.52c.288-.128.598-.192.928-.192.358 0 .664.067.92.2s.446.341.568.624c.128.277.174.637.136 1.08a3.54 3.54 0 0 1-.312 1.336 2.148 2.148 0 0 1-.736.88c-.304.208-.67.312-1.096.312Zm.384-1.032c.246 0 .462-.059.648-.176a1.26 1.26 0 0 0 .448-.496c.112-.213.168-.461.168-.744 0-.293-.088-.525-.264-.696-.17-.171-.41-.256-.72-.256a1.244 1.244 0 0 0-1.104.68c-.106.208-.16.453-.16.736 0 .293.086.525.256.696.176.171.419.256.728.256Zm.856.968.168-.856.28-1.28.168-1.28.176-.888h1.248L93.258 215h-1.184Zm4.75 0 .895-4.456c.096-.469.299-.843.608-1.12.315-.283.736-.424 1.264-.424.198 0 .382.021.552.064.171.037.318.096.44.176l-.488.896a.841.841 0 0 0-.496-.152c-.192 0-.341.053-.448.16-.106.101-.184.264-.232.488l-.088.4-.064.504L98.08 215h-1.256Zm-.017-3.248.192-.96h2.984l-.192.96h-2.984ZM99.84 215l.856-4.304h1.24l-.856 4.304h-1.24Zm1.688-4.904a.75.75 0 0 1-.528-.184.621.621 0 0 1-.2-.464c0-.213.075-.389.224-.528a.846.846 0 0 1 .6-.216c.219 0 .395.061.528.184a.552.552 0 0 1 .208.44.73.73 0 0 1-.232.56c-.149.139-.349.208-.6.208Zm.715 4.904 1.184-5.936h1.248L103.49 215h-1.248Zm4.694.064c-.448 0-.837-.08-1.168-.24a1.829 1.829 0 0 1-.76-.672 1.87 1.87 0 0 1-.272-1.016c0-.48.107-.907.32-1.28.219-.379.517-.677.896-.896a2.617 2.617 0 0 1 1.32-.328c.421 0 .784.08 1.088.24.304.155.539.373.704.656.171.277.256.611.256 1 0 .112-.008.224-.024.336a3.03 3.03 0 0 1-.048.32h-3.56l.128-.728h2.848l-.512.224c.043-.24.029-.44-.04-.6a.744.744 0 0 0-.336-.376 1.086 1.086 0 0 0-.56-.136c-.272 0-.504.067-.696.2a1.186 1.186 0 0 0-.424.536 1.991 1.991 0 0 0-.144.776c0 .331.091.579.272.744.187.16.467.24.84.24.219 0 .429-.035.632-.104.203-.069.376-.168.52-.296l.52.824a2.576 2.576 0 0 1-.848.44 3.355 3.355 0 0 1-.952.136Zm5.145-.064.896-4.456c.096-.469.299-.843.608-1.12.315-.283.736-.424 1.264-.424.197 0 .381.021.552.064.171.037.317.096.44.176l-.488.896a.842.842 0 0 0-.496-.152c-.192 0-.341.053-.448.16-.107.101-.184.264-.232.488l-.088.4-.064.504-.688 3.464h-1.256Zm-.016-3.248.192-.96h2.984l-.192.96h-2.984Zm3.036 3.248.856-4.304h1.184l-.248 1.224-.112-.352c.192-.347.443-.589.752-.728.31-.139.68-.208 1.112-.208l-.224 1.152a1.632 1.632 0 0 0-.152-.008 1.158 1.158 0 0 0-.136-.008c-.368 0-.669.091-.904.272-.229.181-.384.475-.464.88l-.416 2.08h-1.248Zm5.631.064c-.437 0-.819-.08-1.144-.24a1.829 1.829 0 0 1-.76-.672 1.91 1.91 0 0 1-.264-1.016 2.438 2.438 0 0 1 1.256-2.176 2.724 2.724 0 0 1 1.344-.328c.443 0 .824.08 1.144.24.325.16.576.384.752.672.181.283.272.621.272 1.016 0 .475-.112.901-.336 1.28a2.436 2.436 0 0 1-.92.896c-.389.219-.837.328-1.344.328Zm.08-1.024c.245 0 .461-.059.648-.176.192-.123.341-.291.448-.504.107-.213.16-.461.16-.744 0-.288-.085-.52-.256-.696-.171-.176-.411-.264-.72-.264a1.19 1.19 0 0 0-.656.184 1.263 1.263 0 0 0-.448.496c-.107.213-.16.461-.16.744 0 .293.085.528.256.704.171.171.413.256.728.256Zm9.162-3.408c.363 0 .67.077.92.232.251.149.43.371.536.664.107.293.115.656.024 1.088l-.472 2.384h-1.248l.456-2.296c.07-.32.048-.565-.064-.736-.112-.171-.306-.256-.584-.256-.293 0-.536.088-.728.264-.192.171-.325.443-.4.816l-.44 2.208h-1.248l.456-2.296c.064-.32.04-.565-.072-.736-.106-.171-.298-.256-.576-.256-.293 0-.536.088-.728.264-.192.171-.328.448-.408.832l-.432 2.192h-1.248l.856-4.304h1.184l-.224 1.096-.192-.248c.198-.309.443-.539.736-.688.294-.149.606-.224.936-.224.267 0 .507.048.72.144a1.316 1.316 0 0 1 .76 1.136l-.48-.12c.214-.379.486-.667.816-.864a2.221 2.221 0 0 1 1.144-.296Zm4.697 5.984c-.219 0-.435-.035-.648-.104a1.437 1.437 0 0 1-.52-.272l.576-.896a1.002 1.002 0 0 0 .688.264c.16 0 .298-.04.416-.12.122-.08.242-.216.36-.408l.344-.544.112-.128 2.272-3.712h1.232l-2.864 4.592a4.45 4.45 0 0 1-.616.792 1.67 1.67 0 0 1-.616.416c-.214.08-.459.12-.736.12Zm.952-1.448-1.032-4.472h1.248l.784 3.6-1 .872Zm5.664-.104c-.438 0-.819-.08-1.144-.24a1.823 1.823 0 0 1-.76-.672 1.91 1.91 0 0 1-.264-1.016 2.438 2.438 0 0 1 1.256-2.176 2.72 2.72 0 0 1 1.344-.328c.442 0 .824.08 1.144.24.325.16.576.384.752.672.181.283.272.621.272 1.016 0 .475-.112.901-.336 1.28a2.436 2.436 0 0 1-.92.896c-.39.219-.838.328-1.344.328Zm.08-1.024c.245 0 .461-.059.648-.176.192-.123.341-.291.448-.504a1.65 1.65 0 0 0 .16-.744c0-.288-.086-.52-.256-.696-.171-.176-.411-.264-.72-.264-.246 0-.464.061-.656.184a1.263 1.263 0 0 0-.448.496c-.107.213-.16.461-.16.744 0 .293.085.528.256.704.17.171.413.256.728.256Zm4.746 1.024c-.352 0-.656-.075-.912-.224a1.267 1.267 0 0 1-.544-.672c-.107-.293-.117-.656-.032-1.088l.472-2.384h1.248l-.456 2.304c-.064.315-.04.557.072.728.117.171.323.256.616.256.309 0 .568-.091.776-.272.213-.181.355-.459.424-.832l.44-2.184h1.248l-.856 4.304h-1.184l.24-1.216.176.368a1.891 1.891 0 0 1-.76.696 2.234 2.234 0 0 1-.968.216Zm3.652-.064.856-4.304h1.184l-.248 1.224-.112-.352c.192-.347.443-.589.752-.728.31-.139.68-.208 1.112-.208l-.224 1.152a1.632 1.632 0 0 0-.152-.008 1.158 1.158 0 0 0-.136-.008c-.368 0-.669.091-.904.272-.229.181-.384.475-.464.88l-.416 2.08h-1.248Zm7.671.064c-.33 0-.637-.075-.92-.224a1.776 1.776 0 0 1-.68-.664c-.17-.288-.256-.635-.256-1.04 0-.363.059-.696.176-1 .123-.304.294-.568.512-.792.219-.224.472-.397.76-.52.288-.128.598-.192.928-.192.336 0 .627.059.872.176.246.117.435.299.568.544.139.24.208.544.208.912 0 .395-.048.763-.144 1.104-.09.336-.229.632-.416.888a2.027 2.027 0 0 1-.688.592 1.903 1.903 0 0 1-.92.216Zm.384-1.032c.246 0 .462-.059.648-.176.192-.123.342-.288.448-.496.112-.213.168-.461.168-.744 0-.293-.088-.525-.264-.696-.17-.171-.41-.256-.72-.256a1.244 1.244 0 0 0-1.104.68 1.6 1.6 0 0 0-.16.736c0 .293.086.525.256.696.176.171.419.256.728.256Zm.848.968.176-.856.272-1.28.168-1.28.504-2.52h1.248L159.852 215h-1.184Zm4.635.064c-.448 0-.837-.08-1.168-.24a1.835 1.835 0 0 1-.76-.672 1.87 1.87 0 0 1-.272-1.016c0-.48.107-.907.32-1.28.219-.379.518-.677.896-.896a2.617 2.617 0 0 1 1.32-.328c.422 0 .784.08 1.088.24.304.155.539.373.704.656.171.277.256.611.256 1 0 .112-.008.224-.024.336-.01.112-.026.219-.048.32h-3.56l.128-.728h2.848l-.512.224c.043-.24.03-.44-.04-.6a.744.744 0 0 0-.336-.376 1.083 1.083 0 0 0-.56-.136c-.272 0-.504.067-.696.2a1.193 1.193 0 0 0-.424.536 1.991 1.991 0 0 0-.144.776c0 .331.091.579.272.744.187.16.467.24.84.24.219 0 .43-.035.632-.104.203-.069.376-.168.52-.296l.52.824c-.25.197-.533.344-.848.44a3.35 3.35 0 0 1-.952.136Zm3.826-.064-.952-4.304h1.232l.792 3.704h-.64l2.28-3.704h1.248L168.417 215h-1.288Zm3.613 0 .856-4.304h1.24l-.856 4.304h-1.24Zm1.688-4.904c-.219 0-.395-.061-.528-.184a.621.621 0 0 1-.2-.464c0-.213.075-.389.224-.528a.846.846 0 0 1 .6-.216c.219 0 .395.061.528.184a.552.552 0 0 1 .208.44.73.73 0 0 1-.232.56c-.149.139-.349.208-.6.208Zm2.982 4.968c-.442 0-.829-.08-1.16-.24a1.835 1.835 0 0 1-.76-.672 1.87 1.87 0 0 1-.272-1.016c0-.48.112-.907.336-1.28.224-.379.534-.677.928-.896.395-.219.848-.328 1.36-.328.459 0 .856.096 1.192.288.336.187.584.453.744.8l-1.056.528a.891.891 0 0 0-.384-.44 1.1 1.1 0 0 0-.576-.144 1.244 1.244 0 0 0-1.112.68 1.514 1.514 0 0 0-.168.728c0 .293.086.528.256.704.176.171.424.256.744.256.219 0 .419-.045.6-.136a1.19 1.19 0 0 0 .456-.44l.92.576a2.053 2.053 0 0 1-.848.76 2.616 2.616 0 0 1-1.2.272Zm4.688 0c-.448 0-.837-.08-1.168-.24a1.829 1.829 0 0 1-.76-.672 1.87 1.87 0 0 1-.272-1.016c0-.48.107-.907.32-1.28.219-.379.517-.677.896-.896a2.617 2.617 0 0 1 1.32-.328c.421 0 .784.08 1.088.24.304.155.539.373.704.656.171.277.256.611.256 1 0 .112-.008.224-.024.336a3.03 3.03 0 0 1-.048.32h-3.56l.128-.728h2.848l-.512.224c.043-.24.029-.44-.04-.6a.744.744 0 0 0-.336-.376 1.086 1.086 0 0 0-.56-.136c-.272 0-.504.067-.696.2a1.186 1.186 0 0 0-.424.536 1.991 1.991 0 0 0-.144.776c0 .331.091.579.272.744.187.16.467.24.84.24.219 0 .429-.035.632-.104.203-.069.376-.168.52-.296l.52.824a2.576 2.576 0 0 1-.848.44 3.355 3.355 0 0 1-.952.136Z" fill="#731054"/><rect x="13.85" y="126.85" width="210.3" height="170.3" rx="8.15" stroke="#666" stroke-width=".3"/><path d="M22.417 90.048c-.555 0-1.027-.096-1.416-.288a2.147 2.147 0 0 1-.896-.816c-.203-.352-.304-.76-.304-1.224 0-.459.077-.89.232-1.296.16-.405.387-.763.68-1.072.299-.315.656-.56 1.072-.736a3.663 3.663 0 0 1 1.424-.264c.448 0 .845.07 1.192.208.347.139.613.341.8.608l-.416.368a1.6 1.6 0 0 0-.664-.488c-.267-.112-.587-.168-.96-.168-.421 0-.805.075-1.152.224a2.471 2.471 0 0 0-.872.608 2.862 2.862 0 0 0-.752 1.984c0 .357.077.675.232.952.16.272.395.485.704.64.31.155.688.232 1.136.232a2.83 2.83 0 0 0 1-.168 2.23 2.23 0 0 0 .784-.496l.344.392a2.384 2.384 0 0 1-.936.6c-.379.133-.79.2-1.232.2Zm4.603-.008c-.358 0-.675-.072-.952-.216a1.568 1.568 0 0 1-.648-.616c-.155-.267-.232-.584-.232-.952 0-.357.058-.688.176-.992.117-.304.282-.568.496-.792.213-.23.464-.405.752-.528.293-.123.61-.184.952-.184.368 0 .68.067.936.2.256.128.453.317.592.568.138.245.208.544.208.896 0 .507-.094.957-.28 1.352-.187.395-.451.704-.792.928-.342.224-.744.336-1.208.336Zm.12-.504c.352 0 .664-.083.936-.248.277-.17.493-.405.648-.704.16-.299.24-.637.24-1.016 0-.416-.123-.739-.368-.968-.24-.23-.58-.344-1.016-.344a1.75 1.75 0 0 0-.936.256c-.278.17-.496.405-.656.704a2.146 2.146 0 0 0-.232 1.016c0 .41.12.73.36.96.245.23.586.344 1.024.344Zm1.384.464.24-1.208.24-.848.08-.88.256-1.264h.568l-.84 4.2h-.544Zm2.125 0 1.184-5.936h.568L31.217 90h-.568Zm4.069.04c-.4 0-.75-.072-1.048-.216a1.64 1.64 0 0 1-.68-.624c-.155-.267-.232-.584-.232-.952 0-.48.101-.907.304-1.28a2.278 2.278 0 0 1 2.024-1.208c.373 0 .696.072.968.216.272.139.482.341.632.608.154.267.232.587.232.96 0 .085-.005.173-.016.264-.01.085-.024.168-.04.248h-3.688l.072-.424h3.352l-.232.16c.053-.336.03-.619-.072-.848a1.07 1.07 0 0 0-.472-.52 1.455 1.455 0 0 0-.752-.184 1.683 1.683 0 0 0-1.536.952c-.15.293-.224.637-.224 1.032 0 .421.12.747.36.976.245.224.61.336 1.096.336a2.2 2.2 0 0 0 .784-.136 1.62 1.62 0 0 0 .592-.392l.256.408a2.056 2.056 0 0 1-.744.464c-.294.107-.606.16-.936.16Zm5.796-4.28c.379 0 .688.075.928.224.245.144.413.355.504.632.096.277.104.608.024.992L41.49 90h-.568l.48-2.4c.085-.416.04-.741-.136-.976-.17-.235-.475-.352-.912-.352-.448 0-.821.123-1.12.368-.293.245-.49.613-.592 1.104L38.194 90h-.568l.832-4.2h.544l-.24 1.208-.12-.208c.203-.363.464-.627.784-.792a2.367 2.367 0 0 1 1.088-.248Zm4.31 4.28c-.357 0-.674-.072-.952-.216a1.568 1.568 0 0 1-.648-.616c-.154-.267-.232-.584-.232-.952 0-.357.059-.688.176-.992.118-.304.283-.568.496-.792.214-.23.464-.405.752-.528.294-.123.61-.184.952-.184.368 0 .68.067.936.2.256.128.454.317.592.568.139.245.208.544.208.896 0 .379-.053.728-.16 1.048-.101.32-.253.597-.456.832a2.09 2.09 0 0 1-.728.544c-.277.128-.59.192-.936.192Zm.12-.504c.352 0 .664-.083.936-.248.278-.17.494-.405.648-.704.16-.299.24-.637.24-1.016 0-.416-.122-.739-.368-.968-.24-.23-.578-.344-1.016-.344a1.75 1.75 0 0 0-.936.256c-.277.17-.496.405-.656.704a2.146 2.146 0 0 0-.232 1.016c0 .41.12.73.36.96.246.23.587.344 1.024.344Zm1.384.464.24-1.208.24-.848.08-.88.6-3h.568L46.872 90h-.544Zm3.918.04c-.357 0-.675-.072-.952-.216a1.57 1.57 0 0 1-.648-.616c-.154-.267-.232-.584-.232-.952 0-.357.059-.688.176-.992.117-.304.283-.568.496-.792.214-.23.464-.405.752-.528.294-.123.61-.184.952-.184.368 0 .68.067.936.2.256.128.453.317.592.568.139.245.208.544.208.896 0 .507-.093.957-.28 1.352-.187.395-.45.704-.792.928-.341.224-.744.336-1.208.336Zm.12-.504c.352 0 .664-.083.936-.248.278-.17.493-.405.648-.704.16-.299.24-.637.24-1.016 0-.416-.122-.739-.368-.968-.24-.23-.579-.344-1.016-.344a1.75 1.75 0 0 0-.936.256c-.277.17-.496.405-.656.704a2.147 2.147 0 0 0-.232 1.016c0 .41.12.73.36.96.245.23.587.344 1.024.344ZM51.75 90l.24-1.208.24-.848.08-.88.256-1.264h.568l-.84 4.2h-.544Zm2.126 0 .832-4.2h.544l-.24 1.24-.064-.216c.187-.368.432-.637.736-.808.31-.17.693-.256 1.152-.256l-.104.552h-.08a.338.338 0 0 0-.08-.008c-.448 0-.819.13-1.112.392-.288.256-.485.645-.592 1.168L54.444 90h-.568Z" fill="#000"/><rect x="15.15" y="79.15" width="44.7" height="15.7" rx="3.85" stroke="#666" stroke-width=".3"/><path d="m123.67 90 3.68-5.6h.584l1.44 5.6h-.592l-1.312-5.272h.24L124.31 90h-.64Zm1.304-1.496.272-.48h3.256l.088.48h-3.616Zm6.96 1.536c-.358 0-.675-.072-.952-.216a1.56 1.56 0 0 1-.648-.616c-.155-.267-.232-.584-.232-.952 0-.357.058-.688.176-.992.117-.304.282-.568.496-.792.213-.23.464-.405.752-.528.293-.123.61-.184.952-.184.368 0 .68.067.936.2.256.128.453.317.592.568.138.245.208.544.208.896 0 .379-.054.728-.16 1.048-.102.32-.254.597-.456.832a2.099 2.099 0 0 1-.728.544c-.278.128-.59.192-.936.192Zm.12-.504c.352 0 .664-.083.936-.248.277-.17.493-.405.648-.704.16-.299.24-.637.24-1.016 0-.416-.123-.739-.368-.968-.24-.23-.579-.344-1.016-.344-.347 0-.659.085-.936.256a1.81 1.81 0 0 0-.656.704 2.142 2.142 0 0 0-.232 1.016c0 .41.12.73.36.96.245.23.586.344 1.024.344Zm1.384.464.24-1.208.24-.848.08-.88.6-3h.568L133.982 90h-.544Zm3.918.04c-.358 0-.675-.072-.952-.216a1.56 1.56 0 0 1-.648-.616c-.155-.267-.232-.584-.232-.952 0-.357.058-.688.176-.992.117-.304.282-.568.496-.792.213-.23.464-.405.752-.528.293-.123.61-.184.952-.184.368 0 .68.067.936.2.256.128.453.317.592.568.138.245.208.544.208.896 0 .379-.054.728-.16 1.048-.102.32-.254.597-.456.832a2.099 2.099 0 0 1-.728.544c-.278.128-.59.192-.936.192Zm.12-.504c.352 0 .664-.083.936-.248.277-.17.493-.405.648-.704.16-.299.239-.637.239-1.016 0-.416-.122-.739-.367-.968-.24-.23-.579-.344-1.016-.344-.347 0-.659.085-.936.256a1.81 1.81 0 0 0-.656.704 2.142 2.142 0 0 0-.232 1.016c0 .41.12.73.36.96.245.23.586.344 1.024.344Zm1.384.464.24-1.208.24-.848.08-.88.6-3h.568L139.404 90h-.544Zm6.123.04c-.4 0-.747-.072-1.04-.216a1.651 1.651 0 0 1-.672-.624 1.845 1.845 0 0 1-.232-.944c0-.48.104-.907.312-1.28.208-.379.496-.675.864-.888a2.467 2.467 0 0 1 1.272-.328c.389 0 .723.072 1 .216.283.139.501.347.656.624l-.48.28a1.095 1.095 0 0 0-.488-.472 1.633 1.633 0 0 0-.736-.152 1.763 1.763 0 0 0-1.6.96 2.142 2.142 0 0 0-.232 1.016c0 .41.12.73.36.96.245.23.592.344 1.04.344.272 0 .523-.05.752-.152a1.47 1.47 0 0 0 .576-.456l.408.312c-.181.25-.429.448-.744.592a2.49 2.49 0 0 1-1.016.208Zm2.541-.04 1.184-5.936h.568L148.092 90h-.568Zm2.149 0 .832-4.2h.568l-.832 4.2h-.568Zm1.36-5.128a.38.38 0 0 1-.28-.112.377.377 0 0 1-.104-.264.43.43 0 0 1 .12-.304.434.434 0 0 1 .32-.128c.112 0 .205.035.28.104.075.07.112.157.112.264a.435.435 0 0 1-.128.32.45.45 0 0 1-.32.12Zm2.708 5.168c-.4 0-.749-.072-1.048-.216a1.642 1.642 0 0 1-.68-.624 1.872 1.872 0 0 1-.232-.952c0-.48.102-.907.304-1.28a2.281 2.281 0 0 1 2.024-1.208c.374 0 .696.072.968.216.272.139.483.341.632.608.155.267.232.587.232.96 0 .085-.005.173-.016.264-.01.085-.024.168-.04.248h-3.688l.072-.424h3.352l-.232.16c.054-.336.03-.619-.072-.848a1.064 1.064 0 0 0-.472-.52 1.453 1.453 0 0 0-.752-.184c-.341 0-.645.085-.912.256a1.693 1.693 0 0 0-.624.696 2.25 2.25 0 0 0-.224 1.032c0 .421.12.747.36.976.246.224.611.336 1.096.336.283 0 .544-.045.784-.136.24-.096.438-.227.592-.392l.256.408a2.05 2.05 0 0 1-.744.464c-.293.107-.605.16-.936.16Zm5.796-4.28c.379 0 .688.075.928.224a1.1 1.1 0 0 1 .504.632c.096.277.104.608.024.992l-.48 2.392h-.568l.48-2.4c.086-.416.04-.741-.136-.976-.17-.235-.474-.352-.912-.352-.448 0-.821.123-1.12.368-.293.245-.49.613-.592 1.104L157.217 90h-.568l.832-4.2h.544l-.24 1.208-.12-.208c.203-.363.464-.627.784-.792a2.369 2.369 0 0 1 1.088-.248Zm3.855 4.28c-.24 0-.446-.05-.616-.152a.853.853 0 0 1-.36-.448c-.064-.192-.07-.421-.016-.688l.768-3.88h.568l-.768 3.856c-.054.261-.035.464.056.608.096.144.269.216.52.216.117 0 .232-.016.344-.048a.946.946 0 0 0 .304-.168l.136.432a1.257 1.257 0 0 1-.448.216 2.217 2.217 0 0 1-.488.056Zm-1.248-3.768.088-.472h2.6l-.096.472h-2.592Z" fill="url(#b)"/><rect x="116.15" y="79.15" width="55.7" height="15.7" rx="3.85" stroke="url(#c)" stroke-width=".3"/><rect x="179.15" y="79.15" width="44.7" height="15.7" rx="3.85" fill="url(#d)"/><path d="M189.989 90.048c-.512 0-.93-.104-1.256-.312a1.57 1.57 0 0 1-.656-.864c-.117-.368-.128-.787-.032-1.256l.64-3.216h.584l-.64 3.216a2.441 2.441 0 0 0-.048.768c.027.235.096.437.208.608.118.17.28.301.488.392.208.09.464.136.768.136.384 0 .71-.07.976-.208a1.67 1.67 0 0 0 .648-.632 3.19 3.19 0 0 0 .384-1.024l.648-3.256h.576l-.656 3.296c-.149.768-.445 1.352-.888 1.752-.437.4-1.018.6-1.744.6Zm6.176-.008c-.363 0-.675-.064-.936-.192a1.417 1.417 0 0 1-.592-.568 1.967 1.967 0 0 1-.208-.904c0-.517.093-.97.28-1.36.187-.395.451-.701.792-.92.341-.224.744-.336 1.208-.336.363 0 .68.072.952.216.277.139.493.341.648.608.16.267.24.584.24.952 0 .363-.059.696-.176 1a2.301 2.301 0 0 1-.504.792c-.213.224-.464.4-.752.528a2.403 2.403 0 0 1-.952.184Zm-2.648 1.512 1.144-5.752h.544l-.24 1.208-.232.84-.088.88-.56 2.824h-.568Zm2.64-2.016c.352 0 .664-.083.936-.248a1.78 1.78 0 0 0 .64-.704c.16-.299.24-.637.24-1.016 0-.416-.12-.739-.36-.968-.24-.23-.581-.344-1.024-.344-.347 0-.659.085-.936.256-.272.17-.488.405-.648.704a2.142 2.142 0 0 0-.232 1.016c0 .41.12.73.36.96.24.23.581.344 1.024.344Zm3.094.464 1.184-5.936h.568L199.819 90h-.568Zm4.02.04c-.389 0-.728-.072-1.016-.216a1.668 1.668 0 0 1-.664-.624 1.855 1.855 0 0 1-.232-.944c0-.48.104-.907.312-1.28.208-.379.496-.675.864-.888a2.412 2.412 0 0 1 1.256-.328c.39 0 .726.072 1.008.216.288.144.51.35.664.616.16.267.24.581.24.944 0 .48-.104.91-.312 1.288-.208.373-.496.67-.864.888a2.382 2.382 0 0 1-1.256.328Zm.04-.504c.352 0 .664-.083.936-.248.278-.17.494-.405.648-.704.16-.299.24-.637.24-1.016 0-.416-.122-.739-.368-.968-.24-.23-.578-.344-1.016-.344-.346 0-.658.085-.936.256-.277.17-.496.405-.656.704a2.154 2.154 0 0 0-.232 1.016c0 .41.12.73.36.96.246.23.587.344 1.024.344Zm4.896.504c-.357 0-.675-.072-.952-.216a1.573 1.573 0 0 1-.648-.616c-.155-.267-.232-.584-.232-.952 0-.357.059-.688.176-.992.117-.304.283-.568.496-.792.213-.23.464-.405.752-.528.293-.123.611-.184.952-.184.368 0 .68.067.936.2.256.128.453.317.592.568.139.245.208.544.208.896 0 .507-.093.957-.28 1.352a2.219 2.219 0 0 1-.792.928c-.341.224-.744.336-1.208.336Zm.12-.504c.352 0 .664-.083.936-.248.277-.17.493-.405.648-.704.16-.299.24-.637.24-1.016 0-.416-.123-.739-.368-.968-.24-.23-.579-.344-1.016-.344-.347 0-.659.085-.936.256-.277.17-.496.405-.656.704a2.142 2.142 0 0 0-.232 1.016c0 .41.12.73.36.96.245.23.587.344 1.024.344Zm1.384.464.24-1.208.24-.848.08-.88.256-1.264h.568l-.84 4.2h-.544Zm3.918.04c-.357 0-.675-.072-.952-.216a1.573 1.573 0 0 1-.648-.616c-.155-.267-.232-.584-.232-.952 0-.357.059-.688.176-.992.117-.304.283-.568.496-.792.213-.23.464-.405.752-.528.293-.123.611-.184.952-.184.368 0 .68.067.936.2.256.128.453.317.592.568.139.245.208.544.208.896 0 .379-.053.728-.16 1.048-.101.32-.253.597-.456.832a2.09 2.09 0 0 1-.728.544 2.206 2.206 0 0 1-.936.192Zm.12-.504c.352 0 .664-.083.936-.248.277-.17.493-.405.648-.704.16-.299.24-.637.24-1.016 0-.416-.123-.739-.368-.968-.24-.23-.579-.344-1.016-.344-.347 0-.659.085-.936.256-.277.17-.496.405-.656.704a2.142 2.142 0 0 0-.232 1.016c0 .41.12.73.36.96.245.23.587.344 1.024.344Zm1.384.464.24-1.208.24-.848.08-.88.6-3h.568L215.677 90h-.544Z" fill="#fff"/><rect x="179.15" y="79.15" width="44.7" height="15.7" rx="3.85" stroke="#666" stroke-width=".3"/><path d="M23.202 114.048c-.272 0-.541-.029-.808-.088a3.375 3.375 0 0 1-.712-.256 1.986 1.986 0 0 1-.512-.368l.288-.464c.128.133.286.251.472.352.192.101.403.181.632.24.23.053.459.08.688.08.33 0 .619-.043.864-.128.25-.085.446-.211.584-.376a.901.901 0 0 0 .208-.6.622.622 0 0 0-.16-.448 1.121 1.121 0 0 0-.416-.28 4.392 4.392 0 0 0-.568-.2 14.867 14.867 0 0 1-.624-.192 3.142 3.142 0 0 1-.576-.256 1.245 1.245 0 0 1-.416-.4 1.174 1.174 0 0 1-.152-.624c0-.352.096-.653.288-.904.192-.256.456-.451.792-.584.336-.133.723-.2 1.16-.2.33 0 .648.04.952.12.31.08.57.2.784.36l-.248.48a2.176 2.176 0 0 0-.696-.336 2.8 2.8 0 0 0-.824-.12c-.325 0-.61.045-.856.136a1.304 1.304 0 0 0-.576.392.924.924 0 0 0-.2.6c0 .187.05.339.152.456.107.117.246.213.416.288.176.075.368.144.576.208.208.059.416.123.624.192.208.064.398.147.568.248.176.096.318.224.424.384.107.155.16.355.16.6 0 .357-.098.664-.296.92-.197.251-.47.443-.816.576a3.336 3.336 0 0 1-1.176.192Zm5.09-.008c-.4 0-.75-.072-1.048-.216a1.636 1.636 0 0 1-.68-.624c-.155-.267-.232-.584-.232-.952 0-.48.101-.907.304-1.28a2.28 2.28 0 0 1 .832-.88 2.21 2.21 0 0 1 1.192-.328c.373 0 .696.072.968.216.272.139.483.341.632.608.155.267.232.587.232.96 0 .085-.005.173-.016.264a3.49 3.49 0 0 1-.04.248h-3.688l.072-.424h3.352l-.232.16c.053-.336.03-.619-.072-.848a1.069 1.069 0 0 0-.472-.52 1.452 1.452 0 0 0-.752-.184 1.68 1.68 0 0 0-1.536.952c-.15.293-.224.637-.224 1.032 0 .421.12.747.36.976.245.224.61.336 1.096.336.283 0 .544-.045.784-.136.24-.096.437-.227.592-.392l.256.408a2.059 2.059 0 0 1-.744.464 2.71 2.71 0 0 1-.936.16ZM31.2 114l1.184-5.936h.568L31.768 114H31.2Zm4.069.04c-.4 0-.75-.072-1.048-.216a1.636 1.636 0 0 1-.68-.624c-.155-.267-.232-.584-.232-.952 0-.48.101-.907.304-1.28.202-.373.48-.667.832-.88a2.21 2.21 0 0 1 1.192-.328c.373 0 .696.072.968.216.272.139.482.341.632.608.154.267.232.587.232.96 0 .085-.006.173-.016.264a3.49 3.49 0 0 1-.04.248h-3.688l.072-.424h3.352l-.232.16c.053-.336.029-.619-.072-.848a1.07 1.07 0 0 0-.472-.52 1.452 1.452 0 0 0-.752-.184 1.68 1.68 0 0 0-1.536.952c-.15.293-.224.637-.224 1.032 0 .421.12.747.36.976.245.224.61.336 1.096.336.282 0 .544-.045.784-.136.24-.096.437-.227.592-.392l.256.408a2.06 2.06 0 0 1-.744.464 2.71 2.71 0 0 1-.936.16Zm4.812 0c-.4 0-.747-.072-1.04-.216a1.647 1.647 0 0 1-.672-.624 1.848 1.848 0 0 1-.232-.944c0-.48.104-.907.312-1.28.208-.379.496-.675.864-.888a2.466 2.466 0 0 1 1.272-.328c.39 0 .722.072 1 .216.282.139.501.347.656.624l-.48.28a1.097 1.097 0 0 0-.488-.472 1.636 1.636 0 0 0-.736-.152 1.761 1.761 0 0 0-1.6.96 2.145 2.145 0 0 0-.232 1.016c0 .411.12.731.36.96.245.229.592.344 1.04.344.272 0 .522-.051.752-.152a1.48 1.48 0 0 0 .576-.456l.408.312c-.182.251-.43.448-.744.592a2.486 2.486 0 0 1-1.016.208Zm3.986 0c-.24 0-.445-.051-.615-.152a.857.857 0 0 1-.36-.448c-.064-.192-.07-.421-.017-.688l.768-3.88h.568l-.767 3.856c-.054.261-.035.464.056.608.095.144.269.216.52.216.117 0 .232-.016.343-.048a.931.931 0 0 0 .304-.168l.137.432a1.26 1.26 0 0 1-.448.216 2.232 2.232 0 0 1-.488.056Zm-1.248-3.768.088-.472h2.6l-.096.472H42.82Zm7.16 3.768c-.4 0-.746-.072-1.04-.216a1.647 1.647 0 0 1-.672-.624 1.85 1.85 0 0 1-.232-.944c0-.48.104-.907.312-1.28.208-.379.496-.675.864-.888a2.467 2.467 0 0 1 1.272-.328c.39 0 .723.072 1 .216.283.139.502.347.656.624l-.48.28a1.097 1.097 0 0 0-.488-.472 1.636 1.636 0 0 0-.736-.152 1.762 1.762 0 0 0-1.6.96 2.146 2.146 0 0 0-.232 1.016c0 .411.12.731.36.96.246.229.592.344 1.04.344.272 0 .523-.051.752-.152.235-.107.427-.259.576-.456l.408.312c-.181.251-.43.448-.744.592a2.485 2.485 0 0 1-1.016.208Zm2.541-.04 1.184-5.936h.569L53.089 114h-.569Zm2.149 0 .832-4.2h.568l-.832 4.2h-.568Zm1.36-5.128a.379.379 0 0 1-.28-.112.376.376 0 0 1-.104-.264.43.43 0 0 1 .12-.304.435.435 0 0 1 .32-.128c.112 0 .205.035.28.104a.344.344 0 0 1 .112.264.434.434 0 0 1-.128.32.45.45 0 0 1-.32.12Zm2.708 5.168c-.4 0-.749-.072-1.048-.216a1.636 1.636 0 0 1-.68-.624c-.154-.267-.232-.584-.232-.952 0-.48.102-.907.304-1.28a2.28 2.28 0 0 1 .832-.88 2.21 2.21 0 0 1 1.192-.328c.374 0 .696.072.968.216.272.139.483.341.632.608.155.267.232.587.232.96 0 .085-.005.173-.016.264a3.49 3.49 0 0 1-.04.248h-3.688l.072-.424h3.352l-.232.16c.054-.336.03-.619-.072-.848a1.069 1.069 0 0 0-.472-.52 1.452 1.452 0 0 0-.752-.184 1.68 1.68 0 0 0-1.536.952c-.149.293-.224.637-.224 1.032 0 .421.12.747.36.976.246.224.611.336 1.096.336.283 0 .544-.045.784-.136.24-.096.438-.227.592-.392l.256.408a2.059 2.059 0 0 1-.744.464 2.71 2.71 0 0 1-.936.16Zm5.797-4.28c.378 0 .688.075.927.224.246.144.414.355.505.632.096.277.104.608.024.992L65.51 114h-.569l.48-2.4c.086-.416.04-.741-.136-.976-.17-.235-.474-.352-.911-.352-.448 0-.822.123-1.12.368-.294.245-.491.613-.593 1.104L62.214 114h-.569l.832-4.2h.545l-.24 1.208-.12-.208c.202-.363.464-.627.784-.792a2.371 2.371 0 0 1 1.088-.248Zm3.854 4.28c-.24 0-.446-.051-.616-.152a.857.857 0 0 1-.36-.448c-.064-.192-.07-.421-.016-.688l.768-3.88h.568l-.768 3.856c-.054.261-.035.464.056.608.096.144.27.216.52.216.117 0 .232-.016.344-.048a.931.931 0 0 0 .304-.168l.136.432a1.26 1.26 0 0 1-.448.216 2.232 2.232 0 0 1-.488.056Zm-1.248-3.768.088-.472h2.6l-.096.472H67.14Z" fill="#000"/><rect x="14.15" y="103.15" width="209.7" height="15.7" rx="3.85" stroke="#666" stroke-width=".3"/><path d="M19.355 60.072c-.768 0-1.396-.156-1.884-.468a2.352 2.352 0 0 1-.984-1.296c-.176-.552-.192-1.18-.048-1.884l.96-4.824h.876l-.96 4.824c-.088.416-.112.8-.072 1.152.04.352.144.656.312.912.176.256.42.452.732.588.312.136.696.204 1.152.204.576 0 1.064-.104 1.464-.312.4-.216.724-.532.972-.948.256-.416.448-.928.576-1.536l.972-4.884h.864l-.984 4.944c-.224 1.152-.668 2.028-1.332 2.628-.656.6-1.528.9-2.616.9Zm9.264-.012c-.544 0-1.012-.096-1.404-.288-.384-.2-.68-.484-.888-.852-.2-.376-.304-.828-.312-1.356 0-.776.14-1.456.42-2.04a3.24 3.24 0 0 1 1.188-1.38c.512-.336 1.116-.504 1.812-.504.544 0 1.02.108 1.428.324.416.208.74.512.972.912.24.4.36.876.36 1.428 0 .544-.088 1.044-.264 1.5a3.466 3.466 0 0 1-.756 1.188c-.32.336-.696.6-1.128.792a3.607 3.607 0 0 1-1.428.276Zm-3.972 2.268 1.716-8.628h.816l-.36 1.812-.348 1.26-.132 1.32-.84 4.236h-.852Zm3.96-3.024c.528 0 .996-.124 1.404-.372.408-.256.728-.608.96-1.056.24-.448.36-.956.36-1.524 0-.624-.18-1.108-.54-1.452-.36-.344-.872-.516-1.536-.516-.52 0-.988.128-1.404.384a2.754 2.754 0 0 0-.972 1.056c-.232.44-.348.948-.348 1.524 0 .616.18 1.096.54 1.44.36.344.872.516 1.536.516Zm4.64.696 1.777-8.904h.852L34.1 60h-.852Zm6.031.06c-.584 0-1.092-.108-1.524-.324a2.497 2.497 0 0 1-.996-.936c-.232-.4-.348-.872-.348-1.416 0-.72.156-1.36.468-1.92a3.402 3.402 0 0 1 1.296-1.332c.552-.328 1.18-.492 1.884-.492.584 0 1.088.108 1.512.324.432.216.764.524.996.924.24.4.36.872.36 1.416 0 .72-.156 1.364-.468 1.932a3.512 3.512 0 0 1-1.296 1.332c-.544.328-1.172.492-1.884.492Zm.06-.756c.528 0 .996-.124 1.404-.372.416-.256.74-.608.972-1.056.24-.448.36-.956.36-1.524 0-.624-.184-1.108-.552-1.452-.36-.344-.868-.516-1.524-.516-.52 0-.988.128-1.404.384a2.723 2.723 0 0 0-.984 1.056c-.232.44-.348.948-.348 1.524 0 .616.18 1.096.54 1.44.368.344.88.516 1.536.516Zm7.344.756c-.536 0-1.012-.108-1.428-.324a2.353 2.353 0 0 1-.972-.924c-.232-.4-.348-.876-.348-1.428 0-.536.088-1.032.264-1.488a3.56 3.56 0 0 1 .744-1.188c.32-.344.696-.608 1.128-.792.44-.184.916-.276 1.428-.276.552 0 1.02.1 1.404.3.384.192.68.476.888.852.208.368.312.816.312 1.344 0 .76-.14 1.436-.42 2.028a3.321 3.321 0 0 1-1.188 1.392c-.512.336-1.116.504-1.812.504Zm.18-.756c.528 0 .996-.124 1.404-.372.416-.256.74-.608.972-1.056.24-.448.36-.956.36-1.524 0-.624-.184-1.108-.552-1.452-.36-.344-.868-.516-1.524-.516-.52 0-.988.128-1.404.384a2.723 2.723 0 0 0-.984 1.056c-.232.44-.348.948-.348 1.524 0 .616.18 1.096.54 1.44.368.344.88.516 1.536.516Zm2.076.696.36-1.812.36-1.272.12-1.32.384-1.896h.852l-1.26 6.3h-.816Zm5.877.06c-.536 0-1.012-.108-1.428-.324a2.353 2.353 0 0 1-.973-.924c-.232-.4-.348-.876-.348-1.428 0-.536.088-1.032.264-1.488a3.56 3.56 0 0 1 .745-1.188c.32-.344.695-.608 1.127-.792.44-.184.916-.276 1.428-.276.552 0 1.02.1 1.404.3.385.192.68.476.889.852.207.368.311.816.311 1.344 0 .568-.08 1.092-.24 1.572a3.5 3.5 0 0 1-.684 1.248 3.135 3.135 0 0 1-1.092.816 3.312 3.312 0 0 1-1.404.288Zm.18-.756c.528 0 .995-.124 1.404-.372.416-.256.74-.608.971-1.056.24-.448.36-.956.36-1.524 0-.624-.183-1.108-.551-1.452-.36-.344-.869-.516-1.525-.516-.52 0-.988.128-1.404.384a2.723 2.723 0 0 0-.983 1.056c-.233.44-.349.948-.349 1.524 0 .616.18 1.096.54 1.44.369.344.88.516 1.537.516ZM57.07 60l.36-1.812.36-1.272.12-1.32.9-4.5h.852L57.886 60h-.816Zm6.005 2.388c-.296 0-.58-.052-.852-.156a1.555 1.555 0 0 1-.648-.408l.456-.624c.136.144.296.256.48.336.184.08.392.12.624.12.272 0 .52-.076.744-.228.232-.144.472-.408.72-.792l.636-.972.108-.12 3.744-5.844h.876l-4.608 7.116c-.264.4-.512.712-.744.936a2.106 2.106 0 0 1-.72.492c-.24.096-.512.144-.816.144Zm2.016-2.208-1.62-6.48h.864l1.416 5.784-.66.696Zm7.444-.12c-.584 0-1.092-.108-1.524-.324a2.497 2.497 0 0 1-.996-.936c-.232-.4-.348-.872-.348-1.416 0-.72.156-1.36.468-1.92a3.402 3.402 0 0 1 1.296-1.332c.552-.328 1.18-.492 1.884-.492.584 0 1.088.108 1.512.324.432.216.764.524.996.924.24.4.36.872.36 1.416 0 .72-.156 1.364-.468 1.932a3.512 3.512 0 0 1-1.296 1.332c-.544.328-1.172.492-1.884.492Zm.06-.756c.528 0 .996-.124 1.404-.372.416-.256.74-.608.972-1.056.24-.448.36-.956.36-1.524 0-.624-.184-1.108-.552-1.452-.36-.344-.868-.516-1.524-.516-.52 0-.988.128-1.404.384a2.723 2.723 0 0 0-.984 1.056c-.232.44-.348.948-.348 1.524 0 .616.18 1.096.54 1.44.368.344.88.516 1.536.516Zm7.295.756c-.552 0-1.012-.112-1.38-.336a1.724 1.724 0 0 1-.743-.96c-.136-.416-.153-.908-.049-1.476l.72-3.588h.853l-.72 3.588c-.12.624-.053 1.116.203 1.476.256.352.704.528 1.344.528.665 0 1.216-.184 1.656-.552.448-.368.748-.92.9-1.656l.672-3.384h.853L82.94 60h-.816l.36-1.812.18.3c-.296.544-.689.944-1.177 1.2a3.425 3.425 0 0 1-1.596.372Zm5.423-.06 1.248-6.3h.816l-.36 1.86-.096-.324c.28-.552.648-.956 1.104-1.212.464-.256 1.04-.384 1.728-.384l-.156.828h-.12a.505.505 0 0 0-.12-.012c-.672 0-1.228.196-1.668.588-.432.384-.728.968-.888 1.752L86.166 60h-.852Zm9.793.06c-.512 0-.996-.072-1.452-.216-.456-.144-.808-.328-1.056-.552l.408-.672c.24.216.556.388.948.516a4.2 4.2 0 0 0 1.236.18c.6 0 1.06-.1 1.38-.3.328-.2.492-.476.492-.828 0-.24-.088-.42-.264-.54a1.734 1.734 0 0 0-.66-.288c-.272-.072-.56-.14-.864-.204a6.808 6.808 0 0 1-.864-.24 1.62 1.62 0 0 1-.672-.468c-.168-.208-.252-.488-.252-.84 0-.4.112-.748.336-1.044.232-.296.552-.524.96-.684.408-.16.888-.24 1.44-.24.4 0 .796.052 1.188.156.392.104.708.248.948.432l-.36.684a2.272 2.272 0 0 0-.864-.408 3.783 3.783 0 0 0-.984-.132c-.584 0-1.036.108-1.356.324-.312.208-.468.484-.468.828 0 .24.084.424.252.552.176.128.4.228.672.3.272.072.56.14.864.204.312.056.6.136.864.24.272.104.492.256.66.456.176.192.264.464.264.816 0 .416-.116.772-.348 1.068-.232.288-.56.512-.984.672-.416.152-.904.228-1.464.228Zm6.903 0c-.6 0-1.124-.108-1.572-.324a2.462 2.462 0 0 1-1.02-.936c-.232-.4-.348-.876-.348-1.428 0-.72.152-1.36.456-1.92.304-.56.72-1 1.248-1.32a3.319 3.319 0 0 1 1.788-.492c.56 0 1.044.108 1.452.324.408.208.724.512.948.912.232.4.348.88.348 1.44 0 .128-.008.26-.024.396a5.161 5.161 0 0 1-.06.372h-5.532l.108-.636h5.028l-.348.24c.08-.504.044-.928-.108-1.272a1.603 1.603 0 0 0-.708-.78c-.312-.184-.688-.276-1.128-.276-.512 0-.968.128-1.368.384-.4.248-.712.596-.936 1.044-.224.44-.336.956-.336 1.548 0 .632.18 1.12.54 1.464.368.336.916.504 1.644.504.424 0 .816-.068 1.176-.204.36-.144.656-.34.888-.588l.384.612a3.082 3.082 0 0 1-1.116.696c-.44.16-.908.24-1.404.24Zm6.199 0c-.512 0-.996-.072-1.452-.216-.456-.144-.808-.328-1.056-.552l.408-.672c.24.216.556.388.948.516a4.2 4.2 0 0 0 1.236.18c.6 0 1.06-.1 1.38-.3.328-.2.492-.476.492-.828 0-.24-.088-.42-.264-.54a1.734 1.734 0 0 0-.66-.288c-.272-.072-.56-.14-.864-.204a6.808 6.808 0 0 1-.864-.24 1.62 1.62 0 0 1-.672-.468c-.168-.208-.252-.488-.252-.84 0-.4.112-.748.336-1.044.232-.296.552-.524.96-.684.408-.16.888-.24 1.44-.24.4 0 .796.052 1.188.156.392.104.708.248.948.432l-.36.684a2.272 2.272 0 0 0-.864-.408 3.783 3.783 0 0 0-.984-.132c-.584 0-1.036.108-1.356.324-.312.208-.468.484-.468.828 0 .24.084.424.252.552.176.128.4.228.672.3.272.072.56.14.864.204.312.056.6.136.864.24.272.104.492.256.66.456.176.192.264.464.264.816 0 .416-.116.772-.348 1.068-.232.288-.56.512-.984.672-.416.152-.904.228-1.464.228Zm5.859 0c-.512 0-.996-.072-1.452-.216-.456-.144-.808-.328-1.056-.552l.408-.672c.24.216.556.388.948.516a4.2 4.2 0 0 0 1.236.18c.6 0 1.06-.1 1.38-.3.328-.2.492-.476.492-.828 0-.24-.088-.42-.264-.54a1.734 1.734 0 0 0-.66-.288c-.272-.072-.56-.14-.864-.204a6.808 6.808 0 0 1-.864-.24 1.62 1.62 0 0 1-.672-.468c-.168-.208-.252-.488-.252-.84 0-.4.112-.748.336-1.044.232-.296.552-.524.96-.684.408-.16.888-.24 1.44-.24.4 0 .796.052 1.188.156.392.104.708.248.948.432l-.36.684a2.272 2.272 0 0 0-.864-.408 3.783 3.783 0 0 0-.984-.132c-.584 0-1.036.108-1.356.324-.312.208-.468.484-.468.828 0 .24.084.424.252.552.176.128.4.228.672.3.272.072.56.14.864.204.312.056.6.136.864.24.272.104.492.256.66.456.176.192.264.464.264.816 0 .416-.116.772-.348 1.068-.232.288-.56.512-.984.672-.416.152-.904.228-1.464.228Zm4.023-.06 1.248-6.3h.852l-1.248 6.3h-.852Zm2.04-7.692a.57.57 0 0 1-.42-.168.563.563 0 0 1-.156-.396c0-.176.06-.328.18-.456a.651.651 0 0 1 .48-.192c.168 0 .308.052.42.156a.517.517 0 0 1 .168.396.651.651 0 0 1-.192.48.675.675 0 0 1-.48.18Zm3.991 7.752c-.584 0-1.092-.108-1.524-.324a2.497 2.497 0 0 1-.996-.936c-.232-.4-.348-.872-.348-1.416 0-.72.156-1.36.468-1.92a3.402 3.402 0 0 1 1.296-1.332c.552-.328 1.18-.492 1.884-.492.584 0 1.088.108 1.512.324.432.216.764.524.996.924.24.4.36.872.36 1.416 0 .72-.156 1.364-.468 1.932a3.512 3.512 0 0 1-1.296 1.332c-.544.328-1.172.492-1.884.492Zm.06-.756c.528 0 .996-.124 1.404-.372.416-.256.74-.608.972-1.056.24-.448.36-.956.36-1.524 0-.624-.184-1.108-.552-1.452-.36-.344-.868-.516-1.524-.516-.52 0-.988.128-1.404.384a2.723 2.723 0 0 0-.984 1.056c-.232.44-.348.948-.348 1.524 0 .616.18 1.096.54 1.44.368.344.88.516 1.536.516Zm8.987-5.664c.568 0 1.032.112 1.392.336.368.216.62.532.756.948.144.416.156.912.036 1.488l-.72 3.588h-.852l.72-3.6c.128-.624.06-1.112-.204-1.464-.256-.352-.712-.528-1.368-.528-.672 0-1.232.184-1.68.552-.44.368-.736.92-.888 1.656L129.689 60h-.852l1.248-6.3h.816l-.36 1.812-.18-.312c.304-.544.696-.94 1.176-1.188a3.55 3.55 0 0 1 1.632-.372Zm6.918 6.36 1.248-6.3h.816l-.36 1.86-.096-.324c.28-.552.648-.956 1.104-1.212.464-.256 1.04-.384 1.728-.384l-.156.828h-.12a.505.505 0 0 0-.12-.012c-.672 0-1.228.196-1.668.588-.432.384-.728.968-.888 1.752L140.939 60h-.852Zm7.545.06c-.6 0-1.124-.108-1.572-.324a2.46 2.46 0 0 1-1.02-.936c-.232-.4-.348-.876-.348-1.428 0-.72.152-1.36.456-1.92.304-.56.72-1 1.248-1.32a3.319 3.319 0 0 1 1.788-.492c.56 0 1.044.108 1.452.324.408.208.724.512.948.912.232.4.348.88.348 1.44 0 .128-.008.26-.024.396a5.161 5.161 0 0 1-.06.372h-5.532l.108-.636h5.028l-.348.24c.08-.504.044-.928-.108-1.272a1.603 1.603 0 0 0-.708-.78c-.312-.184-.688-.276-1.128-.276-.512 0-.968.128-1.368.384-.4.248-.712.596-.936 1.044-.224.44-.336.956-.336 1.548 0 .632.18 1.12.54 1.464.368.336.916.504 1.644.504.424 0 .816-.068 1.176-.204.36-.144.656-.34.888-.588l.384.612a3.082 3.082 0 0 1-1.116.696c-.44.16-.908.24-1.404.24Zm7.218 0c-.6 0-1.12-.108-1.56-.324a2.478 2.478 0 0 1-1.008-.936c-.232-.4-.348-.872-.348-1.416 0-.72.156-1.36.468-1.92a3.402 3.402 0 0 1 1.296-1.332c.56-.328 1.196-.492 1.908-.492.584 0 1.084.108 1.5.324.424.208.752.52.984.936l-.72.42a1.646 1.646 0 0 0-.732-.708c-.304-.152-.672-.228-1.104-.228a2.647 2.647 0 0 0-2.4 1.44c-.232.44-.348.948-.348 1.524 0 .616.18 1.096.54 1.44.368.344.888.516 1.56.516a2.76 2.76 0 0 0 1.128-.228c.352-.16.64-.388.864-.684l.612.468a2.76 2.76 0 0 1-1.116.888c-.472.208-.98.312-1.524.312Zm6.608 0c-.584 0-1.092-.108-1.524-.324a2.497 2.497 0 0 1-.996-.936c-.232-.4-.348-.872-.348-1.416 0-.72.156-1.36.468-1.92a3.402 3.402 0 0 1 1.296-1.332c.552-.328 1.18-.492 1.884-.492.584 0 1.088.108 1.512.324.432.216.764.524.996.924.24.4.36.872.36 1.416 0 .72-.156 1.364-.468 1.932a3.512 3.512 0 0 1-1.296 1.332c-.544.328-1.172.492-1.884.492Zm.06-.756c.528 0 .996-.124 1.404-.372.416-.256.74-.608.972-1.056.24-.448.36-.956.36-1.524 0-.624-.184-1.108-.552-1.452-.36-.344-.868-.516-1.524-.516-.52 0-.988.128-1.404.384a2.723 2.723 0 0 0-.984 1.056c-.232.44-.348.948-.348 1.524 0 .616.18 1.096.54 1.44.368.344.88.516 1.536.516Zm4.655.696 1.248-6.3h.816l-.36 1.86-.096-.324c.28-.552.648-.956 1.104-1.212.464-.256 1.04-.384 1.728-.384l-.156.828h-.12a.505.505 0 0 0-.12-.012c-.672 0-1.228.196-1.668.588-.432.384-.728.968-.888 1.752L167.025 60h-.852Zm7.352.06c-.536 0-1.012-.108-1.428-.324a2.353 2.353 0 0 1-.972-.924c-.232-.4-.348-.876-.348-1.428 0-.536.088-1.032.264-1.488a3.56 3.56 0 0 1 .744-1.188c.32-.344.696-.608 1.128-.792.44-.184.916-.276 1.428-.276.552 0 1.02.1 1.404.3.384.192.68.476.888.852.208.368.312.816.312 1.344 0 .568-.08 1.092-.24 1.572a3.5 3.5 0 0 1-.684 1.248 3.135 3.135 0 0 1-1.092.816 3.312 3.312 0 0 1-1.404.288Zm.18-.756c.528 0 .996-.124 1.404-.372.416-.256.74-.608.972-1.056.24-.448.36-.956.36-1.524 0-.624-.184-1.108-.552-1.452-.36-.344-.868-.516-1.524-.516-.52 0-.988.128-1.404.384a2.723 2.723 0 0 0-.984 1.056c-.232.44-.348.948-.348 1.524 0 .616.18 1.096.54 1.44.368.344.88.516 1.536.516Zm2.076.696.36-1.812.36-1.272.12-1.32.9-4.5h.852L176.597 60h-.816Zm3.189 0 1.248-6.3h.852l-1.248 6.3h-.852Zm2.04-7.692a.57.57 0 0 1-.42-.168.563.563 0 0 1-.156-.396c0-.176.06-.328.18-.456a.651.651 0 0 1 .48-.192c.168 0 .308.052.42.156a.517.517 0 0 1 .168.396.651.651 0 0 1-.192.48.675.675 0 0 1-.48.18Zm5.515 1.332c.568 0 1.032.112 1.392.336.368.216.62.532.756.948.144.416.156.912.036 1.488l-.72 3.588h-.852l.72-3.6c.128-.624.06-1.112-.204-1.464-.256-.352-.712-.528-1.368-.528-.672 0-1.232.184-1.68.552-.44.368-.736.92-.888 1.656L183.045 60h-.852l1.248-6.3h.816l-.36 1.812-.18-.312c.304-.544.696-.94 1.176-1.188a3.55 3.55 0 0 1 1.632-.372Zm6.105 8.748a4.805 4.805 0 0 1-1.596-.252 3.28 3.28 0 0 1-1.212-.696l.504-.648c.256.256.588.46.996.612.416.152.872.228 1.368.228.8 0 1.42-.184 1.86-.552.44-.368.732-.936.876-1.704l.336-1.656.324-1.032.132-1.08.372-1.908h.816l-1.104 5.532c-.216 1.112-.624 1.916-1.224 2.412s-1.416.744-2.448.744Zm.42-2.628c-.552 0-1.04-.104-1.464-.312-.416-.208-.74-.5-.972-.876-.232-.384-.348-.836-.348-1.356 0-.512.088-.984.264-1.416a3.38 3.38 0 0 1 .744-1.128c.32-.328.7-.58 1.14-.756.44-.184.924-.276 1.452-.276.504 0 .952.088 1.344.264.392.176.7.44.924.792.232.352.348.8.348 1.344a4.092 4.092 0 0 1-.408 1.884 3.39 3.39 0 0 1-1.188 1.344c-.512.328-1.124.492-1.836.492Zm.168-.756c.528 0 .996-.12 1.404-.36a2.64 2.64 0 0 0 .984-.984c.24-.424.36-.904.36-1.44 0-.576-.184-1.024-.552-1.344-.368-.328-.88-.492-1.536-.492-.528 0-1 .12-1.416.36-.416.24-.744.572-.984.996-.232.416-.348.892-.348 1.428 0 .576.184 1.028.552 1.356.368.32.88.48 1.536.48Z" fill="#000"/><rect x=".5" y=".5" width="239" height="343" rx="7.5" stroke="#731054"/><defs><linearGradient id="b" x1="165" y1="87" x2="148.707" y2="66.936" gradientUnits="userSpaceOnUse"><stop stop-color="#DE0D6F"/><stop offset="1" stop-color="#731054"/></linearGradient><linearGradient id="c" x1="172" y1="87" x2="157.374" y2="62.401" gradientUnits="userSpaceOnUse"><stop stop-color="#DE0D6F"/><stop offset="1" stop-color="#731054"/></linearGradient><linearGradient id="d" x1="224" y1="87" x2="208.08" y2="65.484" gradientUnits="userSpaceOnUse"><stop stop-color="#DE0D6F"/><stop offset="1" stop-color="#731054"/></linearGradient></defs></svg>