<svg width="70" height="70" fill="none" xmlns="http://www.w3.org/2000/svg"><path d="M0 2.8A2.8 2.8 0 0 1 2.8 0h64.4A2.8 2.8 0 0 1 70 2.8v64.4a2.8 2.8 0 0 1-2.8 2.8H2.8A2.8 2.8 0 0 1 0 67.2V2.8Z" fill="url(#a)"/><path d="M39.482 33.362a21.743 21.743 0 0 1 1.686-1.77 14.331 14.331 0 0 1 1.742-1.406 7.967 7.967 0 0 1 1.715-.9c.58-.224 1.133-.336 1.658-.336.412 0 .815.075 1.208.224.413.132.778.347 1.096.647.319.28.572.646.76 1.096.187.45.28.983.28 1.602 0 .899-.122 1.789-.365 2.67a17.81 17.81 0 0 1-.928 2.529 31.61 31.61 0 0 1-1.208 2.389c-.412.768-.806 1.508-1.18 2.22a16.947 16.947 0 0 0-.928 1.995c-.243.618-.365 1.19-.365 1.714 0 .413.103.712.31.9.224.168.458.253.702.253.487 0 1.058-.281 1.714-.843.674-.563 1.377-1.284 2.108-2.164.73-.881 1.461-1.846 2.192-2.895.75-1.068 1.461-2.108 2.136-3.12l1.011.787c-.243.394-.562.918-.955 1.574-.375.637-.815 1.33-1.321 2.08a49 49 0 0 1-1.658 2.248c-.6.75-1.237 1.433-1.911 2.052a10.76 10.76 0 0 1-2.052 1.49c-.712.374-1.424.561-2.136.561a3.99 3.99 0 0 1-1.152-.169 2.674 2.674 0 0 1-.955-.533 2.82 2.82 0 0 1-.675-1.012c-.168-.412-.253-.918-.253-1.518 0-.824.14-1.63.422-2.417a15.25 15.25 0 0 1 1.068-2.332c.43-.768.89-1.527 1.377-2.277.506-.768.974-1.526 1.405-2.276.43-.75.787-1.499 1.068-2.248a6.742 6.742 0 0 0 .422-2.333c0-.393-.076-.702-.225-.927-.15-.244-.431-.366-.843-.366-.656 0-1.35.272-2.08.816-.73.524-1.49 1.236-2.276 2.135-.787.9-1.593 1.949-2.417 3.148a82.12 82.12 0 0 0-2.473 3.766 252.34 252.34 0 0 0-2.417 4.019c-.787 1.348-1.546 2.65-2.277 3.906l-2.36-1.237c.993-2.042 1.92-3.869 2.782-5.48.88-1.611 1.649-3.063 2.304-4.356.656-1.311 1.171-2.501 1.546-3.569.375-1.087.562-2.108.562-3.063 0-.188-.019-.375-.056-.562a1.247 1.247 0 0 0-.225-.534 1.248 1.248 0 0 0-.45-.366c-.168-.112-.393-.168-.674-.168-.637 0-1.284.3-1.94.9-.655.58-1.348 1.386-2.079 2.416a59.248 59.248 0 0 0-2.36 3.57 230.141 230.141 0 0 1-2.698 4.299 119.51 119.51 0 0 1-3.12 4.693 53.231 53.231 0 0 1-3.681 4.637l-1.94-1.293c.6-.899 1.228-1.845 1.883-2.838.675-1.012 1.33-2.033 1.968-3.063a78.675 78.675 0 0 0 1.854-3.063c.6-1.031 1.125-2.005 1.574-2.923.45-.918.806-1.761 1.068-2.53.262-.768.394-1.423.394-1.967 0-.637-.16-1.096-.478-1.377-.319-.28-.73-.421-1.237-.421-.6 0-1.19.215-1.77.646-.562.43-1.162 1.04-1.799 1.827a43.229 43.229 0 0 0-2.023 2.838 142.387 142.387 0 0 1-2.445 3.597l-1.012-.787c.993-1.573 1.883-2.96 2.67-4.159.805-1.199 1.564-2.201 2.276-3.007.712-.806 1.415-1.414 2.108-1.827a4.522 4.522 0 0 1 2.304-.618c.244 0 .553.047.928.14a3.67 3.67 0 0 1 1.152.506c.375.244.703.581.984 1.012.3.431.477.984.534 1.658 1.049-1.349 2.145-2.426 3.288-3.232 1.143-.805 2.22-1.208 3.232-1.208.73 0 1.349.15 1.854.45.506.28.91.655 1.209 1.124.318.468.543 1.002.674 1.602.15.58.225 1.17.225 1.77 0 .15-.01.31-.028.478 0 .169-.01.337-.028.506Z" fill="#fff"/><defs><linearGradient id="a" x1="70" y1="35" x2="13.132" y2="7.672" gradientUnits="userSpaceOnUse"><stop stop-color="#DE0D6F"/><stop offset="1" stop-color="#731054"/></linearGradient></defs></svg>