<svg width="414" height="293" fill="none" xmlns="http://www.w3.org/2000/svg"><path opacity=".4" fill-rule="evenodd" clip-rule="evenodd" d="M-152.728 410.34c-.351-.946-.234-2.041.313-2.935l15.113-24.694c15.705-26.875 47.396-79.869 83.001-122.293 35.605-42.423 75.403-73.52 121.073-88.761 45.669-15.241 97.489-13.869 155.18 3.358 57.97 17.983 121.812 51.823 157.417 9.399 35.604-42.423 43.252-160.354 86.964-180.88 43.713-20.527 123.49 56.352 163.518 95.17l39.557 38.359c.311.302.552.675.707 1.094l10.713 28.932c.593 1.602-.18 3.489-1.726 4.214l-19.057 8.949-109.281 51.316-131.137 61.578-131.137 61.579-131.137 61.578-131.137 61.578-109.281 51.316-19.058 8.949c-1.545.725-3.279.016-3.872-1.586l-46.733-126.22Z" fill="url(#a)" fill-opacity=".2"/><defs><linearGradient id="a" x1="532.931" y1="172.81" x2="339.905" y2="-45.395" gradientUnits="userSpaceOnUse"><stop stop-color="#DE0D6F"/><stop offset="1" stop-color="#731054"/></linearGradient></defs></svg>