<svg width="56" height="56" fill="none" xmlns="http://www.w3.org/2000/svg"><path d="M33.604 22.268a30.29 30.29 0 0 1 2.35-2.468c.81-.758 1.62-1.411 2.43-1.96.81-.548 1.607-.966 2.39-1.254.81-.313 1.581-.47 2.313-.47.575 0 1.136.105 1.685.314a3.953 3.953 0 0 1 1.528.9c.444.393.797.902 1.058 1.53.262.626.392 1.37.392 2.233 0 1.254-.17 2.495-.51 3.723a24.833 24.833 0 0 1-1.292 3.526 44.128 44.128 0 0 1-1.685 3.331 439.675 439.675 0 0 0-1.646 3.096 23.622 23.622 0 0 0-1.293 2.782c-.34.863-.51 1.66-.51 2.39 0 .576.144.994.431 1.255.314.235.64.353.98.353.68 0 1.476-.392 2.39-1.176.94-.784 1.92-1.79 2.94-3.017a60.225 60.225 0 0 0 3.056-4.037c1.045-1.489 2.038-2.939 2.978-4.35L55 30.067c-.34.548-.784 1.28-1.332 2.194a56.047 56.047 0 0 1-1.842 2.9 68.62 68.62 0 0 1-2.312 3.135 25.368 25.368 0 0 1-2.665 2.86 14.996 14.996 0 0 1-2.86 2.078c-.993.522-1.986.783-2.979.783a5.561 5.561 0 0 1-1.607-.235 3.727 3.727 0 0 1-1.332-.744c-.392-.366-.705-.836-.94-1.411-.236-.575-.353-1.28-.353-2.116 0-1.15.196-2.273.588-3.37a21.265 21.265 0 0 1 1.489-3.253c.6-1.07 1.24-2.129 1.92-3.174a61.676 61.676 0 0 0 1.96-3.174c.6-1.045 1.097-2.09 1.488-3.135a9.402 9.402 0 0 0 .588-3.253c0-.548-.104-.98-.313-1.293-.21-.34-.601-.51-1.176-.51-.914 0-1.88.38-2.9 1.137-1.019.732-2.077 1.724-3.174 2.978-1.097 1.254-2.22 2.717-3.37 4.39a114.69 114.69 0 0 0-3.448 5.25 353.178 353.178 0 0 0-3.37 5.604 6592.793 6592.793 0 0 0-3.175 5.447l-3.291-1.724a224.061 224.061 0 0 1 3.88-7.642 226.096 226.096 0 0 0 3.212-6.073c.915-1.83 1.633-3.488 2.156-4.977.522-1.516.783-2.94.783-4.272 0-.26-.026-.522-.078-.783a1.739 1.739 0 0 0-.313-.745 1.74 1.74 0 0 0-.627-.51c-.236-.156-.549-.235-.94-.235-.89 0-1.79.418-2.705 1.254-.914.81-1.88 1.934-2.9 3.37-1.019 1.411-2.116 3.07-3.291 4.977a320.542 320.542 0 0 1-3.762 5.996 166.589 166.589 0 0 1-4.35 6.544 74.23 74.23 0 0 1-5.134 6.466l-2.704-1.803a1090.32 1090.32 0 0 0 2.626-3.957c.94-1.411 1.855-2.835 2.743-4.272.914-1.437 1.777-2.86 2.586-4.271a65.024 65.024 0 0 0 2.195-4.076c.627-1.28 1.123-2.455 1.489-3.527.366-1.07.549-1.985.549-2.743 0-.888-.222-1.528-.667-1.92-.444-.392-1.018-.588-1.724-.588-.836 0-1.659.3-2.469.902-.783.6-1.62 1.45-2.507 2.547-.863 1.097-1.803 2.416-2.822 3.958a199.043 199.043 0 0 1-3.41 5.016L1 28.969a390.41 390.41 0 0 1 3.723-5.8c1.123-1.671 2.181-3.069 3.174-4.192.993-1.124 1.972-1.973 2.939-2.547a6.305 6.305 0 0 1 3.213-.863c.34 0 .771.066 1.293.196.55.131 1.085.366 1.607.706.523.34.98.81 1.372 1.41.418.601.666 1.372.744 2.313 1.463-1.881 2.992-3.384 4.585-4.507C25.244 14.562 26.746 14 28.157 14c1.019 0 1.88.209 2.586.627a4.634 4.634 0 0 1 1.685 1.567c.444.654.758 1.398.94 2.234.21.81.314 1.633.314 2.469 0 .209-.013.431-.04.666 0 .235-.012.47-.038.705z" fill="#fff" style="stroke-width:.488038"/></svg>
