<svg width="57" height="32" viewBox="0 0 270 155" fill="none" xmlns="http://www.w3.org/2000/svg"><path d="M162.945 41.75a151.13 151.13 0 0 1 11.719-12.305c4.037-3.776 8.073-7.03 12.109-9.765 4.037-2.735 8.008-4.818 11.915-6.25 4.036-1.563 7.877-2.344 11.523-2.344 2.865 0 5.664.52 8.398 1.562a19.707 19.707 0 0 1 7.618 4.493c2.213 1.953 3.971 4.492 5.273 7.617 1.302 3.125 1.953 6.836 1.953 11.133 0 6.25-.846 12.434-2.539 18.554a123.82 123.82 0 0 1-6.445 17.578 219.759 219.759 0 0 1-8.399 16.602 2194.719 2194.719 0 0 0-8.203 15.43c-2.604 4.817-4.752 9.44-6.445 13.867-1.693 4.297-2.539 8.268-2.539 11.914 0 2.865.716 4.948 2.148 6.25 1.563 1.172 3.19 1.758 4.883 1.758 3.385 0 7.357-1.953 11.914-5.86 4.688-3.906 9.57-8.919 14.649-15.039 5.078-6.119 10.156-12.825 15.234-20.117a1103.96 1103.96 0 0 0 14.844-21.68l7.031 5.47a970.087 970.087 0 0 0-6.641 10.937c-2.604 4.427-5.664 9.244-9.179 14.453a340.399 340.399 0 0 1-11.524 15.625c-4.166 5.208-8.594 9.961-13.281 14.258-4.557 4.166-9.31 7.617-14.258 10.351-4.948 2.604-9.896 3.906-14.844 3.906-2.734 0-5.403-.39-8.007-1.171a18.595 18.595 0 0 1-6.641-3.711c-1.953-1.823-3.516-4.167-4.688-7.032-1.171-2.864-1.757-6.38-1.757-10.546 0-5.73.976-11.329 2.929-16.797 1.953-5.469 4.427-10.873 7.422-16.211a283.567 283.567 0 0 1 9.571-15.82 308.005 308.005 0 0 0 9.765-15.82c2.995-5.21 5.469-10.418 7.422-15.626 1.953-5.339 2.93-10.742 2.93-16.21 0-2.735-.521-4.884-1.563-6.446-1.041-1.693-2.995-2.54-5.859-2.54-4.557 0-9.375 1.889-14.453 5.665-5.078 3.646-10.352 8.594-15.821 14.844-5.468 6.25-11.067 13.541-16.797 21.875-5.729 8.203-11.458 16.927-17.187 26.171a1759.67 1759.67 0 0 0-16.797 27.93 32669.808 32669.808 0 0 0-15.82 27.149l-16.406-8.594c6.901-14.193 13.346-26.888 19.336-38.086 6.119-11.198 11.458-21.29 16.015-30.274 4.557-9.114 8.138-17.382 10.742-24.804 2.604-7.552 3.907-14.649 3.907-21.29 0-1.301-.131-2.603-.391-3.906-.26-1.432-.781-2.669-1.563-3.71-.781-1.042-1.822-1.889-3.125-2.54-1.171-.78-2.734-1.171-4.687-1.171-4.427 0-8.919 2.083-13.477 6.25-4.557 4.036-9.375 9.635-14.453 16.796-5.078 7.032-10.547 15.3-16.406 24.805a1596.964 1596.964 0 0 1-18.75 29.883c-6.64 10.547-13.867 21.419-21.68 32.617-7.812 11.068-16.34 21.81-25.586 32.227l-13.476-8.985a5428.72 5428.72 0 0 0 13.086-19.726 739.079 739.079 0 0 0 13.672-21.289 546.223 546.223 0 0 0 12.89-21.29c4.167-7.16 7.813-13.932 10.938-20.312 3.125-6.38 5.599-12.24 7.422-17.578 1.822-5.339 2.734-9.896 2.734-13.672 0-4.427-1.107-7.617-3.32-9.57-2.214-1.953-5.078-2.93-8.594-2.93-4.167 0-8.268 1.498-12.305 4.492-3.906 2.995-8.073 7.227-12.5 12.696-4.297 5.468-8.984 12.044-14.062 19.726-4.948 7.552-10.612 15.886-16.992 25L.445 75.148C7.346 64.211 13.531 54.576 19 46.242c5.599-8.333 10.872-15.3 15.82-20.898 4.948-5.6 9.831-9.831 14.649-12.696 4.948-2.864 10.286-4.296 16.015-4.296 1.693 0 3.842.325 6.446.976 2.734.651 5.403 1.823 8.007 3.516 2.605 1.693 4.883 4.036 6.836 7.031 2.084 2.995 3.32 6.836 3.711 11.523 7.292-9.375 14.909-16.861 22.852-22.46 7.943-5.6 15.43-8.399 22.461-8.399 5.078 0 9.375 1.042 12.891 3.125 3.515 1.953 6.315 4.557 8.398 7.813 2.213 3.255 3.776 6.966 4.687 11.132a49.032 49.032 0 0 1 1.563 12.305c0 1.042-.065 2.148-.195 3.32 0 1.172-.065 2.344-.196 3.516Z" fill="#DE0D6F"/></svg>