<svg width="368" height="392" fill="none" xmlns="http://www.w3.org/2000/svg"><path d="M274.177 256.086s-5.806 35.452 16.011 43.765c21.817 8.314 16.318-8.929 16.318-8.929s8.402-2.903-16.186-14.867c-11.568-5.63-16.143-19.969-16.143-19.969Z" fill="url(#a)"/><path d="M302.508 302.093s30.789.22 37.519-41.126c6.686-41.347 22.301-49.176 22.301-49.176s-66.946 7.829-59.82 90.302Z" fill="#731054"/><path d="M301.583 300.994c7.17 10.645 25.072-21.86 19.354-42.841-5.718-21.025-16.935-33.649-17.067-48.516 0-.044-37.607 39.015-2.287 91.357Z" fill="#DE0D6F"/><path d="M14.313 264.971s7.785 35.056 31.141 34.66c23.356-.396 11.832-14.383 11.832-14.383s6.73-5.85-20.54-7.785c-12.845-.88-22.434-12.492-22.434-12.492Z" fill="url(#b)"/><path d="M55.705 297.783s23.62-7.39 16.319-33.561c-7.258-26.171 2.287-34.617 2.287-34.617s-48.78 20.982-18.606 68.178Z" fill="#DE0D6F"/><path d="M53.33 296.904c10.6 7.214 15.174-29.602 2.023-46.976-13.108-17.374-28.239-24.94-33.869-38.707 0 0-20.41 50.275 31.846 85.683Z" fill="#731054"/><path d="m173.188 298.047 5.542 7.125s-7.434 8.27-4.971 7.522c2.507-.792 16.187-11.788 16.187-11.788s-6.598-8.885-6.51-8.929c.132-.044-10.248 6.07-10.248 6.07Z" fill="#620B50"/><path d="m165.05 244.605 23.444 49.396-14.911 8.401-24.368-44.249 1.539-14.559 14.296 1.011Z" fill="#620B50"/><path d="m225.796 258.989 17.55 59.776 2.024-.044-13.504-60.084-6.07.352Zm-31.713.968-13.372 59.16 2.375-.044 17.902-59.292-6.905.176Zm15.614-1.672 2.068 60.128 2.815-.044 1.231-59.996-6.114-.088Z" fill="#D3D3D3"/><path d="m193.465 283.795 40.07-2.111.264 4.134-43.369 2.595 3.035-4.618Z" fill="#D3D3D3"/><path opacity=".15" d="m194.038 259.955-.616 3.035 6.642-.132.835-3.035-6.861.132Zm15.702-.22.088 2.903 5.894-.132.088-3.475-6.07.704Z" fill="#D3D3D3"/><path opacity=".5" d="m210.531 282.695.132 4.311-2.551.044-.967-4.179 4.046-.219m4.531 0v4.266l1.935-.132.528-4.266-2.463.132Z" fill="#D3D3D3"/><path d="M180.271 255.646c5.674-2.771 28.678-1.276 28.678-1.276s-6.509-80.625 1.892-81.285c8.401-.66 27.403-6.686 30.834 5.498 3.606 12.8-1.276 81.329-6.07 80.669-10.953-1.495-44.822 2.42-55.026 0-2.595-.615-.308-3.606-.308-3.606Z" fill="#DE0D6F"/><path d="M234.46 179.99c.044 0 .176.22.484.66.132.22.308.484.483.836.176.352.352.747.572 1.187.792 1.804 1.628 4.619 1.98 8.138.396 3.518.396 7.741.352 12.404-.088 4.662-.352 9.764-.792 15.131a675.073 675.073 0 0 1-1.408 15.087c-.484 4.618-.967 8.797-1.583 12.271-.616 3.475-1.452 6.246-2.112 8.094-.659 1.847-1.187 2.815-1.231 2.815-.088-.044.264-1.056.792-2.947a68.437 68.437 0 0 0 1.715-8.094c.528-3.474.924-7.609 1.32-12.227.439-4.619.923-9.721 1.319-15.043.396-5.323.748-10.425.88-15.087.132-4.619.22-8.798-.088-12.272-.264-3.475-.924-6.246-1.584-8.05-.659-1.891-1.187-2.859-1.099-2.903Z" fill="#EAA43F"/><path d="m149.26 208.976-2.111-1.1s-1.364-.484-3.563-1.803a6.037 6.037 0 0 1-1.495-1.276c-.528-.616-1.188-1.451-1.452-2.023-.308-.704-1.231-.748-1.407-.132-.132.616.615 2.551 2.375 4.267 1.759 1.715-1.936 1.187-3.299 1.055-1.364-.176-5.542-.484-5.894-.088-.484.528.044 1.232 1.407 1.364 1.364.132 5.411.836 5.367 1.539-.044.704-6.95-.22-6.95-.22s-1.452-.439-1.54.396c-.176 1.452 7.17 1.936 7.874 1.936.484 0 .44.791-.088.747-.528-.044-6.862-1.099-7.038.396-.132 1.144 6.026.44 7.302 1.364 1.275.923-4.795.044-4.883 1.143-.044.396 0 .704 3.475.748 3.563 0 13.152-1.539 13.152-1.539l-1.364-6.774" fill="#FFBA98"/><path d="M196.37 180.254s-17.99 24.192-22.125 25.248c-4.135 1.099-27.755 2.507-27.755 2.507l-2.111 10.204s30.218 1.584 36.86-3.299c10.468-7.697 21.421-25.467 21.421-25.467.351-5.85-1.892-8.753-6.29-9.193Z" fill="#F7F7F7"/><path d="m147.458 306.932 1.144 8.973s-10.645 3.343-8.094 3.958c2.551.616 19.926-1.891 19.926-1.891s-1.188-10.996-1.056-10.996c.132-.044-11.92-.044-11.92-.044Zm73.016-81.461s10.028 21.421-9.765 28.81l-10.557-22.916 20.322-5.894Z" fill="#731054"/><path d="M206.706 231.19s-57.093-15.703-63.515-2.507c-6.421 13.151 1.232 81.725 1.232 81.725l17.858-1.892s-2.991-60.216 0-62.327c2.991-2.111 44.118 8.269 48.428 8.093 10.513-.44 17.946-20.057-4.003-23.092Z" fill="#731054"/><path d="M207.936 173.789c-7.477.176-13.591 6.114-13.943 13.592-.308 6.246.308 14.779-1.364 22.3-.879 3.871-5.938 19.442-5.938 19.442l5.059.836a55.206 55.206 0 0 0 23.532-1.144l5.762-1.54s3.343-17.33 5.19-33.604c1.584-13.592-1.011-18.87-9.281-20.058l-9.017.176Z" fill="#F7F7F7"/><path d="M203.98 174.755c.264-1.319-.176-6.862-.176-6.862s-5.058-.659-5.234-5.674c-.22-5.014.352-16.582.352-16.582l9.325-4.311 9.984 7.874.924 5.542-2.331 6.598-1.056 12.579-11.788.836Z" fill="#B97A59"/><path d="M203.801 167.894s3.387.088 6.686-2.111c0 0-1.584 3.651-6.598 3.343l-.088-1.232Z" fill="#A0654B"/><path d="m192.761 226.087-2.376-.132s-1.451.132-4.002-.176a7.435 7.435 0 0 1-1.936-.528c-.747-.352-1.715-.836-2.155-1.232-.572-.527-1.451-.175-1.319.484.132.66 1.627 2.068 3.958 2.903 2.331.836-1.275 1.936-2.551 2.332-1.275.395-5.234 1.891-5.366 2.375-.22.704.572 1.099 1.847.66 1.32-.44 5.235-1.54 5.498-.88.22.66-6.377 2.683-6.377 2.683s-1.496.22-1.232 1.012c.484 1.407 7.302-1.276 7.961-1.54.44-.176.748.528.264.704-.528.176-6.686 1.891-6.202 3.299.352 1.099 5.674-2.155 7.214-1.804 1.539.308-4.311 2.068-3.959 3.079.132.396.308.66 3.475-.791 3.255-1.496 11.26-6.906 11.26-6.906l-4.09-5.586" fill="#B97A59"/><path d="M199.934 230.705s11.216-3.211 18.342-9.853c5.674-5.278 5.586-10.204 5.586-10.204l2.683-20.586-26.611 40.643Z" fill="#D3D3D3"/><path d="M215.548 175.371s-2.155 30.086-5.058 33.209c-2.903 3.123-22.037 17.023-22.037 17.023l3.739 9.764s26.303-14.955 29.294-22.652c3.563-9.325 4.223-23.84 4.311-30.042.044-2.639-1.012-5.191-3.079-6.818-2.156-1.715-4.575-1.803-7.17-.484Z" fill="#F7F7F7"/><path d="M230.15 256.48c-.088.352-5.278-.484-11.788-1.011-6.466-.528-11.788-.572-11.788-.924 0-.308 5.322-.792 11.876-.264 6.598.572 11.788 1.891 11.7 2.199Zm-1.979-52.87c-.044.044-.264 0-.352-.352-.088-.308.088-.836.528-1.144.22-.176.572-.308.968-.264.22.044.396.088.571.176.176.088.308.22.44.352.528.616.66 1.452.352 2.287-.308.792-.923 1.364-1.671 1.54-.176.044-.396.044-.572.044-.176 0-.396-.088-.528-.176-.308-.176-.528-.44-.616-.704-.22-.484-.176-1.012.044-1.275.176-.264.396-.264.44-.22.044.044 0 .22 0 .396 0 .175.044.439.264.659.088.132.22.22.352.264.088 0 .132.044.176 0 .088 0 .176 0 .22-.044.308-.088.704-.44.836-.879.132-.396.088-.924-.088-1.188-.22-.308-.396-.352-.704-.264-.264.088-.44.308-.528.44-.088.132-.044.308-.132.352Z" fill="#EAA43F"/><path d="M214.492 184.872c.088 0 .132.704.132 1.936 0 1.231-.044 3.079-.176 5.278-.176 2.243-.44 4.926-1.099 7.829-.66 2.903-1.804 6.07-3.695 9.017-1.935 2.903-4.399 5.191-6.73 7.038-2.331 1.847-4.574 3.299-6.422 4.574-3.695 2.508-5.806 4.267-5.894 4.135-.044-.044.44-.572 1.364-1.407.923-.836 2.331-1.98 4.134-3.343 1.804-1.364 3.959-2.859 6.246-4.707 2.244-1.847 4.619-4.09 6.422-6.862 1.804-2.815 2.947-5.85 3.607-8.665.704-2.815 1.056-5.454 1.32-7.653.483-4.399.659-7.17.791-7.17Zm-6.07-9.369.396-4.486 7.302-1.32 2.199 4.751-9.897 1.055Zm-4.618-5.014 2.903.528v4.486l-3.651-.747.88-5.059m-8.885 21.729c0 4.707-.572 9.369-1.716 13.943Z" fill="#D3D3D3"/><path d="M82.535 223.053h183.903v6.026H82.535v-6.026Zm14.383 6.026-14.383 90.434 7.17.132 24.72-90.566H96.918Z" fill="#000"/><path d="m253.066 228.066 8.357 93.337h-6.73l-18.078-89.466-.924-6.642 17.375 2.771Z" fill="#000"/><path opacity=".3" d="m236.219 229.078.66 4.135 16.583-.616-.308-3.519h-16.935Zm-139.301 0-.66 4.267 17.11-.484 1.056-3.783H96.918Z" fill="#000C38"/><path d="m110.07 189.578 11.481 33.473h51.858l-.396-1.715-20.981-.66-9.632-31.098h-32.33Z" fill="#D3D3D3"/><path d="M133.076 205.766c.351 1.364-.264 2.727-1.32 2.991-1.056.264-2.199-.615-2.551-1.979-.352-1.364.264-2.727 1.319-2.991 1.056-.264 2.2.616 2.552 1.979Z" fill="#F7F7F7"/><path d="M236.968 212.627c-1.539-5.234-2.243-12.58-2.639-17.99-.088-1.056-.132-2.199.264-3.167.396-1.012 1.32-1.891 2.375-1.847.88 0 1.716.659 2.155 1.407.44.792.616 1.672.792 2.551.968 5.059 1.98 10.073 2.947 15.131.924-1.803 2.2-3.431 3.651-4.794.66-.616 1.627-1.232 2.419-.792.704.396.792 1.364.748 2.199a41.407 41.407 0 0 1-.924 7.346" fill="url(#c)"/><path d="M234.855 212.1s-2.595 10.248 7.874 10.732c9.633.44 7.345-10.732 7.345-10.732h-15.219Z" fill="#731054"/><path d="M210.49 150.3s.088.044.22.132c.132.087.352.219.616.439.484.396 1.099 1.188 1.275 2.332.088.571.088 1.231-.132 1.847-.22.66-.571 1.276-1.187 1.803-.264.264-.616.484-.968.66a3.402 3.402 0 0 1-1.188.352c-.835.132-1.715-.044-2.507-.44a4.186 4.186 0 0 1-1.759-1.847c-.176-.396-.308-.792-.352-1.188a5.354 5.354 0 0 1 0-1.187c.088-.748.44-1.452.88-1.98s.967-.879 1.495-1.143a3.762 3.762 0 0 1 2.639-.176c.308.088.528.176.66.264.22.088.308.132.308.132 0 .044-.308-.176-.924-.308-.616-.132-1.539-.22-2.551.264-.484.22-1.012.571-1.407 1.099-.396.528-.704 1.144-.792 1.848a4.592 4.592 0 0 0 0 1.099c.044.396.176.748.352 1.1.308.704.923 1.319 1.627 1.759a4.11 4.11 0 0 0 2.375.44c.396-.044.748-.176 1.1-.308.352-.176.66-.352.924-.616.572-.483.923-1.099 1.143-1.715.22-.616.22-1.232.132-1.759-.176-1.1-.747-1.892-1.187-2.288-.484-.439-.792-.571-.792-.615Zm-11.216-.792h.264c.176 0 .395.044.703.132a4.18 4.18 0 0 1 2.2 1.495c.352.484.615 1.056.703 1.716a4.64 4.64 0 0 1-.22 2.155c-.131.352-.351.704-.571 1.012-.264.308-.528.615-.88.835a3.957 3.957 0 0 1-2.463.704 4.129 4.129 0 0 1-2.375-.88 3.891 3.891 0 0 1-.836-.879 5.914 5.914 0 0 1-.528-1.056c-.264-.748-.22-1.495-.088-2.155.132-.66.484-1.232.836-1.672a4.147 4.147 0 0 1 2.287-1.363c.308-.044.572-.088.748-.044.132-.044.22 0 .22 0 0 .044-.352 0-.968.132s-1.495.528-2.199 1.363c-.352.44-.66.968-.792 1.628-.132.616-.132 1.363.088 2.023.088.352.264.704.484 1.012.22.308.484.616.792.836a4 4 0 0 0 2.243.835c.836 0 1.671-.22 2.287-.66.308-.219.616-.483.836-.791.22-.308.44-.616.572-.968.264-.66.351-1.364.264-2.023-.088-.66-.352-1.188-.66-1.672-.66-.923-1.496-1.363-2.068-1.539-.527-.176-.879-.176-.879-.176Z" fill="#620B50"/><path d="M203.011 153.906c0-.044.396-.088.88-.088s.836.088.836.132c0 .044-.396.088-.88.088s-.88-.044-.836-.132Zm9.369.352c0-.044.924-.088 2.067-.044 1.144.044 2.068.132 2.068.176 0 .044-.924.088-2.068.044-1.143-.044-2.067-.132-2.067-.176Z" fill="#620B50"/><path d="M216.469 162.176c2.683-2.947 2.947-7.214 2.991-11.216.044-1.936-.088-3.915-1.055-5.586-.968-1.628-2.639-2.683-4.355-3.431-2.639-1.144-5.63-1.672-8.445-1.144-2.815.528-5.498 2.199-6.906 4.707 0 0 13.064-.264 13.944.264.879.527 3.562 2.419 3.342 4.75-.219 2.331-.879 5.762-.879 5.762l2.111-.308s-.176-3.167.748-3.079c.88.176-1.496 9.281-1.496 9.281Z" fill="#731054"/><path d="M217.086 156.767c.088.352.484.615.88.571.396 0 .747-.219 1.055-.439.616-.484 1.144-1.188 1.232-1.98.088-.791-.264-1.671-.924-2.067-.704-.396-1.715-.22-2.111.484l-.132 3.431Z" fill="#B97A59"/><rect x=".902" y=".684" width="187.788" height="135.412" rx="10.22" fill="#D6E4F4"/><g clip-path="url(#d)"><path fill="#fff" d="M9.844 17.291h170.485v103.475H9.844z"/><mask id="h" fill="#fff"><path d="M9.844 17.291h170.485v9.471H9.844v-9.471Z"/></mask><path d="M9.844 17.291h170.485v9.471H9.844v-9.471Z" fill="#fff"/><path d="M25.214 21.15c.093-.11.19-.21.289-.304.1-.093.198-.173.298-.24.1-.068.197-.12.293-.155a.787.787 0 0 1 .284-.058c.07 0 .14.013.207.039a.505.505 0 0 1 .317.299.712.712 0 0 1 .049.274c0 .155-.021.307-.063.458a3.045 3.045 0 0 1-.159.434 5.412 5.412 0 0 1-.206.41l-.203.38a2.913 2.913 0 0 0-.158.343.808.808 0 0 0-.063.294c0 .07.018.122.053.154a.198.198 0 0 0 .12.043c.084 0 .182-.048.294-.144.115-.097.236-.22.36-.371.126-.151.251-.317.376-.497.128-.183.25-.361.366-.535l.173.135c-.042.067-.096.157-.164.27a6.84 6.84 0 0 1-.51.742 3.111 3.111 0 0 1-.327.352c-.112.103-.23.188-.351.256a.778.778 0 0 1-.366.096.685.685 0 0 1-.197-.029.46.46 0 0 1-.164-.091.483.483 0 0 1-.115-.174.689.689 0 0 1-.043-.26c0-.142.024-.28.072-.415.048-.135.109-.268.183-.4.073-.132.152-.262.235-.39.087-.132.167-.262.241-.39.074-.13.135-.258.183-.386.048-.132.072-.265.072-.4a.284.284 0 0 0-.038-.16c-.026-.041-.074-.062-.145-.062a.605.605 0 0 0-.356.14c-.125.09-.255.212-.39.366a5.898 5.898 0 0 0-.413.54c-.142.202-.283.418-.424.646-.138.225-.276.454-.414.689l-.39.67-.403-.212c.17-.35.328-.664.476-.94.15-.276.282-.525.394-.747.113-.225.2-.43.265-.612a1.62 1.62 0 0 0 .096-.526.492.492 0 0 0-.01-.096.216.216 0 0 0-.038-.092.213.213 0 0 0-.077-.062.205.205 0 0 0-.115-.03c-.11 0-.22.052-.332.155-.113.1-.231.238-.356.415-.125.173-.26.377-.404.612-.142.231-.295.477-.462.737-.164.26-.342.529-.534.805a9.116 9.116 0 0 1-.63.795l-.333-.221.323-.487c.115-.174.227-.349.337-.526.112-.176.218-.351.317-.525.103-.177.193-.344.27-.501.077-.158.137-.302.182-.434.045-.132.068-.244.068-.337 0-.11-.028-.188-.082-.237a.308.308 0 0 0-.212-.072.504.504 0 0 0-.303.11 1.904 1.904 0 0 0-.308.314 7.44 7.44 0 0 0-.346.487c-.122.186-.262.392-.419.617l-.173-.135c.17-.27.322-.508.457-.713.138-.206.268-.378.39-.516s.242-.243.36-.313a.773.773 0 0 1 .395-.106c.042 0 .095.008.159.024a.58.58 0 0 1 .366.26.574.574 0 0 1 .091.284c.18-.231.367-.416.563-.554.195-.138.38-.207.553-.207a.612.612 0 0 1 .525.27c.054.08.093.172.115.274a1.215 1.215 0 0 1 .029.473Z" fill="#731054"/><g clip-path="url(#e)" stroke="#731054" stroke-width=".237" stroke-linecap="round"><path d="M138.309 20.844v1.065c0 .066.053.119.118.119h1.421a.118.118 0 0 0 .118-.119v-1.065"/><path d="m140.201 20.963-1.029-.8a.06.06 0 0 0-.073 0l-1.029.8"/></g><path d="M137.44 22.506h.231v.994h-.231v-.994Zm-.451.994h-.23v-.994h.23v.994Zm.469-.408h-.486v-.194h.486v.194Zm.796.42a.45.45 0 0 1-.217-.052.397.397 0 0 1-.15-.139.386.386 0 0 1-.054-.203.38.38 0 0 1 .054-.203.383.383 0 0 1 .15-.14.45.45 0 0 1 .217-.05.45.45 0 0 1 .216.05c.063.034.113.08.149.138a.384.384 0 0 1 .054.205.386.386 0 0 1-.054.203.387.387 0 0 1-.149.14.45.45 0 0 1-.216.05Zm0-.183c.037 0 .07-.008.099-.025a.18.18 0 0 0 .07-.072.24.24 0 0 0 .026-.114.235.235 0 0 0-.026-.114.18.18 0 0 0-.07-.072.192.192 0 0 0-.099-.026.192.192 0 0 0-.17.098.224.224 0 0 0-.026.114c0 .043.008.081.026.114a.189.189 0 0 0 .17.098Zm1.546-.605a.34.34 0 0 1 .161.037c.047.024.084.06.11.111.028.05.042.113.042.19v.438h-.222v-.404c0-.061-.013-.107-.038-.136a.137.137 0 0 0-.108-.044.17.17 0 0 0-.087.023.146.146 0 0 0-.06.065.26.26 0 0 0-.021.112v.384h-.222v-.404c0-.061-.012-.107-.038-.136a.131.131 0 0 0-.106-.044.165.165 0 0 0-.087.023.14.14 0 0 0-.06.065.26.26 0 0 0-.021.112v.384h-.222v-.764h.212v.209l-.04-.062a.274.274 0 0 1 .112-.117.343.343 0 0 1 .168-.042c.07 0 .131.018.183.054a.253.253 0 0 1 .105.162l-.078-.021a.314.314 0 0 1 .122-.142.364.364 0 0 1 .195-.053Zm.896.787a.495.495 0 0 1-.23-.05.382.382 0 0 1-.152-.14.386.386 0 0 1-.054-.203.373.373 0 0 1 .199-.342.425.425 0 0 1 .209-.052.42.42 0 0 1 .202.049c.06.03.108.076.143.136.035.059.053.13.053.212l-.002.03-.003.03h-.621v-.13h.505l-.085.038a.203.203 0 0 0-.025-.103.171.171 0 0 0-.066-.069.193.193 0 0 0-.1-.025.2.2 0 0 0-.101.026.17.17 0 0 0-.066.07.206.206 0 0 0-.025.104v.034c0 .042.009.079.027.111a.19.19 0 0 0 .079.073.273.273 0 0 0 .119.024.26.26 0 0 0 .192-.074l.118.128a.347.347 0 0 1-.133.092.498.498 0 0 1-.183.031Z" fill="#731054"/><g clip-path="url(#f)" clip-rule="evenodd" stroke="#B2B2B2" stroke-width=".237" stroke-linecap="round"><path d="M147.359 20.488h2.013c.065 0 .118.053.118.119v1.302a.118.118 0 0 1-.118.118h-1.894a.119.119 0 0 1-.119-.118v-1.42Z"/><path d="M147.359 20.192a.06.06 0 0 1 .06-.06h.745c.015 0 .03.007.041.018l.338.338h-1.184v-.296Z"/></g><path d="M145.592 23.5v-.994h.372a.52.52 0 0 1 .217.04.3.3 0 0 1 .139.117c.034.05.05.111.05.183a.31.31 0 0 1-.189.298.537.537 0 0 1-.217.04h-.314l.047-.048v.364h-.105Zm.679 0-.256-.36h.114l.257.36h-.115Zm-.574-.355-.047-.05h.311c.099 0 .175-.022.226-.065a.226.226 0 0 0 .078-.184.227.227 0 0 0-.078-.184c-.051-.044-.127-.066-.226-.066h-.311l.047-.05v.599Zm1.217.362a.375.375 0 0 1-.343-.183.39.39 0 0 1-.049-.198c0-.074.015-.139.047-.196a.351.351 0 0 1 .318-.183c.07 0 .132.016.186.048a.329.329 0 0 1 .129.134.395.395 0 0 1 .047.197l-.001.016v.016h-.65v-.076h.596l-.04.03a.282.282 0 0 0-.036-.143.248.248 0 0 0-.231-.135.27.27 0 0 0-.138.035.246.246 0 0 0-.095.1.303.303 0 0 0-.034.146v.016a.268.268 0 0 0 .142.252.329.329 0 0 0 .155.035.327.327 0 0 0 .126-.025.258.258 0 0 0 .102-.073l.057.065a.319.319 0 0 1-.125.09.41.41 0 0 1-.163.032Zm.85 0a.408.408 0 0 1-.199-.048.362.362 0 0 1-.136-.135.391.391 0 0 1-.05-.198c0-.075.017-.14.05-.197a.351.351 0 0 1 .136-.134.408.408 0 0 1 .199-.048c.064 0 .121.012.172.037a.283.283 0 0 1 .121.11l-.075.052a.24.24 0 0 0-.096-.084.284.284 0 0 0-.123-.027.285.285 0 0 0-.144.037.265.265 0 0 0-.101.1.313.313 0 0 0-.037.154c0 .06.013.11.037.154a.275.275 0 0 0 .101.102.293.293 0 0 0 .144.036.284.284 0 0 0 .123-.027.245.245 0 0 0 .096-.083l.075.051a.296.296 0 0 1-.121.111.39.39 0 0 1-.172.037Zm.783 0a.367.367 0 0 1-.38-.38c0-.075.017-.141.05-.198a.356.356 0 0 1 .135-.134.39.39 0 0 1 .195-.048c.073 0 .139.016.196.048a.356.356 0 0 1 .135.134.386.386 0 0 1 .049.197.367.367 0 0 1-.38.38Zm0-.09a.26.26 0 0 0 .241-.138.308.308 0 0 0 .037-.153.303.303 0 0 0-.037-.153.251.251 0 0 0-.098-.101.275.275 0 0 0-.142-.037.275.275 0 0 0-.242.138.313.313 0 0 0-.037.153c0 .058.013.11.037.154a.273.273 0 0 0 .1.102.28.28 0 0 0 .141.036Zm.586.083v-.746h.097v.203l-.01-.035a.244.244 0 0 1 .105-.13.342.342 0 0 1 .183-.045v.098h-.011a.238.238 0 0 0-.196.071c-.045.047-.067.115-.067.203v.381h-.101Zm.849.007a.358.358 0 0 1-.324-.182.404.404 0 0 1-.048-.199c0-.075.016-.142.048-.199a.347.347 0 0 1 .133-.132.377.377 0 0 1 .191-.048c.066 0 .124.015.175.044.052.03.093.072.124.13a.42.42 0 0 1 .047.205c0 .08-.016.15-.046.206a.316.316 0 0 1-.124.131.345.345 0 0 1-.176.044Zm.007-.09a.263.263 0 0 0 .242-.138.308.308 0 0 0 .037-.153.303.303 0 0 0-.037-.153.254.254 0 0 0-.099-.101.278.278 0 0 0-.143-.037.268.268 0 0 0-.14.037.263.263 0 0 0-.1.1.313.313 0 0 0-.037.154c0 .058.013.11.037.154a.273.273 0 0 0 .1.102.275.275 0 0 0 .14.036Zm.282.083v-.224l.01-.151-.015-.15v-.53h.101V23.5h-.096Zm.578.007a.585.585 0 0 1-.175-.026.379.379 0 0 1-.129-.066l.045-.08a.437.437 0 0 0 .266.084c.071 0 .122-.01.153-.033a.106.106 0 0 0 .047-.09.08.08 0 0 0-.027-.063.157.157 0 0 0-.068-.036.78.78 0 0 0-.095-.02 2.04 2.04 0 0 1-.105-.02.388.388 0 0 1-.094-.034.193.193 0 0 1-.07-.06.182.182 0 0 1-.025-.103c0-.04.011-.077.034-.11a.219.219 0 0 1 .099-.075.417.417 0 0 1 .162-.028.548.548 0 0 1 .264.07l-.044.08a.324.324 0 0 0-.106-.048.43.43 0 0 0-.114-.015c-.067 0-.117.012-.149.035a.105.105 0 0 0-.047.088c0 .029.009.051.026.067a.197.197 0 0 0 .069.038c.03.009.061.016.095.022.035.005.07.012.104.021a.396.396 0 0 1 .095.033.162.162 0 0 1 .097.156.18.18 0 0 1-.037.114.238.238 0 0 1-.105.073.476.476 0 0 1-.166.026Z" fill="#B2B2B2"/><g clip-path="url(#g)" stroke="#B2B2B2" stroke-width=".237" stroke-linecap="round"><path clip-rule="evenodd" d="M156.858 20.963a.296.296 0 1 0 0-.591.296.296 0 0 0 0 .591Z"/><path d="M156.148 22.029a.71.71 0 0 1 1.421 0M157.57 20.963a.296.296 0 1 0 0-.592M157.703 21.33a.71.71 0 0 1 .576.698"/></g><path d="M155.574 23.5v-.904h-.35v-.09h.805v.09h-.35v.904h-.105Zm.84.007a.416.416 0 0 1-.204-.048.36.36 0 0 1-.138-.135.391.391 0 0 1-.05-.198c0-.074.016-.139.047-.196a.354.354 0 0 1 .318-.183.356.356 0 0 1 .316.182.406.406 0 0 1 .047.197l-.002.016v.016h-.649v-.076h.595l-.04.03a.282.282 0 0 0-.129-.243.266.266 0 0 0-.138-.035.264.264 0 0 0-.137.035.249.249 0 0 0-.096.1.315.315 0 0 0-.034.146v.016c0 .056.013.107.037.15a.283.283 0 0 0 .26.137.328.328 0 0 0 .127-.025.273.273 0 0 0 .102-.073l.057.065a.319.319 0 0 1-.125.09.419.419 0 0 1-.164.032Zm.988-.007v-.165l-.005-.027v-.275c0-.064-.018-.113-.054-.147-.035-.034-.087-.05-.157-.05a.39.39 0 0 0-.249.087l-.046-.075a.4.4 0 0 1 .137-.074.519.519 0 0 1 .168-.027c.096 0 .17.024.223.073.053.047.079.12.079.217v.463h-.096Zm-.258.007a.366.366 0 0 1-.146-.027.224.224 0 0 1-.094-.077.2.2 0 0 1-.032-.113c0-.04.009-.074.027-.105a.193.193 0 0 1 .091-.077.403.403 0 0 1 .17-.03h.257v.075h-.254c-.072 0-.122.013-.151.039a.126.126 0 0 0-.041.095c0 .043.017.077.05.102a.221.221 0 0 0 .139.038.266.266 0 0 0 .146-.038.225.225 0 0 0 .091-.113l.023.07a.237.237 0 0 1-.099.117.329.329 0 0 1-.177.044Zm1.56-.76c.061 0 .113.012.158.035a.24.24 0 0 1 .105.106.38.38 0 0 1 .038.179v.433h-.101v-.423c0-.079-.019-.138-.056-.178a.203.203 0 0 0-.158-.061.266.266 0 0 0-.134.033.215.215 0 0 0-.086.092.32.32 0 0 0-.03.145v.392h-.101v-.423c0-.079-.019-.138-.057-.178a.207.207 0 0 0-.159-.061.26.26 0 0 0-.132.033.213.213 0 0 0-.088.092.32.32 0 0 0-.03.145v.392h-.101v-.746h.097v.202l-.016-.036a.265.265 0 0 1 .109-.126.344.344 0 0 1 .181-.047c.073 0 .135.018.186.055.051.036.084.09.099.164l-.039-.016c.021-.06.06-.11.115-.146a.347.347 0 0 1 .2-.057Z" fill="#B2B2B2"/><circle cx="166.123" cy="22.027" r="2.841" fill="#89EC9E"/><path d="M165.186 22.605v-1.657h.194l.744 1.253h-.104l.734-1.253h.194l.002 1.657h-.227l-.003-1.3h.055l-.654 1.1h-.108l-.659-1.1h.059v1.3h-.227Z" fill="#000"/><path d="M180.329 26.526H9.844v.473h170.485v-.473Z" fill="#731054" mask="url(#h)"/><g filter="url(#i)"><rect x="21.473" y="42.48" width="69.615" height="73.877" rx="1.894" fill="#fff"/><g clip-path="url(#j)"><path d="M25.104 113.763a.811.811 0 0 1-.286-.049.68.68 0 0 1-.379-.362.697.697 0 0 1-.053-.275.67.67 0 0 1 .434-.634.78.78 0 0 1 .286-.051c.115 0 .219.02.31.06a.596.596 0 0 1 .236.174l-.197.182a.442.442 0 0 0-.504-.125.382.382 0 0 0-.224.222.47.47 0 0 0-.03.172c0 .063.01.121.03.173a.418.418 0 0 0 .09.134.382.382 0 0 0 .134.087.47.47 0 0 0 .352-.007.472.472 0 0 0 .152-.12l.197.182a.61.61 0 0 1-.235.176.762.762 0 0 1-.313.061Zm.734-.023v-1.405h.296v1.405h-.296Zm.57 0v-1.019h.295v1.019h-.295Zm.148-1.161a.19.19 0 0 1-.133-.047.155.155 0 0 1-.051-.118c0-.046.017-.086.051-.117a.186.186 0 0 1 .133-.048c.054 0 .098.016.132.046a.142.142 0 0 1 .051.114c0 .049-.017.09-.05.123a.186.186 0 0 1-.133.047Zm.927 1.176a.655.655 0 0 1-.306-.068.504.504 0 0 1-.203-.185.516.516 0 0 1-.072-.271.498.498 0 0 1 .265-.457.57.57 0 0 1 .279-.068c.1 0 .189.021.269.064.08.042.144.103.19.182a.544.544 0 0 1 .07.322l-.005.04h-.828v-.172h.673l-.114.051a.281.281 0 0 0-.032-.138.25.25 0 0 0-.222-.126.26.26 0 0 0-.134.035.223.223 0 0 0-.09.092.292.292 0 0 0-.031.141v.045c0 .056.012.105.036.148.025.041.06.074.104.096a.361.361 0 0 0 .159.033.384.384 0 0 0 .142-.025.337.337 0 0 0 .114-.074l.157.171a.467.467 0 0 1-.176.123.682.682 0 0 1-.245.041Zm1.31-1.049a.46.46 0 0 1 .215.049.345.345 0 0 1 .152.148c.036.066.055.15.055.254v.583h-.296v-.538c0-.082-.018-.142-.055-.182-.035-.039-.086-.058-.151-.058-.047 0-.09.01-.127.03a.207.207 0 0 0-.087.089.345.345 0 0 0-.03.155v.504h-.296v-1.019h.282v.282l-.053-.085a.38.38 0 0 1 .157-.157.48.48 0 0 1 .233-.055Zm1.106 1.049a.4.4 0 0 1-.28-.091c-.067-.061-.1-.153-.1-.274v-.894h.295v.89a.14.14 0 0 0 .034.1.124.124 0 0 0 .093.034.191.191 0 0 0 .12-.037l.079.208a.34.34 0 0 1-.11.049.559.559 0 0 1-.13.015Zm-.538-.784v-.227h.707v.227h-.707Z" fill="#000"/></g></g><g filter="url(#k)"><rect x="97.457" y="41.918" width="69.615" height="73.877" rx="1.894" fill="#fff"/></g></g><path d="m136.952 184-18.372-48.863H71.008L136.952 184Z" fill="#D6E4F4"/><path stroke="#000" d="M31 38.5h49M31 50.5h31M31 99h40M31 87.5h49M31 76.5h31M31 67.5h40M110 58.5h49M110 50.5h31M110 99h40M110 87.5h49M110 76.5h31M110 67.5h40"/><defs><clipPath id="d"><path fill="#fff" transform="translate(9.844 17.291)" d="M0 0h170.485v103.475H0z"/></clipPath><clipPath id="e"><path fill="#fff" transform="translate(137.719 19.658)" d="M0 0h2.841v2.841H0z"/></clipPath><clipPath id="f"><path fill="#fff" transform="translate(147.008 19.658)" d="M0 0h2.841v2.841H0z"/></clipPath><clipPath id="g"><path fill="#fff" transform="translate(155.797 19.658)" d="M0 0h2.841v2.841H0z"/></clipPath><clipPath id="j"><path fill="#fff" transform="translate(24.313 51.951)" d="M0 0h63.932v62.511H0z"/></clipPath><linearGradient id="a" x1="307.891" y1="279.101" x2="277.411" y2="268.151" gradientUnits="userSpaceOnUse"><stop stop-color="#DE0D6F"/><stop offset="1" stop-color="#731054"/></linearGradient><linearGradient id="b" x1="60.129" y1="282.303" x2="27.483" y2="261.567" gradientUnits="userSpaceOnUse"><stop stop-color="#DE0D6F"/><stop offset="1" stop-color="#731054"/></linearGradient><linearGradient id="c" x1="249.689" y1="201.146" x2="235.714" y2="196.653" gradientUnits="userSpaceOnUse"><stop stop-color="#DE0D6F"/><stop offset="1" stop-color="#731054"/></linearGradient><filter id="i" x="20.052" y="41.06" width="73.402" height="77.665" filterUnits="userSpaceOnUse" color-interpolation-filters="sRGB"><feFlood flood-opacity="0" result="BackgroundImageFix"/><feColorMatrix in="SourceAlpha" values="0 0 0 0 0 0 0 0 0 0 0 0 0 0 0 0 0 0 127 0" result="hardAlpha"/><feOffset dx=".474" dy=".474"/><feGaussianBlur stdDeviation=".947"/><feComposite in2="hardAlpha" operator="out"/><feColorMatrix values="0 0 0 0 0 0 0 0 0 0 0 0 0 0 0 0 0 0 0.1 0"/><feBlend in2="BackgroundImageFix" result="effect1_dropShadow_3274_38833"/><feBlend in="SourceGraphic" in2="effect1_dropShadow_3274_38833" result="shape"/></filter><filter id="k" x="96.036" y="40.497" width="73.402" height="77.665" filterUnits="userSpaceOnUse" color-interpolation-filters="sRGB"><feFlood flood-opacity="0" result="BackgroundImageFix"/><feColorMatrix in="SourceAlpha" values="0 0 0 0 0 0 0 0 0 0 0 0 0 0 0 0 0 0 127 0" result="hardAlpha"/><feOffset dx=".474" dy=".474"/><feGaussianBlur stdDeviation=".947"/><feComposite in2="hardAlpha" operator="out"/><feColorMatrix values="0 0 0 0 0 0 0 0 0 0 0 0 0 0 0 0 0 0 0.1 0"/><feBlend in2="BackgroundImageFix" result="effect1_dropShadow_3274_38833"/><feBlend in="SourceGraphic" in2="effect1_dropShadow_3274_38833" result="shape"/></filter></defs></svg>