<svg width="307" height="283" fill="none" xmlns="http://www.w3.org/2000/svg"><path d="M153.5 175.368c14.017 0 25.248-11.989 25.248-26.842l.084-53.684C178.832 79.99 167.517 68 153.5 68c-14.018 0-25.333 11.99-25.333 26.842v53.684c0 14.853 11.315 26.842 25.333 26.842Zm44.753-26.842c0 26.842-21.448 45.632-44.753 45.632-23.306 0-44.754-18.79-44.754-45.632H94.391c0 30.6 22.968 55.742 50.664 60.127V238h16.889v-29.347c27.696-4.295 50.665-29.527 50.665-60.127h-14.356Z" fill="#6B85AF"/><path d="M199.811 12.58c.487-1.214 1.397-2.168 2.529-2.651a4.23 4.23 0 0 1 3.506.076l12.593 6.015c1.113.532 1.987 1.524 2.43 2.76a5.427 5.427 0 0 1-.07 3.825l-11.024 27.483c-.488 1.214-1.397 2.168-2.529 2.651a4.23 4.23 0 0 1-3.506-.076l-12.593-6.015c-1.113-.532-1.987-1.524-2.43-2.759a5.422 5.422 0 0 1 .07-3.826l11.024-27.483Zm2.487 31.208a2.71 2.71 0 0 0 .035-1.913 2.415 2.415 0 0 0-1.215-1.38 2.115 2.115 0 0 0-1.753-.038 2.39 2.39 0 0 0-1.264 1.326 2.71 2.71 0 0 0-.035 1.913 2.415 2.415 0 0 0 1.215 1.38c.556.265 1.187.279 1.753.037a2.39 2.39 0 0 0 1.264-1.325Z" fill="#E2B25B"/><path d="M174.235 36.339h-.238c.603 0 1.092-.544 1.092-1.215V6.215c0-.672-.489-1.215-1.092-1.215h-39.594c-.603 0-1.092.543-1.092 1.215v28.91c0 .67.489 1.215 1.092 1.215h-.261l-4.009 4.245c0 1.457 1.081 2.915 2.403 2.915h43.306c1.247 0 2.403-1.454 2.403-2.916l-4.01-4.245ZM154.2 5.679a.574.574 0 0 1 .245.043c.078.033.15.083.21.146a.728.728 0 0 1 .001.979.63.63 0 0 1-.21.145.577.577 0 0 1-.245.045.6.6 0 0 1-.426-.207.714.714 0 0 1-.175-.472c0-.176.062-.345.174-.472a.602.602 0 0 1 .426-.208m-19.733 31.536h39.443l2.356 2.495h-17.633l-.319-.462h-8.228l-.32.462H132.11l2.357-2.495Zm23.183 5.27h-6.924c-.237 0-.869 0-.869-.883h8.663c0 .882-.645.882-.87.882Z" fill="#FFA29F"/><path d="M103.232 7.604 83.085 17.23c-1.847.882-2.698 3.251-1.888 5.268l11.76 29.314c.81 2.015 2.982 2.942 4.829 2.06l20.148-9.626c1.848-.883 2.696-3.253 1.887-5.268L108.06 9.664c-.809-2.017-2.979-2.943-4.828-2.06Zm3.893 39.623c-1.159.554-2.428.184-2.834-.83-.407-1.012.205-2.28 1.364-2.834 1.156-.553 2.427-.184 2.833.83.407 1.013-.206 2.282-1.363 2.834Zm7.868-10.309-20.147 9.626-10.291-25.65 20.147-9.625 10.291 25.65Z" fill="#89EC9E"/></svg>