<svg width="200" height="200" viewBox="0 0 200 200" fill="none" xmlns="http://www.w3.org/2000/svg">
<path d="M171.68 174.944H173.14L176.317 170.512V167.587C176.317 167.587 178.572 167.45 178.307 171.259C178.042 175.068 178.328 174.099 178.328 174.099C178.328 174.099 183.111 174.099 183.508 174.526C183.798 174.824 183.935 179.577 183.978 182.152C184.009 182.774 183.832 183.388 183.473 183.898C183.115 184.407 182.597 184.781 182.001 184.962C181.834 185.007 181.661 185.03 181.488 185.03C180.293 185.03 174.199 184.061 174.199 184.061H171.68V174.944Z" fill="#E0E0E0"/>
<path d="M167.508 174.148L168.405 184.115H170.903V174.349L167.508 174.148Z" fill="#E0E0E0"/>
<path d="M97.1562 25.0626L103.433 34.03C103.594 34.2538 103.807 34.4352 104.054 34.5589C104.3 34.6826 104.573 34.7448 104.848 34.7402C105.124 34.7355 105.395 34.6643 105.637 34.5324C105.879 34.4006 106.085 34.2121 106.239 33.983L112.315 24.6484L97.1562 25.0626Z" fill="#E0E0E0"/>
<path d="M113.083 10.0391H95.4597C92.7335 10.0391 90.5234 12.2491 90.5234 14.9754V25.0999C90.5234 27.8261 92.7335 30.0362 95.4597 30.0362H113.083C115.809 30.0362 118.019 27.8261 118.019 25.0999V14.9754C118.019 12.2491 115.809 10.0391 113.083 10.0391Z" fill="#E0E0E0"/>
<path d="M109.655 18.1972C108.771 16.5873 107.31 16.3354 106.328 16.7026C105.635 17.0054 105.064 17.5316 104.706 18.1972C104.347 17.5316 103.776 17.0054 103.083 16.7026C102.101 16.3354 100.64 16.5873 99.7607 18.1972C97.9245 21.545 104.706 25.9347 104.706 25.9347C104.706 25.9347 111.491 21.545 109.655 18.1972Z" fill="white"/>
<path d="M28.235 164.984H42.7151C44.261 164.984 45.7436 165.598 46.8367 166.692C47.9298 167.785 48.5439 169.267 48.5439 170.813V178.166C48.5439 179.712 47.9298 181.195 46.8367 182.288C45.7436 183.381 44.261 183.995 42.7151 183.995H38.9317L36.2672 187.804C36.1163 188.02 35.9147 188.196 35.6801 188.316C35.4454 188.436 35.1849 188.496 34.9214 188.492C34.6579 188.488 34.3994 188.419 34.1688 188.292C33.9381 188.164 33.7422 187.982 33.5983 187.761L31.1473 183.995H28.235C26.6891 183.995 25.2066 183.381 24.1135 182.288C23.0204 181.195 22.4063 179.712 22.4062 178.166V170.813C22.4063 169.267 23.0204 167.785 24.1135 166.692C25.2066 165.598 26.6891 164.984 28.235 164.984Z" fill="#E0E0E0"/>
<path d="M34.9613 170.828V178.327L29.5938 174.577L34.9613 170.828Z" fill="white"/>
<path d="M42.1451 178.914C42.1451 178.914 41.7907 173.589 37.529 173.508H34.8047V175.797L37.4906 175.835C37.4906 175.835 40.279 175.771 42.1451 178.914Z" fill="white"/>
<path d="M36.9653 86.48C37.4542 84.417 36.178 82.3483 34.115 81.8595C32.052 81.3707 29.9833 82.6468 29.4945 84.7099C29.0056 86.7729 30.2818 88.8416 32.3448 89.3304C34.4078 89.8192 36.4765 88.5431 36.9653 86.48Z" fill="#E0E0E0"/>
<path d="M33.2351 88.9844C31.4944 88.9844 29.825 89.6759 28.5942 90.9067C27.3634 92.1375 26.6719 93.8069 26.6719 95.5476H39.7983C39.7983 93.8069 39.1069 92.1375 37.876 90.9067C36.6452 89.6759 34.9758 88.9844 33.2351 88.9844Z" fill="#E0E0E0"/>
<path d="M140.728 13.4813C140.728 14.0092 140.572 14.5252 140.279 14.9641C139.985 15.403 139.568 15.745 139.081 15.947C138.593 16.149 138.057 16.2019 137.539 16.0989C137.021 15.9959 136.546 15.7418 136.172 15.3685C135.799 14.9953 135.545 14.5197 135.442 14.002C135.339 13.4843 135.392 12.9477 135.594 12.46C135.796 11.9724 136.138 11.5555 136.577 11.2623C137.016 10.969 137.532 10.8125 138.059 10.8125C138.41 10.8119 138.757 10.8806 139.081 11.0145C139.406 11.1484 139.7 11.345 139.948 11.5929C140.196 11.8409 140.392 12.1353 140.526 12.4594C140.66 12.7834 140.729 13.1307 140.728 13.4813Z" fill="#E0E0E0"/>
<path d="M148.135 19.7313C148.135 20.2592 147.978 20.7752 147.685 21.2141C147.392 21.653 146.975 21.995 146.487 22.197C145.999 22.399 145.463 22.4519 144.945 22.3489C144.427 22.2459 143.952 21.9918 143.579 21.6185C143.205 21.2453 142.951 20.7697 142.848 20.252C142.745 19.7343 142.798 19.1977 143 18.71C143.202 18.2224 143.544 17.8055 143.983 17.5123C144.422 17.219 144.938 17.0625 145.466 17.0625C146.174 17.0625 146.852 17.3437 147.353 17.8442C147.853 18.3447 148.135 19.0235 148.135 19.7313Z" fill="#E0E0E0"/>
<path d="M140.775 26.1063C140.775 26.6342 140.619 27.1502 140.325 27.5891C140.032 28.028 139.615 28.37 139.128 28.572C138.64 28.774 138.103 28.8269 137.586 28.7239C137.068 28.6209 136.592 28.3668 136.219 27.9935C135.846 27.6203 135.592 27.1447 135.489 26.627C135.386 26.1093 135.439 25.5727 135.641 25.085C135.843 24.5974 136.185 24.1805 136.624 23.8873C137.063 23.594 137.579 23.4375 138.106 23.4375C138.814 23.4375 139.493 23.7187 139.994 24.2192C140.494 24.7197 140.775 25.3985 140.775 26.1063Z" fill="#E0E0E0"/>
<path d="M138.242 26.2632L137.96 25.9386L145.134 19.7341L137.922 13.6491L138.195 13.3203L145.792 19.7298L138.242 26.2632Z" fill="#E0E0E0"/>
<path d="M186.784 76.1019C185.631 73.9924 183.718 73.6679 182.437 74.1461C181.526 74.5406 180.774 75.2293 180.302 76.1019C179.829 75.2293 179.077 74.5406 178.166 74.1461C176.885 73.6679 174.972 73.9924 173.819 76.1019C171.437 80.4788 180.336 86.2221 180.336 86.2221C180.336 86.2221 189.188 80.4788 186.784 76.1019Z" fill="#E0E0E0"/>
<path d="M176.294 96.5927C175.469 95.0896 174.112 94.859 173.193 95.2006C172.548 95.483 172.016 95.973 171.682 96.5927C171.347 95.973 170.815 95.483 170.17 95.2006C169.256 94.859 167.894 95.0896 167.074 96.5927C165.366 99.7227 171.682 103.801 171.682 103.801C171.682 103.801 178.006 99.7227 176.294 96.5927Z" fill="#E0E0E0"/>
<path d="M183.219 23.8359H154.746C153.069 23.8359 151.462 24.5016 150.276 25.6867C149.09 26.8718 148.423 28.4793 148.422 30.1558V47.4157C148.422 48.246 148.585 49.0682 148.903 49.8352C149.221 50.6022 149.687 51.2991 150.274 51.886C150.862 52.4729 151.559 52.9384 152.326 53.2557C153.093 53.5731 153.916 53.7361 154.746 53.7356H163.547L168.479 60.7941C168.635 61.0161 168.844 61.1965 169.086 61.3195C169.328 61.4425 169.597 61.5044 169.868 61.4997C170.14 61.4951 170.406 61.4241 170.644 61.2929C170.882 61.1618 171.084 60.9744 171.233 60.7472L175.794 53.7356H183.219C184.049 53.7361 184.872 53.573 185.639 53.2556C186.406 52.9382 187.102 52.4727 187.689 51.8858C188.276 51.2988 188.742 50.6019 189.059 49.8349C189.377 49.0679 189.54 48.2458 189.539 47.4157V30.1558C189.539 29.3258 189.376 28.504 189.058 27.7373C188.741 26.9705 188.275 26.2738 187.688 25.687C187.101 25.1001 186.405 24.6346 185.638 24.317C184.871 23.9994 184.049 23.8359 183.219 23.8359Z" fill="white"/>
<path d="M183.218 23.8357H183.432C183.642 23.837 183.851 23.8513 184.059 23.8784C184.874 23.9721 185.66 24.2323 186.37 24.6427C187.307 25.1742 188.095 25.9356 188.657 26.8552C189.22 27.7747 189.539 28.8223 189.585 29.8993C189.611 30.7832 189.585 31.7141 189.585 32.6962C189.585 36.6333 189.585 41.3817 189.611 46.7878C189.637 47.4792 189.582 48.1714 189.448 48.8502C189.292 49.5497 189.016 50.2171 188.633 50.8231C187.834 52.0949 186.617 53.0491 185.191 53.5218C184.454 53.7501 183.686 53.8582 182.915 53.842H175.792L175.878 53.7951L173.269 57.809L171.924 59.88C171.689 60.2302 171.497 60.5761 171.228 60.9305C170.948 61.2886 170.541 61.5255 170.092 61.5924C169.64 61.6537 169.182 61.5407 168.811 61.2764C168.628 61.1426 168.471 60.9778 168.345 60.7896L167.978 60.2601L166.492 58.125L163.456 53.7908L163.55 53.8378H155.142C154.543 53.8542 153.945 53.8041 153.357 53.6883C152.773 53.5545 152.209 53.3464 151.679 53.0691C150.644 52.5064 149.783 51.6715 149.188 50.6547C148.594 49.6379 148.288 48.4779 148.305 47.3002C148.305 42.7695 148.305 38.4012 148.305 34.2378C148.305 33.1959 148.305 32.171 148.305 31.1547C148.305 30.6466 148.305 30.147 148.331 29.6388C148.352 29.3867 148.386 29.1358 148.433 28.8873C148.493 28.6396 148.549 28.3962 148.626 28.1571C148.941 27.2196 149.461 26.3646 150.15 25.6548C150.833 24.9633 151.663 24.4362 152.58 24.1132C152.799 24.0315 153.023 23.9645 153.25 23.9125C153.475 23.8548 153.703 23.8134 153.933 23.7887C154.386 23.7392 154.841 23.7193 155.296 23.7289H162.828L177.74 23.7674H181.792H182.847H183.205C183.205 23.7674 183.086 23.7674 182.847 23.7674H181.792H177.74L162.828 23.9125H157.888H155.261C154.815 23.9025 154.369 23.9225 153.925 23.9723C153.7 23.9966 153.477 24.038 153.259 24.0962C153.038 24.1472 152.821 24.2128 152.61 24.2926C151.735 24.61 150.943 25.1192 150.291 25.7829C149.623 26.4711 149.119 27.3018 148.818 28.2126C148.741 28.4432 148.69 28.6823 148.63 28.9214C148.57 29.1606 148.54 29.404 148.532 29.6474C148.498 30.1384 148.51 30.6466 148.51 31.1505V34.2335C148.51 38.3969 148.51 42.7738 148.51 47.2959C148.495 48.4338 148.791 49.5543 149.366 50.5364C149.941 51.5185 150.773 52.3248 151.773 52.8685C152.284 53.1379 152.828 53.3389 153.391 53.4663C153.963 53.5815 154.546 53.6302 155.129 53.6115H163.58L163.614 53.6584L166.646 57.9926L168.132 60.1277L168.499 60.6529C168.614 60.8199 168.759 60.9645 168.926 61.08C169.251 61.318 169.655 61.42 170.054 61.3641C170.453 61.3083 170.814 61.0991 171.061 60.781C171.292 60.4565 171.518 60.0893 171.744 59.7477C172.203 59.0531 172.652 58.3627 173.094 57.6766L175.711 53.6627L175.741 53.6157H182.936C183.687 53.6371 184.435 53.5347 185.153 53.3125C186.538 52.8592 187.721 51.9345 188.496 50.6992C188.872 50.1129 189.142 49.4655 189.295 48.7862C189.429 48.1204 189.484 47.4409 189.457 46.7621C189.457 41.3604 189.457 36.612 189.482 32.6706C189.482 31.6885 189.482 30.7533 189.482 29.8779C189.447 29.0652 189.253 28.2672 188.91 27.5294C188.37 26.3417 187.475 25.351 186.348 24.694C185.648 24.2797 184.871 24.011 184.064 23.904C183.857 23.8732 183.649 23.8532 183.44 23.8442L183.218 23.8357Z" fill="#263238"/>
<path d="M169.797 33.0234V44.8176L178.239 38.9205L169.797 33.0234Z" fill="#731054"/>
<path d="M158.492 45.7483C158.492 45.7483 159.052 37.3703 165.751 37.2422H170.022V40.8462L165.798 40.906C165.798 40.906 161.396 40.8035 158.492 45.7483Z" fill="#731054"/>
<path d="M144.735 158.125H193.239C195.942 158.125 198.133 155.934 198.133 153.231V115.688C198.133 112.986 195.942 110.795 193.239 110.795H144.735C142.032 110.795 139.841 112.986 139.841 115.688V153.231C139.841 155.934 142.032 158.125 144.735 158.125Z" fill="white"/>
<path d="M166.642 156.672C166.044 158.119 154.484 168.987 154.484 168.987V156.672H166.642Z" fill="#455A64"/>
<path d="M162.167 146.763C162.167 145.269 162.167 144.022 162.167 143.868C162.167 143.868 157.116 143.39 156.753 138.389C156.578 135.972 156.621 130.959 156.714 126.433C156.763 124.086 157.694 121.843 159.322 120.151C160.949 118.459 163.155 117.442 165.498 117.303L165.981 117.273C171.212 117.273 174.137 121.702 174 126.928L173.816 146.541L165.362 153.335L164.747 153.279L162.167 146.763Z" fill="#FFBF9D"/>
<path d="M162.156 143.866C164.469 143.721 166.692 142.916 168.561 141.547C168.561 141.547 167.191 145.3 162.156 145.151V143.866Z" fill="#FF9A6C"/>
<path d="M165.224 128.594C165.322 128.696 165.903 128.24 166.739 128.227C167.576 128.214 168.2 128.632 168.29 128.526C168.379 128.419 168.23 128.295 167.961 128.099C167.598 127.847 167.164 127.717 166.722 127.727C166.284 127.735 165.86 127.885 165.514 128.154C165.258 128.359 165.177 128.547 165.224 128.594Z" fill="#263238"/>
<path d="M165.844 130.864C165.852 131.041 165.929 131.207 166.058 131.327C166.188 131.447 166.359 131.511 166.536 131.505C166.622 131.507 166.708 131.492 166.789 131.46C166.869 131.429 166.942 131.381 167.004 131.321C167.066 131.26 167.115 131.188 167.148 131.108C167.181 131.028 167.198 130.942 167.197 130.856C167.189 130.68 167.111 130.514 166.982 130.393C166.853 130.273 166.682 130.208 166.506 130.211C166.419 130.209 166.333 130.225 166.252 130.257C166.172 130.289 166.099 130.337 166.037 130.398C165.975 130.459 165.926 130.532 165.893 130.612C165.86 130.692 165.843 130.778 165.844 130.864Z" fill="#263238"/>
<path d="M163.051 134.384C162.632 134.281 162.201 134.231 161.77 134.235C161.573 134.235 161.385 134.201 161.343 134.068C161.314 133.865 161.349 133.658 161.441 133.475C161.595 132.992 161.757 132.48 161.932 131.946C162.611 129.768 163.089 127.979 162.999 127.953C162.91 127.928 162.291 129.661 161.612 131.852C161.449 132.386 161.291 132.898 161.146 133.389C161.037 133.634 161.017 133.909 161.091 134.166C161.123 134.234 161.17 134.293 161.228 134.34C161.287 134.387 161.355 134.419 161.428 134.435C161.539 134.458 161.652 134.466 161.765 134.461C162.195 134.494 162.628 134.468 163.051 134.384Z" fill="#263238"/>
<path d="M165.638 125.899C165.719 126.087 166.389 125.955 167.192 126.01C167.995 126.066 168.653 126.245 168.747 126.066C168.789 125.985 168.665 125.81 168.396 125.639C168.04 125.434 167.64 125.315 167.229 125.293C166.818 125.271 166.407 125.345 166.031 125.511C165.745 125.652 165.604 125.814 165.638 125.899Z" fill="#263238"/>
<path d="M157.78 126.38C157.866 126.534 158.523 126.38 159.313 126.358C160.103 126.337 160.761 126.452 160.846 126.294C160.885 126.222 160.756 126.085 160.483 125.961C160.113 125.808 159.714 125.736 159.313 125.752C158.908 125.758 158.509 125.852 158.143 126.025C157.87 126.166 157.742 126.307 157.78 126.38Z" fill="#263238"/>
<path d="M173.805 130.661C173.886 130.618 177.182 129.435 177.281 132.864C177.379 136.293 173.911 135.683 173.903 135.584C173.894 135.486 173.805 130.661 173.805 130.661Z" fill="#FFBF9D"/>
<path d="M174.917 134.256C174.917 134.256 174.977 134.299 175.08 134.341C175.223 134.399 175.384 134.399 175.528 134.341C175.887 134.196 176.173 133.615 176.173 132.996C176.174 132.701 176.11 132.409 175.985 132.142C175.949 132.036 175.888 131.939 175.807 131.861C175.726 131.783 175.627 131.726 175.519 131.694C175.45 131.677 175.378 131.686 175.314 131.718C175.251 131.75 175.201 131.803 175.174 131.869C175.131 131.967 175.174 132.031 175.135 132.04C175.097 132.048 175.058 131.984 175.084 131.843C175.101 131.757 175.146 131.679 175.212 131.621C175.257 131.584 175.31 131.556 175.367 131.54C175.423 131.524 175.483 131.519 175.541 131.527C175.682 131.552 175.815 131.612 175.927 131.702C176.039 131.791 176.126 131.907 176.181 132.04C176.333 132.334 176.412 132.661 176.412 132.992C176.412 133.684 176.075 134.337 175.584 134.495C175.492 134.525 175.395 134.534 175.3 134.522C175.204 134.509 175.113 134.475 175.033 134.422C174.926 134.337 174.905 134.282 174.917 134.256Z" fill="#FF9A6C"/>
<path d="M164.111 137.3C164.073 137.215 164.747 137.022 165.23 136.395C165.431 136.122 165.594 135.823 165.717 135.507C165.819 135.259 165.896 135.105 165.934 135.118C165.973 135.131 165.956 135.297 165.9 135.545C165.822 135.907 165.666 136.248 165.443 136.544C165.214 136.839 164.908 137.067 164.559 137.202C164.295 137.326 164.111 137.33 164.111 137.3Z" fill="#263238"/>
<path d="M178.435 125.164C177.734 123.943 177.581 122.5 177.213 121.146C176.846 119.793 176.107 118.383 174.792 117.897H174.762C173.579 117.401 172.115 117.376 171.128 118.191C170.911 116.406 169.369 114.972 167.635 114.493C165.902 114.015 163.109 114.254 161.431 114.92C160.15 115.42 158.869 116.47 157.34 118.012C156.692 118.662 156.098 119.363 155.564 120.109L153.992 124.755L155.273 127.218C155.35 127.389 155.427 127.556 155.521 127.722L156.623 132.898C156.717 131.493 156.678 126.595 156.768 125.19C157.827 125.172 158.871 124.94 159.838 124.508C160.805 124.077 161.675 123.455 162.396 122.679C163.173 121.825 163.792 120.779 164.826 120.284C166.162 119.643 167.734 120.143 169.126 120.642L169.066 120.591C169.791 120.937 170.442 121.42 170.983 122.013C170.633 124.79 170.885 127.609 171.722 130.28C171.85 130.681 172.196 131.51 172.576 131.664C173.345 131.971 173.562 131.19 174.028 130.78C174.441 130.504 174.94 130.388 175.433 130.455C175.834 129.294 176.163 128.109 176.419 126.907C176.883 127.057 177.376 127.097 177.858 127.022L177.431 125.959C177.613 126.095 177.82 126.193 178.042 126.245C178.153 126.268 178.268 126.256 178.373 126.212C178.477 126.168 178.566 126.093 178.627 125.997C178.755 125.737 178.58 125.416 178.435 125.164Z" fill="#263238"/>
<path d="M169.547 118.758C169.724 118.899 169.89 119.055 170.042 119.223C170.431 119.706 170.688 120.281 170.789 120.893C170.871 121.315 170.908 121.744 170.901 122.174C170.901 122.635 170.854 123.126 170.811 123.647C170.758 124.192 170.738 124.74 170.751 125.287C170.767 125.573 170.801 125.859 170.854 126.141C170.893 126.45 171.01 126.744 171.195 126.995C171.282 127.093 171.392 127.167 171.515 127.211C171.638 127.254 171.771 127.265 171.9 127.243C172.146 127.199 172.37 127.076 172.54 126.892C172.817 126.517 172.988 126.075 173.036 125.611H172.933C173.078 125.99 173.278 126.345 173.527 126.666C173.766 126.965 174.112 127.16 174.492 127.208C174.668 127.23 174.847 127.202 175.008 127.127C175.158 127.051 175.281 126.932 175.363 126.786C175.437 126.656 175.475 126.508 175.474 126.359C175.471 126.214 175.417 126.074 175.32 125.966L175.265 126.013C175.559 126.356 175.921 126.636 176.328 126.833C176.436 126.884 176.547 126.928 176.661 126.965C176.699 126.982 176.739 126.992 176.781 126.995L176.669 126.948C176.593 126.914 176.486 126.871 176.345 126.799C175.952 126.591 175.604 126.308 175.32 125.966L175.269 126.013C175.349 126.119 175.394 126.248 175.397 126.381C175.401 126.514 175.364 126.645 175.29 126.756C175.217 126.887 175.105 126.993 174.97 127.059C174.823 127.126 174.66 127.149 174.5 127.127C174.148 127.076 173.829 126.893 173.608 126.615C173.368 126.299 173.174 125.951 173.031 125.582L172.963 125.419L172.929 125.59C172.878 126.028 172.715 126.446 172.455 126.803C172.303 126.966 172.102 127.075 171.883 127.115C171.773 127.135 171.661 127.127 171.556 127.09C171.451 127.053 171.357 126.99 171.285 126.905C171.113 126.674 171.004 126.402 170.969 126.115C170.914 125.834 170.879 125.548 170.866 125.261C170.853 124.718 170.87 124.175 170.918 123.634C170.956 123.113 170.999 122.618 170.999 122.153C171 121.722 170.957 121.293 170.871 120.872C170.761 120.25 170.487 119.669 170.076 119.189C169.925 119.017 169.746 118.872 169.547 118.758Z" fill="#455A64"/>
<path d="M154.023 123.425C154.023 123.425 154.023 123.425 154.062 123.459L154.186 123.553C154.252 123.604 154.322 123.649 154.395 123.69C154.492 123.751 154.593 123.805 154.698 123.852C155.363 124.17 156.097 124.316 156.833 124.279C157.926 124.221 158.979 123.847 159.865 123.203C160.933 122.407 161.828 121.401 162.495 120.248C162.867 119.65 163.17 119.031 163.503 118.463C163.81 117.91 164.194 117.402 164.643 116.956C165.048 116.555 165.548 116.261 166.095 116.102C166.343 116.037 166.599 116.011 166.855 116.025C167.091 116.042 167.324 116.09 167.547 116.17C167.933 116.307 168.286 116.526 168.58 116.811C168.806 117.024 168.993 117.274 169.136 117.55C169.245 117.791 169.33 118.043 169.387 118.301C169.388 118.284 169.388 118.267 169.387 118.25C169.387 118.207 169.387 118.156 169.387 118.096C169.346 117.901 169.285 117.711 169.204 117.528C169.064 117.245 168.878 116.986 168.653 116.764C168.184 116.282 167.555 115.988 166.885 115.935C166.619 115.917 166.352 115.943 166.095 116.012C165.53 116.167 165.014 116.46 164.592 116.866C164.133 117.316 163.742 117.829 163.431 118.391C163.093 118.967 162.79 119.582 162.419 120.176C161.76 121.316 160.878 122.312 159.827 123.105C158.954 123.744 157.917 124.118 156.837 124.185C156.113 124.232 155.389 124.105 154.724 123.814C154.25 123.605 154.032 123.408 154.023 123.425Z" fill="#455A64"/>
<path d="M157.583 128.808C157.681 128.911 158.266 128.454 159.103 128.445C159.94 128.437 160.559 128.851 160.649 128.744C160.738 128.638 160.593 128.51 160.32 128.317C159.957 128.066 159.523 127.936 159.081 127.946C158.643 127.955 158.22 128.105 157.873 128.373C157.621 128.574 157.536 128.766 157.583 128.808Z" fill="#263238"/>
<path d="M158.867 130.977C158.876 131.154 158.953 131.32 159.082 131.44C159.212 131.56 159.382 131.626 159.559 131.622C159.646 131.624 159.732 131.608 159.812 131.576C159.893 131.544 159.966 131.496 160.028 131.435C160.089 131.374 160.138 131.302 160.171 131.222C160.205 131.141 160.221 131.056 160.221 130.969C160.212 130.793 160.135 130.627 160.005 130.508C159.876 130.388 159.705 130.324 159.529 130.328C159.443 130.326 159.357 130.341 159.276 130.373C159.196 130.404 159.122 130.452 159.061 130.513C158.999 130.573 158.95 130.645 158.917 130.725C158.883 130.805 158.867 130.891 158.867 130.977Z" fill="#263238"/>
<path d="M156.004 119.531C155.577 120.095 154.924 120.607 154.224 120.53C153.969 120.477 153.719 120.404 153.476 120.313C153.233 120.462 153.288 121.299 153.476 121.53C153.635 121.725 153.811 121.907 154.001 122.072C153.177 122.499 152.43 122.298 151.555 121.978C151.643 122.726 151.926 123.439 152.375 124.043C152.825 124.648 153.425 125.124 154.117 125.424C154.328 125.537 154.563 125.599 154.803 125.603C155.043 125.608 155.281 125.555 155.496 125.45C155.827 125.18 156.045 124.796 156.107 124.374C156.499 122.873 156.705 121.33 156.722 119.779L156.004 119.531Z" fill="#263238"/>
<path d="M150.726 152.406L150.815 152.291C154.821 148.051 162.195 146.633 162.195 146.633C162.195 146.633 162.648 149.409 166.781 149.72C170.915 150.032 173.938 145.805 173.938 145.805L179.489 146.59C179.489 146.59 182.265 146.919 183.99 147.935C187.884 150.224 189.968 158.12 189.968 158.12L147.438 158.295L150.726 152.406Z" fill="#455A64"/>
<path d="M146.832 110.793L146.533 110.814L146.166 110.84C146.021 110.84 145.854 110.887 145.662 110.917C144.537 111.108 143.477 111.578 142.579 112.283C141.924 112.794 141.366 113.417 140.931 114.123C140.406 114.971 140.07 115.922 139.948 116.912C139.891 117.468 139.871 118.027 139.889 118.586C139.889 119.162 139.889 119.764 139.889 120.379C139.889 121.618 139.889 122.941 139.889 124.316C139.889 129.868 139.889 136.563 139.91 144.211C139.91 146.124 139.91 148.094 139.91 150.121C139.91 150.625 139.91 151.137 139.94 151.641C139.978 152.15 140.07 152.654 140.213 153.144C140.522 154.141 141.053 155.056 141.768 155.817C142.489 156.607 143.39 157.211 144.394 157.581L144.774 157.717L145.167 157.82C145.431 157.886 145.699 157.934 145.969 157.965C146.519 158.017 147.07 158.037 147.622 158.025H154.565V158.123C154.565 161.561 154.565 165.229 154.565 168.991L154.39 168.914C156.189 167.206 158.015 165.455 159.869 163.661C161.713 161.851 163.601 160.015 165.399 158.051L165.433 158.016H190.341C190.797 158.016 191.25 158.016 191.694 157.991C193.024 157.879 194.293 157.382 195.346 156.56C196.398 155.739 197.189 154.629 197.621 153.366C197.895 152.541 198.024 151.674 198.001 150.804V148.157C198.001 141.175 198.001 134.437 198.001 128.019C198.001 124.813 198.001 121.682 198.001 118.624C198.031 117.876 197.986 117.126 197.865 116.387C197.712 115.669 197.449 114.979 197.087 114.341C196.73 113.712 196.273 113.146 195.734 112.663C195.211 112.182 194.614 111.788 193.966 111.497C193.33 111.206 192.653 111.014 191.959 110.929C191.27 110.871 190.579 110.851 189.888 110.87H185.836H178.218L155.231 110.835L148.98 110.814H155.231L178.218 110.78H185.836H189.888C190.587 110.762 191.287 110.782 191.985 110.84C192.697 110.926 193.391 111.122 194.043 111.42C194.71 111.718 195.324 112.122 195.862 112.616C196.414 113.107 196.884 113.684 197.254 114.324C197.625 114.98 197.894 115.688 198.052 116.425C198.18 117.177 198.228 117.939 198.198 118.701C198.198 121.741 198.198 124.873 198.198 128.095C198.198 134.501 198.198 141.252 198.198 148.233V150.864C198.222 151.762 198.091 152.658 197.809 153.511C197.351 154.791 196.536 155.912 195.459 156.742C194.383 157.571 193.091 158.075 191.737 158.191C191.271 158.226 190.815 158.226 190.362 158.221H165.505L165.586 158.187C163.776 160.156 161.889 161.992 160.035 163.802C158.182 165.613 156.346 167.359 154.548 169.055L154.369 169.221V168.978C154.369 165.216 154.369 161.548 154.369 158.11L154.471 158.213H147.639C147.079 158.229 146.518 158.209 145.961 158.153C145.684 158.123 145.41 158.072 145.141 157.999L144.735 157.897L144.342 157.756C143.312 157.373 142.387 156.751 141.644 155.941C140.915 155.155 140.372 154.215 140.055 153.191C139.908 152.689 139.815 152.172 139.778 151.65C139.739 151.129 139.752 150.62 139.752 150.117C139.752 148.09 139.752 146.12 139.752 144.207C139.752 136.559 139.752 129.855 139.773 124.312C139.773 122.924 139.773 121.613 139.773 120.375C139.773 119.76 139.773 119.158 139.773 118.581C139.758 118.018 139.779 117.455 139.837 116.895C139.956 115.978 140.254 115.094 140.715 114.293C141.176 113.492 141.791 112.79 142.523 112.227C143.432 111.522 144.504 111.058 145.641 110.878C145.833 110.853 145.999 110.818 146.149 110.81H146.516L146.832 110.793Z" fill="#263238"/>
<path d="M14.7574 65.4063L73.5019 65.4062C76.8059 65.4062 79.4844 62.7278 79.4844 59.4238V13.9808C79.4844 10.6768 76.8059 7.99829 73.5019 7.99829L14.7574 7.99829C11.4533 7.99829 8.77488 10.6768 8.77488 13.9808V59.4238C8.77488 62.7278 11.4533 65.4063 14.7574 65.4063Z" fill="white"/>
<path d="M41.2882 63.6562C40.5622 65.4113 26.5391 78.6018 26.5391 78.6018V63.6562H41.2882Z" fill="#455A64"/>
<path d="M58.4394 33.1907C58.4735 30.2016 58.9475 27.2125 58.8322 24.2234C58.7169 21.2343 57.9269 18.1128 55.8431 15.9692C53.7593 13.8256 50.1296 12.9801 47.6871 14.7351L47.1875 17.2972C48.1497 28.8465 49.1119 40.3945 50.0741 51.941C50.198 53.4569 50.3346 55.0197 51.0264 56.3734C51.7181 57.727 53.1017 58.8501 54.6218 58.7561C56.6075 58.6366 57.9141 56.6211 58.529 54.7294C60.7709 47.8416 58.3497 40.4116 58.4394 33.1907Z" fill="#263238"/>
<path d="M51.2361 17.6718C50.8371 16.9111 50.3245 16.2156 49.7159 15.6093C49.4076 15.3091 49.0356 15.0822 48.6275 14.9454C48.2194 14.8086 47.7858 14.7656 47.3588 14.8194C47.1577 14.8443 46.9663 14.9201 46.8026 15.0397C46.639 15.1592 46.5085 15.3186 46.4237 15.5026C46.2913 15.8869 46.5731 16.395 46.9788 16.3566L47.0642 16.4292C47.9609 17.2234 48.8704 18.0006 49.8013 18.7564C50.0216 18.9622 50.2797 19.1232 50.5614 19.2304C50.7061 19.285 50.8633 19.2971 51.0146 19.2653C51.1659 19.2336 51.305 19.1592 51.4155 19.0511C51.7315 18.6838 51.4881 18.1031 51.2361 17.6718Z" fill="#F09EBE"/>
<path d="M52.9273 20.6123C49.9382 16.9614 45.937 14.8647 41.2228 14.7836C38.5668 14.7409 37.4651 15.2917 35.552 15.8084C33.6324 16.274 31.9378 17.4002 30.7652 18.9897C29.4116 20.9155 28.2714 23.072 28.0152 25.4163C27.759 27.7606 27.4857 30.2245 27.6693 32.6542C27.8529 35.0839 28.5234 37.4965 29.924 39.4565L36.0645 40.5198C39.455 40.6351 42.8967 40.7461 46.1933 39.9732C49.4898 39.2003 52.7095 37.4111 54.4774 34.5288C56.9284 30.4892 55.9121 24.2591 52.9273 20.6123Z" fill="#263238"/>
<path d="M36.0451 51.4011C36.0878 49.2661 36.1604 46.546 36.1604 46.5588C36.1604 46.5716 31.1558 46.0079 29.7552 39.5899C29.0677 36.4001 28.9396 31.1136 28.9738 26.7794C29.0036 22.8851 32.3216 17.5773 37.134 17.5602L39.2691 17.3125L47.4507 20.5664C48.0212 20.5959 48.5599 20.8381 48.9606 21.2451C49.3614 21.6522 49.5951 22.1946 49.6157 22.7655L49.9231 50.9784L44.6794 59.7365L35.285 52.4772L36.0451 51.4011Z" fill="#B56760"/>
<path d="M39.3914 38.0848C39.3463 37.7517 39.1789 37.4472 38.9217 37.2308C38.6874 37.0286 38.3927 36.9097 38.0837 36.8927C37.7747 36.8757 37.4687 36.9616 37.2136 37.1368C36.9497 37.3396 36.7448 37.6092 36.6202 37.9178C36.4955 38.2264 36.4557 38.5627 36.5048 38.8919C36.646 39.089 36.8276 39.2537 37.0374 39.3752C37.2472 39.4967 37.4805 39.5721 37.7218 39.5964H37.9481C38.3325 39.5878 38.6996 39.4354 38.9772 39.1694C39.1221 39.0305 39.2344 38.8612 39.3061 38.6736C39.3777 38.4861 39.4068 38.285 39.3914 38.0848Z" fill="#8A4A43"/>
<path d="M31.5703 31.7944C31.5792 32.0122 31.6741 32.2177 31.8341 32.3658C31.9942 32.5138 32.2064 32.5924 32.4243 32.5843C32.5294 32.586 32.6337 32.5669 32.7312 32.528C32.8288 32.4891 32.9177 32.4312 32.9927 32.3578C33.0678 32.2843 33.1275 32.1967 33.1685 32.1C33.2095 32.0033 33.2309 31.8994 33.2314 31.7944C33.2162 31.5784 33.1196 31.3762 32.9611 31.2288C32.8025 31.0813 32.5939 30.9996 32.3774 31.0001C32.272 30.9984 32.1673 31.0177 32.0695 31.0568C31.9716 31.096 31.8826 31.1542 31.8075 31.2282C31.7323 31.3021 31.6727 31.3902 31.632 31.4874C31.5913 31.5846 31.5703 31.689 31.5703 31.7944Z" fill="#263238"/>
<path d="M30.4541 28.9478C30.5651 29.0503 31.1672 28.5507 32.0597 28.5208C32.9521 28.4909 33.6354 28.8838 33.725 28.7728C33.8147 28.6618 33.6525 28.5294 33.3578 28.3458C32.9563 28.0982 32.4877 27.9818 32.017 28.0127C31.5491 28.0347 31.1004 28.2052 30.7359 28.4995C30.4797 28.7002 30.3986 28.9009 30.4541 28.9478Z" fill="#263238"/>
<path d="M36.1949 35.9489C35.7152 35.825 35.2215 35.7633 34.726 35.7653C34.4954 35.7653 34.2776 35.7183 34.2307 35.5689C34.1967 35.3333 34.237 35.093 34.346 34.8814L34.9224 33.1093C35.7252 30.5856 36.2932 28.5146 36.2035 28.4847C36.1138 28.4548 35.3494 30.4703 34.568 32.9983L34.0086 34.7832C33.8798 35.0659 33.8556 35.3852 33.9403 35.6842C33.977 35.7631 34.0316 35.8324 34.0998 35.8865C34.168 35.9407 34.2479 35.9781 34.3332 35.9959C34.4606 36.0247 34.5913 36.0362 34.7217 36.0301C35.2143 36.0653 35.7093 36.038 36.1949 35.9489Z" fill="#263238"/>
<path d="M36.1592 46.554C39.2088 46.4311 42.1648 45.4659 44.6995 43.7656C44.6995 43.7656 42.637 48.3774 36.125 48.1297L36.1592 46.554Z" fill="#8A4A43"/>
<path d="M38.8564 36.4221C38.7113 36.4221 38.7625 37.3914 37.9725 38.1302C37.1825 38.8689 36.1406 38.8134 36.1406 38.95C36.1406 39.0141 36.3798 39.1251 36.8196 39.1166C37.3871 39.0901 37.9277 38.8666 38.3483 38.4846C38.7492 38.1152 38.9937 37.6065 39.0315 37.0626C39.0443 36.6484 38.9248 36.4136 38.8564 36.4221Z" fill="#263238"/>
<path d="M30.7646 25.82C30.9269 26.0292 31.6187 25.8456 32.4044 25.867C33.1901 25.8883 33.8819 26.0634 34.0441 25.867C34.1167 25.7645 34.0185 25.5595 33.7324 25.3545C33.3361 25.1083 32.88 24.975 32.4134 24.969C31.9468 24.9629 31.4875 25.0845 31.0849 25.3204C30.7945 25.5125 30.6921 25.7175 30.7646 25.82Z" fill="#263238"/>
<path d="M41.7339 31.565C41.7409 31.7819 41.6625 31.9929 41.5156 32.1526C41.3687 32.3123 41.1649 32.408 40.9482 32.419C40.8438 32.4272 40.7389 32.4146 40.6394 32.3821C40.5399 32.3495 40.4478 32.2976 40.3685 32.2294C40.2891 32.1611 40.224 32.0779 40.1769 31.9844C40.1299 31.8909 40.1017 31.789 40.0942 31.6846C40.0872 31.4677 40.1656 31.2567 40.3125 31.097C40.4594 30.9373 40.6632 30.8416 40.8799 30.8305C40.9843 30.8224 41.0892 30.8349 41.1887 30.8675C41.2882 30.9 41.3803 30.9519 41.4596 31.0202C41.539 31.0884 41.6041 31.1717 41.6512 31.2652C41.6982 31.3587 41.7264 31.4606 41.7339 31.565Z" fill="#263238"/>
<path d="M42.541 28.5993C42.4385 28.7104 41.8022 28.2534 40.9098 28.2748C40.0173 28.2961 39.3682 28.7488 39.2657 28.642C39.1633 28.5353 39.3213 28.3986 39.6031 28.1851C39.9857 27.9112 40.4435 27.762 40.914 27.7581C41.3791 27.7505 41.8347 27.8895 42.2164 28.1552C42.494 28.3559 42.5922 28.5524 42.541 28.5993Z" fill="#263238"/>
<path d="M41.9849 25.7378C41.8141 25.9428 41.1309 25.7378 40.2768 25.7378C39.4228 25.7378 38.7481 25.9001 38.5688 25.6908C38.4962 25.5884 38.6029 25.3834 38.9061 25.187C39.3227 24.9476 39.7956 24.8237 40.276 24.8282C40.7565 24.8327 41.227 24.9654 41.639 25.2126C41.9849 25.4304 42.0788 25.6353 41.9849 25.7378Z" fill="#263238"/>
<path d="M48.5244 33.6419C48.4988 33.1593 48.9898 31.9893 49.4638 31.8911C50.7449 31.6221 53.0209 31.6007 53.2173 34.8247C53.4906 39.2358 49.0069 38.5995 48.9898 38.4757C48.9728 38.3518 48.6098 35.303 48.5244 33.6419Z" fill="#B56760"/>
<path d="M50.1016 36.7878C50.1016 36.7878 50.1827 36.8347 50.3151 36.886C50.5001 36.9599 50.7065 36.9599 50.8915 36.886C51.3442 36.6853 51.6901 35.9209 51.6644 35.1267C51.657 34.7399 51.5606 34.36 51.3826 34.0164C51.3329 33.8809 51.251 33.7595 51.1438 33.6628C51.0367 33.5661 50.9076 33.4969 50.7677 33.4613C50.68 33.447 50.59 33.4628 50.5124 33.5062C50.4349 33.5497 50.3743 33.6181 50.3407 33.7004C50.2894 33.8285 50.3407 33.9139 50.298 33.9225C50.2553 33.931 50.1998 33.8542 50.2254 33.6705C50.2417 33.5602 50.2961 33.459 50.3791 33.3844C50.4977 33.2837 50.6509 33.2331 50.8061 33.2435C50.9909 33.268 51.1664 33.3393 51.3159 33.4506C51.4654 33.562 51.5839 33.7097 51.6602 33.8798C51.8732 34.2493 51.9906 34.6661 52.0018 35.0925C52.0274 35.985 51.626 36.8433 50.9983 37.0653C50.8825 37.1083 50.7583 37.1241 50.6354 37.1115C50.5125 37.0989 50.3942 37.0583 50.2895 36.9927C50.1229 36.8945 50.1016 36.7963 50.1016 36.7878Z" fill="#8A4A43"/>
<path d="M49.6379 31.9029L48.5191 33.0772C43.6896 28.4313 34.2184 16.8506 34.7479 17.5253C36.953 16.6995 39.3302 16.4411 41.6612 16.7737C45.261 17.3886 52.0847 19.1864 51.9822 23.4309C51.8797 27.6754 49.6379 31.9029 49.6379 31.9029Z" fill="#263238"/>
<path d="M56.0514 30.9437C56.0388 30.856 56.0159 30.77 55.9831 30.6875C55.9043 30.4471 55.8043 30.2142 55.6842 29.9915C55.2284 29.1732 54.5987 28.4648 53.8395 27.9162C52.714 27.113 51.4588 26.5092 50.1287 26.1313C48.6513 25.653 46.9902 25.2773 45.359 24.5769C43.8172 23.9337 42.3543 23.1156 40.9991 22.1387C39.8947 21.3372 38.8656 20.4368 37.9246 19.4485C37.2908 18.7788 36.6963 18.0731 36.144 17.3348L35.717 16.7284C35.6684 16.6559 35.6141 16.5874 35.5547 16.5234C35.5842 16.606 35.626 16.6838 35.6785 16.754C35.7725 16.8992 35.9048 17.117 36.1055 17.386C36.6322 18.1486 37.2115 18.8735 37.8392 19.5552C38.7719 20.5684 39.8001 21.4893 40.9095 22.3052C42.2704 23.3038 43.7455 24.1366 45.3034 24.7862C46.8743 25.3834 48.4749 25.8994 50.0988 26.332C51.4122 26.6927 52.6563 27.27 53.7797 28.04C54.5305 28.5682 55.1644 29.2457 55.6415 30.0299C55.9319 30.5851 56.0301 30.9437 56.0514 30.9437Z" fill="#455A64"/>
<path d="M54.7665 31.6215C54.7802 31.2926 54.7219 30.9647 54.5956 30.6607C54.2656 29.8164 53.6881 29.0915 52.9388 28.5811C52.0207 27.8937 50.7055 27.4709 49.258 27.1378C47.6842 26.8257 46.1502 26.3387 44.6846 25.686C43.2257 25.021 41.8557 24.1761 40.6066 23.1709C39.5862 22.3484 38.6493 21.4272 37.8097 20.4209C37.2468 19.7418 36.7263 19.0288 36.2511 18.2858L35.8796 17.6624C35.84 17.5869 35.7912 17.5166 35.7344 17.4531C35.7583 17.5341 35.7928 17.6116 35.8369 17.6837L36.1785 18.3242C36.6257 19.0937 37.1295 19.8287 37.6858 20.5234C38.5177 21.552 39.4519 22.4935 40.4742 23.3331C41.7327 24.3575 43.1159 25.2184 44.5907 25.8952C46.0705 26.5524 47.6207 27.0381 49.211 27.3428C50.6543 27.6588 51.9439 28.0602 52.8492 28.7135C53.5829 29.1987 54.1611 29.8851 54.5145 30.6906C54.6266 30.9926 54.7109 31.3042 54.7665 31.6215Z" fill="#455A64"/>
<path d="M49.5 39.3758C49.5 39.3459 49.8758 39.2946 50.5291 39.1238C51.4455 38.8566 52.2894 38.3851 52.9973 37.7446C54.0306 36.7758 54.8169 35.5737 55.2903 34.2388C55.891 32.6074 56.2143 30.8869 56.2468 29.1487C56.2656 28.2514 56.194 27.3544 56.0333 26.4714C55.8658 25.6539 55.6198 24.8546 55.2989 24.0843C54.7422 22.7776 53.97 21.5738 53.0143 20.523C52.1111 19.5774 51.1202 18.7196 50.0551 17.9609C50.1417 17.9905 50.2237 18.0322 50.2985 18.0848C50.4522 18.183 50.6871 18.3111 50.9647 18.5118C51.7659 19.0617 52.5048 19.6975 53.1681 20.4077C54.1619 21.4588 54.9665 22.6738 55.5465 23.9989C55.8825 24.7854 56.1386 25.6037 56.3109 26.4415C56.4823 27.3419 56.5581 28.258 56.5372 29.1744C56.5063 30.9457 56.1682 32.6983 55.538 34.3541C55.0393 35.7231 54.2123 36.9488 53.1296 37.9239C52.395 38.5673 51.5162 39.0243 50.5675 39.2562C50.3106 39.3176 50.0494 39.359 49.7861 39.38C49.691 39.3921 49.5947 39.3907 49.5 39.3758Z" fill="#455A64"/>
<path d="M21.9735 58.4781L22.0845 58.3372C26.944 53.213 35.89 51.4751 35.89 51.4751C35.89 51.4751 36.4365 54.8399 41.4412 55.2157C46.4458 55.5915 50.1395 50.4844 50.1395 50.4844L56.8308 51.4238C56.8308 51.4238 60.1957 51.8209 62.2923 53.0507C67.0151 55.8306 69.5217 65.4086 69.5217 65.4086L17.9297 65.6178L21.9735 58.4781Z" fill="#455A64"/>
<path d="M17.2584 8L16.8997 8.02562L16.4727 8.05124C16.2976 8.05124 16.0927 8.11102 15.8621 8.14519C14.4882 8.37493 13.1935 8.94447 12.0958 9.80201C10.3287 11.1787 9.17873 13.1992 8.89746 15.4215C8.83317 16.0956 8.81035 16.773 8.82914 17.4499C8.82914 18.1544 8.82914 18.8804 8.82914 19.6319C8.82914 21.1307 8.82914 22.7235 8.82914 24.4017C8.82914 31.1272 8.82914 39.2618 8.85476 48.5366C8.85476 50.8567 8.85476 53.2466 8.85476 55.7062C8.85476 56.3168 8.85476 56.9402 8.88893 57.5509C8.93616 58.17 9.04779 58.7825 9.222 59.3785C9.59732 60.5917 10.2426 61.7042 11.1094 62.6324C11.547 63.1032 12.0354 63.5243 12.5655 63.8878C13.1092 64.2478 13.6923 64.5444 14.3035 64.7717L14.7647 64.9425L15.2429 65.0621C15.5631 65.1446 15.8883 65.2059 16.2165 65.2457C16.5453 65.2969 16.8784 65.2884 17.2115 65.3097H26.64V65.4122C26.64 69.5756 26.64 74.0251 26.64 78.5899L26.4649 78.5131C28.6455 76.4548 30.8617 74.3312 33.1135 72.142C35.3511 69.9471 37.6399 67.7181 39.8219 65.3354L39.8561 65.3012H70.0589C70.614 65.3012 71.1649 65.3012 71.7029 65.2628C73.3217 65.1282 74.8662 64.5246 76.1472 63.5257C77.4282 62.5269 78.3901 61.1762 78.9152 59.639C79.248 58.6301 79.4026 57.5709 79.3721 56.509V53.3191C79.3721 44.8472 79.3721 36.6655 79.3721 28.8896C79.3721 25.0009 79.3721 21.209 79.3721 17.5139C79.408 16.6052 79.3507 15.6952 79.2013 14.7981C79.0225 13.9281 78.713 13.0901 78.2832 12.3129C77.408 10.7924 76.0812 9.5821 74.487 8.84976C73.7147 8.49604 72.8922 8.26413 72.0488 8.16227C71.2124 8.09109 70.3727 8.06686 69.5337 8.08967H64.6187H55.3781L27.4684 8.0427L55.3525 8.00854H64.5931H69.508C70.3542 7.98616 71.201 8.0104 72.0445 8.08113C72.9073 8.18264 73.7488 8.41895 74.5383 8.78144C76.1668 9.52992 77.5231 10.7653 78.4199 12.3171C78.8729 13.1166 79.2012 13.9806 79.3934 14.8792C79.542 15.7893 79.5992 16.712 79.5643 17.6335C79.5643 21.3343 79.5643 25.1262 79.5643 29.0092C79.5643 36.7937 79.5643 44.9667 79.5643 53.4387V56.6285C79.5959 57.7153 79.4369 58.7992 79.0945 59.8311C78.5562 61.4089 77.5694 62.7954 76.255 63.8209C74.9406 64.8463 73.3557 65.4661 71.6944 65.6044C71.135 65.6428 70.5841 65.6428 70.0333 65.6385H39.9073L39.9885 65.6044C37.7979 67.9914 35.5091 70.2204 33.2672 72.4366C31.0254 74.6528 28.7964 76.6086 26.6143 78.6668L26.435 78.8376V78.5899C26.435 74.0251 26.435 69.5756 26.435 65.4122L26.5375 65.5104H17.22C16.8784 65.4848 16.5368 65.5104 16.2037 65.4421C15.8683 65.4013 15.5359 65.3386 15.2088 65.2542L14.7177 65.1304L14.2309 64.951C13.6078 64.7175 13.0132 64.4138 12.4588 64.0458C11.916 63.6737 11.415 63.2442 10.9642 62.7647C10.0832 61.8134 9.42659 60.6767 9.04265 59.4383C8.86611 58.8294 8.75165 58.2042 8.70104 57.5722C8.67969 56.936 8.67969 56.3211 8.67969 55.7104C8.67969 53.2508 8.67969 50.861 8.67969 48.5408C8.67969 39.2661 8.67969 31.1314 8.70531 24.4059C8.70531 22.7278 8.70531 21.135 8.70531 19.6362C8.70531 18.8846 8.70531 18.1587 8.70531 17.4541C8.68959 16.7728 8.71526 16.0912 8.78217 15.413C9.07491 13.1706 10.2451 11.1358 12.036 9.75503C13.1385 8.90056 14.438 8.33673 15.8151 8.11529C16.0457 8.0854 16.2421 8.04697 16.43 8.03416L16.857 8.01281L17.2584 8Z" fill="#263238"/>
<path d="M48.1452 106.328H6.98943C4.29857 106.328 2.11719 108.51 2.11719 111.2V142.782C2.11719 145.473 4.29857 147.655 6.98943 147.655H48.1452C50.836 147.655 53.0174 145.473 53.0174 142.782V111.2C53.0174 108.51 50.836 106.328 48.1452 106.328Z" fill="white"/>
<path d="M29.6094 146.391C30.1303 147.672 40.2292 157.143 40.2292 157.143V146.391H29.6094Z" fill="#F09EBE"/>
<path d="M36.7037 115.497C36.4541 114.689 36.0462 113.939 35.5036 113.291C34.9611 112.643 34.2948 112.11 33.5438 111.722C31.8484 110.932 29.9311 110.757 28.1207 111.227C26.327 111.701 24.6223 112.464 23.0734 113.485C22.1614 113.99 21.3518 114.66 20.6864 115.463C19.5462 116.978 18.4531 119.451 18.3933 121.347C18.342 122.88 19.0381 126.693 19.7256 128.064C20.0907 128.63 20.6151 129.076 21.2329 129.345C21.9698 130.703 22.943 131.919 24.1068 132.936C24.4313 131.9 24.7572 130.862 25.0846 129.823L36.7037 115.497Z" fill="#263238"/>
<path d="M35.7662 113.64L32.7344 113.188C34.4937 117.065 35.1983 126.032 36.2615 130.157C37.3248 128.513 39.7673 123.526 39.5752 121.574C39.383 119.623 39.3403 113.205 35.7662 113.64Z" fill="#263238"/>
<path d="M21.6556 120.585C21.6774 119.481 22.0525 118.414 22.7259 117.54C23.3992 116.667 24.3352 116.032 25.3963 115.729L32.2926 113.761C35.2817 113.334 37.3911 116.985 37.6772 119.991C37.989 123.33 38.2238 126.862 37.9036 129.385C37.263 134.433 33.4327 135.193 33.4327 135.193C33.4327 135.193 33.501 137.58 33.5395 139.036L32.4164 145.608L23.3252 137.844L21.6172 120.644C21.6343 120.559 21.6513 120.7 21.6556 120.585Z" fill="#FFBF9D"/>
<path d="M36.1565 124.169C36.1646 124.336 36.1064 124.5 35.9945 124.625C35.8826 124.749 35.7259 124.825 35.5586 124.835C35.4768 124.844 35.394 124.837 35.3149 124.814C35.2359 124.791 35.1623 124.752 35.0986 124.7C35.0349 124.648 34.9823 124.583 34.944 124.51C34.9056 124.437 34.8823 124.358 34.8754 124.276C34.8694 124.108 34.9282 123.945 35.0396 123.82C35.151 123.695 35.3064 123.618 35.4732 123.605C35.5553 123.596 35.6383 123.604 35.7173 123.628C35.7964 123.651 35.8699 123.691 35.9335 123.743C35.9972 123.796 36.0497 123.86 36.088 123.933C36.1263 124.007 36.1495 124.087 36.1565 124.169Z" fill="#263238"/>
<path d="M36.9816 121.985C36.9048 122.07 36.4052 121.725 35.7006 121.75C34.996 121.776 34.5092 122.135 34.4196 122.049C34.3299 121.964 34.458 121.861 34.6758 121.69C34.9698 121.474 35.323 121.354 35.6878 121.345C36.0478 121.334 36.402 121.437 36.6998 121.639C36.9432 121.797 37.0201 121.947 36.9816 121.985Z" fill="#263238"/>
<path d="M29.9143 124.169C29.9224 124.336 29.8642 124.5 29.7523 124.625C29.6404 124.749 29.4837 124.825 29.3164 124.835C29.2346 124.844 29.1518 124.837 29.0727 124.814C28.9937 124.791 28.9201 124.752 28.8564 124.7C28.7927 124.648 28.7401 124.583 28.7018 124.51C28.6634 124.437 28.6401 124.358 28.6332 124.276C28.6273 124.108 28.6867 123.944 28.799 123.819C28.9113 123.694 29.0677 123.617 29.2353 123.605C29.3171 123.596 29.3999 123.604 29.4787 123.628C29.5575 123.651 29.6307 123.691 29.694 123.743C29.7573 123.796 29.8094 123.861 29.8473 123.934C29.8851 124.007 29.9079 124.087 29.9143 124.169Z" fill="#263238"/>
<path d="M30.3974 122.173C30.3163 122.258 29.821 121.912 29.1164 121.938C28.4118 121.963 27.9293 122.322 27.8353 122.237C27.7414 122.151 27.8738 122.049 28.0915 121.878C28.3856 121.662 28.7388 121.541 29.1036 121.532C29.4635 121.521 29.8178 121.624 30.1156 121.827C30.3547 121.985 30.4572 122.134 30.3974 122.173Z" fill="#263238"/>
<path d="M32.7167 127.546C33.0804 127.424 33.4574 127.345 33.8398 127.312C34.0149 127.286 34.1814 127.247 34.207 127.124C34.2161 126.941 34.17 126.759 34.0746 126.603C33.8953 126.176 33.7074 125.749 33.5067 125.27C32.721 123.374 32.1488 121.812 32.2257 121.782C32.3025 121.752 32.9986 123.263 33.7843 125.159L34.3309 126.5C34.4473 126.711 34.4866 126.955 34.4419 127.192C34.4182 127.255 34.3805 127.312 34.3317 127.359C34.2829 127.405 34.2242 127.44 34.16 127.461C34.0629 127.49 33.9625 127.507 33.8611 127.512C33.4827 127.573 33.0981 127.584 32.7167 127.546Z" fill="#263238"/>
<path d="M26.7188 133.578C26.7188 133.578 28.4524 136.994 33.4613 136.354L33.4442 135.175C31.0977 135.277 28.769 134.724 26.7188 133.578Z" fill="#FF9A6C"/>
<path d="M30.1081 119.675C30.0441 119.863 29.3523 119.799 28.541 119.919C27.7297 120.038 27.0806 120.286 26.9653 120.119C26.9141 120.038 27.0251 119.859 27.2856 119.667C27.6325 119.433 28.028 119.281 28.4423 119.222C28.8566 119.164 29.2788 119.2 29.6769 119.329C29.98 119.44 30.1338 119.585 30.1081 119.675Z" fill="#263238"/>
<path d="M36.6925 119.871C36.5772 120.033 36.0947 119.871 35.5182 119.892C34.9417 119.913 34.4635 120.033 34.3439 119.871C34.2927 119.789 34.3653 119.631 34.5745 119.478C34.8537 119.289 35.1832 119.187 35.5203 119.188C35.8575 119.188 36.187 119.289 36.4662 119.478C36.6712 119.631 36.7437 119.794 36.6925 119.871Z" fill="#263238"/>
<path d="M36.1785 115.443C35.9909 115.079 35.7059 114.775 35.3553 114.563C35.0046 114.352 34.6022 114.243 34.1929 114.247C33.3716 114.269 32.5739 114.527 31.8956 114.99C28.9534 116.805 27.5358 121.024 24.6363 122.899C23.9232 123.355 22.9624 122.98 22.3603 123.582C21.7582 124.184 21.3867 125.123 21.7497 125.892C21.3117 125.377 20.9494 124.801 20.6736 124.184C20.5388 123.874 20.4717 123.539 20.4768 123.201C20.482 122.863 20.5593 122.53 20.7035 122.224C20.9469 121.771 21.3867 121.421 21.4978 120.943C21.6088 120.465 21.4081 120.05 21.4166 119.602C21.4568 119.147 21.603 118.709 21.8436 118.321C22.8955 116.201 24.5045 114.408 26.4981 113.133C27.814 112.317 29.3269 111.874 30.875 111.852C32.4277 111.844 33.9319 112.392 35.1153 113.397C35.7942 113.995 36.5073 114.614 36.1871 115.46" fill="#263238"/>
<path d="M22.45 124.2C22.3902 124.059 19.7427 123.188 19.7897 125.972C19.8324 128.68 22.5482 128.069 22.5482 127.992C22.5482 127.915 22.45 124.2 22.45 124.2Z" fill="#FFBF9D"/>
<path d="M21.6962 126.987C21.6962 126.987 21.6492 127.022 21.5723 127.056C21.4585 127.101 21.3318 127.101 21.2179 127.056C21.0421 126.947 20.8979 126.794 20.7997 126.612C20.7016 126.43 20.6529 126.225 20.6585 126.018C20.6499 125.786 20.6907 125.554 20.7781 125.339C20.803 125.255 20.8478 125.177 20.9087 125.113C20.9696 125.049 21.0449 125.001 21.1282 124.972C21.1817 124.956 21.2389 124.96 21.2897 124.983C21.3406 125.006 21.3817 125.046 21.4058 125.096C21.4442 125.173 21.4271 125.224 21.4442 125.228C21.4613 125.232 21.4997 125.185 21.4784 125.07C21.4604 125.004 21.4214 124.946 21.3674 124.904C21.2921 124.849 21.1987 124.826 21.1069 124.84C20.9963 124.864 20.8936 124.916 20.8085 124.99C20.7234 125.065 20.6586 125.16 20.6201 125.267C20.5093 125.503 20.458 125.762 20.4706 126.022C20.462 126.264 20.5251 126.503 20.652 126.709C20.7789 126.915 20.9639 127.079 21.1837 127.18C21.2565 127.198 21.3324 127.2 21.4062 127.186C21.4799 127.172 21.5497 127.142 21.6108 127.098C21.6919 127.051 21.709 126.992 21.6962 126.987Z" fill="#FF9A6C"/>
<path d="M21.3359 122.846C21.3917 122.822 21.4447 122.792 21.4939 122.756C21.5964 122.688 21.7501 122.598 21.9209 122.457C22.4419 122.052 22.9185 121.592 23.3429 121.087C23.9569 120.33 24.5272 119.538 25.051 118.717C25.6825 117.711 26.3967 116.76 27.186 115.873C27.6113 115.428 28.0839 115.032 28.5952 114.69C29.0751 114.379 29.5914 114.128 30.1325 113.943C31.0488 113.62 32.0184 113.475 32.9892 113.516C33.6438 113.537 34.2927 113.645 34.9193 113.836C35.1413 113.9 35.3079 113.968 35.4232 114.007L35.6025 114.066L35.4317 113.985C35.269 113.912 35.1022 113.848 34.9321 113.793C34.3054 113.579 33.651 113.457 32.9892 113.43C32.0056 113.384 31.0225 113.529 30.094 113.857C29.5436 114.045 29.0187 114.3 28.5311 114.617C28.0096 114.961 27.5283 115.362 27.0964 115.813C26.3034 116.705 25.5891 117.663 24.9613 118.678C24.4327 119.499 23.8626 120.293 23.2532 121.057C22.8522 121.548 22.4062 122.002 21.9209 122.41C21.7416 122.555 21.5879 122.654 21.4939 122.731L21.3359 122.846Z" fill="white"/>
<path d="M22.0371 123.608C21.9506 124.335 22.0566 125.071 22.3445 125.743C22.7075 126.392 23.5786 126.815 24.2106 126.427C24.7273 126.115 24.8639 125.436 24.9365 124.838C25.1457 123.109 25.2098 121.362 25.4318 119.633L22.0371 123.608Z" fill="#263238"/>
<path d="M35.48 114.175C35.48 114.175 35.2408 114.136 34.8053 114.136C34.1928 114.144 33.5878 114.271 33.0246 114.512C32.6358 114.677 32.2652 114.882 31.9186 115.123C31.5226 115.405 31.1447 115.712 30.7871 116.041C29.9572 116.785 29.2202 117.627 28.5922 118.547C28.2634 119.039 27.973 119.542 27.6528 120.012C27.3577 120.469 27.0093 120.889 26.6151 121.263C25.9297 121.878 25.1761 122.413 24.369 122.856C23.6901 123.245 23.1179 123.518 22.725 123.71L22.2681 123.919C22.2154 123.947 22.1594 123.969 22.1016 123.983C22.149 123.947 22.2006 123.917 22.2553 123.894L22.6823 123.655C23.0666 123.45 23.6303 123.164 24.3007 122.771C25.0899 122.317 25.8273 121.779 26.4998 121.165C26.8874 120.797 27.23 120.384 27.5204 119.935C27.8321 119.47 28.1225 118.966 28.4556 118.466C29.0944 117.53 29.8459 116.675 30.6931 115.921C31.059 115.594 31.444 115.289 31.8461 115.008C32.201 114.764 32.582 114.561 32.9819 114.401C33.5597 114.164 34.1807 114.049 34.8053 114.064C34.9744 114.07 35.1428 114.088 35.3091 114.119C35.368 114.131 35.4254 114.15 35.48 114.175Z" fill="#455A64"/>
<path d="M21.9192 121.922C21.8477 121.986 21.7688 122.042 21.6843 122.088L21.0096 122.515L20.7833 122.652C20.6942 122.709 20.5936 122.746 20.4887 122.759C20.4253 122.77 20.3601 122.758 20.3051 122.725C20.2753 122.704 20.2503 122.678 20.2319 122.647C20.2134 122.616 20.202 122.581 20.1983 122.545C20.2019 122.42 20.2436 122.3 20.3179 122.199L21.0779 120.918L21.189 121.017C20.931 121.214 20.6426 121.369 20.3349 121.473C20.0239 121.576 19.6973 121.624 19.3699 121.614C19.2861 121.615 19.2027 121.604 19.1222 121.58C19.0753 121.569 19.0316 121.546 18.9946 121.515C18.9576 121.484 18.9282 121.445 18.9087 121.401C18.8924 121.356 18.887 121.308 18.893 121.26C18.8989 121.213 18.916 121.167 18.9429 121.128C18.9884 121.066 19.0384 121.007 19.0923 120.953C19.4383 120.599 19.7343 120.199 19.972 119.765C20.1873 119.353 20.3715 118.925 20.5228 118.484C20.5154 118.608 20.491 118.73 20.4502 118.847C20.355 119.175 20.2277 119.493 20.0702 119.795C19.8365 120.252 19.5389 120.674 19.1863 121.046C19.0881 121.145 18.9898 121.26 19.0325 121.341C19.0752 121.422 19.2247 121.465 19.3656 121.461C19.6759 121.469 19.9853 121.423 20.2794 121.324C20.5723 121.229 20.8468 121.085 21.0908 120.897L21.4067 120.654L21.2018 120.995L20.4246 122.276C20.3641 122.354 20.3271 122.447 20.3179 122.545C20.3179 122.622 20.3905 122.665 20.4759 122.656C20.6487 122.614 20.8123 122.54 20.9584 122.439L21.6544 122.058C21.7356 122 21.8248 121.954 21.9192 121.922Z" fill="white"/>
<path d="M30.1211 128.901C30.1652 128.694 30.281 128.509 30.4481 128.378C30.6152 128.248 30.823 128.18 31.0349 128.188C31.1899 128.203 31.3388 128.256 31.4684 128.343C31.598 128.429 31.7043 128.546 31.7779 128.683C31.8483 128.822 31.8903 128.974 31.9013 129.13C31.9123 129.285 31.8921 129.441 31.842 129.589V129.653C31.7031 129.813 31.5181 129.926 31.3124 129.976C31.1067 130.027 30.8904 130.012 30.6933 129.935C30.4965 129.851 30.3333 129.703 30.2296 129.516C30.126 129.329 30.0878 129.113 30.1211 128.901Z" fill="#FF9A6C"/>
<path d="M32.332 129.656C32.332 129.553 31.6317 129.605 31.0851 129.045C30.5385 128.486 30.5599 127.734 30.4617 127.734C30.3635 127.734 30.3421 127.914 30.3549 128.23C30.3837 128.639 30.5543 129.026 30.8375 129.323C31.1102 129.609 31.4841 129.778 31.8794 129.793C32.1655 129.797 32.3405 129.703 32.332 129.656Z" fill="#263238"/>
<path d="M43.5151 142.663L43.4382 142.561C39.9367 138.858 33.4973 137.62 33.4973 137.62C33.4973 137.62 33.1044 140.041 29.4962 140.315C25.8879 140.588 23.2318 136.898 23.2318 136.898L18.4194 137.573C18.4194 137.573 15.9939 137.859 14.4823 138.747C11.0662 140.746 9.28125 147.642 9.28125 147.642L46.4316 147.792L43.5151 142.663Z" fill="#731054"/>
<path d="M46.9155 106.327C46.9155 106.327 47.0009 106.327 47.1717 106.327C47.4293 106.329 47.6864 106.352 47.9403 106.396C48.9322 106.556 49.8685 106.961 50.6647 107.574C51.9548 108.57 52.799 110.036 53.0133 111.652C53.0622 112.142 53.0807 112.634 53.0688 113.125C53.0688 113.629 53.0688 114.154 53.0688 114.692C53.0688 115.773 53.0688 116.921 53.0688 118.13C53.0688 122.968 53.0688 128.827 53.0944 135.501C53.0944 137.169 53.0944 138.89 53.0944 140.664C53.0944 141.091 53.0944 141.547 53.0944 142.004C53.0607 142.462 52.9777 142.914 52.8467 143.354C52.5726 144.25 52.098 145.072 51.4589 145.758C50.8097 146.468 50.0001 147.013 49.0975 147.346L48.7559 147.47L48.4015 147.56C48.1654 147.62 47.9258 147.666 47.6841 147.696C47.1973 147.741 46.7083 147.758 46.2195 147.748H40.2412L40.3395 147.645C40.3395 150.634 40.3395 153.85 40.3395 157.134V157.377L40.1601 157.21C38.5887 155.736 36.9917 154.214 35.369 152.646C33.7549 151.066 32.1066 149.46 30.5266 147.739L30.6078 147.778H8.90258C8.50545 147.778 8.10833 147.778 7.70266 147.752C6.5008 147.652 5.35423 147.203 4.40322 146.461C3.45221 145.72 2.73797 144.717 2.34789 143.576C2.1018 142.83 1.98623 142.047 2.00628 141.261V138.964C2.00628 132.862 2.00628 126.982 2.00628 121.375C2.00628 118.574 2.00628 115.845 2.00628 113.189C1.98269 112.523 2.02561 111.857 2.13438 111.199C2.27279 110.554 2.50895 109.933 2.83469 109.359C3.48385 108.235 4.46549 107.34 5.64445 106.797C6.21564 106.537 6.82345 106.367 7.44645 106.293C8.05412 106.24 8.66439 106.223 9.27408 106.242H19.4797L39.5495 106.276L45.0067 106.297L39.5495 106.319L19.4797 106.353H12.8268H9.28689C8.68424 106.339 8.08129 106.358 7.48061 106.408C6.55536 106.526 5.67019 106.858 4.89502 107.376C4.11984 107.895 3.4759 108.587 3.01403 109.397C2.69535 109.968 2.46635 110.585 2.33508 111.225C2.22819 111.87 2.18813 112.524 2.21551 113.177C2.21551 115.827 2.21551 118.556 2.21551 121.362C2.21551 126.969 2.21551 132.849 2.21551 138.951V141.249C2.19157 142.009 2.30289 142.768 2.54431 143.49C3.04633 144.959 4.09989 146.175 5.48218 146.881C6.17841 147.24 6.93891 147.458 7.71974 147.521C8.10406 147.547 8.50118 147.551 8.90258 147.547H30.6547L30.6889 147.585C32.2603 149.294 33.9086 150.903 35.5184 152.483C37.1283 154.063 38.7339 155.588 40.3053 157.069L40.1259 157.146C40.1259 153.863 40.1259 150.656 40.1259 147.658V147.556H46.2066C46.6868 147.57 47.1675 147.554 47.6457 147.509C47.8807 147.482 48.1133 147.438 48.3417 147.376L48.6876 147.291L49.0164 147.171C49.8928 146.85 50.6791 146.323 51.3095 145.634C51.9292 144.97 52.3905 144.174 52.6589 143.307C52.7859 142.88 52.8675 142.44 52.9022 141.996C52.9321 141.569 52.9236 141.108 52.9236 140.668C52.9236 138.897 52.9236 137.176 52.9236 135.505C52.9236 128.831 52.9236 122.972 52.9492 118.134C52.9492 116.926 52.9492 115.777 52.9492 114.697V113.13C52.9641 112.642 52.9484 112.155 52.9022 111.669C52.7394 110.378 52.1672 109.173 51.2697 108.231C50.3721 107.289 49.1963 106.659 47.9147 106.434C47.6642 106.384 47.4099 106.355 47.1546 106.349L46.9155 106.327Z" fill="#263238"/>
<path d="M126.107 191.115L72.8321 191.077C66.4269 191.077 61.2344 186.123 61.2344 180.017L61.26 52.7238C61.26 46.6132 66.461 41.6598 72.8748 41.6641L126.154 41.694C132.559 41.694 137.751 46.6473 137.751 52.7537L137.726 180.043C137.721 186.17 132.512 191.119 126.107 191.115Z" fill="#263238"/>
<path d="M126.105 46.2152H115.763C115.434 46.2147 115.109 46.2788 114.805 46.4041C114.501 46.5293 114.225 46.7131 113.992 46.9451C113.759 47.1771 113.574 47.4526 113.448 47.756C113.322 48.0594 113.257 48.3847 113.256 48.7133V50.4982C113.255 50.8272 113.19 51.1528 113.064 51.4564C112.937 51.7601 112.752 52.0358 112.519 52.2679C112.285 52.4999 112.009 52.6836 111.704 52.8086C111.4 52.9336 111.074 52.9974 110.745 52.9962H90.6114C90.2828 52.9968 89.9573 52.9326 89.6535 52.8074C89.3497 52.6822 89.0735 52.4983 88.8408 52.2663C88.608 52.0344 88.4232 51.7588 88.2969 51.4555C88.1707 51.1521 88.1054 50.8268 88.1048 50.4982V48.709C88.1043 48.38 88.0389 48.0544 87.9123 47.7507C87.7858 47.4471 87.6006 47.1714 87.3674 46.9393C87.1342 46.7073 86.8575 46.5235 86.5532 46.3986C86.2489 46.2736 85.9229 46.2098 85.594 46.211H72.9202C68.4322 46.211 64.8069 49.6783 64.8069 53.957L64.7812 178.219C64.7812 182.489 68.4152 185.965 72.8945 185.965L126.067 185.994C130.559 185.994 134.18 182.531 134.201 178.253L134.227 53.9912C134.218 49.6869 130.58 46.2195 126.105 46.2152Z" fill="white"/>
<path d="M97.7174 77.1812C98.4692 77.1274 99.1739 76.7955 99.6943 76.2503C100.215 75.7051 100.513 74.9856 100.532 74.2322C100.551 73.4788 100.288 72.7454 99.7952 72.1751C99.3025 71.6048 98.615 71.2384 97.8669 71.1475C98.2308 70.5947 98.4115 69.9414 98.3833 69.2802C98.3552 68.619 98.1195 67.9834 97.7099 67.4636C97.3002 66.9439 96.7373 66.5662 96.1009 66.3844C95.4646 66.2025 94.7871 66.2255 94.1646 66.4503C94.0154 65.8152 93.7041 65.2297 93.2612 64.7508C92.8182 64.2719 92.2587 63.9159 91.6373 63.7176C91.0158 63.5194 90.3535 63.4855 89.715 63.6195C89.0766 63.7534 88.4837 64.0505 87.9943 64.4818C87.1592 64.0365 86.1998 63.8813 85.2669 64.0405C84.3339 64.1997 83.4804 64.6644 82.8402 65.3614C82.1884 65.3595 81.5534 65.5687 81.0303 65.9576C80.5072 66.3465 80.124 66.8943 79.938 67.519C79.752 68.1438 79.7732 68.8119 79.9985 69.4236C80.2237 70.0353 80.6409 70.5577 81.1877 70.9126" fill="#263238"/>
<path d="M98.2324 77.516C97.3731 74.3954 95.3696 71.7132 92.6211 70.0038C89.8727 68.2944 86.581 67.6834 83.4022 68.2925L82.7488 68.4163C75.7714 70.1756 73.3545 77.0804 75.3102 84.0109L80.1953 109.162L94.5729 120.265L98.2922 111.003L96.8275 102.633C96.8275 102.633 103.412 100.284 102.204 93.4864C101.636 90.1941 99.8849 83.5284 98.2324 77.516Z" fill="#C17560"/>
<path d="M96.9022 102.605C93.7482 103.208 90.4875 102.892 87.5078 101.695C87.5078 101.695 90.4499 106.328 97.1028 104.428L96.9022 102.605Z" fill="#7C4236"/>
<path d="M97.6279 84.0216C97.6789 84.2738 97.6294 84.536 97.4897 84.7522C97.3501 84.9684 97.1315 85.1215 96.8806 85.1788C96.7592 85.2121 96.6323 85.2208 96.5075 85.2043C96.3827 85.1878 96.2624 85.1465 96.1538 85.0829C96.0451 85.0192 95.9503 84.9344 95.875 84.8336C95.7996 84.7327 95.7452 84.6178 95.7149 84.4955C95.6639 84.2433 95.7135 83.9811 95.8531 83.7649C95.9927 83.5487 96.2113 83.3956 96.4622 83.3383C96.5836 83.305 96.7105 83.2963 96.8353 83.3128C96.9601 83.3293 97.0804 83.3705 97.1891 83.4342C97.2977 83.4979 97.3925 83.5827 97.4679 83.6835C97.5432 83.7844 97.5977 83.8993 97.6279 84.0216Z" fill="#263238"/>
<path d="M97.4043 81.117C97.3104 81.2622 96.4734 80.8608 95.4315 81.0615C94.3896 81.2622 93.7235 81.9156 93.5868 81.8259C93.5185 81.7789 93.5868 81.527 93.8857 81.2195C94.2778 80.8215 94.7835 80.5545 95.3333 80.4552C95.8748 80.3478 96.4364 80.4182 96.9346 80.6559C97.3018 80.8395 97.4556 81.0487 97.4043 81.117Z" fill="#263238"/>
<path d="M88.1747 86.0294C88.2244 86.2816 88.1736 86.5432 88.0332 86.7586C87.8929 86.9739 87.674 87.1259 87.4232 87.1823C87.302 87.2156 87.1754 87.2242 87.0509 87.2077C86.9263 87.1912 86.8063 87.1499 86.698 87.0862C86.5897 87.0224 86.4953 86.9377 86.4204 86.8368C86.3454 86.736 86.2915 86.6211 86.2617 86.4991C86.2108 86.2474 86.2605 85.9857 86.4002 85.7702C86.5398 85.5547 86.7584 85.4025 87.009 85.3461C87.1304 85.3128 87.2573 85.3041 87.3821 85.3206C87.5069 85.3371 87.6272 85.3784 87.7359 85.442C87.8445 85.5057 87.9393 85.5905 88.0147 85.6913C88.09 85.7922 88.1444 85.9071 88.1747 86.0294Z" fill="#263238"/>
<path d="M87.1995 83.2621C87.1055 83.4116 86.2686 83.0059 85.2266 83.2066C84.1847 83.4073 83.5186 84.0606 83.3819 83.971C83.3179 83.924 83.3819 83.6721 83.6809 83.3689C84.0714 82.978 84.572 82.7158 85.1156 82.6173C85.6572 82.513 86.2179 82.5833 86.7169 82.818C87.097 82.9846 87.2507 83.1938 87.1995 83.2621Z" fill="#263238"/>
<path d="M92.4497 90.2691C92.4497 90.2093 93.0603 89.9745 94.0852 89.6371C94.3457 89.5603 94.5891 89.462 94.5976 89.2699C94.5671 88.9905 94.4524 88.7269 94.2688 88.5141L93.0988 86.6395C91.4548 83.9621 90.2121 81.7373 90.3189 81.6733C90.4256 81.6092 91.8476 83.7272 93.4916 86.4046L94.6318 88.2963C94.86 88.5866 94.9794 88.9477 94.9691 89.3169C94.9481 89.4181 94.9046 89.5133 94.8417 89.5953C94.7789 89.6774 94.6984 89.7442 94.6061 89.7909C94.4701 89.8562 94.3268 89.905 94.1791 89.936C93.1201 90.1965 92.4668 90.3246 92.4497 90.2691Z" fill="#263238"/>
<path d="M86.8176 79.6509C86.7322 79.9412 85.7842 79.8259 84.6825 79.9967C83.5808 80.1675 82.6841 80.5305 82.5474 80.2743C82.4791 80.1505 82.6285 79.8772 82.9744 79.5911C83.4362 79.2368 83.9821 79.0087 84.5587 78.9292C85.1259 78.8411 85.7062 78.9045 86.2411 79.1128C86.6638 79.2922 86.8731 79.5142 86.8176 79.6509Z" fill="#263238"/>
<path d="M96.8308 77.4042C96.6557 77.6818 95.7505 77.6006 94.6957 77.7842C93.641 77.9679 92.8169 78.3095 92.5607 78.1002C92.4496 77.9935 92.5393 77.733 92.8809 77.4341C93.3557 77.0543 93.9232 76.8081 94.5249 76.721C95.12 76.6094 95.7343 76.6625 96.3013 76.8747C96.7411 77.0669 96.9077 77.2675 96.8308 77.4042Z" fill="#263238"/>
<path d="M77.6774 90.4013C77.6218 90.1537 77.5165 89.92 77.3679 89.7143C77.2193 89.5086 77.0304 89.3352 76.8128 89.2046C76.5953 89.0741 76.3534 88.9891 76.102 88.9547C75.8506 88.9204 75.5948 88.9375 75.3502 89.0049C74.1075 89.3679 72.835 90.3543 73.4201 92.9505C74.4492 97.558 78.8645 95.5724 78.8432 95.44C78.8218 95.3077 78.1258 92.3271 77.6774 90.4013Z" fill="#C17560"/>
<path d="M77.4515 93.9276C77.4302 93.9276 77.3832 94.0044 77.2636 94.0941C77.0916 94.2202 76.877 94.2738 76.6658 94.2436C76.1363 94.171 75.5556 93.492 75.3464 92.6679C75.2453 92.2754 75.235 91.865 75.3165 91.468C75.3268 91.3142 75.3746 91.1653 75.4557 91.0343C75.5369 90.9033 75.6489 90.7942 75.7819 90.7164C75.8685 90.6732 75.9672 90.6606 76.0618 90.6807C76.1565 90.7009 76.2415 90.7526 76.3029 90.8274C76.3925 90.9427 76.384 91.041 76.4139 91.0452C76.4438 91.0495 76.495 90.947 76.4139 90.7634C76.3618 90.6551 76.2745 90.5678 76.1662 90.5157C76.0918 90.4847 76.012 90.4688 75.9314 90.4688C75.8507 90.4688 75.7709 90.4847 75.6965 90.5157C75.5156 90.5952 75.3582 90.7197 75.2393 90.8775C75.1204 91.0353 75.044 91.221 75.0176 91.4167C74.9108 91.8587 74.9108 92.3198 75.0176 92.7618C75.2567 93.6842 75.9271 94.4699 76.6359 94.4912C76.768 94.4996 76.9002 94.4783 77.0229 94.4288C77.1456 94.3793 77.2556 94.3028 77.3448 94.2051C77.4686 94.0429 77.4686 93.9361 77.4515 93.9276Z" fill="#7C4236"/>
<path d="M92.5434 68.6027C92.4792 68.495 92.4033 68.3948 92.3171 68.3038C91.9873 67.969 91.5841 67.7156 91.1394 67.5637C90.6947 67.4118 90.2207 67.3654 89.755 67.4284C89.1806 67.2579 88.5938 67.1323 88 67.0526C87.549 66.5181 86.969 66.1075 86.3149 65.8599C85.6609 65.6123 84.9545 65.5357 84.2625 65.6375C83.5706 65.7393 82.9161 66.016 82.3611 66.4415C81.8061 66.867 81.3689 67.4271 81.0909 68.0689C80.903 68.1329 80.7194 68.2013 80.5358 68.2739C79.9573 67.9964 79.3228 67.8554 78.6813 67.8617C78.0397 67.868 77.4082 68.0214 76.8352 68.3101C76.2623 68.5989 75.7632 69.0152 75.3765 69.5272C74.9898 70.0391 74.7257 70.6329 74.6045 71.263C74.0065 71.2172 73.4083 71.349 72.885 71.6419C72.3616 71.9348 71.9365 72.3757 71.6628 72.9094C71.3891 73.443 71.2792 74.0456 71.3467 74.6416C71.4142 75.2375 71.6563 75.8002 72.0424 76.2591C71.2994 76.8953 70.7614 77.8604 70.9066 78.8211C71.0517 79.7819 72.0595 80.4566 72.9093 80.1833C73.1697 82.438 73.9042 85.0086 74.4593 87.2931C74.8522 88.903 77.1026 89.4752 77.4484 90.5513C79.2419 96.0384 80.4888 92.5796 78.9772 80.7982C79.0754 80.6829 79.1779 80.5634 79.2761 80.4353C79.4194 80.1595 79.5435 79.8741 79.6476 79.5812C79.844 79.2353 80.3308 79.2396 80.7279 79.2055C81.4152 79.1283 82.0551 78.8172 82.5402 78.3243C83.0254 77.8314 83.3263 77.1866 83.3925 76.4982C83.8195 76.9252 84.6351 76.7715 85.1006 76.3359C85.5088 75.8568 85.8467 75.3219 86.104 74.7474C86.4243 74.2008 86.9154 73.6756 87.5431 73.6457C87.8924 73.696 88.2463 73.706 88.5978 73.6756C89.1956 73.5091 89.3579 72.7362 89.3323 72.117C89.2561 71.5935 89.324 71.0591 89.5287 70.5712C89.8627 70.3179 90.2405 70.1283 90.6432 70.0118C90.8781 70.0118 91.1215 70.0118 91.3521 69.9862C91.4626 69.9801 91.5725 69.9658 91.6809 69.9435C91.8334 69.9643 91.9846 69.9942 92.1335 70.0332C94.3711 70.6353 96.9673 74.5425 96.9673 74.5425C96.6428 71.8096 94.7297 69.8453 92.5434 68.6027Z" fill="#263238"/>
<path d="M71.5078 76.5997C71.5078 76.5997 71.5078 76.574 71.5377 76.5228C71.5676 76.4715 71.5932 76.4032 71.6487 76.3136C71.817 76.0587 72.0279 75.8348 72.2722 75.6517C72.6611 75.3626 73.1135 75.1708 73.5916 75.0923C74.2246 74.982 74.8762 75.0936 75.4364 75.4083L75.3168 75.4723C75.3583 74.9454 75.5116 74.4334 75.7663 73.9703C76.021 73.5072 76.3715 73.1036 76.7943 72.7864C77.2607 72.4165 77.7922 72.137 78.3614 71.9623C78.963 71.7882 79.5891 71.7146 80.2147 71.7445C81.3868 71.8155 82.5353 72.1052 83.6009 72.5985L83.4728 72.6668C83.6823 71.622 84.2805 70.6956 85.1467 70.0749C85.7078 69.6806 86.3595 69.4348 87.0411 69.3601C87.7228 69.2854 88.4122 69.3844 89.0453 69.6478C89.1774 69.702 89.3058 69.7647 89.4297 69.8357C89.5108 69.887 89.5535 69.9169 89.5492 69.9211C89.5449 69.9254 89.3699 69.8315 89.024 69.7034C88.5275 69.5234 88.0018 69.4379 87.4739 69.4514C86.6688 69.4677 85.888 69.73 85.2364 70.203C84.4139 70.8077 83.8486 71.6992 83.6521 72.701L83.6308 72.8163L83.524 72.7693C82.4794 72.2847 81.3549 71.9952 80.2061 71.9153C79.6024 71.8887 78.9983 71.9593 78.4169 72.1245C77.869 72.288 77.3574 72.5547 76.9096 72.9102C76.5024 73.2115 76.1637 73.5956 75.9156 74.0372C75.6676 74.4788 75.5159 74.9679 75.4705 75.4723V75.6004L75.3595 75.5364C74.8325 75.2292 74.2157 75.113 73.613 75.2076C73.1518 75.2732 72.7127 75.4473 72.332 75.7157C72.0015 75.953 71.7214 76.2535 71.5078 76.5997Z" fill="#455A64"/>
<path d="M89.5406 70.25C89.5304 70.3167 89.5146 70.3824 89.4936 70.4464C89.455 70.6336 89.4307 70.8235 89.421 71.0144C89.421 71.2663 89.421 71.5737 89.3911 71.9367C89.4017 72.3573 89.3217 72.7753 89.1563 73.1622C89.0951 73.2761 89.0119 73.3767 88.9114 73.4581C88.811 73.5395 88.6953 73.6 88.5712 73.6362C88.3096 73.6991 88.0418 73.7321 87.7727 73.7344C87.5004 73.735 87.2328 73.8056 86.9956 73.9394C86.7605 74.1153 86.5643 74.3377 86.4191 74.5927C86.2568 74.8532 86.1116 75.1393 85.9536 75.4468C85.8123 75.7576 85.6252 76.0455 85.3985 76.3008C85.1306 76.5553 84.8032 76.7388 84.4463 76.8346C84.2623 76.8898 84.0702 76.9129 83.8783 76.9029C83.6677 76.8997 83.4668 76.8138 83.3189 76.6638L83.4812 76.604C83.4684 77.1899 83.2577 77.7543 82.8834 78.2053C82.4867 78.6687 81.9694 79.0131 81.3888 79.2002C81.1478 79.2769 80.9007 79.3326 80.6501 79.3668C80.4185 79.3592 80.1881 79.403 79.9754 79.4949C79.7815 79.6034 79.6307 79.7753 79.5484 79.9817C79.4414 80.1964 79.3172 80.402 79.1769 80.5966C78.6777 81.3804 77.9017 81.9475 77.0034 82.1851C76.1819 82.303 75.3455 82.1178 74.6505 81.6641C74.0531 81.2878 73.5829 80.7402 73.3012 80.0927L73.3908 80.1269C73.139 80.2314 72.8673 80.2791 72.5949 80.2666C72.3225 80.254 72.0563 80.1815 71.8152 80.0543C71.4533 79.8607 71.1708 79.5464 71.0166 79.1661C70.9191 78.9325 70.8739 78.6803 70.8843 78.4273C70.8846 78.3627 70.8918 78.2983 70.9056 78.2352C70.9056 78.1925 70.9056 78.1711 70.9056 78.1711C70.8796 78.5027 70.9353 78.8355 71.0679 79.1405C71.2241 79.4955 71.4988 79.7853 71.845 79.9603C72.0726 80.0742 72.3221 80.1374 72.5765 80.1455C72.8308 80.1536 73.0839 80.1065 73.3182 80.0073L73.3823 79.9817L73.4079 80.0415C73.6878 80.657 74.144 81.1757 74.7189 81.5317C75.3813 81.955 76.1744 82.1249 76.9522 82.01C77.8005 81.7806 78.5329 81.2432 79.0061 80.5026C79.142 80.3167 79.262 80.1195 79.3648 79.9134C79.4653 79.6724 79.6424 79.4713 79.8687 79.3412C79.9852 79.2778 80.1127 79.2373 80.2444 79.2216L80.6074 79.1917C80.8454 79.1594 81.0798 79.1051 81.3077 79.0294C81.855 78.8566 82.3431 78.5341 82.7169 78.0985C83.0668 77.6812 83.2641 77.1571 83.2762 76.6125V76.3905L83.43 76.5527C83.5627 76.6524 83.7189 76.7162 83.8834 76.7379C84.048 76.7596 84.2154 76.7385 84.3694 76.6766C84.6972 76.5899 84.9982 76.4225 85.2448 76.1898C85.4733 75.9422 85.6607 75.6597 85.7999 75.3528C85.9622 75.0625 86.1116 74.7764 86.2824 74.4988C86.4412 74.2258 86.655 73.9888 86.9101 73.8028C87.1709 73.6567 87.4654 73.5816 87.7642 73.585C88.0227 73.5843 88.2804 73.5557 88.5328 73.4996C88.6411 73.4699 88.7425 73.4192 88.8311 73.3503C88.9198 73.2815 88.994 73.1958 89.0495 73.0982C89.2157 72.7292 89.3001 72.3286 89.2972 71.9239C89.3185 71.5652 89.3313 71.2535 89.3569 71.0015C89.3747 70.8079 89.4104 70.6163 89.4637 70.4293C89.482 70.3667 89.5078 70.3065 89.5406 70.25Z" fill="#455A64"/>
<path d="M89.5453 92.7109C89.3531 93.992 89.904 95.2175 91.1082 95.6573C91.3426 95.7299 91.589 95.7556 91.8333 95.7329C92.0776 95.7101 92.315 95.6394 92.532 95.5248C92.749 95.4101 92.9412 95.2538 93.0977 95.0648C93.2541 94.8758 93.3718 94.6578 93.4439 94.4233C93.5816 93.8995 93.5919 93.3505 93.4738 92.822C92.3679 92.7579 90.6598 92.775 89.5453 92.7109Z" fill="#7C4236"/>
<path d="M93.2226 94.9414C93.2226 94.9414 93.2226 94.9755 93.1756 95.031C93.1225 95.1126 93.0594 95.1872 92.9878 95.2531C92.7253 95.5033 92.3934 95.6685 92.0355 95.7271C91.4963 95.8096 90.9453 95.6976 90.4812 95.4111C90.204 95.2267 89.968 94.987 89.7879 94.707C89.6079 94.4271 89.4877 94.1128 89.435 93.7841C89.4095 93.6117 89.401 93.4373 89.4094 93.2632C89.4102 93.0808 89.4572 92.9016 89.546 92.7422C89.6016 92.6565 89.6843 92.5918 89.7809 92.5586C89.8663 92.5313 89.956 92.5198 90.0456 92.5245H90.4983C91.0833 92.5543 91.6085 92.6099 92.0483 92.6568C92.9237 92.7508 93.4703 92.7764 93.4703 92.8106C92.9937 92.8665 92.5121 92.8665 92.0355 92.8106C91.6085 92.7849 91.0705 92.7422 90.4897 92.7252H90.0627C89.9133 92.7252 89.8065 92.7465 89.7424 92.849C89.6796 92.9825 89.6475 93.1284 89.6485 93.276C89.6289 93.658 89.7067 94.0388 89.8748 94.3824C90.0429 94.726 90.2957 95.0213 90.6093 95.2403C91.0307 95.5079 91.5308 95.6239 92.027 95.5691C92.3647 95.5314 92.6847 95.3981 92.9493 95.1848C93.1287 95.0396 93.2226 94.9243 93.2226 94.9414Z" fill="#263238"/>
<path d="M119.016 80.203C119.016 80.203 124.426 79.5283 132.556 73.059C140.687 66.5898 145.093 57.3961 145.999 57.5328C146.904 57.6694 151.067 56.1877 157.101 73.3921C163.135 90.5966 159.779 94.1451 158.275 93.97C156.772 93.7949 146.797 89.9774 140.341 90.1055C133.884 90.2336 125.34 92.7872 125.34 92.7872L119.016 80.203Z" fill="#F09EBE"/>
<path d="M109.283 93.0446L112.174 92.4297L110.607 88.625L108.164 89.8463L109.283 93.0446Z" fill="#455A64"/>
<path d="M109.621 88.5229L110.688 91.734L111.354 93.3481C111.788 94.4206 112.619 95.2849 113.673 95.7619C114.727 96.2389 115.924 96.292 117.017 95.9102L128.747 92.6094L123.708 77.7578L112.05 82.6728C110.957 83.1318 110.088 84.0035 109.634 85.0987C109.179 86.1939 109.174 87.4242 109.621 88.5229Z" fill="#263238"/>
<path d="M113.828 93.462L117.757 100.427L119.55 99.8502L131.818 109.005L134.863 102.378C134.863 102.378 127.723 99.6495 126.323 97.2027C124.922 94.7559 126.399 94.1282 126.399 94.1282L122.945 90.5156L113.828 93.462Z" fill="#263238"/>
<path d="M156.457 73.6436C159.647 82.9568 160.578 91.0744 158.533 91.7747C156.487 92.475 152.239 85.4976 149.044 76.1844C145.85 66.8712 144.924 58.7536 146.969 58.049C149.015 57.3444 153.263 64.3176 156.457 73.6436Z" fill="#263238"/>
<path d="M148.414 70.8741C148.414 70.8741 153.291 68.4529 155.225 74.9136C157.159 81.3744 152.214 81.9423 152.214 81.9423C150.434 78.4496 149.155 74.7236 148.414 70.8741Z" fill="#FAFAFA"/>
<path d="M144.216 62.9922C144.2 63.3963 144.223 63.8009 144.284 64.2006C144.357 64.9735 144.459 66.0966 144.626 67.4801C144.759 68.1662 144.902 68.912 145.053 69.7177C145.134 70.1191 145.215 70.5375 145.296 70.9646C145.339 71.1781 145.381 71.3959 145.424 71.6179C145.475 71.8357 145.544 72.0449 145.603 72.2755L146.393 75.0554L146.598 75.7813C146.667 76.029 146.773 76.2638 146.859 76.5072C147.038 76.994 147.222 77.4851 147.41 77.9847L147.965 79.4622C148.059 79.7013 148.136 79.949 148.247 80.1796L148.567 80.8671L149.801 83.4847C149.903 83.6896 149.993 83.9117 150.1 84.0953L150.433 84.6718L151.069 85.7777L152.214 87.7463C152.995 88.8992 153.653 89.8088 154.105 90.4407C154.323 90.7819 154.572 91.1021 154.848 91.3973C154.673 91.033 154.468 90.6844 154.233 90.3553L152.448 87.5925L151.355 85.6027L150.745 84.5052C150.638 84.3131 150.531 84.1209 150.42 83.9288C150.309 83.7366 150.232 83.5231 150.134 83.3139C149.75 82.4812 149.344 81.6058 148.93 80.7048L148.61 80.0216C148.503 79.791 148.426 79.5476 148.332 79.3084L147.785 77.8438C147.602 77.3484 147.418 76.8574 147.235 76.3748C147.149 76.1357 147.042 75.9009 146.978 75.6575C146.914 75.4141 146.837 75.1707 146.765 74.9315L145.962 72.173C145.902 71.9552 145.83 71.746 145.778 71.524C145.727 71.3019 145.685 71.0969 145.642 70.8792C145.552 70.4521 145.462 70.0251 145.381 69.6408C145.211 68.8466 145.048 68.1036 144.903 67.4246C144.711 66.0667 144.549 64.9607 144.438 64.175C144.394 63.7756 144.32 63.3802 144.216 62.9922Z" fill="#263238"/>
<path d="M128.747 92.5938C128.579 92.6712 128.401 92.7272 128.218 92.7603L126.766 93.1446C125.536 93.4606 123.841 93.909 121.971 94.4256C120.1 94.9423 118.414 95.412 117.18 95.7067C116.56 95.8604 116.061 95.9757 115.711 96.0483C115.531 96.0939 115.348 96.1239 115.164 96.138C115.334 96.0614 115.511 96.0027 115.694 95.9629L117.137 95.5359L121.915 94.1822C123.781 93.6656 125.489 93.2385 126.728 92.961C127.347 92.8201 127.851 92.7133 128.201 92.6493C128.381 92.6138 128.564 92.5952 128.747 92.5938Z" fill="#455A64"/>
<path d="M121.833 90.1641C121.47 90.3681 121.086 90.5328 120.688 90.6551C119.967 90.9242 118.98 91.2658 117.84 91.6031C116.7 91.9405 115.684 92.2009 114.936 92.3717C114.536 92.4861 114.126 92.5591 113.711 92.5895C114.096 92.4343 114.493 92.3101 114.898 92.218C115.637 92.0088 116.653 91.7227 117.776 91.3896C118.899 91.0565 119.911 90.7363 120.637 90.5057C121.026 90.3601 121.426 90.2459 121.833 90.1641Z" fill="#455A64"/>
<path d="M119.989 86.7734C118.809 87.2477 117.601 87.6513 116.373 87.9819C115.165 88.3863 113.934 88.7199 112.688 88.9811C113.87 88.506 115.079 88.1011 116.309 87.7684C117.515 87.3662 118.744 87.034 119.989 86.7734Z" fill="#455A64"/>
<path d="M118.173 83.5078C117.179 84.0638 116.149 84.5544 115.09 84.9767C114.063 85.4715 113.004 85.8994 111.922 86.2578C112.914 85.6978 113.942 85.2056 115.001 84.7846C116.028 84.2881 117.088 83.8616 118.173 83.5078Z" fill="#455A64"/>
<path d="M104.969 120.257L97.8469 108.237L79.4297 107.477V109.15C79.4297 109.15 74.3738 114.24 72.7426 121.171C71.5085 126.419 76.7011 146.446 78.1615 153.389C79.9549 161.93 82.4316 172.725 82.4316 172.725C82.0601 174.638 79.6048 176.188 79.7756 178.741L120.709 178.293L118.604 169.996L104.969 120.257Z" fill="#731054"/>
<path d="M119.175 173.174C119.175 173.238 111.028 173.285 100.98 173.285C90.9322 173.285 82.7891 173.238 82.7891 173.174C82.7891 173.109 90.9322 173.062 100.98 173.062C111.028 173.062 119.175 173.114 119.175 173.174Z" fill="white"/>
<path d="M116.342 162.892C116.342 162.956 108.271 163.008 98.3176 163.008C88.3639 163.008 80.2891 162.956 80.2891 162.892C80.2891 162.828 88.3596 162.781 98.3176 162.781C108.276 162.781 116.342 162.845 116.342 162.892Z" fill="white"/>
<path d="M113.57 151.744C113.57 151.804 105.67 151.855 95.9255 151.855C86.181 151.855 78.2812 151.791 78.2812 151.744C78.2812 151.697 86.1768 151.633 95.9213 151.633C105.666 151.633 113.57 151.68 113.57 151.744Z" fill="white"/>
<path d="M111.625 140.509C111.625 140.569 103.486 140.62 93.4508 140.62C83.4159 140.62 75.2812 140.569 75.2812 140.509C75.2812 140.45 83.4159 140.398 93.4508 140.398C103.486 140.398 111.625 140.445 111.625 140.509Z" fill="white"/>
<path d="M107.322 126.568C107.322 126.628 99.6352 126.679 90.1256 126.679C80.616 126.679 72.9297 126.628 72.9297 126.568C72.9297 126.509 80.616 126.453 90.1256 126.453C99.6352 126.453 107.322 126.504 107.322 126.568Z" fill="white"/>
<path d="M101.461 113.791C101.461 113.85 95.7778 113.902 88.7619 113.902C81.7461 113.902 76.0625 113.85 76.0625 113.791C76.0625 113.731 81.7461 113.68 88.7619 113.68C95.7778 113.68 101.461 113.748 101.461 113.791Z" fill="white"/>
<path opacity="0.3" d="M77.9844 127.672C79.7766 130.681 82.0384 133.384 84.6842 135.678C88.7964 139.095 101.308 145.218 101.308 145.218L102.354 143.057L111.689 145.239L109.981 139.492L77.9844 127.672Z" fill="black"/>
<path d="M121.899 112.505L118.641 130.2L90.7308 116.933L86.2344 132.673C97.2044 138.036 119.409 146.965 122.266 146.709C126.331 146.341 129.141 143.912 130.405 137.959C131.191 134.274 130.832 109.562 130.832 109.562L121.899 112.505Z" fill="#C17560"/>
<path d="M92.5564 114.551C92.5564 114.551 82.1201 108.104 77.5682 116.23C74.3143 124.155 77.914 130.483 85.9505 134.412C89.8235 136.308 95.1014 138.648 100.431 140.873L108.198 123.634L92.5564 114.551Z" fill="#731054"/>
<path d="M92.5544 114.555C92.5544 114.555 92.6569 114.602 92.8448 114.709L93.6732 115.174L96.8246 116.976L108.243 123.561L108.311 123.604L108.277 123.676L100.531 140.919L100.488 141.017L100.39 140.975C97.6573 139.839 94.839 138.626 91.9694 137.345C90.7026 136.776 89.4514 136.206 88.2159 135.637C86.9861 135.06 85.7734 134.484 84.6077 133.848C84.0383 133.52 83.4761 133.177 82.921 132.819C82.3915 132.434 81.8449 132.084 81.3623 131.657C80.3763 130.865 79.4888 129.958 78.7191 128.954L78.1896 128.194C78.0182 127.942 77.8628 127.68 77.7242 127.408C77.4329 126.883 77.1789 126.338 76.9641 125.777C76.8659 125.5 76.7933 125.209 76.7079 124.923L76.584 124.496C76.5499 124.351 76.5328 124.21 76.5029 124.069C76.4559 123.787 76.4047 123.501 76.3577 123.215C76.3108 122.929 76.3236 122.651 76.3065 122.361C76.2757 121.807 76.2857 121.252 76.3364 120.7C76.3791 120.158 76.4944 119.628 76.5712 119.107C76.6481 118.586 76.8317 118.091 76.9726 117.6C77.1135 117.109 77.3185 116.648 77.485 116.186C78.0916 115.084 78.9344 114.128 79.9532 113.389C80.8853 112.758 81.9454 112.341 83.0576 112.168C84.8448 111.951 86.6578 112.128 88.3697 112.685C89.4546 113.022 90.5089 113.45 91.521 113.966C91.8669 114.145 92.1231 114.29 92.2982 114.393C92.4733 114.495 92.5501 114.555 92.5501 114.555L92.2854 114.414C92.1103 114.32 91.8584 114.184 91.4954 114.013C90.4791 113.517 89.4237 113.106 88.3398 112.783C86.6417 112.244 84.8461 112.082 83.079 112.309C81.9893 112.482 80.952 112.897 80.0429 113.522C79.047 114.251 78.2246 115.192 77.6345 116.276C77.4722 116.737 77.3014 117.203 77.1306 117.681C76.9598 118.159 76.8701 118.663 76.742 119.167C76.6139 119.671 76.5584 120.205 76.5157 120.743C76.4686 121.286 76.4601 121.833 76.4901 122.378C76.4901 122.651 76.52 122.933 76.5456 123.232C76.5712 123.531 76.6396 123.787 76.6908 124.065C76.7164 124.206 76.7335 124.347 76.7677 124.492L76.8915 124.919C76.9769 125.196 77.0452 125.478 77.1477 125.751C77.3583 126.302 77.608 126.838 77.895 127.353C78.0333 127.618 78.1858 127.876 78.3519 128.126L78.8771 128.869C79.6382 129.859 80.5156 130.753 81.4905 131.533C81.9846 131.942 82.4991 132.325 83.032 132.682C83.5729 133.038 84.1308 133.377 84.7059 133.698C85.8588 134.326 87.0715 134.907 88.3013 135.479C89.5312 136.051 90.7866 136.628 92.0548 137.187C94.9158 138.468 97.7341 139.681 100.463 140.821L100.322 140.876C103.221 134.471 105.873 128.57 108.106 123.651L108.145 123.762L96.7648 117.109L93.6518 115.217L92.8405 114.73C92.6484 114.641 92.5544 114.555 92.5544 114.555Z" fill="#263238"/>
<path d="M121.482 115.541L122.11 108.948C122.11 108.948 119.59 103.875 119.641 103.366C119.693 102.858 119.838 100.061 119.838 100.061L126.136 94.3906C126.136 94.3906 128.177 94.3906 128.229 96.4104C128.229 96.4104 130.189 95.9834 130.219 98.3491C130.219 98.3491 132.354 98.4259 132.396 100.147C132.396 100.147 133.677 99.976 133.635 101.774C133.601 103.055 133.037 108.012 133.037 108.012L130.402 112.594L130.184 117.176L121.482 115.541Z" fill="#C17560"/>
<path d="M122.136 136.668C122.063 136.694 121.598 135.092 120.645 133.299C119.693 131.506 118.587 130.25 118.643 130.203C118.925 130.435 119.176 130.702 119.39 130.997C119.941 131.683 120.427 132.417 120.842 133.192C121.253 133.968 121.596 134.778 121.867 135.613C121.997 135.953 122.087 136.307 122.136 136.668Z" fill="#7C4236"/>
<path d="M86.2336 112.367C86.1593 112.576 86.0664 112.777 85.956 112.969C85.7639 113.349 85.4778 113.892 85.102 114.558C84.3803 115.894 83.3512 117.722 82.2026 119.729L79.2433 124.853L78.3466 126.407C78.2427 126.603 78.1242 126.79 77.9922 126.967C78.0665 126.758 78.1594 126.557 78.2697 126.365C78.4619 125.989 78.748 125.442 79.1238 124.776C79.8454 123.44 80.8703 121.612 82.0232 119.605C83.1762 117.598 84.2053 115.817 84.9782 114.481C85.3454 113.853 85.6486 113.328 85.8792 112.927C85.981 112.73 86.0996 112.543 86.2336 112.367Z" fill="white"/>
<path d="M94.744 116.094C94.7296 116.16 94.7066 116.225 94.6757 116.286L94.4408 116.82C94.2316 117.285 93.9241 117.947 93.527 118.763C92.7413 120.394 91.6183 122.627 90.3031 125.057C88.9878 127.487 87.741 129.651 86.8015 131.202C86.3318 131.974 85.9475 132.598 85.6742 133.025L85.3582 133.516C85.322 133.574 85.2806 133.628 85.2344 133.678C85.2344 133.678 85.2557 133.61 85.3198 133.49L85.6016 132.982L86.6649 131.12C87.5659 129.553 88.8 127.376 90.1066 124.95C91.4133 122.525 92.5662 120.304 93.3861 118.69L94.364 116.786L94.633 116.269C94.6619 116.206 94.6992 116.147 94.744 116.094Z" fill="white"/>
<path d="M104.271 121.422C104.201 121.664 104.114 121.901 104.011 122.131C103.836 122.558 103.562 123.224 103.212 124.014C102.508 125.59 101.466 127.742 100.18 130.048C98.8951 132.353 97.6183 134.369 96.6405 135.799C96.1537 136.513 95.748 137.081 95.4576 137.469C95.3189 137.678 95.1632 137.875 94.9922 138.058C95.1072 137.836 95.24 137.623 95.3893 137.422L96.5081 135.714C97.4475 134.267 98.703 132.242 99.9883 129.945C101.274 127.648 102.328 125.508 103.067 123.967L103.921 122.114C104.017 121.873 104.134 121.642 104.271 121.422Z" fill="white"/>
<path d="M79.4531 186.648L80.3413 178.744L119.392 178.312L120.387 186.648H79.4531Z" fill="#263238"/>
<path d="M127.814 185.955C127.814 186.015 115.785 186.066 100.946 186.066C86.1071 186.066 74.0781 186.015 74.0781 185.955C74.0781 185.895 86.1071 185.844 100.946 185.844C115.785 185.844 127.814 185.886 127.814 185.955Z" fill="#455A64"/>
<path d="M106.05 48.0312H91.5274C91.0463 48.0312 90.6562 48.4213 90.6562 48.9024V49.5301C90.6562 50.0112 91.0463 50.4012 91.5274 50.4012H106.05C106.531 50.4012 106.921 50.0112 106.921 49.5301V48.9024C106.921 48.4213 106.531 48.0312 106.05 48.0312Z" fill="#455A64"/>
<path d="M110.866 49.2184C110.866 49.4531 110.797 49.6827 110.666 49.8779C110.536 50.0731 110.35 50.2252 110.134 50.3151C109.917 50.4049 109.678 50.4285 109.448 50.3826C109.217 50.3368 109.006 50.2238 108.84 50.0578C108.674 49.8917 108.561 49.6802 108.515 49.4499C108.469 49.2197 108.493 48.981 108.583 48.7641C108.672 48.5472 108.825 48.3618 109.02 48.2313C109.215 48.1009 109.445 48.0312 109.679 48.0312C109.835 48.0312 109.99 48.062 110.134 48.1216C110.278 48.1813 110.408 48.2687 110.519 48.3789C110.629 48.4892 110.716 48.62 110.776 48.7641C110.836 48.9081 110.866 49.0625 110.866 49.2184Z" fill="#455A64"/>
<path d="M61.6553 66.4297H62.6161V86.2432H61.6553C60.9531 86.2432 60.2797 85.9643 59.7832 85.4678C59.2867 84.9713 59.0078 84.2979 59.0078 83.5957V69.0772C59.0078 68.7295 59.0763 68.3852 59.2093 68.064C59.3424 67.7428 59.5374 67.451 59.7832 67.2051C60.0291 66.9593 60.3209 66.7643 60.6422 66.6312C60.9634 66.4982 61.3076 66.4297 61.6553 66.4297Z" fill="#263238"/>
<path d="M61.4209 95.2188H62.3817V115.032H61.4209C60.7188 115.032 60.0454 114.753 59.5489 114.257C59.0524 113.76 58.7734 113.087 58.7734 112.385V97.8663C58.7734 97.1641 59.0524 96.4907 59.5489 95.9942C60.0454 95.4977 60.7188 95.2187 61.4209 95.2188Z" fill="#263238"/>
<path d="M61.4938 124.58C61.4298 124.58 61.3828 110.199 61.3828 92.4603C61.3828 74.7221 61.4298 60.3359 61.4938 60.3359C61.5579 60.3359 61.6049 74.7178 61.6049 92.4603C61.6049 110.203 61.5536 124.58 61.4938 124.58Z" fill="#455A64"/>
</svg>
