<svg width="184" height="277" fill="none" xmlns="http://www.w3.org/2000/svg"><circle cx="92.023" cy="153.212" r="91.209" fill="url(#a)"/><path d="M106.336 132.348a76.351 76.351 0 0 1 5.938-6.235c2.045-1.914 4.091-3.563 6.136-4.949 2.045-1.385 4.058-2.441 6.037-3.167 2.045-.791 3.992-1.187 5.839-1.187 1.452 0 2.87.264 4.256.791a9.99 9.99 0 0 1 3.86 2.277c1.121.989 2.012 2.276 2.672 3.859.66 1.584.989 3.464.989 5.642 0 3.167-.428 6.301-1.286 9.402a62.694 62.694 0 0 1-3.266 8.907 111.391 111.391 0 0 1-4.256 8.412 1084.205 1084.205 0 0 0-4.156 7.819c-1.32 2.441-2.409 4.783-3.266 7.026-.858 2.178-1.287 4.19-1.287 6.037 0 1.452.363 2.508 1.089 3.167.791.594 1.616.891 2.474.891 1.715 0 3.728-.99 6.037-2.969 2.375-1.979 4.849-4.519 7.423-7.62 2.573-3.101 5.146-6.499 7.719-10.194a557.457 557.457 0 0 0 7.522-10.986l3.563 2.771a475.88 475.88 0 0 0-3.365 5.543 140.922 140.922 0 0 1-4.652 7.323 172.242 172.242 0 0 1-5.839 7.918 64.038 64.038 0 0 1-6.73 7.224c-2.309 2.112-4.717 3.86-7.224 5.246-2.508 1.319-5.015 1.979-7.522 1.979-1.386 0-2.738-.198-4.058-.594a9.416 9.416 0 0 1-3.365-1.88c-.989-.924-1.781-2.111-2.375-3.563-.594-1.451-.891-3.233-.891-5.344 0-2.903.495-5.74 1.485-8.511a53.653 53.653 0 0 1 3.761-8.215 143.749 143.749 0 0 1 4.849-8.016 155.746 155.746 0 0 0 4.949-8.017c1.517-2.639 2.771-5.278 3.76-7.917.99-2.705 1.485-5.443 1.485-8.215 0-1.385-.264-2.474-.792-3.266-.528-.857-1.517-1.286-2.969-1.286-2.309 0-4.75.957-7.324 2.87-2.573 1.847-5.245 4.355-8.016 7.522s-5.608 6.861-8.511 11.084a289.943 289.943 0 0 0-8.71 13.262 890.8 890.8 0 0 0-8.51 14.152c-2.772 4.751-5.444 9.336-8.017 13.757l-8.314-4.355c3.497-7.191 6.763-13.624 9.798-19.299 3.101-5.674 5.806-10.787 8.116-15.34 2.309-4.618 4.123-8.808 5.443-12.569 1.32-3.826 1.98-7.422 1.98-10.787 0-.66-.067-1.32-.199-1.98-.132-.725-.395-1.352-.791-1.88-.396-.528-.924-.957-1.584-1.287-.594-.395-1.385-.593-2.375-.593-2.243 0-4.52 1.055-6.829 3.167-2.31 2.045-4.75 4.882-7.324 8.511-2.573 3.563-5.344 7.752-8.313 12.569a809.441 809.441 0 0 1-9.501 15.142 420.81 420.81 0 0 1-10.985 16.528 187.63 187.63 0 0 1-12.965 16.33l-6.83-4.553c2.112-3.167 4.322-6.499 6.632-9.996a374.767 374.767 0 0 0 6.928-10.787 276.759 276.759 0 0 0 6.532-10.788c2.11-3.629 3.958-7.06 5.542-10.293 1.583-3.233 2.837-6.202 3.76-8.907.924-2.705 1.386-5.014 1.386-6.928 0-2.243-.56-3.859-1.682-4.849-1.122-.99-2.574-1.485-4.355-1.485-2.111 0-4.19.759-6.235 2.277-1.98 1.517-4.09 3.662-6.334 6.433-2.177 2.771-4.553 6.103-7.126 9.995a501.203 501.203 0 0 1-8.61 12.668l-3.563-2.771a988.552 988.552 0 0 1 9.402-14.647c2.837-4.223 5.51-7.753 8.017-10.59 2.507-2.837 4.981-4.981 7.422-6.433a15.929 15.929 0 0 1 8.116-2.177c.857 0 1.946.165 3.266.495 1.385.33 2.738.924 4.057 1.781 1.32.858 2.475 2.046 3.464 3.563 1.056 1.518 1.683 3.464 1.88 5.839 3.695-4.75 7.555-8.544 11.58-11.381 4.025-2.837 7.818-4.256 11.381-4.256 2.573 0 4.75.528 6.532 1.584 1.782.99 3.2 2.309 4.256 3.959 1.121 1.649 1.913 3.529 2.375 5.641a24.84 24.84 0 0 1 .792 6.235c0 .528-.033 1.088-.099 1.682 0 .594-.033 1.188-.099 1.782Z" fill="#F4F4F4"/><defs><linearGradient id="a" x1="13.843" y1="94.577" x2="170.202" y2="211.846" gradientUnits="userSpaceOnUse"><stop stop-color="#731054"/><stop offset="1" stop-color="#DE0D6F"/></linearGradient></defs></svg>