<svg width="494" height="385" fill="none" xmlns="http://www.w3.org/2000/svg"><path d="M456.892 296.009c-1.751-1.414-4.05-1.942-6.272-2.368-15.503-2.973-31.411-2.982-47.203-2.981-119.436.012-238.872.025-358.309.036l5.031 1.943c-6.414.793-13.067 1.667-18.517 5.1-5.45 3.433-9.313 10.213-7.234 16.256.97 2.822 3.086 5.132 5.457 6.976 15.694 12.21 38.624 4.94 58.271 8.529 12.21 2.232 23.123 8.745 34.803 12.908 16.976 6.051 35.77 7.034 53.3 2.789 10.218-2.476 19.953-6.662 30.199-9.025 12.974-2.991 26.439-2.989 39.763-2.969l67.038.092c12.242.017 24.51.035 36.685 1.309 20.519 2.146 40.852 7.853 61.434 6.39 20.581-1.462 42.523-12.604 47.922-32.264 1.209-4.406 1.213-9.831-2.368-12.721Z" fill="#D6E4F4"/><path d="m459.047 309.919-397.321-.322s-69.614-68.721-19.518-128.45c50.095-59.729 70.006 36.882 82.568-53.746C139.786 19.116 316.448 8.857 321.232 93.793c12.844 227.957 214.586.33 137.815 216.126Z" fill="#F2F2F2"/><path d="M45.785 282.791h1.138l-.18 7.572h-.958v-7.572Z" fill="#D6E4F4"/><path d="M56.464 278.897c.43-.368 12.13-10.886 10.752-24.086-1.378-13.199-12.543-16.465-9.373-31.842 3.171-15.377 0-25.991-9.648-26.126-9.65-.136-14.06 9.117-10.477 25.582 3.584 16.465-11.77 22.905-11.028 34.972.857 13.909 11.993 36.741 29.774 21.5Z" fill="#89EC9E"/><path opacity=".2" d="M41.51 198.9c.166.733.602 1.456 1.317 1.772.66.291 1.417.232 2.11.112 1.283-.222 2.58-.697 3.899-.526.663.086 1.295.373 1.889.663.654.32 1.274.705 1.852 1.143 1.108.841 2.069 1.891 2.73 3.11.754 1.39 1.016 2.922 1.061 4.484.05 1.803-.118 3.609.212 5.394.22 1.188.592 2.491 1.434 3.403.162.176.343.317.532.44 1.831-13.147-1.584-21.931-10.355-22.054-2.648-.037-4.893.643-6.695 1.977.007.028.007.054.013.082Z" fill="#F2F2F2"/><path opacity=".15" d="M48.605 251.933c-1.34-2.437-1.358-5.463-.621-8.081.395-1.403 1-2.744 1.694-4.026.28-.517.626-1.007.88-1.537.185-.383.15-.717 0-1.108-.26-.675-.626-1.318-.916-1.981a28.057 28.057 0 0 1-.81-2.033c-.497-1.435-.698-2.886-.815-4.391-.114-1.487-.06-3.024.422-4.448.429-1.272 1.357-2.299 1.825-3.544a7.354 7.354 0 0 1-1.985-1.762 11.054 11.054 0 0 1-1.519-2.667c-.004 2.106-.004 4.212-.009 6.318-.022 8.393-.057 16.786-.078 25.179-.018 7.48-.017 14.959-.017 22.438.158-.538.325-1.073.516-1.6 1.706-4.741 4.55-8.95 7.308-13.147-2.474.093-4.7-1.473-5.875-3.61Z" fill="#000"/><path opacity=".15" d="M50.025 282.948c-1.353.014-2.72-.211-3.935-.82-1.282-.645-2.29-1.706-2.998-2.93a6.905 6.905 0 0 1-.845-2.358c-.16-.919-.326-1.785-.938-2.527-1.066-1.291-2.886-1.47-4.345-2.122-1.367-.611-2.417-1.773-3.228-2.994-.814-1.226-1.39-2.604-1.785-4.013-.836-2.985-.927-6.174-.54-9.236.358-2.833 1.115-5.639 2.538-8.139 1.697-2.979 3.926-5.638 5.514-8.678.778-1.491 1.358-3.08 1.612-4.743.301-1.982.113-3.979-.345-5.922-.505-2.144-1.309-4.203-2.134-6.243-.771-1.902-1.43-3.822-1.871-5.823.201 1.886.529 3.893.993 6.024 3.584 16.466-11.77 22.905-11.028 34.972.748 12.148 9.338 31.099 23.347 25.552h-.012Z" fill="#000"/><path d="M58.98 251.889a.146.146 0 0 0-.205 0L46.55 263.956v-20.519l6.812-7.103a.143.143 0 0 0-.109-.242.148.148 0 0 0-.102.044l-6.601 6.883v-18.462l4.95-4.959a.143.143 0 0 0-.105-.244.145.145 0 0 0-.103.042l-4.742 4.752v-15.876a.14.14 0 0 0-.04-.105.134.134 0 0 0-.048-.032.14.14 0 0 0-.114 0 .135.135 0 0 0-.048.032.147.147 0 0 0-.04.105v22.143l-3.765-3.167a.148.148 0 0 0-.204.016.142.142 0 0 0 .017.202l3.953 3.325v20.853l-7.459-7.364a.148.148 0 0 0-.205 0 .144.144 0 0 0 0 .203l7.664 7.565v31.475c0 .08.065.143.146.143.08 0 .144-.065.144-.143v-19.164l12.43-12.27a.138.138 0 0 0 0-.2Z" fill="#89EC9E"/><path d="M332.664 290.688h1.139l-.18 7.571h-.959v-7.571Z" fill="#D6E4F4"/><path d="M343.343 286.794c.429-.369 12.13-10.887 10.752-24.086-1.378-13.199-12.543-16.465-9.373-31.842 3.171-15.377 0-25.991-9.648-26.126-9.65-.136-14.06 9.117-10.477 25.582 3.584 16.465-11.77 22.905-11.028 34.972.855 13.909 11.993 36.739 29.774 21.5Z" fill="#89EC9E"/><path opacity=".2" d="M328.388 206.796c.166.733.603 1.457 1.318 1.773.659.291 1.417.232 2.11.111 1.283-.222 2.579-.697 3.899-.526.663.086 1.295.373 1.889.663.654.32 1.274.705 1.852 1.144 1.108.841 2.068 1.89 2.73 3.109.754 1.39 1.016 2.923 1.061 4.484.051 1.804-.118 3.609.212 5.394.22 1.189.591 2.491 1.434 3.404.162.176.343.317.532.44 1.831-13.148-1.584-21.931-10.355-22.054-2.648-.037-4.893.643-6.695 1.976.005.028.007.054.013.082Z" fill="#F2F2F2"/><path opacity=".15" d="M335.48 259.828c-1.34-2.437-1.359-5.463-.621-8.081.395-1.403.999-2.744 1.694-4.026.28-.517.626-1.008.881-1.538.184-.382.148-.717-.001-1.107-.259-.675-.626-1.318-.916-1.982a27.99 27.99 0 0 1-.81-2.032c-.497-1.435-.698-2.887-.815-4.392-.114-1.486-.059-3.023.422-4.448.429-1.272 1.357-2.298 1.825-3.543a7.35 7.35 0 0 1-1.985-1.762 11.056 11.056 0 0 1-1.519-2.667c-.004 2.106-.004 4.212-.009 6.318-.022 8.393-.057 16.786-.078 25.179-.018 7.479-.017 14.958-.017 22.438.158-.538.325-1.073.516-1.601 1.706-4.74 4.55-8.95 7.308-13.146-2.473.092-4.699-1.473-5.875-3.61Z" fill="#000"/><path opacity=".15" d="M336.901 290.844c-1.353.014-2.72-.21-3.935-.82-1.281-.644-2.289-1.705-2.997-2.93a6.891 6.891 0 0 1-.845-2.357c-.16-.919-.327-1.785-.939-2.527-1.066-1.291-2.886-1.471-4.345-2.123-1.367-.611-2.416-1.772-3.228-2.994-.813-1.225-1.389-2.604-1.784-4.013-.836-2.985-.927-6.174-.54-9.236.358-2.832 1.114-5.639 2.538-8.139 1.696-2.978 3.926-5.638 5.513-8.678.779-1.491 1.358-3.08 1.612-4.743.302-1.981.113-3.978-.345-5.921-.505-2.145-1.309-4.203-2.135-6.244-.771-1.902-1.43-3.821-1.871-5.822.201 1.885.529 3.892.993 6.024 3.584 16.465-11.77 22.905-11.028 34.972.748 12.148 9.338 31.099 23.347 25.551h-.011Z" fill="#000"/><path d="M345.858 259.785a.138.138 0 0 0-.047-.031.129.129 0 0 0-.055-.011.133.133 0 0 0-.056.011.138.138 0 0 0-.047.031l-12.225 12.067v-20.519l6.812-7.103a.143.143 0 0 0-.006-.203.146.146 0 0 0-.103-.039.15.15 0 0 0-.102.044l-6.601 6.883v-18.462l4.949-4.959a.142.142 0 0 0-.002-.203.144.144 0 0 0-.103-.041.145.145 0 0 0-.102.042l-4.742 4.753v-15.879a.143.143 0 0 0-.043-.101.145.145 0 0 0-.246.101v22.143l-3.765-3.168a.147.147 0 0 0-.204.017.14.14 0 0 0 .017.201l3.953 3.326v20.852l-7.459-7.363a.146.146 0 0 0-.205 0 .142.142 0 0 0 0 .202l7.664 7.566v31.475c0 .079.065.142.145.142a.144.144 0 0 0 .144-.142v-19.164l12.429-12.27a.138.138 0 0 0 0-.198Z" fill="#89EC9E"/><path d="M310.375 286.713h-1.617l.256 10.752h1.361v-10.752Z" fill="#D6E4F4"/><path d="M295.21 281.18c-.61-.522-17.226-15.459-15.269-34.204 1.958-18.744 17.813-23.381 13.311-45.216-4.502-21.836 0-36.909 13.702-37.102 13.702-.193 19.967 12.947 14.877 36.329-5.089 23.381 16.715 32.526 15.66 49.661-1.215 19.753-17.03 52.175-42.281 30.532Z" fill="#89EC9E"/><path opacity=".2" d="M316.445 167.581c-.236 1.04-.856 2.068-1.872 2.517-.936.413-2.013.33-2.996.159-1.821-.316-3.664-.991-5.537-.748-.942.122-1.838.531-2.682.943a16.006 16.006 0 0 0-2.631 1.623c-1.573 1.194-2.937 2.684-3.877 4.416-1.071 1.973-1.441 4.149-1.505 6.368-.073 2.561.168 5.125-.302 7.661-.31 1.687-.839 3.536-2.037 4.834-.23.249-.486.449-.755.625-2.603-18.67 2.249-31.144 14.704-31.319 3.761-.054 6.95.914 9.507 2.807-.008.038-.009.074-.017.114Z" fill="#F2F2F2"/><path opacity=".15" d="M306.371 242.889c1.903-3.461 1.928-7.759.881-11.475-.561-1.992-1.419-3.896-2.406-5.717-.398-.734-.889-1.43-1.252-2.183-.261-.543-.209-1.019.003-1.572.366-.958.887-1.871 1.298-2.815.414-.949.811-1.908 1.151-2.886.706-2.037.992-4.098 1.157-6.237.162-2.11.084-4.293-.598-6.317-.609-1.805-1.927-3.264-2.592-5.03a10.453 10.453 0 0 0 2.818-2.503c.903-1.151 1.604-2.432 2.157-3.787.005 2.992.005 5.982.013 8.972.031 11.918.08 23.838.11 35.756.026 10.621.024 21.242.024 31.863a40.344 40.344 0 0 0-.732-2.273c-2.422-6.732-6.463-12.709-10.376-18.669 3.514.131 6.675-2.091 8.344-5.127Z" fill="#000"/><path opacity=".15" d="M304.354 286.935c1.923.021 3.864-.298 5.589-1.164 1.821-.915 3.25-2.422 4.257-4.161.622-1.071.99-2.134 1.199-3.348.227-1.305.463-2.536 1.332-3.588 1.514-1.834 4.099-2.088 6.17-3.014 1.942-.868 3.432-2.517 4.584-4.252 1.157-1.742 1.973-3.697 2.534-5.699 1.188-4.239 1.315-8.769.767-13.116-.509-4.022-1.582-8.008-3.604-11.558-2.409-4.23-5.576-8.005-7.83-12.324-1.106-2.117-1.929-4.373-2.288-6.736-.427-2.814-.161-5.65.489-8.41.718-3.045 1.858-5.968 3.032-8.865 1.094-2.7 2.03-5.427 2.656-8.268a80.957 80.957 0 0 1-1.411 8.553c-5.089 23.381 16.714 32.526 15.66 49.661-1.062 17.251-13.26 44.164-33.154 36.285a.035.035 0 0 0 .018.004Z" fill="#000"/><path d="M291.635 242.829a.208.208 0 0 1 .291 0l17.36 17.136v-29.138l-9.673-10.087a.2.2 0 0 1 .007-.287.21.21 0 0 1 .292.008l9.374 9.773v-26.217l-7.028-7.043a.2.2 0 0 1 .003-.287.208.208 0 0 1 .291.002l6.735 6.749V180.89a.202.202 0 0 1 .206-.202.202.202 0 0 1 .205.202v31.445l5.346-4.497a.206.206 0 0 1 .289.023.2.2 0 0 1-.023.286l-5.613 4.721v29.613l10.592-10.456a.206.206 0 0 1 .291 0 .2.2 0 0 1 0 .287l-10.883 10.744v44.699a.204.204 0 0 1-.206.202.204.204 0 0 1-.205-.202V260.54l-17.65-17.423a.2.2 0 0 1-.001-.288Z" fill="#89EC9E"/><path d="M73.887 279.252h1.682l-.265 11.185h-1.417v-11.185Z" fill="#D6E4F4"/><path d="M89.662 273.498c.634-.543 17.921-16.083 15.884-35.583-2.036-19.5-18.532-24.324-13.848-47.042 4.684-22.716 0-38.397-14.255-38.597-14.254-.202-20.771 13.468-15.476 37.794 5.295 24.324-17.389 33.839-16.292 51.666 1.265 20.547 17.717 54.277 43.987 31.762Z" fill="#89EC9E"/><path opacity=".2" d="M67.57 155.313c.247 1.082.892 2.152 1.948 2.618.973.43 2.093.343 3.117.166 1.895-.329 3.812-1.031 5.76-.778.98.127 1.913.552 2.791.982a16.51 16.51 0 0 1 2.737 1.69c1.637 1.242 3.055 2.793 4.033 4.594 1.114 2.052 1.5 4.316 1.566 6.624.077 2.663-.174 5.331.313 7.969.324 1.756.874 3.679 2.12 5.03.239.259.506.467.785.65 2.706-19.423-2.34-32.4-15.299-32.582-3.912-.056-7.23.951-9.89 2.919.009.04.01.077.02.118Z" fill="#F2F2F2"/><path opacity=".15" d="M78.047 233.661c-1.98-3.6-2.005-8.071-.917-11.939.583-2.072 1.477-4.054 2.502-5.947.414-.765.926-1.488 1.303-2.271.272-.565.218-1.06-.003-1.635-.382-.997-.924-1.947-1.352-2.927a42.701 42.701 0 0 1-1.197-3.003c-.735-2.119-1.031-4.264-1.203-6.489-.169-2.196-.088-4.467.622-6.572.633-1.879 2.004-3.396 2.696-5.233a10.852 10.852 0 0 1-2.931-2.604c-.94-1.198-1.67-2.531-2.246-3.941-.005 3.11-.005 6.222-.014 9.333-.032 12.4-.083 24.799-.114 37.199-.028 11.049-.025 22.098-.025 33.147.233-.794.481-1.585.762-2.364 2.52-7.004 6.722-13.222 10.795-19.42-3.653.137-6.94-2.176-8.677-5.334Z" fill="#000"/><path opacity=".15" d="M80.149 279.484c-2 .021-4.02-.31-5.814-1.212-1.894-.951-3.381-2.52-4.429-4.329-.646-1.115-1.028-2.22-1.248-3.483-.235-1.357-.482-2.637-1.386-3.732-1.574-1.908-4.264-2.172-6.418-3.136-2.02-.903-3.57-2.618-4.768-4.424-1.203-1.81-2.053-3.847-2.637-5.929-1.236-4.409-1.369-9.122-.798-13.644.53-4.185 1.646-8.33 3.748-12.024 2.505-4.4 5.8-8.328 8.146-12.82 1.15-2.202 2.007-4.551 2.38-7.007.446-2.927.168-5.878-.508-8.749-.746-3.168-1.933-6.21-3.155-9.224-1.138-2.809-2.113-5.646-2.763-8.601a84.197 84.197 0 0 0 1.468 8.899c5.295 24.324-17.389 33.838-16.292 51.665 1.105 17.946 13.795 45.945 34.492 37.748-.007.002-.012.002-.018.002Z" fill="#000"/><path d="M93.379 233.597a.215.215 0 0 0-.303 0l-18.06 17.828v-30.313l10.063-10.493a.215.215 0 0 0 .065-.153.209.209 0 0 0-.067-.152.224.224 0 0 0-.157-.057.214.214 0 0 0-.151.072l-9.753 10.168v-27.276l7.311-7.327a.21.21 0 0 0-.002-.299.214.214 0 0 0-.303.003l-7.007 7.021v-23.458a.213.213 0 0 0-.215-.212.213.213 0 0 0-.214.212v32.712l-5.561-4.678a.215.215 0 0 0-.302.025.208.208 0 0 0 .025.297l5.84 4.913v30.807l-11.02-10.878a.217.217 0 0 0-.302 0 .21.21 0 0 0 0 .299l11.322 11.177v46.5c0 .117.097.212.215.212a.213.213 0 0 0 .215-.212v-28.312l18.362-18.127a.211.211 0 0 0-.001-.299Z" fill="#89EC9E"/><path d="M41.065 296.53s3.417-24.482-3.386-22.065c-6.802 2.416-3.68 12.227 3.386 22.065Z" fill="#731054"/><path d="M41.514 296.294s-13.91-24.148-23.507-15.845c-9.596 8.304 23.507 15.845 23.507 15.845Z" fill="#620B50"/><path opacity=".5" d="M18.539 280.718c.278.755.734 1.394 1.558 1.591 1.03.247 2.152-.052 3.187-.11 1.18-.065 2.313.108 3.382.615 1.034.49 1.92 1.232 2.794 1.953.876.723 1.77 1.509 2.794 2.021.972.485 2.125.693 3.194.858h.002c-4.802-5.826-11.593-11.73-17.079-7.494.044.191.099.38.168.566Z" fill="#F2F2F2"/><path d="M21.939 309.597h120.088l-1.722-5.927-4.051-14.037c-2.87-9.908-12.841-16.109-23.141-14.377l-5.199.891a6.962 6.962 0 0 1-6.921-2.963c-8.922-13.211-29.094-11.576-35.72 2.899l-.885 1.943c-1.563 3.427-5.641 4.96-9.116 3.424l-5.184-2.291a6.972 6.972 0 0 0-8.283 2.024 6.623 6.623 0 0 0-1.378 3.059l-.77 4.437a6.771 6.771 0 0 1-1.23 2.882c-.115.146-.23.291-.345.421a6.963 6.963 0 0 1-4.034 2.266 6.2 6.2 0 0 1-1.23.113 6.868 6.868 0 0 1-3.816-1.141c-2.7-1.778-6.32-1.336-8.616.931l-3.484 3.439c-4.489 4.43-1.31 12.007 5.037 12.007Z" fill="#9CB2D1"/><path opacity=".2" d="M17.24 300.136c.704-1.033 1.128-2.236 1.885-3.233 1.562-2.061 4.426-2.475 6.862-2.072 1.638.272 3.184.851 4.87.702a24.057 24.057 0 0 0 3.903-.652c2.509-.652 5.052-1.865 6.46-4.115 1.4-2.236.733-5.2 2.389-7.322 1.78-2.283 4.849-2.069 7.32-1.176 1.386.501 2.614 1.34 4.004 1.811a9.355 9.355 0 0 0 5.061.244c.868-.197 1.71-.501 2.508-.888.495-.242.946-.502 1.296-.932.574-.707.79-1.643.756-2.535a4.535 4.535 0 0 0-.35-1.583c-1.678 3.171-5.581 4.545-8.93 3.066l-5.185-2.291a6.972 6.972 0 0 0-8.282 2.024 6.623 6.623 0 0 0-1.378 3.059l-.77 4.437a6.771 6.771 0 0 1-1.23 2.882c-.115.146-.23.291-.345.421a6.97 6.97 0 0 1-4.034 2.266 6.2 6.2 0 0 1-1.23.113 6.868 6.868 0 0 1-3.817-1.141c-2.7-1.778-6.319-1.336-8.615.931l-3.484 3.439c-1.266 1.25-1.921 2.75-2.068 4.261 1-.218 1.813-.845 2.405-1.716Z" fill="#F2F2F2"/><path opacity=".25" d="M32.54 309.599h109.489l-1.723-5.927a24.666 24.666 0 0 0-20.501-5.844l-4.05.68-2.182.357c-.476.081-.95.113-1.41.113a8.316 8.316 0 0 1-2.953-.534 8.27 8.27 0 0 1-3.936-3.108 23.97 23.97 0 0 0-4.772-5.247 19.47 19.47 0 0 0-2.132-1.57c-3.986-2.607-8.56-3.902-13.154-3.95a24.34 24.34 0 0 0-7.92 1.165c-6.216 1.943-11.727 6.363-14.793 13.081l-1.066 2.3c-1.886 4.128-6.79 5.958-10.955 4.111l-3.149-1.392-3.034-1.344a8.368 8.368 0 0 0-4.2-.68c-3.575.34-6.724 2.963-7.38 6.767l-.18 1.022Z" fill="#F2F2F2"/><path d="M47.387 287.746c0 1.164.955 2.107 2.134 2.107 1.18 0 2.135-.943 2.135-2.107 0-1.164-.956-2.107-2.135-2.107-1.179 0-2.134.944-2.134 2.107Z" fill="#620B50"/><path opacity=".15" d="M47.879 288.246c0 1.164.955 2.107 2.135 2.107 1.179 0 2.134-.943 2.134-2.107 0-1.164-.955-2.107-2.135-2.107-1.179 0-2.134.943-2.134 2.107Z" fill="#000"/><path d="M78.344 303.842c0 1.164.955 2.107 2.134 2.107 1.18 0 2.135-.943 2.135-2.107 0-1.164-.956-2.108-2.135-2.108-1.179 0-2.134.944-2.134 2.108Z" fill="#731054"/><path opacity=".15" d="M70.152 277.056c0 2.243 1.842 4.06 4.114 4.06s4.114-1.818 4.114-4.06c0-2.242-1.842-4.062-4.114-4.062s-4.114 1.819-4.114 4.062Z" fill="#000"/><path d="M70.668 275.613c0 2.243 1.842 4.06 4.113 4.06 2.273 0 4.115-1.818 4.115-4.06 0-2.244-1.842-4.062-4.115-4.062-2.27.001-4.113 1.818-4.113 4.062Z" fill="#731054"/><path d="M47.463 308.489s9.626-11.983 5.232-12.809c-4.395-.827-5.86 5.37-5.232 12.809Z" fill="#620B50"/><path opacity=".5" d="M47.773 301.123c.449-.105.73-.414.922-.815.386-.803.359-1.745.802-2.525a2.14 2.14 0 0 1 .984-.881c.407-.184.862-.277 1.25-.504.374-.219.443-.485.153-.791-2.3.031-3.657 2.239-4.232 5.537.04-.008.08-.012.121-.021Z" fill="#F2F2F2"/><path d="M47.465 308.488s-6.068-16.114-12.766-11.982c-6.696 4.131 12.766 11.982 12.766 11.982Z" fill="#731054"/><path opacity=".2" d="M34.973 296.363c.07.154.226.297.347.344.268.108.612.066.894.06.622-.011 1.263-.055 1.876.067.66.131 1.292.508 1.836.888 1 .697 1.644 1.783 2.671 2.432.167.105.402.221.668.321-2.251-3.204-5.196-5.775-8.292-4.112Z" fill="#F2F2F2"/><path d="M47.465 308.488s22.392-2.686 16.741-6.197c-5.65-3.512-16.741 6.197-16.741 6.197Z" fill="#731054"/><path opacity=".2" d="M54.94 303.583c.66-.119 1.145-.503 1.706-.833.53-.311 1.107-.564 1.714-.69.86-.178 1.722.039 2.586-.078.301-.041.655-.143.768-.438-2.237-.136-4.823.825-7.175 2.077.134-.006.268-.013.402-.038Z" fill="#F2F2F2"/><path d="M236.198 296.53s3.417-24.482-3.386-22.065c-6.802 2.416-3.679 12.227 3.386 22.065Z" fill="#731054"/><path d="M236.651 296.294s-13.91-24.148-23.507-15.845c-9.597 8.304 23.507 15.845 23.507 15.845Z" fill="#620B50"/><path opacity=".5" d="M213.677 280.718c.278.755.734 1.394 1.559 1.591 1.029.247 2.151-.052 3.186-.11 1.18-.065 2.313.108 3.382.615 1.034.49 1.919 1.232 2.793 1.953.876.723 1.769 1.509 2.794 2.021.972.485 2.125.693 3.194.858h.002c-4.803-5.826-11.593-11.73-17.079-7.494.045.191.101.38.169.566Z" fill="#F2F2F2"/><path d="M217.076 309.597h120.088l-1.722-5.927-4.051-14.037c-2.87-9.908-12.841-16.109-23.14-14.377l-5.199.891a6.964 6.964 0 0 1-6.921-2.963c-8.922-13.211-29.094-11.576-35.72 2.899l-.885 1.943c-1.563 3.427-5.641 4.96-9.117 3.424l-5.184-2.291a6.973 6.973 0 0 0-8.283 2.024 6.63 6.63 0 0 0-1.378 3.059l-.771 4.437a6.748 6.748 0 0 1-1.229 2.882 10.54 10.54 0 0 1-.345.421 6.964 6.964 0 0 1-4.035 2.266 6.2 6.2 0 0 1-1.23.113 6.871 6.871 0 0 1-3.817-1.141c-2.7-1.778-6.319-1.336-8.615.931l-3.484 3.439c-4.487 4.43-1.309 12.007 5.038 12.007Z" fill="#9CB2D1"/><path opacity=".2" d="M212.376 300.136c.704-1.033 1.127-2.236 1.884-3.233 1.563-2.061 4.427-2.475 6.861-2.072 1.638.272 3.184.851 4.87.702a24.057 24.057 0 0 0 3.903-.652c2.509-.652 5.052-1.865 6.46-4.115 1.401-2.236.733-5.2 2.389-7.322 1.781-2.283 4.849-2.069 7.32-1.176 1.386.501 2.615 1.34 4.004 1.811a9.356 9.356 0 0 0 5.061.244c.869-.197 1.71-.501 2.508-.888.495-.242.946-.502 1.296-.932.575-.707.79-1.643.757-2.535a4.553 4.553 0 0 0-.351-1.583c-1.677 3.171-5.581 4.545-8.93 3.066l-5.185-2.291a6.972 6.972 0 0 0-8.282 2.024 6.62 6.62 0 0 0-1.378 3.059l-.771 4.437a6.737 6.737 0 0 1-1.23 2.882 6.967 6.967 0 0 1-4.379 2.687 6.208 6.208 0 0 1-1.23.113 6.869 6.869 0 0 1-3.817-1.141c-2.7-1.778-6.319-1.336-8.615.931l-3.484 3.439c-1.266 1.25-1.921 2.75-2.068 4.261 1.002-.218 1.815-.845 2.407-1.716Z" fill="#F2F2F2"/><path opacity=".25" d="M227.676 309.599h109.49l-1.723-5.927a24.668 24.668 0 0 0-20.501-5.844l-4.051.68-2.181.357a8.427 8.427 0 0 1-1.411.113 8.315 8.315 0 0 1-2.952-.534 8.27 8.27 0 0 1-3.936-3.108 23.949 23.949 0 0 0-4.773-5.247 19.391 19.391 0 0 0-2.132-1.57c-3.985-2.607-8.56-3.902-13.153-3.95-2.69-.049-5.362.34-7.921 1.165-6.215 1.943-11.726 6.363-14.793 13.081l-1.066 2.3c-1.886 4.128-6.789 5.958-10.955 4.111l-3.148-1.392-3.034-1.344a8.368 8.368 0 0 0-4.199-.68c-3.577.34-6.724 2.963-7.381 6.767l-.18 1.022Z" fill="#F2F2F2"/><path d="M242.523 287.746c0 1.164.956 2.107 2.135 2.107 1.179 0 2.135-.943 2.135-2.107 0-1.164-.956-2.107-2.135-2.107-1.179 0-2.135.944-2.135 2.107Z" fill="#620B50"/><path opacity=".15" d="M243.016 288.246c0 1.164.955 2.107 2.134 2.107 1.179 0 2.135-.943 2.135-2.107 0-1.164-.956-2.107-2.135-2.107-1.179 0-2.134.943-2.134 2.107Z" fill="#000"/><path d="M273.477 303.842c0 1.164.955 2.107 2.134 2.107 1.179 0 2.135-.943 2.135-2.107 0-1.164-.956-2.108-2.135-2.108-1.179 0-2.134.944-2.134 2.108Z" fill="#731054"/><path opacity=".15" d="M265.285 277.056c0 2.243 1.842 4.06 4.113 4.06 2.273 0 4.115-1.818 4.115-4.06 0-2.242-1.842-4.062-4.115-4.062-2.271 0-4.113 1.819-4.113 4.062Z" fill="#000"/><path d="M265.801 275.613c0 2.243 1.842 4.06 4.114 4.06 2.273 0 4.115-1.818 4.115-4.06 0-2.244-1.842-4.062-4.115-4.062-2.272.001-4.114 1.818-4.114 4.062Z" fill="#731054"/><path d="M242.6 308.489s9.626-11.983 5.232-12.809c-4.395-.827-5.86 5.37-5.232 12.809Z" fill="#620B50"/><path opacity=".5" d="M242.91 301.123c.448-.105.729-.414.922-.815.386-.803.357-1.745.802-2.525.223-.393.572-.693.984-.881.407-.184.862-.277 1.249-.504.375-.219.443-.485.154-.791-2.3.031-3.657 2.239-4.232 5.537.04-.008.082-.012.121-.021Z" fill="#F2F2F2"/><path d="M242.598 308.488s-6.069-16.114-12.766-11.982c-6.696 4.131 12.766 11.982 12.766 11.982Z" fill="#731054"/><path opacity=".2" d="M230.109 296.363a.738.738 0 0 0 .347.344c.268.108.613.066.895.06.623-.011 1.262-.055 1.876.067.66.131 1.292.508 1.835.888 1 .697 1.645 1.783 2.671 2.432.166.105.401.221.668.321-2.251-3.204-5.195-5.775-8.292-4.112Z" fill="#F2F2F2"/><path d="M242.598 308.488s22.392-2.686 16.741-6.197c-5.65-3.512-16.741 6.197-16.741 6.197Z" fill="#731054"/><path opacity=".2" d="M250.077 303.583c.66-.119 1.144-.503 1.706-.833.53-.311 1.106-.564 1.713-.69.86-.178 1.723.039 2.586-.078.302-.041.655-.143.768-.438-2.236-.136-4.823.825-7.174 2.077.134-.006.268-.013.401-.038Z" fill="#F2F2F2"/><path d="M439.091 289.643s-5.217-37.385 5.17-33.695c10.387 3.69 5.62 18.672-5.17 33.695Z" fill="#731054"/><path d="M438.406 289.282s21.242-36.876 35.897-24.197c14.654 12.681-35.897 24.197-35.897 24.197Z" fill="#620B50"/><path opacity=".5" d="M473.49 265.498c-.425 1.152-1.121 2.128-2.379 2.43-1.573.376-3.285-.081-4.866-.168-1.803-.101-3.531.164-5.166.939-1.58.749-2.93 1.881-4.266 2.982-1.337 1.105-2.701 2.305-4.266 3.087-1.485.74-3.246 1.057-4.878 1.31h-.005c7.335-8.895 17.705-17.913 26.082-11.442a7.567 7.567 0 0 1-.256.862Z" fill="#F2F2F2"/><path d="M468.299 309.598H284.914l2.63-9.048 6.187-21.436c4.382-15.13 19.609-24.6 35.338-21.955l7.939 1.359c.6.099 1.177.149 1.753.149 3.506 0 6.837-1.731 8.817-4.674 13.624-20.174 44.429-17.677 54.547 4.426l1.353 2.967c2.385 5.235 8.614 7.574 13.922 5.23l7.917-3.499c4.633-2.052 9.793-.518 12.647 3.091a10.112 10.112 0 0 1 2.104 4.672l1.176 6.775c.302 1.681.952 3.165 1.879 4.401.175.223.351.445.526.643a10.651 10.651 0 0 0 6.161 3.461 9.525 9.525 0 0 0 1.878.173c1.987 0 4.001-.538 5.828-1.743 4.124-2.717 9.652-2.039 13.156 1.421l5.32 5.251c6.852 6.767 1.998 18.336-7.693 18.336Z" fill="#9CB2D1"/><path opacity=".2" d="M475.475 295.151c-1.074-1.577-1.721-3.414-2.875-4.936-2.387-3.147-6.759-3.781-10.478-3.165-2.503.415-4.862 1.3-7.438 1.072-2.008-.177-4.008-.49-5.959-.996-3.832-.994-7.714-2.848-9.864-6.283-2.14-3.416-1.121-7.94-3.649-11.182-2.72-3.487-7.404-3.158-11.179-1.795-2.115.763-3.992 2.045-6.115 2.765-2.491.845-5.165.951-7.729.373a17.668 17.668 0 0 1-3.83-1.357c-.755-.367-1.445-.767-1.98-1.423-.877-1.081-1.206-2.509-1.155-3.871a6.939 6.939 0 0 1 .537-2.417c2.561 4.842 8.521 6.941 13.637 4.681l7.917-3.498c4.633-2.052 9.793-.519 12.647 3.09a10.115 10.115 0 0 1 2.104 4.673l1.176 6.774c.302 1.682.952 3.165 1.879 4.401.175.223.351.445.526.643a10.64 10.64 0 0 0 6.161 3.461 9.525 9.525 0 0 0 1.878.173c1.987 0 4.001-.537 5.828-1.742 4.124-2.717 9.652-2.04 13.156 1.42l5.32 5.252c1.933 1.909 2.934 4.2 3.158 6.506-1.528-.334-2.768-1.29-3.673-2.619Z" fill="#F2F2F2"/><path opacity=".25" d="M452.114 309.597h-167.2l2.63-9.049a37.658 37.658 0 0 1 31.305-8.924l6.187 1.038 3.331.544a12.91 12.91 0 0 0 2.154.173c1.552 0 3.081-.272 4.508-.816a12.615 12.615 0 0 0 6.01-4.747 36.502 36.502 0 0 1 7.288-8.01 29.596 29.596 0 0 1 3.255-2.399c6.087-3.98 13.073-5.957 20.086-6.032 4.107-.074 8.19.52 12.097 1.78 9.491 2.967 17.906 9.716 22.59 19.977l1.629 3.511c2.879 6.305 10.367 9.099 16.729 6.279l4.809-2.126 4.633-2.052a12.738 12.738 0 0 1 6.412-1.039c5.46.519 10.269 4.524 11.271 10.334l.276 1.558Z" fill="#F2F2F2"/><path d="M429.44 276.23c0 1.778-1.459 3.218-3.259 3.218-1.801 0-3.259-1.442-3.259-3.218 0-1.777 1.46-3.218 3.259-3.218 1.799.001 3.259 1.441 3.259 3.218Z" fill="#620B50"/><path opacity=".15" d="M428.682 276.992c0 1.777-1.46 3.217-3.259 3.217-1.8 0-3.259-1.441-3.259-3.217 0-1.777 1.46-3.219 3.259-3.219s3.259 1.442 3.259 3.219Z" fill="#000"/><path d="M382.168 300.81c0 1.778-1.459 3.218-3.259 3.218-1.801 0-3.261-1.441-3.261-3.218s1.46-3.218 3.261-3.218c1.8 0 3.259 1.441 3.259 3.218Z" fill="#731054"/><path opacity=".15" d="M394.678 259.905c0 3.426-2.813 6.202-6.282 6.202-3.47 0-6.283-2.778-6.283-6.202 0-3.423 2.813-6.202 6.283-6.202 3.469 0 6.282 2.777 6.282 6.202Z" fill="#000"/><path d="M393.889 257.7c0 3.426-2.812 6.201-6.282 6.201s-6.283-2.775-6.283-6.201c0-3.425 2.813-6.202 6.283-6.202 3.469.001 6.282 2.777 6.282 6.202Z" fill="#731054"/><path d="M429.319 307.903s-14.701-18.298-7.99-19.559c6.712-1.262 8.948 8.203 7.99 19.559Z" fill="#620B50"/><path opacity=".5" d="M428.848 296.655c-.686-.16-1.113-.634-1.408-1.245-.591-1.227-.548-2.665-1.225-3.856a3.258 3.258 0 0 0-1.503-1.345c-.622-.283-1.315-.425-1.907-.77-.572-.334-.677-.741-.234-1.207 3.511.048 5.585 3.418 6.462 8.455-.062-.012-.124-.018-.185-.032Z" fill="#F2F2F2"/><path d="M429.32 307.903s9.268-24.608 19.494-18.298c10.227 6.31-19.494 18.298-19.494 18.298Z" fill="#731054"/><path opacity=".2" d="M448.399 289.386a1.129 1.129 0 0 1-.529.526c-.408.164-.935.1-1.366.093-.951-.018-1.928-.084-2.866.101-1.008.2-1.972.776-2.804 1.355-1.526 1.064-2.511 2.721-4.079 3.714a5.722 5.722 0 0 1-1.021.49c3.44-4.893 7.936-8.819 12.665-6.279Z" fill="#F2F2F2"/><path d="M429.321 307.903s-34.195-4.101-25.566-9.464c8.629-5.363 25.566 9.464 25.566 9.464Z" fill="#731054"/><path opacity=".2" d="M417.901 300.414c-1.007-.183-1.747-.768-2.605-1.272-.811-.476-1.69-.863-2.615-1.055-1.312-.272-2.632.058-3.949-.119-.46-.062-.999-.219-1.173-.669 3.415-.208 7.364 1.26 10.956 3.171a4.42 4.42 0 0 1-.614-.056Z" fill="#F2F2F2"/><path d="M149.605 106.041s14.158 11.458 19.969 11.846c6.296.423 23.196-9.827 23.196-9.827l3.579 5.193s-20.398 17.588-29.253 17.617c-7.823.024-26.729-16.065-26.729-16.065l9.238-8.764Z" fill="#FB8A77"/><path d="m192.77 108.061 2.606-2.124s.121-10.309 1.565-9.002c1.446 1.308 2.256 3.211 2.256 3.211s2.08-4.284 4.127-2.903c2.048 1.382 6.394 6.484 4.277 8.103-2.116 1.619-1.857 4.629-4.876 4.201-2.373-.337-6.377 3.707-6.377 3.707l-3.578-5.193Z" fill="#FB8A77"/><path d="M128.275 309.544c1.963-.869 4.19-.805 5.832-.56 1.179.176 2.221.793 3.146 1.589 2.476 2.133 9.621 2.532 11.221 4.231 1.829 1.943-1.525 3.238-1.525 3.238h-18.135c-2.89.485-2.598-1.133-2.598-1.133s-1.601-5.746 2.059-7.365Z" fill="#000"/><path d="M135.101 300.783v11.161s-3.465 2.521-6.929 0v-11.161h6.929Z" fill="#FF8D7D"/><path d="m116.621 155.691 5.836 78.64 4.82 74.493 8.791-1.281 8.272-78.208-9.241-73.644h-18.478ZM93.219 310.159c2.083-.51 4.294-.116 5.896.359 1.15.341 2.102 1.069 2.909 1.947 2.163 2.351 9.231 3.796 10.585 5.613 1.545 2.077-1.986 2.772-1.986 2.772l-18.085-2.729c-2.951.015-2.429-1.442-2.429-1.442s-.772-5.571 3.11-6.52Z" fill="#000"/><path d="m101.908 300.783-2.353 11.161s-3.464 2.521-6.93 0l2.353-11.161h6.93Z" fill="#FF8D7D"/><path d="M103.004 159.922s-5.836 6.721-5.35 23.042c.487 16.323-.028 41.765-.028 41.765l-4.185 80.276s6.431 3.573 8.467 2.238c20.483-13.418 20.548-95.476 20.548-95.476s8.267-53.765 2.917-55.686c-5.348-1.919-22.369 3.841-22.369 3.841Z" fill="#000"/><path d="M138.742 122.065s9.487 2.815 11.128 1.554c1.642-1.26 7.318-13.922 5.654-15.061-1.664-1.14-18.688-11.47-28.348-11.738-.002 0 14.301 18.165 11.566 25.245Z" fill="#731054"/><path opacity=".25" d="M155.526 108.557c-.65-.446-3.649-2.296-7.637-4.401-.427.535-.802 1.113-1.176 1.683-.555.845-1.102 1.699-1.734 2.492-.584.733-1.255 1.433-2.083 1.898a3.98 3.98 0 0 1-2.634.461c-.248-.043-.514-.091-.741-.206a3.292 3.292 0 0 1-.663-.473c-.504-.439-.949-.94-1.452-1.378-.542-.475-1.181-.8-1.843-1.086a13.029 13.029 0 0 0-1.43-.514c3.173 5.37 5.959 11.544 4.612 15.031 0 0 9.488 2.816 11.128 1.554 1.641-1.259 7.315-13.92 5.653-15.061Z" fill="#52084A"/><path d="M119.052 94.638c21.883-.584 21.883 27.843 21.883 27.843s4.475 33.843-3.648 40.325c-7.138 5.697-30.879 6.994-36.714 0-6.184-7.41 0-38.404 0-38.404s-7.115-29.083 18.479-29.764Z" fill="#731054"/><path opacity=".25" d="M127.116 162.419c-1.089-.742-2.37-.91-3.665-.887-1.385.026-2.763.181-4.149.059a10.293 10.293 0 0 1-3.558-.966c-1.088-.521-2.132-1.135-3.151-1.776-2.334-1.468-4.632-3.112-6.575-5.068-.85-.856-1.571-1.765-2.05-2.875-.69-1.601-.932-3.347-.938-5.077-.015-3.789.958-7.505.999-11.293.063-5.647-.865-11.202-1.882-16.741-.299.194-.585.407-.862.63-.498.403-.968.839-1.438 1.276.266 2.817.726 4.698.726 4.698s-6.184 30.994 0 38.404c4.439 5.32 19.242 5.841 29.213 3.279-.552-1.443-1.37-2.778-2.67-3.663Z" fill="#000"/><path d="m99.667 122.423-9.79 20.219 14.832 20.162-3.365 5.033s-22.857-16.195-24.84-24.715c-1.75-7.528 12.503-27.636 12.503-27.636l10.66 6.937Z" fill="#FB8A77"/><path d="m104.707 162.803 6.359 2.675s6.528-1.205 5.555.477c-.972 1.679-2.675 1.288-2.675 1.288s4.692 1.058 3.779 3.333c-.913 2.275-4.995 7.588-7.062 5.907-2.067-1.68-4.863-1.11-5.106-4.11-.191-2.359-4.217-4.538-4.217-4.538l3.367-5.032Z" fill="#FB8A77"/><path d="m100.576 124.401-4.377 4.32s-13.98-6.181-13.98-8.881 13.255-20.255 25.148-21.887c5.456-.749-6.791 26.448-6.791 26.448Z" fill="#731054"/><path d="m99.765 297.733 11.231-68.363.004-50.57c6.251-2.032 9.076-11.222 9.194-11.614l-.408-.12c-.028.095-2.923 9.515-9.062 11.38l-.15.046v50.844l-11.226 68.33.417.067Z" fill="#726658"/><path opacity=".5" d="M131.848 299.511c.429-6.738 4.176-65.867 3.437-67.201-.565-1.024-6.779-26.751-9.986-40.212l-.416.096c.381 1.591 9.295 38.986 10.029 40.316.548 1.445-2.333 48.836-3.49 66.974l.426.027Z" fill="#726658"/><path d="M135.921 109.508c-3.763 1.968-8.139 3.415-12.25 3.036-2.054-.189-3.788-1.246-5.661-2.209-1.838-.943-4.027-1.582-5.755.03-.343.321-.675-.403-.336-.72 3.393-3.165 7.252 1.131 10.64 1.89 2.238.502 4.604.121 6.817-.41 2.186-.524 4.315-1.348 6.369-2.422.393-.205.566.601.176.805Zm.867 7.684-6.604 1.257c-2.051.39-4.178 1.043-6.255 1.109-1.914.061-3.271-1.62-5.043-2.216-2.007-.673-4.129-.405-6.167-.15-.425.053-.423-.78 0-.834 1.833-.23 3.692-.44 5.52-.046a7.53 7.53 0 0 1 2.471 1.028c.957.611 1.808 1.332 2.921 1.383 1.101.052 2.232-.292 3.318-.498l3.06-.582 6.603-1.257c.418-.077.598.727.176.806Zm-1.393 6.562c-3.627 1.308-7.415 2.278-11.192 1.528-1.859-.368-3.648-1.128-5.395-1.981-1.885-.919-3.78-1.938-5.847-1.631-.424.063-.42-.771 0-.833 1.8-.268 3.499.429 5.159 1.235 1.758.854 3.513 1.708 5.364 2.198 3.944 1.045 7.928.053 11.735-1.321.411-.147.587.656.176.805Z" fill="#fff"/><path d="m115.836 83.064-1.082 12.808s4.13 5.841 8.081 1.367l-.26-8.593-6.739-5.582Z" fill="#FB8A77"/><path opacity=".15" d="M119.386 97.461c.84-1.468 1.133-3.686-.23-4.956-.553-.515-1.264-.83-1.797-1.366-.662-.667-.797-1.692-.718-2.586.129-1.456.731-2.885.602-4.325l5.33 4.415.26 8.593c-1.543 1.747-3.112 1.919-4.452 1.481.387-.36.73-.776 1.005-1.256Z" fill="#000"/><path d="M132.761 69.625s1.087 20.545-7.173 21.33c-8.26.787-12.039-7.746-12.039-7.746s-1.508.957-1.897-.54c-.389-1.498-2.249-4.117-.454-5.151 1.797-1.035 2.405.603 2.405.603l-1.097-4.638c.001 0 19.92-10.587 20.255-3.858Z" fill="#FB8A77"/><path opacity=".05" d="M112.886 78.554s-1.1-.562-1.52.285c-.421.846.594 4.032 1.872 3.624 0 0-1.668-.681-1.505-2.641.16-1.961.88-.64 1.153-1.268Z" fill="#000"/><path d="M113.08 77.654c.595.843 5.5-7.706 8.969-5.92 3.469 1.785 7.642 1.123 8.882-.595 1.241-1.718 4.879-1.514 1.904-6.524-5.425-9.135-32.019-4.345-19.755 13.039Z" fill="#000"/><path opacity=".05" d="M118.076 81.42c-.097.571.533 1.151 1.407 1.296.875.147 1.661-.198 1.759-.77.097-.57-.532-1.15-1.407-1.296-.873-.145-1.661.2-1.759.77Zm9.905.054c-.097.571.532 1.151 1.407 1.296.875.145 1.662-.199 1.76-.77.097-.57-.533-1.15-1.407-1.296-.875-.145-1.662.2-1.76.77Z" fill="#000"/><path d="M127.563 76.11a.247.247 0 0 0 .212-.12c.039-.068.984-1.609 3.303-.595a.245.245 0 0 0 .343-.215.244.244 0 0 0-.067-.173.251.251 0 0 0-.079-.054c-2.733-1.196-3.914.777-3.926.796a.243.243 0 0 0 .214.362Zm-4.743.043a.25.25 0 0 0 .091-.018.24.24 0 0 0 .137-.312c-.009-.021-.897-2.129-4.112-1.447a.242.242 0 0 0-.189.286.249.249 0 0 0 .106.152.243.243 0 0 0 .184.033c2.795-.592 3.526 1.083 3.556 1.155.04.095.131.151.227.151Zm2.785 6.096a.909.909 0 0 0 .249-.034c.519-.15.739-.726.748-.75a.242.242 0 0 0-.025-.216c-.873-1.324-.643-3.123-.642-3.141a.24.24 0 0 0-.209-.271.244.244 0 0 0-.275.207c-.011.078-.247 1.895.644 3.354-.07.127-.202.303-.378.352-.167.046-.367-.018-.597-.193a.246.246 0 0 0-.342.045.239.239 0 0 0 .046.338c.267.206.53.31.781.31Z" fill="#000"/><path d="M113.214 72.719s-.277 8.246 5.031 12.94c0 0 .554-3.007 6.693-2.142 6.138.865 5.214 2.733 5.214 2.733s1.491-.237 2.359-8.671c-.133 5.322-.343 6.816-.343 6.816s-.954 5.91-6.03 6.958c-5.077 1.048-12.53-1.844-12.543-8.28 0 0 .358-4.25-.795-6.71-1.155-2.46-1.709-3.46.414-3.644Z" fill="#000"/><path d="M127.176 84.676s-2.788 1.247-5.912-.188c-.708 1.281 2.994 4.616 5.912.188Z" fill="#F2F2F2"/><path d="M128.303 78.112c0 .752.422 1.362.944 1.362.521 0 .942-.61.942-1.362 0-.752-.422-1.36-.942-1.36-.522 0-.944.61-.944 1.36Zm-8.491 0c0 .752.423 1.362.944 1.362.522 0 .944-.61.944-1.362 0-.752-.422-1.36-.944-1.36-.521 0-.944.61-.944 1.36Z" fill="#000"/><path d="M343.133 104.156H155.668c-6.254 0-11.324 5.005-11.324 11.179v70.595c0 6.174 5.07 11.179 11.324 11.179H343.15c6.245 0 11.308-4.997 11.308-11.162v-70.612c-.002-6.174-5.072-11.179-11.325-11.179Z" fill="url(#a)"/><path d="M318.765 150.82s-.493 9.071 6.733 8.351c7.225-.72 28.967 12.941 28.967 12.941V149.57l-35.7 1.25Z" fill="#DE0D6F"/><path d="m362.854 127.305-4.604 16.972-25.965 3.985-.207 5.405s23.035 3.63 29.51-.347c5.721-3.513 12.069-23.789 12.069-23.789l-10.803-2.226Z" fill="#FB8A77"/><path d="M384.465 309.56c-1.565-.562-3.303-.436-4.579-.2-.917.169-1.711.656-2.407 1.268-1.864 1.639-7.438 2.183-8.633 3.475-1.365 1.477 1.301 2.3 1.301 2.3l14.183-.644c2.277.25 1.994-.917 1.994-.917s1.057-4.235-1.859-5.282Z" fill="#000"/><path d="m379.117 303.797.341 7.297s2.341 1.545 4.53-.205l-.34-7.297-4.531.205Z" fill="#FB8A77"/><path d="M401.88 175.186s9.06 8.008 5.792 22.476c-3.268 14.468-18.769 49.139-18.769 49.139l-3.248 60.126-7.793.107-8.3-67.357s7.941-70.894 13.043-71.7c5.102-.807 19.275 7.209 19.275 7.209ZM461.776 293.818c-1.6.343-2.979 1.348-3.915 2.206-.671.616-1.075 1.431-1.329 2.301-.678 2.329-5.025 5.667-5.332 7.361-.35 1.936 2.305 1.239 2.305 1.239l11.453-7.881c2.026-.97 1.171-1.796 1.171-1.796s-1.37-4.069-4.353-3.43Z" fill="#000"/><path d="m454.27 291.793 4.161 5.893s2.769.072 3.658-2.518l-4.161-5.893-3.658 2.518Z" fill="#FB8A77"/><path d="M413.127 169.097s1.669-1.472 8.12 11.914c3.641 7.556 3.883 23.996 3.883 23.996l8.778 28.07 27.088 59.388-4.691 3.278-42.044-55.704s-36.047-66.438-31.999-69.608c4.05-3.169 30.865-1.334 30.865-1.334Z" fill="#000"/><path d="M383.925 109.983c-9.742 1.39-22.2 10.716-23.952 22.7l11.953 3.136c.001 0 18.876-26.816 11.999-25.836Z" fill="#731054"/><path opacity=".25" d="m369.012 135.055-2.364-.62 8.114-16.992c0 .002-2.537 15.551-5.75 17.612Z" fill="#000"/><path d="M378.794 176.274s3.426-24.655-.607-29.044c-4.032-4.389-11.856-5.228-8.649-13.911 3.183-8.683 8.042-19.548 13.728-23.241 1.993-1.272 9.281-1.919 9.281-1.919s17.663-5.132 19.12 1.272c.608 2.638.632 11.704.875 22.113.169 7.387.413 15.469.996 22.425.632 7.196 1.603 13.144 3.255 15.853 4.179 6.861-37.999 6.452-37.999 6.452Z" fill="#731054"/><path d="m416.09 130.471 13.018 15.073-8.819 29.523 4.445.341s16.424-26.348 15.195-33.779c-1.085-6.564-17.603-20.147-17.603-20.147l-6.236 8.989Z" fill="#FB8A77"/><path d="M418 178.353s-.352-2.245.073-2.745c.987-1.161 2.503-1.508 2.963-1.355-1.322 1.274-3.036 4.1-3.036 4.1Z" fill="#FB8A77"/><path opacity=".2" d="M419.045 175.397c-.3.035-.598.121-.9.134.986-1.098 2.441-1.427 2.892-1.279-.346.334-.719.774-1.08 1.241-.298-.082-.6-.132-.912-.096Z" fill="#fff"/><path d="M424.74 178.13a9.322 9.322 0 0 1-.591 1.202l.001.002-.001.004c-.011.019-.057.12-.128.267l-.001.001c-.056.117-.13.256-.213.404 0 0-.826 1.721-1.405 1.694-.58-.028-.683-.448-.683-.448s-.405.385-.901.146c-.495-.238-.474-.636-.474-.636s-.364.366-.928.096c-.565-.269-.592-.833-.592-.833s-.585.517-1.066-.314c-.48-.828.352-1.965.381-2.018a8.39 8.39 0 0 1 .37-.637c.036-.054.062-.116.107-.162 3.249-3.324 5.385-10.684 6.205-10.816 0 0 3.767.765 3.757 1.706-.322.814-3.845 7.621-3.845 7.621s.66 1.142.007 2.721Z" fill="#FB8A77"/><path opacity=".2" d="M424.152 179.334v.005l-.127.267-.002.001c-.056.117-.13.257-.213.404 0 0-.825 1.721-1.405 1.694-.58-.028-.683-.447-.683-.447s-.405.385-.901.146c-.495-.239-.474-.637-.474-.637s-.364.366-.928.097c-.565-.27-.592-.833-.592-.833s-.585.517-1.066-.315c-.173-.298-.174-.635-.105-.947.16.324.428.633.758.778a.75.75 0 0 0 .269.067c.106.005.212-.02.317-.024.23-.009.374.169.528.315.197.19.408.355.681.416.205.045.416.028.624.027.218-.003.434.028.62.151.177.118.339.234.551.281.367.084.709-.081.973-.325.182-.169.322-.373.468-.572.188-.259.372-.524.555-.787.314-.45.629-.894.886-1.379-.04.141-.087.28-.143.416a9.57 9.57 0 0 1-.591 1.201Z" fill="#fff"/><path opacity=".25" d="M413.535 153.971c-.898-2.062-2.016-4.221-3.328-6.092-3.741-5.349-12.172-3.742-12.172-3.742 11.347-2.758 11.881-8.731 11.881-8.731.704-1.438 1.7-2.782 2.625-3.861.169 7.388.412 15.471.994 22.426Z" fill="#000"/><path d="M408.883 106.766s13.871 6.812 19.159 18.152c0 0-6.232 6.746-10.961 8.327l-5.562-4.04-2.636-22.439Z" fill="#731054"/><path d="m396.337 107.235 1.646-.469s3.465 7.879-5.836 8.96c-9.3 1.08-11.124-1.89-11.124-1.89s-.607-2.477 1.751-3.607c2.359-1.129 13.563-2.994 13.563-2.994Z" fill="#F56F58"/><path d="M388.345 75.705c-1.792.481-8.509.48-11.108 4.302-2.821 4.014.592 11.07-3.651 11.854-4.601.086-2.615 5.743 1.275 8.221 1.888 1.241 6.243 2.073 8.203 3.146 3.156 2.049 8.989 3.104 13.381 2.362 4.425-.604 7.411-3.005 5.66-4.689-3.604-4.156 1.812-5.658-1.79-10.082-2.903-3.904-1.492-5.02-2.328-6.822-2.589-5.945-5.081-8.795-9.642-8.292Z" fill="#000"/><path d="m392.581 97.037 1.249 12.226s-3.85 5.651-7.701 1.439l.104-8.22 6.348-5.445Z" fill="#F18A66"/><path opacity=".15" d="M389.43 110.86c-.828-1.39-1.146-3.505.136-4.742.519-.5 1.195-.813 1.694-1.334.621-.648.733-1.631.643-2.484-.148-1.391-.746-2.746-.648-4.124l-5.022 4.307-.104 8.219c1.504 1.646 3.007 1.783 4.281 1.344a5.124 5.124 0 0 1-.98-1.186Z" fill="#000"/><path d="M376.172 84.47s-.694 19.658 7.216 20.273c7.909.618 11.379-7.602 11.379-7.602s1.457.89 1.804-.548c.347-1.439 2.082-3.972.347-4.932-1.734-.959-2.289.617-2.289.617l.971-4.451c-.001-.002-19.22-9.796-19.428-3.358Z" fill="#F18A66"/><path opacity=".05" d="M395.393 92.547s1.042-.556 1.458.246c.417.802-.5 3.866-1.728 3.495 0 0 1.582-.68 1.395-2.549-.187-1.87-.853-.595-1.125-1.192Zm-4.795 4.743c.092.545-.51 1.1-1.346 1.24-.836.138-1.59-.19-1.682-.736-.094-.545.508-1.1 1.345-1.24.836-.14 1.589.19 1.683.736Zm-9.471.051c.094.546-.508 1.102-1.345 1.24-.836.139-1.59-.19-1.683-.737-.093-.545.509-1.1 1.346-1.24.836-.138 1.589.192 1.682.737Z" fill="#000"/><path d="M381.53 92.212a.233.233 0 0 1-.203-.116c-.039-.065-.943-1.54-3.159-.568a.234.234 0 0 1-.308-.118.23.23 0 0 1 .119-.304c2.615-1.144 3.743.741 3.755.76a.232.232 0 0 1-.001.23.237.237 0 0 1-.203.114Zm4.534.04a.232.232 0 0 1-.163-.065.229.229 0 0 1-.071-.162c0-.03.006-.06.017-.088.008-.02.858-2.033 3.931-1.385a.231.231 0 0 1 .18.275.235.235 0 0 1-.279.177c-2.671-.566-3.371 1.036-3.399 1.105a.233.233 0 0 1-.216.144Zm-2.662 5.828a.875.875 0 0 1-.238-.033c-.496-.142-.705-.693-.714-.716a.227.227 0 0 1 .023-.205c.839-1.27.617-2.987.614-3.003a.233.233 0 0 1 .2-.26.231.231 0 0 1 .263.198c.01.076.235 1.812-.616 3.207.067.12.192.289.361.338.157.044.35-.017.571-.184a.236.236 0 0 1 .327.042.23.23 0 0 1-.043.324c-.258.195-.509.292-.748.292Z" fill="#000"/><path d="M381.898 100.401s2.667 1.192 5.653-.178c.677 1.224-2.861 4.413-5.653.178Z" fill="#F2F2F2"/><path d="M380.82 94.126c0 .718-.403 1.3-.902 1.3s-.902-.582-.902-1.3c0-.72.404-1.302.902-1.302s.902.583.902 1.302Zm8.117 0c0 .718-.404 1.3-.902 1.3s-.902-.582-.902-1.3c0-.72.404-1.302.902-1.302s.902.583.902 1.302Z" fill="#000"/><path opacity=".05" d="M385.357 103.669c-.247 0-.408-.036-.423-.04a.12.12 0 0 1-.073-.051.115.115 0 0 1-.014-.087.117.117 0 0 1 .14-.086c.01.002 1.036.227 1.966-.569a.12.12 0 0 1 .165.012.116.116 0 0 1-.012.163 2.67 2.67 0 0 1-1.749.658Z" fill="#000"/><path d="M379.774 81.242c.048-.825.006-1.363.006-1.363-8.222.719-4.266 9.144-4.266 9.144 2.855-1.41 3.822-4.388 4.138-6.565 2.208 2.985 9.124 6.56 16.854 6.713l.969-1.69-17.701-6.24Z" fill="#000"/><path d="M379.008 81.08c.356 2.275 2.007 4.261 3.766 5.67a14.67 14.67 0 0 0 8.168 3.18c1.99.133 3.979-.174 5.863-.81.353-.119.201-.676-.155-.555-3.085 1.04-6.397 1.1-9.474-.003-2.443-.873-4.732-2.452-6.244-4.557-.663-.921-1.183-1.953-1.36-3.078-.057-.365-.62-.21-.564.154Z" fill="#000"/><g opacity=".25" fill="#9CB2D1"><path d="M275.054 79.652a1.06 1.06 0 0 0 1.066 1.052c.589 0 1.065-.47 1.065-1.052 0-.581-.477-1.052-1.065-1.052a1.061 1.061 0 0 0-1.066 1.052Zm-6.181 0c0 .581.477 1.052 1.066 1.052a1.06 1.06 0 0 0 1.066-1.052c0-.581-.477-1.052-1.066-1.052a1.06 1.06 0 0 0-1.066 1.052Zm-6.182 0a1.06 1.06 0 0 0 1.066 1.052 1.06 1.06 0 0 0 1.066-1.052c0-.581-.477-1.052-1.066-1.052a1.06 1.06 0 0 0-1.066 1.052ZM257.574 80.704a1.06 1.06 0 0 0 1.066-1.052c0-.581-.477-1.052-1.066-1.052-.589 0-1.066.47-1.066 1.052a1.06 1.06 0 0 0 1.066 1.052ZM251.39 80.704a1.06 1.06 0 0 0 1.066-1.052c0-.581-.477-1.052-1.066-1.052-.589 0-1.066.47-1.066 1.052a1.06 1.06 0 0 0 1.066 1.052ZM273.108 84.846c0 .581.477 1.052 1.065 1.052.589 0 1.066-.47 1.066-1.052 0-.581-.477-1.051-1.066-1.051a1.057 1.057 0 0 0-1.065 1.051Zm-6.181 0c0 .581.477 1.052 1.066 1.052a1.06 1.06 0 0 0 1.066-1.052c0-.581-.478-1.051-1.066-1.051a1.057 1.057 0 0 0-1.066 1.051Zm-6.182 0c0 .581.477 1.052 1.066 1.052.589 0 1.066-.47 1.066-1.052 0-.581-.477-1.051-1.066-1.051a1.057 1.057 0 0 0-1.066 1.051Zm-6.181 0c0 .581.477 1.052 1.066 1.052.588 0 1.064-.47 1.064-1.052 0-.581-.477-1.051-1.064-1.051a1.057 1.057 0 0 0-1.066 1.051Zm-6.182 0c0 .581.477 1.052 1.066 1.052.589 0 1.066-.47 1.066-1.052 0-.581-.477-1.051-1.066-1.051a1.057 1.057 0 0 0-1.066 1.051Zm-6.183 0c0 .581.477 1.052 1.066 1.052.589 0 1.066-.47 1.066-1.052 0-.581-.477-1.051-1.066-1.051a1.058 1.058 0 0 0-1.066 1.051Z"/></g><g opacity=".25" fill="#9CB2D1"><path d="M194.386 242.535c.589 0 1.066-.471 1.066-1.052 0-.582-.477-1.051-1.066-1.051-.589 0-1.066.471-1.066 1.051 0 .581.477 1.052 1.066 1.052Zm0 6.102c.589 0 1.066-.471 1.066-1.052a1.06 1.06 0 0 0-1.066-1.052c-.589 0-1.066.471-1.066 1.052 0 .581.477 1.052 1.066 1.052Zm0 6.103a1.06 1.06 0 0 0 1.066-1.053 1.06 1.06 0 0 0-1.066-1.052c-.589 0-1.066.471-1.066 1.052 0 .583.477 1.053 1.066 1.053ZM194.386 260.843c.589 0 1.066-.471 1.066-1.052a1.06 1.06 0 0 0-1.066-1.053 1.06 1.06 0 0 0-1.066 1.053 1.06 1.06 0 0 0 1.066 1.052ZM194.386 266.945a1.06 1.06 0 0 0 1.066-1.053c0-.581-.477-1.052-1.066-1.052a1.06 1.06 0 0 0-1.066 1.052 1.06 1.06 0 0 0 1.066 1.053ZM199.647 244.453c.589 0 1.066-.471 1.066-1.051 0-.581-.477-1.052-1.066-1.052-.589 0-1.065.471-1.065 1.052 0 .581.476 1.051 1.065 1.051Zm0 6.104a1.06 1.06 0 0 0 1.066-1.053c0-.581-.477-1.052-1.066-1.052-.589 0-1.065.471-1.065 1.052 0 .582.476 1.053 1.065 1.053Zm0 6.102a1.06 1.06 0 0 0 1.066-1.053c0-.581-.477-1.052-1.066-1.052-.589 0-1.065.471-1.065 1.052 0 .582.476 1.053 1.065 1.053Zm0 6.102c.589 0 1.066-.471 1.066-1.052 0-.582-.477-1.051-1.066-1.051-.589 0-1.065.471-1.065 1.051 0 .581.476 1.052 1.065 1.052Zm0 6.102c.589 0 1.066-.471 1.066-1.052 0-.581-.477-1.052-1.066-1.052-.589 0-1.065.471-1.065 1.052 0 .581.476 1.052 1.065 1.052Zm0 6.103a1.06 1.06 0 0 0 1.066-1.053c0-.581-.477-1.052-1.066-1.052-.589 0-1.065.471-1.065 1.052 0 .582.476 1.053 1.065 1.053Z"/></g><path opacity=".25" d="M322.133 150.109c-.004 0-.007.003-.009.002l-3.361-.226 3.368.041h.006c.006 0 .13-.693.24-1.028-.086.5-.118 1.003-.133 1.505-.003.186-.005.373-.003.559 0 .001-.12-.757-.108-.853Zm-.004 2.098-.007.002-3.36-.225 3.345.041c-.013-.5.136-.828.136-.828.005.237.014.475.035.711.02.286.07.571.134.855-.043.007-.253-.36-.283-.556Zm.425 1.646-3.368-.021 3.339-.162c-.031-.085-.113-.671-.061-.68h.001c.033.127.065.255.101.381.135.482.295.959.465 1.433-.17-.309-.463-.951-.477-.951Z" fill="#000"/><path d="M201.675 101.309s-.116.113-.302.303c-.006-.736-.176-1.566-.906-1.631-1.327-.12-5.058 4.916-3.893 5.392.52.212 1.51-.286 2.449-.902-.646 1.032-.475 2.436.543 2.608 1.51.254 2.308-1.344 3.029-2.255-.881 1.383-1.374 3.7-.336 3.659 1.506-.059 3.272-3.129 3.272-3.129s-1.567 2.497 0 3.093c1.317.499 2.635-4.289 2.635-4.289s-2.153-5.287-6.491-2.849Z" fill="#FB8A77"/><path d="M190.177 148.429a17.96 17.96 0 0 1 1.386-1.442c.478-.442.955-.824 1.433-1.144.477-.32.947-.565 1.409-.732a3.788 3.788 0 0 1 1.363-.275c.339 0 .67.061.993.183.339.107.639.282.901.526.262.229.47.527.624.893.154.366.231.801.231 1.305 0 .732-.1 1.457-.3 2.174a14.532 14.532 0 0 1-.763 2.059 25.72 25.72 0 0 1-.993 1.946c-.339.625-.662 1.228-.97 1.808a13.817 13.817 0 0 0-.763 1.625c-.2.503-.3.968-.3 1.395 0 .336.085.58.254.733a.958.958 0 0 0 .578.206c.4 0 .87-.229 1.409-.687.554-.457 1.132-1.045 1.732-1.762a34.92 34.92 0 0 0 1.802-2.357c.616-.87 1.202-1.717 1.756-2.54l.832.64c-.201.321-.462.748-.786 1.282a32.21 32.21 0 0 1-1.086 1.693 39.55 39.55 0 0 1-1.362 1.831 14.913 14.913 0 0 1-1.571 1.671 8.842 8.842 0 0 1-1.687 1.213c-.585.305-1.17.458-1.755.458-.324 0-.64-.046-.948-.138a2.2 2.2 0 0 1-.785-.434 2.31 2.31 0 0 1-.555-.824c-.138-.336-.207-.748-.207-1.236 0-.672.115-1.328.346-1.968a12.4 12.4 0 0 1 .878-1.9c.354-.625.731-1.243 1.132-1.854.416-.625.801-1.243 1.155-1.853.354-.611.647-1.221.878-1.831a5.45 5.45 0 0 0 .346-1.9c0-.32-.061-.572-.184-.755-.124-.198-.355-.298-.693-.298-.54 0-1.109.222-1.71.664-.601.427-1.224 1.007-1.871 1.739a28.025 28.025 0 0 0-1.987 2.564 66.894 66.894 0 0 0-2.033 3.066 204.73 204.73 0 0 0-1.986 3.273l-1.872 3.181-1.94-1.007c.816-1.663 1.578-3.15 2.287-4.462a131.823 131.823 0 0 0 1.894-3.548 25.342 25.342 0 0 0 1.271-2.906c.308-.885.462-1.717.462-2.495 0-.152-.016-.305-.047-.458a1.006 1.006 0 0 0-.184-.434 1.018 1.018 0 0 0-.37-.298c-.139-.092-.323-.137-.554-.137-.524 0-1.055.244-1.594.732-.539.473-1.109 1.129-1.71 1.968a48.035 48.035 0 0 0-1.94 2.907 187.005 187.005 0 0 1-2.218 3.501 97.672 97.672 0 0 1-2.564 3.822 43.211 43.211 0 0 1-3.027 3.776l-1.594-1.052c.493-.733 1.009-1.503 1.548-2.312a84.121 84.121 0 0 0 1.617-2.494 65.217 65.217 0 0 0 1.525-2.495c.493-.839.924-1.632 1.294-2.38.369-.748.662-1.434.877-2.06.216-.625.324-1.159.324-1.602 0-.519-.131-.892-.393-1.121-.262-.229-.601-.343-1.016-.343-.493 0-.978.175-1.456.526-.462.351-.955.847-1.478 1.488a34.85 34.85 0 0 0-1.663 2.311c-.586.885-1.256 1.861-2.01 2.929l-.832-.64a225.36 225.36 0 0 1 2.195-3.388c.662-.976 1.286-1.792 1.871-2.448.585-.656 1.163-1.152 1.732-1.488a3.744 3.744 0 0 1 1.895-.503c.2 0 .454.038.762.114.324.076.639.214.947.412.308.198.578.473.809.824.246.351.393.801.439 1.35.862-1.098 1.763-1.976 2.703-2.632.939-.656 1.825-.984 2.656-.984.601 0 1.109.122 1.525.366.416.229.747.534.993.916.262.381.447.816.555 1.304.123.473.185.954.185 1.442 0 .122-.008.252-.023.389 0 .137-.008.275-.024.412Zm13.538 7.232a6.718 6.718 0 0 0-.093 1.098c0 .55.077 1.076.231 1.58.17.488.409.923.717 1.304.323.366.716.656 1.178.87.477.213 1.016.32 1.617.32 2.017 0 3.966-.679 5.844-2.037 1.879-1.358 3.751-3.509 5.614-6.453l.785.686c-1.016 1.678-2.048 3.097-3.095 4.257-1.047 1.144-2.095 2.075-3.142 2.792-1.032.717-2.048 1.236-3.049 1.556-1.001.321-1.956.481-2.865.481a8.758 8.758 0 0 1-2.102-.275 6.377 6.377 0 0 1-2.056-.915c-.616-.428-1.124-1-1.525-1.717-.416-.717-.623-1.609-.623-2.677 0-1.145.2-2.243.6-3.296.385-1.068.893-2.06 1.525-2.975a14.64 14.64 0 0 1 2.171-2.495 17.575 17.575 0 0 1 2.472-1.945 12.897 12.897 0 0 1 2.472-1.236c.801-.305 1.509-.458 2.125-.458.401 0 .809.062 1.225.184a3.18 3.18 0 0 1 1.109.572c.338.259.608.602.808 1.03.216.427.324.938.324 1.533a4.77 4.77 0 0 1-.578 2.289 7.792 7.792 0 0 1-1.502 1.968 12.197 12.197 0 0 1-2.194 1.625c-.832.473-1.702.877-2.611 1.213-.908.335-1.825.602-2.749.801-.924.198-1.802.305-2.633.32Zm.185-.984a12.65 12.65 0 0 0 2.91-.641c.909-.32 1.741-.709 2.495-1.167a13.048 13.048 0 0 0 2.01-1.533 10.655 10.655 0 0 0 1.502-1.671c.4-.565.708-1.106.924-1.625.215-.519.323-.984.323-1.396 0-.412-.115-.74-.346-.984a1.012 1.012 0 0 0-.786-.366c-.677 0-1.44.244-2.287.732-.847.473-1.694 1.137-2.541 1.991-.847.839-1.648 1.831-2.403 2.975a17.464 17.464 0 0 0-1.801 3.685Zm34.213-5.676c0 .656-.116 1.328-.347 2.014-.231.672-.523 1.35-.878 2.037a36.23 36.23 0 0 1-1.132 1.991c-.4.656-.777 1.289-1.132 1.9-.354.61-.646 1.197-.877 1.762-.231.549-.347 1.053-.347 1.51 0 .351.077.588.231.71a.799.799 0 0 0 .508.183c.586 0 1.24-.282 1.964-.847.724-.58 1.455-1.305 2.194-2.174a40.829 40.829 0 0 0 2.241-2.838 76.592 76.592 0 0 0 2.01-2.906l.832.64c-.123.183-.347.55-.67 1.099a42.661 42.661 0 0 1-1.201 1.854 46.398 46.398 0 0 1-1.618 2.174 18.781 18.781 0 0 1-1.894 2.082 11.438 11.438 0 0 1-2.102 1.557c-.709.412-1.425.618-2.148.618-.416 0-.794-.069-1.132-.206a2.65 2.65 0 0 1-.878-.573 2.899 2.899 0 0 1-.555-.846 2.746 2.746 0 0 1-.208-1.053c0-.595.131-1.236.393-1.923.277-.701.616-1.419 1.017-2.151.4-.732.839-1.465 1.316-2.197.478-.747.917-1.457 1.317-2.128.401-.672.732-1.29.993-1.854.278-.58.416-1.076.416-1.488 0-.473-.131-.869-.392-1.19-.247-.32-.601-.48-1.063-.48-.493 0-1.063.206-1.71.618-.646.396-1.37.984-2.171 1.762-.801.778-1.679 1.739-2.634 2.883a124.25 124.25 0 0 0-3.072 3.868 269.32 269.32 0 0 1-1.848 2.426c-.262.336-.524.679-.786 1.03l-.785 1.053c-.262.335-.508.656-.739.961-.231.32-.439.595-.624.824l-2.033-.824 2.703-3.685a43.31 43.31 0 0 0 1.178-1.67c.4-.595.793-1.206 1.178-1.831.401-.641.778-1.282 1.132-1.923.354-.64.685-1.266.993-1.876.447-.916.755-1.671.924-2.266.17-.61.255-1.098.255-1.465 0-.412-.077-.679-.231-.801-.154-.137-.37-.206-.647-.206-.293 0-.632.153-1.017.458-.369.29-.754.671-1.155 1.144-.4.458-.808.985-1.224 1.58a55.08 55.08 0 0 0-1.155 1.739c-.37.58-.716 1.129-1.04 1.648-.323.518-.593.938-.808 1.258l-.832-.64a344.71 344.71 0 0 0 2.125-3.342 29.795 29.795 0 0 1 1.848-2.632c.601-.732 1.179-1.297 1.733-1.693.57-.412 1.171-.618 1.802-.618.339 0 .662.068.97.206.324.137.601.343.832.618.246.259.439.58.577.961.139.381.208.824.208 1.327 0 .397-.046.809-.138 1.236a18.17 18.17 0 0 1 1.894-1.625 11.302 11.302 0 0 1 1.617-1.007 6.407 6.407 0 0 1 1.363-.549 4.58 4.58 0 0 1 1.132-.16c.293 0 .632.053 1.017.16a2.82 2.82 0 0 1 1.085.595c.339.29.624.694.855 1.213.247.504.37 1.16.37 1.968Zm9.148-7.003c.154-.259.423-.709.808-1.35a77.39 77.39 0 0 1 1.387-2.129 44.96 44.96 0 0 1 1.732-2.334 17.587 17.587 0 0 1 1.848-2.014l1.04.618a123.836 123.836 0 0 0-2.033 3.456 104.813 104.813 0 0 0-2.056 3.753h7.531l-.462 1.19h-7.693a110.9 110.9 0 0 0-1.964 4.097 73.467 73.467 0 0 0-1.594 3.89 30.424 30.424 0 0 0-1.085 3.479c-.262 1.068-.393 1.999-.393 2.792 0 .992.231 1.709.693 2.151.462.428 1.032.641 1.709.641.601 0 1.217-.175 1.849-.526a10.744 10.744 0 0 0 1.848-1.373 16.23 16.23 0 0 0 1.732-1.808 29.94 29.94 0 0 0 1.456-1.854 29.25 29.25 0 0 0 1.062-1.511c.278-.442.447-.717.509-.823l.854.64a63.544 63.544 0 0 1-1.825 2.815 20.605 20.605 0 0 1-2.264 2.769 12.488 12.488 0 0 1-2.679 2.106 6.279 6.279 0 0 1-3.142.824c-.693 0-1.301-.122-1.825-.366a3.794 3.794 0 0 1-1.294-1.007 4.38 4.38 0 0 1-.785-1.557 6.521 6.521 0 0 1-.277-1.945c0-.458.077-1.106.231-1.945.138-.839.385-1.831.739-2.975.354-1.16.824-2.457 1.409-3.891a48.324 48.324 0 0 1 2.264-4.623h-3.835l.462-1.19h4.043Zm26.289 3.662c-.2.397-.485.915-.854 1.556-.355.641-.74 1.35-1.156 2.128-.415.763-.839 1.564-1.27 2.403-.416.84-.801 1.664-1.155 2.472a26.33 26.33 0 0 0-.855 2.266c-.216.702-.323 1.297-.323 1.785s.092.809.277.961c.2.137.454.206.762.206.447 0 .901-.13 1.363-.389.478-.259.94-.595 1.386-1.007.462-.412.909-.877 1.34-1.396.431-.519.832-1.037 1.201-1.556.385-.534.732-1.038 1.04-1.511.308-.488.57-.9.785-1.235l.832.64a27.15 27.15 0 0 1-2.102 3.296c-.416.564-.87 1.114-1.363 1.648a11.39 11.39 0 0 1-1.571 1.419 7.382 7.382 0 0 1-1.71.984c-.6.244-1.216.366-1.848.366-.924 0-1.601-.275-2.033-.824-.431-.549-.646-1.259-.646-2.128v-.389c.015-.214.038-.382.069-.504-.77.961-1.509 1.755-2.218 2.38-.693.626-1.371 1.122-2.033 1.488-.647.366-1.278.618-1.894.755a7.015 7.015 0 0 1-1.733.229 4.643 4.643 0 0 1-1.663-.298 3.771 3.771 0 0 1-1.34-.824 3.661 3.661 0 0 1-.924-1.35c-.231-.534-.346-1.152-.346-1.854 0-.869.2-1.861.6-2.975.385-1.129 1.078-2.342 2.079-3.639.847-1.113 1.725-2.052 2.634-2.815.924-.762 1.825-1.373 2.703-1.83.893-.473 1.74-.809 2.541-1.007.801-.199 1.517-.298 2.148-.298 1.417 0 2.488.237 3.211.71.724.457 1.163 1.167 1.317 2.128.308-.381.632-.763.97-1.144.339-.382.686-.771 1.04-1.167l.739.32Zm-7.092 8.696c.2-.32.447-.724.739-1.212a59.52 59.52 0 0 1 .924-1.534c.324-.534.64-1.045.948-1.533.308-.488.577-.9.808-1.236 0-.137-.023-.359-.069-.664a2.379 2.379 0 0 0-.3-.915c-.17-.321-.439-.595-.809-.824-.37-.229-.886-.343-1.548-.343-.477 0-1.016.076-1.617.229-.585.137-1.217.381-1.894.732-.663.336-1.348.786-2.056 1.35-.709.565-1.417 1.267-2.126 2.106-1.062 1.266-1.886 2.54-2.472 3.822-.569 1.266-.854 2.41-.854 3.432 0 .87.2 1.541.6 2.014.401.473.971.71 1.71.71.847 0 1.64-.183 2.379-.549a9.487 9.487 0 0 0 2.079-1.465 19.01 19.01 0 0 0 1.849-1.968c.585-.733 1.155-1.45 1.709-2.152Zm26.382-26.776c.539 0 .986.13 1.34.389.369.26.554.732.554 1.419 0 .473-.1 1.038-.3 1.694a16.978 16.978 0 0 1-.786 2.151 33.199 33.199 0 0 1-1.155 2.426 41.73 41.73 0 0 1-1.455 2.517 37.256 37.256 0 0 1-1.617 2.449 34.36 34.36 0 0 1-1.663 2.197 131.431 131.431 0 0 1-2.888 3.433c-.801.931-1.494 1.724-2.079 2.38a69.379 69.379 0 0 1-1.479 1.579c-.4.397-.754.74-1.062 1.03-.308.29-.593.557-.855.801-.262.229-.531.488-.809.778a8.052 8.052 0 0 0-.184 1.671c.015.518.023.999.023 1.442 0 1.327.215 2.311.646 2.952.432.641 1.04.961 1.825.961.524 0 1.048-.13 1.571-.389a8.987 8.987 0 0 0 1.594-1.053 14.838 14.838 0 0 0 1.525-1.442c.493-.549.955-1.098 1.386-1.647.447-.565.847-1.106 1.201-1.625l.924-1.35.855.64c-.046.061-.2.305-.462.733-.246.412-.577.915-.993 1.51a29.665 29.665 0 0 1-1.479 1.923 17.79 17.79 0 0 1-1.848 1.876 10.467 10.467 0 0 1-2.102 1.442c-.724.381-1.463.572-2.218.572a4.97 4.97 0 0 1-1.825-.343 4.271 4.271 0 0 1-1.524-1.122c-.432-.518-.786-1.174-1.063-1.968-.262-.793-.393-1.747-.393-2.86 0-1.389.162-2.838.485-4.349a34.376 34.376 0 0 1 1.363-4.577 41.018 41.018 0 0 1 2.01-4.554 51.424 51.424 0 0 1 2.449-4.257 40.78 40.78 0 0 1 2.726-3.753c.955-1.16 1.886-2.159 2.795-2.998.924-.839 1.81-1.495 2.657-1.968.847-.473 1.617-.71 2.31-.71Zm-13.838 23.206c1.309-1.342 2.572-2.7 3.789-4.073a95.607 95.607 0 0 0 3.442-4.097 87.144 87.144 0 0 0 2.957-3.936 43.89 43.89 0 0 0 2.287-3.616c.631-1.129 1.124-2.159 1.478-3.09.355-.931.532-1.732.532-2.403 0-.122-.062-.282-.185-.48-.123-.214-.27-.321-.439-.321-.477 0-1.109.313-1.894.938-.786.626-1.641 1.48-2.565 2.564a46.427 46.427 0 0 0-2.841 3.753 49.165 49.165 0 0 0-2.749 4.6 48.282 48.282 0 0 0-2.31 5.058 29.69 29.69 0 0 0-1.502 5.103Zm20.329 4.989c-.6.656-1.209 1.267-1.825 1.831a18.22 18.22 0 0 1-1.825 1.442c-.6.412-1.193.74-1.778.984a4.45 4.45 0 0 1-1.664.343c-.6 0-1.147-.106-1.64-.32a3.796 3.796 0 0 1-1.247-.961 4.464 4.464 0 0 1-.786-1.465 5.998 5.998 0 0 1-.277-1.876c0-.916.192-1.869.578-2.861.384-.992.877-1.953 1.478-2.884a23.185 23.185 0 0 1 2.033-2.677 24.397 24.397 0 0 1 2.194-2.175l.994.687c-.185.259-.439.618-.763 1.076a27.3 27.3 0 0 0-1.039 1.602c-.37.595-.747 1.243-1.132 1.945-.37.702-.708 1.419-1.017 2.151a17.847 17.847 0 0 0-.762 2.197 8.435 8.435 0 0 0-.277 2.06c0 .305.023.603.069.892.062.275.154.519.277.733.139.213.316.381.532.503.215.122.493.183.831.183.54 0 1.125-.16 1.756-.48a11.244 11.244 0 0 0 1.987-1.35 23.333 23.333 0 0 0 2.102-2.014 37.739 37.739 0 0 0 2.125-2.449 58.04 58.04 0 0 0 2.01-2.678 59.471 59.471 0 0 0 1.802-2.746l1.478-2.426c.493-.824.986-1.625 1.479-2.403l1.085.549c-.014.031-.161.321-.438.87-.262.534-.616 1.266-1.062 2.197-.447.915-.972 1.983-1.572 3.204-.585 1.205-1.208 2.494-1.87 3.868-.663 1.358-1.341 2.754-2.034 4.188-.677 1.434-1.34 2.83-1.986 4.188a29.221 29.221 0 0 0 5.89-4.234c1.771-1.633 3.288-3.341 4.551-5.126l.855.64c-1.34 2.029-3.002 3.906-4.99 5.63-1.987 1.709-4.381 3.349-7.184 4.921a135.088 135.088 0 0 1-3.766 7.438c-1.217 2.242-2.441 4.165-3.673 5.767-1.217 1.602-2.433 2.838-3.65 3.707-1.232.885-2.48 1.328-3.742 1.328-.832 0-1.525-.275-2.079-.824-.555-.55-.832-1.335-.832-2.357 0-.855.192-1.732.577-2.632.385-.9.917-1.808 1.594-2.724.678-.9 1.487-1.8 2.426-2.7a32.06 32.06 0 0 1 3.049-2.564 47.437 47.437 0 0 1 3.442-2.357 49.082 49.082 0 0 1 3.697-2.059c.323-.672.67-1.381 1.039-2.129.37-.732.732-1.442 1.086-2.128.354-.702.693-1.358 1.017-1.968a42.41 42.41 0 0 1 .877-1.557Zm-5.082 10.001a48.09 48.09 0 0 0-4.944 3.456c-1.509 1.236-2.818 2.449-3.927 3.639-1.124 1.205-2.002 2.334-2.633 3.387-.632 1.053-.948 1.945-.948 2.678 0 .488.147.877.439 1.167.278.29.64.435 1.086.435.601 0 1.224-.206 1.871-.618.632-.397 1.271-.946 1.918-1.648a20.849 20.849 0 0 0 1.894-2.494 40.7 40.7 0 0 0 1.848-3.067 54.627 54.627 0 0 0 1.779-3.41 88.972 88.972 0 0 0 1.617-3.525Zm28.392-18.789c.092-.244.138-.503.138-.778 0-.488-.2-.869-.601-1.144-.385-.29-1-.435-1.848-.435-.692 0-1.393.153-2.101.458a8.38 8.38 0 0 0-2.011 1.213 11.617 11.617 0 0 0-1.824 1.853 13.864 13.864 0 0 0-1.456 2.335 14.866 14.866 0 0 0-.97 2.677 11.647 11.647 0 0 0-.347 2.815c0 .763.085 1.412.255 1.946.168.534.407.969.715 1.304.309.336.678.58 1.109.733.431.137.916.205 1.456.205a7.168 7.168 0 0 0 3.095-.709 13.18 13.18 0 0 0 2.842-1.831 18.609 18.609 0 0 0 2.495-2.54 30.06 30.06 0 0 0 2.033-2.746l.855.64c-.832 1.389-1.718 2.609-2.658 3.662-.938 1.038-1.901 1.907-2.887 2.609s-1.987 1.228-3.003 1.579-2.009.526-2.981.526a7.168 7.168 0 0 1-2.217-.343 5.486 5.486 0 0 1-1.848-1.03c-.524-.473-.947-1.075-1.27-1.808-.308-.732-.463-1.602-.463-2.609 0-1.19.17-2.311.509-3.364a13.329 13.329 0 0 1 1.386-2.952c.585-.9 1.255-1.709 2.01-2.426.754-.732 1.54-1.35 2.356-1.854a11.39 11.39 0 0 1 2.494-1.144c.848-.275 1.64-.412 2.38-.412.755 0 1.371.107 1.848.32.478.199.856.443 1.133.733s.461.595.553.915c.108.321.163.595.163.824 0 .366-.055.755-.163 1.167a4.716 4.716 0 0 1-.461 1.145 2.741 2.741 0 0 1-.716.846 1.418 1.418 0 0 1-.924.344c-.339 0-.632-.107-.878-.321a1.107 1.107 0 0 1-.369-.847c0-.015.006-.106.022-.274.031-.168.108-.343.231-.526.124-.199.308-.374.555-.527.261-.152.623-.229 1.085-.229h.278Z" fill="#fff"/><path d="M323.542 155.716c1.514-.011 2.863-.088 3.549-.232a8.172 8.172 0 0 0 1.473-.463 9.381 9.381 0 0 0 1.033-.513 8.375 8.375 0 0 0 1.263-.861l11.206.45c.499-2.087.098-5.013 0-5.51 0 0-10.333.505-11.817-.717a.19.19 0 0 1-.041-.034.891.891 0 0 1-.045-.073c-.245-.364-.824-.729-1.525-1.015a8.763 8.763 0 0 0-1.647-.482c-1.357-.251-2.878-3.669-3.631-3.275-.752.397-.413 2.616.493 3.312.902.695.261 1.487-.831 1.487h-.343c-2.181 0-8.928.034-9.1 1.112-.112.703 2.689.967 4.861 1.067-2.662-.025-6.479.073-6.208.854.21.599 4.072.967 6.23 1.152-1.491.008-4.439.129-4.451.633-.022 1.089 3.034 1.24 5.096 1.218-1.226.096-2.621.335-2.707.916-.101.708 3.903 1.004 7.142.974Z" fill="#FB8A77"/><defs><linearGradient id="a" x1="354.458" y1="150.633" x2="258.072" y2="45.934" gradientUnits="userSpaceOnUse"><stop stop-color="#DE0D6F"/><stop offset="1" stop-color="#731054"/></linearGradient></defs></svg>