<svg width="16" height="16" viewBox="0 0 16 16" fill="none" xmlns="http://www.w3.org/2000/svg">
<path d="M8.0026 15.1693C4.04927 15.1693 0.835938 11.9559 0.835938 8.0026C0.835938 4.04927 4.04927 0.835938 8.0026 0.835938C11.9559 0.835938 15.1693 4.04927 15.1693 8.0026C15.1693 11.9559 11.9559 15.1693 8.0026 15.1693ZM8.0026 1.83594C4.6026 1.83594 1.83594 4.6026 1.83594 8.0026C1.83594 11.4026 4.6026 14.1693 8.0026 14.1693C11.4026 14.1693 14.1693 11.4026 14.1693 8.0026C14.1693 4.6026 11.4026 1.83594 8.0026 1.83594Z" fill="white"/>
<path d="M10.6693 8.5H5.33594C5.0626 8.5 4.83594 8.27333 4.83594 8C4.83594 7.72667 5.0626 7.5 5.33594 7.5H10.6693C10.9426 7.5 11.1693 7.72667 11.1693 8C11.1693 8.27333 10.9426 8.5 10.6693 8.5Z" fill="white"/>
<path d="M8 11.1693C7.72667 11.1693 7.5 10.9426 7.5 10.6693V5.33594C7.5 5.0626 7.72667 4.83594 8 4.83594C8.27333 4.83594 8.5 5.0626 8.5 5.33594V10.6693C8.5 10.9426 8.27333 11.1693 8 11.1693Z" fill="white"/>
</svg>
