<svg width="24" height="24" viewBox="0 0 24 24" fill="none" xmlns="http://www.w3.org/2000/svg">
<path d="M11.9978 22.7525C11.3978 22.7525 10.8078 22.6125 10.3278 22.3425L5.59781 19.6125C3.63781 18.2925 3.50781 18.0525 3.50781 15.9825V11.0225C3.50781 8.9525 3.63781 8.7125 5.55781 7.4225L10.3378 4.6625C11.2878 4.1125 12.7178 4.1125 13.6678 4.6625L18.3978 7.3925C20.3578 8.7125 20.4878 8.9525 20.4878 11.0225V15.9825C20.4878 18.0525 20.3578 18.2925 18.4378 19.5825L13.6578 22.3425C13.1878 22.6225 12.5878 22.7525 11.9978 22.7525ZM11.9978 5.7525C11.6578 5.7525 11.3178 5.8225 11.0778 5.9625L6.34781 8.6925C5.00781 9.6025 5.00781 9.6025 5.00781 11.0225V15.9825C5.00781 17.4025 5.00781 17.4025 6.39781 18.3425L11.0878 21.0425C11.5678 21.3225 12.4378 21.3225 12.9178 21.0425L17.6478 18.3125C18.9878 17.4025 18.9878 17.4025 18.9878 15.9825V11.0225C18.9878 9.6025 18.9878 9.6025 17.5978 8.6625L12.9078 5.9625C12.6778 5.8225 12.3378 5.7525 11.9978 5.7525Z" fill="white"/>
<path d="M17.5 8.38C17.09 8.38 16.75 8.04 16.75 7.63V5C16.75 3.42 16.08 2.75 14.5 2.75H9.5C7.92 2.75 7.25 3.42 7.25 5V7.56C7.25 7.97 6.91 8.31 6.5 8.31C6.09 8.31 5.75 7.98 5.75 7.56V5C5.75 2.58 7.08 1.25 9.5 1.25H14.5C16.92 1.25 18.25 2.58 18.25 5V7.63C18.25 8.04 17.91 8.38 17.5 8.38Z" fill="white"/>
<path d="M13.6283 17.6272C13.4183 17.6272 13.1983 17.5872 12.9783 17.4972L11.9983 17.1172L11.0183 17.5072C10.4883 17.7172 9.94828 17.6672 9.54828 17.3772C9.14828 17.0872 8.93828 16.5872 8.96828 16.0172L9.02828 14.9672L8.35828 14.1572C7.99828 13.7072 7.87828 13.1872 8.03828 12.7072C8.18828 12.2372 8.59828 11.8772 9.14828 11.7372L10.1683 11.4772L10.7383 10.5872C11.3483 9.62719 12.6583 9.62719 13.2683 10.5872L13.8383 11.4772L14.8583 11.7372C15.4083 11.8772 15.8183 12.2372 15.9683 12.7072C16.1183 13.1772 15.9983 13.7072 15.6383 14.1472L14.9683 14.9572L15.0283 16.0072C15.0583 16.5772 14.8483 17.0672 14.4483 17.3672C14.2083 17.5372 13.9283 17.6272 13.6283 17.6272ZM9.51828 13.1972L10.1883 14.0072C10.4183 14.2772 10.5483 14.7072 10.5283 15.0572L10.4683 16.1072L11.4483 15.7172C11.7783 15.5872 12.2183 15.5872 12.5483 15.7172L13.5283 16.1072L13.4683 15.0572C13.4483 14.7072 13.5783 14.2872 13.8083 14.0072L14.4783 13.1972L13.4583 12.9372C13.1183 12.8472 12.7583 12.5872 12.5683 12.2972L12.0083 11.4172L11.4383 12.2972C11.2483 12.5972 10.8883 12.8572 10.5483 12.9472L9.51828 13.1972Z" fill="white"/>
</svg>
