<svg width="66" height="66" fill="none" xmlns="http://www.w3.org/2000/svg"><path clip-rule="evenodd" d="M19 22.5c0-1.933 1.679-3.5 3.75-3.5h22.5c2.071 0 3.75 1.567 3.75 3.5v14c0 1.933-1.679 3.5-3.75 3.5H34.388a.973.973 0 0 0-.663.256l-5.625 5.25c-.59.551-1.6.161-1.6-.618v-4.013c0-.483-.42-.875-.938-.875H22.75C20.679 40 19 38.433 19 36.5v-14Z" stroke="#FFF"  stroke-width="1.25" stroke-linecap="round"/><path d="M26 26h14M26 33h5.25" stroke="#FFF"  stroke-width="1.25" stroke-linecap="round"/></svg>