<svg width="20" height="20" viewBox="0 0 16 16" fill="none" xmlns="http://www.w3.org/2000/svg">
<path fill-rule="evenodd" clip-rule="evenodd" d="M4 0C1.79086 0 0 1.79086 0 4V12C0 14.2091 1.79086 16 4 16H12C14.2091 16 16 14.2091 16 12V4C16 1.79086 14.2091 0 12 0H4ZM11.6103 6.18593C11.8511 5.84887 11.773 5.38046 11.4359 5.1397C11.0989 4.89894 10.6305 4.97701 10.3897 5.31407L7.1543 9.84364L5.53033 8.21967C5.23744 7.92678 4.76256 7.92678 4.46967 8.21967C4.17678 8.51256 4.17678 8.98744 4.46967 9.28033L6.71967 11.5303C6.87556 11.6862 7.09215 11.7656 7.31186 11.7474C7.53157 11.7293 7.73216 11.6153 7.8603 11.4359L11.6103 6.18593Z" fill="#731054"/>
</svg>
