<svg width="16" height="16" viewBox="0 0 16 16" fill="none" xmlns="http://www.w3.org/2000/svg">
<path d="M8.0026 1.32812C4.32927 1.32812 1.33594 4.32146 1.33594 7.99479C1.33594 11.6681 4.32927 14.6615 8.0026 14.6615C11.6759 14.6615 14.6693 11.6681 14.6693 7.99479C14.6693 4.32146 11.6759 1.32812 8.0026 1.32812ZM11.1893 6.46146L7.40927 10.2415C7.31594 10.3348 7.18927 10.3881 7.05594 10.3881C6.9226 10.3881 6.79594 10.3348 6.7026 10.2415L4.81594 8.35479C4.6226 8.16146 4.6226 7.84146 4.81594 7.64812C5.00927 7.45479 5.32927 7.45479 5.5226 7.64812L7.05594 9.18146L10.4826 5.75479C10.6759 5.56146 10.9959 5.56146 11.1893 5.75479C11.3826 5.94812 11.3826 6.26146 11.1893 6.46146Z" fill="#731054"/>
</svg>
