<svg width="24" height="24" viewBox="0 0 24 24" fill="none" xmlns="http://www.w3.org/2000/svg">
<path d="M17.75 6.5H8.25C8.05109 6.5 7.86032 6.57902 7.71967 6.71967C7.57902 6.86032 7.5 7.05109 7.5 7.25V19.25C7.5 19.4489 7.57902 19.6397 7.71967 19.7803C7.86032 19.921 8.05109 20 8.25 20H17.75C17.9489 20 18.1397 19.921 18.2803 19.7803C18.421 19.6397 18.5 19.4489 18.5 19.25V7.25C18.5 7.05109 18.421 6.86032 18.2803 6.71967C18.1397 6.57902 17.9489 6.5 17.75 6.5V6.5ZM17.5 19H8.5V7.5H17.5V19Z" fill="url(#paint0_linear_7108_4268)" stroke="url(#paint1_linear_7108_4268)" stroke-width="0.5"/>
<path d="M16 4.75C16 4.55109 15.921 4.36032 15.7803 4.21967C15.6397 4.07902 15.4489 4 15.25 4H5.75C5.55109 4 5.36032 4.07902 5.21967 4.21967C5.07902 4.36032 5 4.55109 5 4.75V16.75C5 16.9489 5.07902 17.1397 5.21967 17.2803C5.36032 17.421 5.55109 17.5 5.75 17.5H6V5H16V4.75Z" fill="url(#paint2_linear_7108_4268)" stroke="url(#paint3_linear_7108_4268)" stroke-width="0.5"/>
<defs>
<linearGradient id="paint0_linear_7108_4268" x1="18.5" y1="13.25" x2="8.9623" y2="9.51544" gradientUnits="userSpaceOnUse">
<stop stop-color="#DE0D6F"/>
<stop offset="1" stop-color="#731054"/>
</linearGradient>
<linearGradient id="paint1_linear_7108_4268" x1="18.5" y1="13.25" x2="8.9623" y2="9.51544" gradientUnits="userSpaceOnUse">
<stop stop-color="#DE0D6F"/>
<stop offset="1" stop-color="#731054"/>
</linearGradient>
<linearGradient id="paint2_linear_7108_4268" x1="16" y1="10.75" x2="6.4623" y2="7.01544" gradientUnits="userSpaceOnUse">
<stop stop-color="#DE0D6F"/>
<stop offset="1" stop-color="#731054"/>
</linearGradient>
<linearGradient id="paint3_linear_7108_4268" x1="16" y1="10.75" x2="6.4623" y2="7.01544" gradientUnits="userSpaceOnUse">
<stop stop-color="#DE0D6F"/>
<stop offset="1" stop-color="#731054"/>
</linearGradient>
</defs>
</svg>
