<svg width="16" height="16" viewBox="0 0 16 16" fill="none" xmlns="http://www.w3.org/2000/svg">
<path d="M13.9965 4.48242C13.9832 4.48242 13.9632 4.48242 13.9432 4.48242C10.4165 4.12909 6.89653 3.99575 3.40986 4.34909L2.04986 4.48242C1.76986 4.50909 1.52319 4.30909 1.49653 4.02909C1.46986 3.74909 1.66986 3.50909 1.94319 3.48242L3.30319 3.34909C6.84986 2.98909 10.4432 3.12909 14.0432 3.48242C14.3165 3.50909 14.5165 3.75575 14.4899 4.02909C14.4699 4.28909 14.2499 4.48242 13.9965 4.48242Z" fill="white"/>
<path d="M5.6626 3.8091C5.63594 3.8091 5.60927 3.8091 5.57594 3.80243C5.30927 3.75577 5.1226 3.49577 5.16927 3.2291L5.31594 2.35577C5.4226 1.71577 5.56927 0.829102 7.1226 0.829102H8.86927C10.4293 0.829102 10.5759 1.7491 10.6759 2.36243L10.8226 3.2291C10.8693 3.50243 10.6826 3.76243 10.4159 3.80243C10.1426 3.8491 9.8826 3.66243 9.8426 3.39577L9.69594 2.5291C9.6026 1.9491 9.5826 1.83577 8.87594 1.83577H7.12927C6.4226 1.83577 6.40927 1.9291 6.30927 2.52243L6.15594 3.3891C6.11594 3.63577 5.9026 3.8091 5.6626 3.8091Z" fill="white"/>
<path d="M10.1357 15.1628H5.8557C3.52903 15.1628 3.4357 13.8761 3.36237 12.8361L2.92903 6.12281C2.90903 5.84948 3.12237 5.60948 3.3957 5.58948C3.6757 5.57614 3.90903 5.78281 3.92903 6.05614L4.36237 12.7695C4.4357 13.7828 4.46237 14.1628 5.8557 14.1628H10.1357C11.5357 14.1628 11.5624 13.7828 11.629 12.7695L12.0624 6.05614C12.0824 5.78281 12.3224 5.57614 12.5957 5.58948C12.869 5.60948 13.0824 5.84281 13.0624 6.12281L12.629 12.8361C12.5557 13.8761 12.4624 15.1628 10.1357 15.1628Z" fill="white"/>
<path d="M9.10281 11.4961H6.88281C6.60948 11.4961 6.38281 11.2694 6.38281 10.9961C6.38281 10.7228 6.60948 10.4961 6.88281 10.4961H9.10281C9.37615 10.4961 9.60281 10.7228 9.60281 10.9961C9.60281 11.2694 9.37615 11.4961 9.10281 11.4961Z" fill="white"/>
<path d="M9.66341 8.8291H6.33008C6.05674 8.8291 5.83008 8.60244 5.83008 8.3291C5.83008 8.05577 6.05674 7.8291 6.33008 7.8291H9.66341C9.93674 7.8291 10.1634 8.05577 10.1634 8.3291C10.1634 8.60244 9.93674 8.8291 9.66341 8.8291Z" fill="white"/>
</svg>
