<svg width="56" height="56" viewBox="0 0 56 56" fill="none" xmlns="http://www.w3.org/2000/svg">
<path d="M15 15H16.5V20H15V15ZM15 25.5H16.5V30.5H15V25.5ZM25.5 15H27V20H25.5V15ZM25.5 25.5H27V30.5H25.5V25.5ZM15 36H16.5V41H15V36ZM25.5 36H27V41H25.5V36Z" fill="black" stroke="black"  stroke-width="1.25"/>
<path d="M37.5 21V22H38.5H49C49.663 22 50.2989 22.2634 50.7678 22.7322C51.2366 23.2011 51.5 23.837 51.5 24.5V51.5H4.5V7C4.5 6.33696 4.76339 5.70107 5.23223 5.23223C5.70107 4.76339 6.33696 4.5 7 4.5H35C35.663 4.5 36.2989 4.76339 36.7678 5.23223C37.2366 5.70107 37.5 6.33696 37.5 7V21ZM7 6H6V7V49V50H7H35H36V49V7V6H35H7ZM37.5 49V50H38.5H49H50V49V24.5V23.5H49H38.5H37.5V24.5V49Z" fill="black" stroke="black"  stroke-width="1.25"/>
</svg>
