<svg width="16" height="16" viewBox="0 0 16 16" fill="none" xmlns="http://www.w3.org/2000/svg">
<path d="M10.3867 8.00001C10.3867 9.32001 9.32001 10.3867 8.00001 10.3867C6.68001 10.3867 5.61334 9.32001 5.61334 8.00001C5.61334 6.68001 6.68001 5.61334 8.00001 5.61334C9.32001 5.61334 10.3867 6.68001 10.3867 8.00001Z" stroke="#731054" stroke-linecap="round" stroke-linejoin="round"/>
<path d="M7.99999 13.5133C10.3533 13.5133 12.5467 12.1266 14.0733 9.72665C14.6733 8.78665 14.6733 7.20665 14.0733 6.26665C12.5467 3.86665 10.3533 2.47998 7.99999 2.47998C5.64665 2.47998 3.45332 3.86665 1.92665 6.26665C1.32665 7.20665 1.32665 8.78665 1.92665 9.72665C3.45332 12.1266 5.64665 13.5133 7.99999 13.5133Z" stroke="#731054" stroke-linecap="round" stroke-linejoin="round"/>
</svg>
