<svg width="24" height="24" viewBox="0 0 24 24" fill="none" xmlns="http://www.w3.org/2000/svg">
<path d="M10.9269 22.7534C10.4469 22.7534 9.96692 22.6335 9.52692 22.3935C8.63692 21.8935 8.10687 21.0034 8.10687 19.9934V14.6435C8.10687 14.1335 7.77686 13.3834 7.46686 12.9934L3.66687 9.00345C3.03687 8.37345 2.54688 7.27344 2.54688 6.46344V4.14346C2.54688 2.53346 3.76689 1.27344 5.31689 1.27344H18.6569C20.1869 1.27344 21.4269 2.51346 21.4269 4.04346V6.26346C21.4269 7.31346 20.7969 8.52343 20.1969 9.11343C19.9069 9.40343 19.4269 9.40343 19.1369 9.11343C18.8469 8.82343 18.8469 8.34344 19.1369 8.05344C19.5069 7.68344 19.9269 6.85346 19.9269 6.26346V4.04346C19.9269 3.34346 19.3569 2.77344 18.6569 2.77344H5.31689C4.60689 2.77344 4.04688 3.37346 4.04688 4.14346V6.46344C4.04688 6.83344 4.34688 7.56346 4.73688 7.95346L8.58691 12.0034C9.09691 12.6334 9.59686 13.6935 9.59686 14.6435V19.9934C9.59686 20.6534 10.0469 20.9734 10.2469 21.0834C10.6769 21.3234 11.1869 21.3135 11.5869 21.0735L12.9869 20.1735C13.3369 19.9535 13.7969 20.0534 14.0269 20.4034C14.2469 20.7534 14.1469 21.2135 13.8069 21.4435L12.3969 22.3535C11.9469 22.6135 11.4369 22.7534 10.9269 22.7534Z" fill="black"/>
<path d="M13.6868 18.8888C13.3068 18.8888 12.9468 18.7488 12.6868 18.4888C12.3768 18.1788 12.2368 17.7288 12.3068 17.2588L12.4968 15.9088C12.5468 15.5588 12.7568 15.1488 13.0068 14.8988L16.5467 11.3587C17.0267 10.8787 17.4968 10.6288 18.0068 10.5788C18.6268 10.5188 19.2468 10.7787 19.8268 11.3587C20.4068 11.9387 20.6667 12.5488 20.6067 13.1788C20.5567 13.6788 20.2968 14.1588 19.8268 14.6388L16.2867 18.1788C16.0367 18.4288 15.6168 18.6388 15.2668 18.6888L13.9167 18.8788C13.8367 18.8888 13.7668 18.8888 13.6868 18.8888ZM18.1767 12.0588C18.1667 12.0588 18.1568 12.0588 18.1468 12.0588C18.0068 12.0688 17.8167 12.1888 17.6067 12.4088L14.0668 15.9488C14.0368 15.9788 13.9867 16.0788 13.9867 16.1188L13.8068 17.3688L15.0568 17.1888C15.0968 17.1788 15.1967 17.1288 15.2267 17.0988L18.7668 13.5588C18.9768 13.3488 19.1067 13.1588 19.1167 13.0188C19.1367 12.8188 18.9368 12.5788 18.7668 12.4088C18.6068 12.2488 18.3767 12.0588 18.1767 12.0588Z" fill="black"/>
<path d="M18.7878 15.3603C18.7178 15.3603 18.6478 15.3503 18.5878 15.3303C17.2678 14.9603 16.2178 13.9103 15.8478 12.5903C15.7378 12.1903 15.9678 11.7803 16.3678 11.6603C16.7678 11.5503 17.1778 11.7803 17.2878 12.1803C17.5178 13.0003 18.1678 13.6503 18.9878 13.8803C19.3878 13.9903 19.6178 14.4103 19.5078 14.8103C19.4178 15.1503 19.1178 15.3603 18.7878 15.3603Z" fill="black"/>
</svg>
