<svg width="13" height="16" viewBox="0 0 13 16" fill="none" xmlns="http://www.w3.org/2000/svg">
<path fill-rule="evenodd" clip-rule="evenodd" d="M6.41982 0.799999C5.46505 0.799999 4.54937 1.17928 3.87424 1.85441C3.19911 2.52955 2.81982 3.44522 2.81982 4.4V7.2H2.41982C1.99548 7.2 1.58851 7.36857 1.28845 7.66863C0.988395 7.96869 0.819824 8.37565 0.819824 8.8V13.6C0.819824 14.0243 0.988395 14.4313 1.28845 14.7314C1.58851 15.0314 1.99548 15.2 2.41982 15.2H10.4198C10.8442 15.2 11.2511 15.0314 11.5512 14.7314C11.8513 14.4313 12.0198 14.0243 12.0198 13.6V8.8C12.0198 8.37565 11.8513 7.96869 11.5512 7.66863C11.2511 7.36857 10.8442 7.2 10.4198 7.2H10.0198V4.4C10.0198 3.44522 9.64054 2.52955 8.96541 1.85441C8.29028 1.17928 7.3746 0.799999 6.41982 0.799999ZM8.81983 7.2V4.4C8.81983 3.76348 8.56697 3.15303 8.11688 2.70294C7.66679 2.25286 7.05634 2 6.41982 2C5.78331 2 5.17286 2.25286 4.72277 2.70294C4.27268 3.15303 4.01982 3.76348 4.01982 4.4V7.2H8.81983Z" fill="url(#paint0_linear_704_1025)"/>
<defs>
<linearGradient id="paint0_linear_704_1025" x1="12.0198" y1="8" x2="2.19265" y2="4.32699" gradientUnits="userSpaceOnUse">
<stop stop-color="#DE0D6F"/>
<stop offset="1" stop-color="#731054"/>
</linearGradient>
</defs>
</svg>
