<svg width="24" height="28" viewBox="0 0 24 28" fill="none" xmlns="http://www.w3.org/2000/svg">
<path d="M3.89844 15.3507V13.102C3.89844 8.62738 7.52581 5 12.0004 5V5C16.475 5 20.1024 8.62737 20.1024 13.102V15.9537" stroke="#707070" stroke-width="1.25"/>
<path d="M3 19.3992V18.0887C3 16.1 4.61217 14.4878 6.60087 14.4878C7.59523 14.4878 8.40131 15.2939 8.40131 16.2882V21.1996C8.40131 22.194 7.59523 23.0001 6.60087 23.0001C4.61217 23.0001 3 21.3879 3 19.3992Z" stroke="#707070" stroke-width="1.25"/>
<path d="M21 19.3992V18.0887C21 16.1 19.3878 14.4878 17.3991 14.4878C16.4048 14.4878 15.5987 15.2939 15.5987 16.2882V21.1996C15.5987 22.194 16.4048 23.0001 17.3991 23.0001C19.3878 23.0001 21 21.3879 21 19.3992Z" stroke="#707070" stroke-width="1.25"/>
</svg>
