<svg width="17" height="16" viewBox="0 0 17 16" fill="none" xmlns="http://www.w3.org/2000/svg">
<path d="M8.4974 0.822916C12.4507 0.822916 15.6641 4.03625 15.6641 7.98958C15.6641 11.9429 12.4507 15.1562 8.4974 15.1562C4.54406 15.1562 1.33073 11.9429 1.33073 7.98958C1.33073 4.03625 4.54406 0.822916 8.4974 0.822916ZM8.4974 14.1562C11.8974 14.1562 14.6641 11.3896 14.6641 7.98958C14.6641 4.58958 11.8974 1.82292 8.4974 1.82292C5.0974 1.82292 2.33073 4.58958 2.33073 7.98958C2.33073 11.3896 5.0974 14.1562 8.4974 14.1562Z" fill="url(#paint0_linear_19068_16155)"/>
<path d="M8.5 6.82292C8.77333 6.82292 9 7.04958 9 7.32292V10.6562C9 10.9296 8.77333 11.1562 8.5 11.1562C8.22667 11.1562 8 10.9296 8 10.6562V7.32292C8 7.04958 8.22667 6.82292 8.5 6.82292Z" fill="url(#paint1_linear_19068_16155)"/>
<path d="M8.4974 4.65437C8.58406 4.65437 8.67073 4.67437 8.75073 4.70771C8.83073 4.74104 8.90406 4.78771 8.97073 4.84771C9.03073 4.91438 9.0774 4.98104 9.11073 5.06771C9.14406 5.14771 9.16406 5.23437 9.16406 5.32104C9.16406 5.40771 9.14406 5.49438 9.11073 5.57438C9.0774 5.65438 9.03073 5.72771 8.97073 5.79437C8.90406 5.85437 8.83073 5.90104 8.75073 5.93437C8.59073 6.00104 8.40406 6.00104 8.24406 5.93437C8.16406 5.90104 8.09073 5.85437 8.02406 5.79437C7.96406 5.72771 7.9174 5.65438 7.88406 5.57438C7.85073 5.49438 7.83073 5.40771 7.83073 5.32104C7.83073 5.23437 7.85073 5.14771 7.88406 5.06771C7.9174 4.98104 7.96406 4.91438 8.02406 4.84771C8.09073 4.78771 8.16406 4.74104 8.24406 4.70771C8.32406 4.67437 8.41073 4.65437 8.4974 4.65437Z" fill="url(#paint2_linear_19068_16155)"/>
<defs>
<linearGradient id="paint0_linear_19068_16155" x1="1.33073" y1="7.98958" x2="12.9751" y2="13.5853" gradientUnits="userSpaceOnUse">
<stop stop-color="#DE0D6F"/>
<stop offset="1" stop-color="#731054"/>
</linearGradient>
<linearGradient id="paint1_linear_19068_16155" x1="8" y1="8.98958" x2="8.98785" y2="9.09913" gradientUnits="userSpaceOnUse">
<stop stop-color="#DE0D6F"/>
<stop offset="1" stop-color="#731054"/>
</linearGradient>
<linearGradient id="paint2_linear_19068_16155" x1="7.83073" y1="5.31937" x2="8.9129" y2="5.84072" gradientUnits="userSpaceOnUse">
<stop stop-color="#DE0D6F"/>
<stop offset="1" stop-color="#731054"/>
</linearGradient>
</defs>
</svg>
