<svg width="32" height="32" viewBox="0 0 32 32" fill="none" xmlns="http://www.w3.org/2000/svg">
<path d="M15.9998 29.3333C23.3332 29.3333 29.3332 23.3333 29.3332 16C29.3332 8.66667 23.3332 2.66667 15.9998 2.66667C8.6665 2.66667 2.6665 8.66667 2.6665 16C2.6665 23.3333 8.6665 29.3333 15.9998 29.3333Z" stroke="#040404" stroke-width="1.5" stroke-linecap="round" stroke-linejoin="round"/>
<path d="M15.9998 29.3333C23.3332 29.3333 29.3332 23.3333 29.3332 16C29.3332 8.66667 23.3332 2.66667 15.9998 2.66667C8.6665 2.66667 2.6665 8.66667 2.6665 16C2.6665 23.3333 8.6665 29.3333 15.9998 29.3333Z" stroke="black" stroke-opacity="0.2" stroke-width="1.5" stroke-linecap="round" stroke-linejoin="round"/>
<path d="M15.9998 29.3333C23.3332 29.3333 29.3332 23.3333 29.3332 16C29.3332 8.66667 23.3332 2.66667 15.9998 2.66667C8.6665 2.66667 2.6665 8.66667 2.6665 16C2.6665 23.3333 8.6665 29.3333 15.9998 29.3333Z" stroke="black" stroke-opacity="0.2" stroke-width="1.5" stroke-linecap="round" stroke-linejoin="round"/>
<path d="M15.9998 29.3333C23.3332 29.3333 29.3332 23.3333 29.3332 16C29.3332 8.66667 23.3332 2.66667 15.9998 2.66667C8.6665 2.66667 2.6665 8.66667 2.6665 16C2.6665 23.3333 8.6665 29.3333 15.9998 29.3333Z" stroke="black" stroke-opacity="0.2" stroke-width="1.5" stroke-linecap="round" stroke-linejoin="round"/>
<path d="M15.9998 29.3333C23.3332 29.3333 29.3332 23.3333 29.3332 16C29.3332 8.66667 23.3332 2.66667 15.9998 2.66667C8.6665 2.66667 2.6665 8.66667 2.6665 16C2.6665 23.3333 8.6665 29.3333 15.9998 29.3333Z" stroke="black" stroke-opacity="0.2" stroke-width="1.5" stroke-linecap="round" stroke-linejoin="round"/>
<path d="M15.9998 29.3333C23.3332 29.3333 29.3332 23.3333 29.3332 16C29.3332 8.66667 23.3332 2.66667 15.9998 2.66667C8.6665 2.66667 2.6665 8.66667 2.6665 16C2.6665 23.3333 8.6665 29.3333 15.9998 29.3333Z" stroke="black" stroke-opacity="0.2" stroke-width="1.5" stroke-linecap="round" stroke-linejoin="round"/>
<path d="M15.9998 29.3333C23.3332 29.3333 29.3332 23.3333 29.3332 16C29.3332 8.66667 23.3332 2.66667 15.9998 2.66667C8.6665 2.66667 2.6665 8.66667 2.6665 16C2.6665 23.3333 8.6665 29.3333 15.9998 29.3333Z" stroke="black" stroke-opacity="0.2" stroke-width="1.5" stroke-linecap="round" stroke-linejoin="round"/>
<path d="M15.9998 29.3333C23.3332 29.3333 29.3332 23.3333 29.3332 16C29.3332 8.66667 23.3332 2.66667 15.9998 2.66667C8.6665 2.66667 2.6665 8.66667 2.6665 16C2.6665 23.3333 8.6665 29.3333 15.9998 29.3333Z" stroke="black" stroke-opacity="0.2" stroke-width="1.5" stroke-linecap="round" stroke-linejoin="round"/>
<path d="M15.9998 29.3333C23.3332 29.3333 29.3332 23.3333 29.3332 16C29.3332 8.66667 23.3332 2.66667 15.9998 2.66667C8.6665 2.66667 2.6665 8.66667 2.6665 16C2.6665 23.3333 8.6665 29.3333 15.9998 29.3333Z" stroke="black" stroke-opacity="0.2" stroke-width="1.5" stroke-linecap="round" stroke-linejoin="round"/>
<path d="M16 10.6667V17.3333" stroke="#040404" stroke-width="1.5" stroke-linecap="round" stroke-linejoin="round"/>
<path d="M16 10.6667V17.3333" stroke="black" stroke-opacity="0.2" stroke-width="1.5" stroke-linecap="round" stroke-linejoin="round"/>
<path d="M16 10.6667V17.3333" stroke="black" stroke-opacity="0.2" stroke-width="1.5" stroke-linecap="round" stroke-linejoin="round"/>
<path d="M16 10.6667V17.3333" stroke="black" stroke-opacity="0.2" stroke-width="1.5" stroke-linecap="round" stroke-linejoin="round"/>
<path d="M16 10.6667V17.3333" stroke="black" stroke-opacity="0.2" stroke-width="1.5" stroke-linecap="round" stroke-linejoin="round"/>
<path d="M16 10.6667V17.3333" stroke="black" stroke-opacity="0.2" stroke-width="1.5" stroke-linecap="round" stroke-linejoin="round"/>
<path d="M16 10.6667V17.3333" stroke="black" stroke-opacity="0.2" stroke-width="1.5" stroke-linecap="round" stroke-linejoin="round"/>
<path d="M16 10.6667V17.3333" stroke="black" stroke-opacity="0.2" stroke-width="1.5" stroke-linecap="round" stroke-linejoin="round"/>
<path d="M16 10.6667V17.3333" stroke="black" stroke-opacity="0.2" stroke-width="1.5" stroke-linecap="round" stroke-linejoin="round"/>
<path d="M15.9927 21.3333H16.0047" stroke="#040404" stroke-width="2" stroke-linecap="round" stroke-linejoin="round"/>
<path d="M15.9927 21.3333H16.0047" stroke="black" stroke-opacity="0.2" stroke-width="2" stroke-linecap="round" stroke-linejoin="round"/>
<path d="M15.9927 21.3333H16.0047" stroke="black" stroke-opacity="0.2" stroke-width="2" stroke-linecap="round" stroke-linejoin="round"/>
<path d="M15.9927 21.3333H16.0047" stroke="black" stroke-opacity="0.2" stroke-width="2" stroke-linecap="round" stroke-linejoin="round"/>
<path d="M15.9927 21.3333H16.0047" stroke="black" stroke-opacity="0.2" stroke-width="2" stroke-linecap="round" stroke-linejoin="round"/>
<path d="M15.9927 21.3333H16.0047" stroke="black" stroke-opacity="0.2" stroke-width="2" stroke-linecap="round" stroke-linejoin="round"/>
<path d="M15.9927 21.3333H16.0047" stroke="black" stroke-opacity="0.2" stroke-width="2" stroke-linecap="round" stroke-linejoin="round"/>
<path d="M15.9927 21.3333H16.0047" stroke="black" stroke-opacity="0.2" stroke-width="2" stroke-linecap="round" stroke-linejoin="round"/>
<path d="M15.9927 21.3333H16.0047" stroke="black" stroke-opacity="0.2" stroke-width="2" stroke-linecap="round" stroke-linejoin="round"/>
</svg>
