<svg width="16" height="17" viewBox="0 0 16 17" fill="none" xmlns="http://www.w3.org/2000/svg">
<path d="M8.00033 1.32487C11.9537 1.32487 15.167 4.5382 15.167 8.49154C15.167 12.4449 11.9537 15.6582 8.00033 15.6582C4.04699 15.6582 0.833658 12.4449 0.833658 8.49154C0.833658 4.5382 4.04699 1.32487 8.00033 1.32487ZM8.00033 14.6582C11.4003 14.6582 14.167 11.8915 14.167 8.49154C14.167 5.09154 11.4003 2.32487 8.00033 2.32487C4.60033 2.32487 1.83366 5.09154 1.83366 8.49154C1.83366 11.8915 4.60033 14.6582 8.00033 14.6582Z" fill="#8F8F8F"/>
<path d="M8 7.32487C8.27333 7.32487 8.5 7.55154 8.5 7.82487V11.1582C8.5 11.4315 8.27333 11.6582 8 11.6582C7.72667 11.6582 7.5 11.4315 7.5 11.1582V7.82487C7.5 7.55154 7.72667 7.32487 8 7.32487Z" fill="#8F8F8F"/>
<path d="M8.00033 5.15828C8.08699 5.15828 8.17366 5.17828 8.25366 5.21161C8.33366 5.24495 8.40699 5.29162 8.47366 5.35162C8.53366 5.41828 8.58033 5.48495 8.61366 5.57162C8.64699 5.65162 8.66699 5.73828 8.66699 5.82495C8.66699 5.91161 8.64699 5.99828 8.61366 6.07828C8.58033 6.15828 8.53366 6.23161 8.47366 6.29828C8.40699 6.35828 8.33366 6.40495 8.25366 6.43828C8.09366 6.50495 7.90699 6.50495 7.74699 6.43828C7.66699 6.40495 7.59366 6.35828 7.52699 6.29828C7.46699 6.23161 7.42033 6.15828 7.38699 6.07828C7.35366 5.99828 7.33366 5.91161 7.33366 5.82495C7.33366 5.73828 7.35366 5.65162 7.38699 5.57162C7.42033 5.48495 7.46699 5.41828 7.52699 5.35162C7.59366 5.29162 7.66699 5.24495 7.74699 5.21161C7.82699 5.17828 7.91366 5.15828 8.00033 5.15828Z" fill="#8F8F8F"/>
</svg>
