<svg width="16" height="16" viewBox="0 0 16 16" fill="none" xmlns="http://www.w3.org/2000/svg">
<path d="M8.6624 7.83219C8.53573 7.83219 8.40906 7.78552 8.30906 7.68552C8.11573 7.49219 8.11573 7.17219 8.30906 6.97885L13.7757 1.51219C13.9691 1.31885 14.2891 1.31885 14.4824 1.51219C14.6757 1.70552 14.6757 2.02552 14.4824 2.21885L9.01573 7.68552C8.91573 7.78552 8.78906 7.83219 8.6624 7.83219Z" fill="white"/>
<path d="M14.6688 5.03594C14.3954 5.03594 14.1687 4.80927 14.1687 4.53594V1.83594H11.4688C11.1954 1.83594 10.9688 1.60927 10.9688 1.33594C10.9688 1.0626 11.1954 0.835938 11.4688 0.835938H14.6688C14.9421 0.835938 15.1687 1.0626 15.1687 1.33594V4.53594C15.1687 4.80927 14.9421 5.03594 14.6688 5.03594Z" fill="white"/>
<path d="M10.0026 15.1693H6.0026C2.3826 15.1693 0.835938 13.6226 0.835938 10.0026V6.0026C0.835938 2.3826 2.3826 0.835938 6.0026 0.835938H7.33594C7.60927 0.835938 7.83594 1.0626 7.83594 1.33594C7.83594 1.60927 7.60927 1.83594 7.33594 1.83594H6.0026C2.92927 1.83594 1.83594 2.92927 1.83594 6.0026V10.0026C1.83594 13.0759 2.92927 14.1693 6.0026 14.1693H10.0026C13.0759 14.1693 14.1693 13.0759 14.1693 10.0026V8.66927C14.1693 8.39594 14.3959 8.16927 14.6693 8.16927C14.9426 8.16927 15.1693 8.39594 15.1693 8.66927V10.0026C15.1693 13.6226 13.6226 15.1693 10.0026 15.1693Z" fill="white"/>
</svg>
