<svg width="24" height="24" viewBox="0 0 24 24" fill="none" xmlns="http://www.w3.org/2000/svg">
<path d="M12.94 8.43803C13.5899 8.74828 14.1557 9.20996 14.5901 9.78427C15.0245 10.3586 15.3148 11.0287 15.4365 11.7385C15.5581 12.4482 15.5077 13.1768 15.2894 13.863C15.0712 14.5492 14.6914 15.173 14.182 15.682L9.68203 20.182C8.83811 21.0259 7.69351 21.5001 6.50003 21.5001C5.30655 21.5001 4.16195 21.0259 3.31803 20.182C2.47411 19.3381 2 18.1935 2 17C2 15.8065 2.47411 14.6619 3.31803 13.818L5.07503 12.061M18.425 11.439L20.182 9.68203C21.0259 8.83811 21.5001 7.69351 21.5001 6.50003C21.5001 5.30655 21.0259 4.16195 20.182 3.31803C19.3381 2.47411 18.1935 2 17 2C15.8065 2 14.6619 2.47411 13.818 3.31803L9.31803 7.81803C8.80866 8.32703 8.42889 8.95084 8.21061 9.63705C7.99233 10.3233 7.94191 11.0518 8.0636 11.7616C8.18528 12.4713 8.47552 13.1415 8.90992 13.7158C9.34432 14.2901 9.9102 14.7518 10.56 15.062" stroke="black" stroke-width="1.25" stroke-linecap="round" stroke-linejoin="round"/>
</svg>
