<svg width="24" height="24" viewBox="0 0 24 24" fill="none" xmlns="http://www.w3.org/2000/svg">
<g clip-path="url(#clip0_9583_44856)">
<path fill-rule="evenodd" clip-rule="evenodd" d="M24 3C24 1.34423 22.6558 0 21 0H3C1.34423 0 0 1.34423 0 3V21C0 22.6558 1.34423 24 3 24H21C22.6558 24 24 22.6558 24 21V3Z" fill="#2867B2"/>
<path d="M6.87937 8.375H2.85938V20.467H6.87937V8.375Z" fill="white"/>
<path d="M4.899 2.54688C3.52364 2.54688 2.625 3.45109 2.625 4.63623C2.625 5.79648 3.49631 6.72564 4.8458 6.72564H4.87177C6.27347 6.72564 7.14595 5.79648 7.14595 4.63623C7.11994 3.45109 6.27356 2.54688 4.899 2.54688Z" fill="white"/>
<path d="M16.7507 8.09375C14.6183 8.09375 13.6632 9.26642 13.1283 10.0901V8.37809H9.10938C9.16267 9.51233 9.10938 20.47 9.10938 20.47H13.1283V13.717C13.1283 13.3556 13.1543 12.9942 13.2608 12.7359C13.5509 12.014 14.2126 11.2663 15.323 11.2663C16.7767 11.2663 17.359 12.3755 17.359 14.0003V20.47H21.3782V13.5358C21.3782 9.82156 19.3951 8.09375 16.7507 8.09375Z" fill="white"/>
</g>
<defs>
<clipPath id="clip0_9583_44856">
<rect width="24" height="24" fill="white"/>
</clipPath>
</defs>
</svg>
