<svg xmlns="http://www.w3.org/2000/svg" width="16" height="16" viewBox="0 0 16 16" fill="none">
  <path fill-rule="evenodd" clip-rule="evenodd" d="M7.99844 0.796875C7.04366 0.796875 6.12798 1.17616 5.45285 1.85129C4.77772 2.52642 4.39844 3.4421 4.39844 4.39687V7.19687H3.99844C3.57409 7.19687 3.16712 7.36545 2.86707 7.6655C2.56701 7.96556 2.39844 8.37253 2.39844 8.79687V13.5969C2.39844 14.0212 2.56701 14.4282 2.86707 14.7282C3.16712 15.0283 3.57409 15.1969 3.99844 15.1969H11.9984C12.4228 15.1969 12.8298 15.0283 13.1298 14.7282C13.4299 14.4282 13.5984 14.0212 13.5984 13.5969V8.79687C13.5984 8.37253 13.4299 7.96556 13.1298 7.6655C12.8298 7.36545 12.4228 7.19687 11.9984 7.19687H11.5984V4.39687C11.5984 3.4421 11.2192 2.52642 10.544 1.85129C9.86889 1.17616 8.95322 0.796875 7.99844 0.796875ZM10.3984 7.19687V4.39687C10.3984 3.76036 10.1456 3.14991 9.69549 2.69982C9.24541 2.24973 8.63496 1.99687 7.99844 1.99687C7.36192 1.99687 6.75147 2.24973 6.30138 2.69982C5.85129 3.14991 5.59844 3.76036 5.59844 4.39687V7.19687H10.3984Z" fill="#731054"/>
</svg>