<svg width="12" height="16" viewBox="0 0 12 16" fill="none" xmlns="http://www.w3.org/2000/svg">
<path fill-rule="evenodd" clip-rule="evenodd" d="M5.99844 0.796875C5.04366 0.796875 4.12798 1.17616 3.45285 1.85129C2.77772 2.52642 2.39844 3.4421 2.39844 4.39687V7.19687H1.99844C1.57409 7.19687 1.16712 7.36545 0.867067 7.6655C0.567008 7.96556 0.398438 8.37253 0.398438 8.79687V13.5969C0.398438 14.0212 0.567008 14.4282 0.867067 14.7282C1.16712 15.0283 1.57409 15.1969 1.99844 15.1969H9.99844C10.4228 15.1969 10.8298 15.0283 11.1298 14.7282C11.4299 14.4282 11.5984 14.0212 11.5984 13.5969V8.79687C11.5984 8.37253 11.4299 7.96556 11.1298 7.6655C10.8298 7.36545 10.4228 7.19687 9.99844 7.19687H9.59844V4.39687C9.59844 3.4421 9.21915 2.52642 8.54402 1.85129C7.86889 1.17616 6.95322 0.796875 5.99844 0.796875ZM8.39844 7.19687V4.39687C8.39844 3.76036 8.14558 3.14991 7.69549 2.69982C7.24541 2.24973 6.63496 1.99687 5.99844 1.99687C5.36192 1.99687 4.75147 2.24973 4.30138 2.69982C3.85129 3.14991 3.59844 3.76036 3.59844 4.39687V7.19687H8.39844Z" fill="url(#paint0_linear_15436_59257)"/>
<defs>
<linearGradient id="paint0_linear_15436_59257" x1="11.5984" y1="7.99687" x2="1.77126" y2="4.32387" gradientUnits="userSpaceOnUse">
<stop stop-color="#DE0D6F"/>
<stop offset="1" stop-color="#731054"/>
</linearGradient>
</defs>
</svg>
