<svg width="24" height="24" fill="none" xmlns="http://www.w3.org/2000/svg"><path d="M4 18v-.65c0-.34.16-.66.41-.81C6.1 15.53 8.03 15 10 15c.03 0 .05 0 .08.01.1-.7.3-1.37.59-1.98-.22-.02-.44-.03-.67-.03-2.42 0-4.68.67-6.61 1.82-.88.52-1.39 1.5-1.39 2.53V20h9.26c-.42-.6-.75-1.28-.97-2H4Zm6-6c2.21 0 4-1.79 4-4s-1.79-4-4-4-4 1.79-4 4 1.79 4 4 4Zm0-6c1.1 0 2 .9 2 2s-.9 2-2 2-2-.9-2-2 .9-2 2-2Zm10.75 10c0-.22-.03-.42-.06-.63l1.14-1.01-1-1.73-1.45.49c-.32-.27-.68-.48-1.08-.63L18 11h-2l-.3 1.49c-.4.15-.76.36-1.08.63l-1.45-.49-1 1.73 1.14 1.01c-.03.21-.06.41-.06.63 0 .22.03.42.06.63l-1.14 1.01 1 1.73 1.45-.49c.32.27.68.48 1.08.63L16 21h2l.3-1.49c.4-.15.76-.36 1.08-.63l1.45.49 1-1.73-1.14-1.01c.03-.21.06-.41.06-.63ZM17 18c-1.1 0-2-.9-2-2s.9-2 2-2 2 .9 2 2-.9 2-2 2Z" fill="url(#a)"/><defs><linearGradient id="a" x1="21.83" y1="12.5" x2="6.741" y2="4.042" gradientUnits="userSpaceOnUse"><stop stop-color="#DE0D6F"/><stop offset="1" stop-color="#731054"/></linearGradient></defs></svg>