<svg width="10" height="13" viewBox="0 0 10 13" fill="none" xmlns="http://www.w3.org/2000/svg">
<path d="M0 5L5 0L10 5H0Z" fill="#040404"/>
<path d="M0 5L5 0L10 5H0Z" fill="black" fill-opacity="0.2"/>
<path d="M0 5L5 0L10 5H0Z" fill="black" fill-opacity="0.2"/>
<path d="M0 5L5 0L10 5H0Z" fill="black" fill-opacity="0.2"/>
<path d="M0 5L5 0L10 5H0Z" fill="black" fill-opacity="0.2"/>
<path d="M0 5L5 0L10 5H0Z" fill="black" fill-opacity="0.2"/>
<path d="M0 5L5 0L10 5H0Z" fill="black" fill-opacity="0.2"/>
<path d="M0 5L5 0L10 5H0Z" fill="black" fill-opacity="0.2"/>
<path d="M0 5L5 0L10 5H0Z" fill="black" fill-opacity="0.2"/>
<path d="M0 8L5 13L10 8H0Z" fill="#040404"/>
<path d="M0 8L5 13L10 8H0Z" fill="black" fill-opacity="0.2"/>
<path d="M0 8L5 13L10 8H0Z" fill="black" fill-opacity="0.2"/>
<path d="M0 8L5 13L10 8H0Z" fill="black" fill-opacity="0.2"/>
<path d="M0 8L5 13L10 8H0Z" fill="black" fill-opacity="0.2"/>
<path d="M0 8L5 13L10 8H0Z" fill="black" fill-opacity="0.2"/>
<path d="M0 8L5 13L10 8H0Z" fill="black" fill-opacity="0.2"/>
<path d="M0 8L5 13L10 8H0Z" fill="black" fill-opacity="0.2"/>
<path d="M0 8L5 13L10 8H0Z" fill="black" fill-opacity="0.2"/>
</svg>
