<svg width="20" height="20" viewBox="0 0 20 20" fill="none" xmlns="http://www.w3.org/2000/svg">
<path d="M15.8359 6.25V8.75M15.8359 8.75V11.25M15.8359 8.75H18.3359M15.8359 8.75H13.3359M11.4609 5.3125C11.4609 5.68184 11.3882 6.04757 11.2468 6.3888C11.1055 6.73003 10.8983 7.04007 10.6372 7.30124C10.376 7.5624 10.066 7.76957 9.72473 7.91091C9.38351 8.05225 9.01778 8.125 8.64844 8.125C8.27909 8.125 7.91337 8.05225 7.57214 7.91091C7.23091 7.76957 6.92086 7.5624 6.6597 7.30124C6.39853 7.04007 6.19137 6.73003 6.05003 6.3888C5.90868 6.04757 5.83594 5.68184 5.83594 5.3125C5.83594 4.56658 6.13225 3.85121 6.6597 3.32376C7.18715 2.79632 7.90252 2.5 8.64844 2.5C9.39436 2.5 10.1097 2.79632 10.6372 3.32376C11.1646 3.85121 11.4609 4.56658 11.4609 5.3125ZM3.33594 16.0292V15.9375C3.33594 14.5285 3.89565 13.1773 4.89193 12.181C5.88822 11.1847 7.23947 10.625 8.64844 10.625C10.0574 10.625 11.4087 11.1847 12.4049 12.181C13.4012 13.1773 13.9609 14.5285 13.9609 15.9375V16.0283C12.3572 16.9942 10.5198 17.5032 8.6476 17.5C6.7051 17.5 4.8876 16.9625 3.33594 16.0283V16.0292Z" stroke="#731054" stroke-width="1.25" stroke-linecap="round" stroke-linejoin="round"/>
</svg>
