<svg width="32" height="40" viewBox="0 0 32 40" fill="none" xmlns="http://www.w3.org/2000/svg">
<path d="M28.8933 17.9363L27.5866 23.5096C26.4666 28.323 24.2533 30.2696 20.0933 29.8696C19.4266 29.8163 18.7066 29.6963 17.9333 29.5096L15.6933 28.9763C10.1333 27.6563 8.41326 24.9096 9.71993 19.3363L11.0266 13.7496C11.2933 12.6163 11.6133 11.6296 12.0133 10.8163C13.5733 7.58962 16.2266 6.72295 20.6799 7.77629L22.9066 8.29629C28.4933 9.60295 30.1999 12.363 28.8933 17.9363Z" stroke="#040404" stroke-width="1.5" stroke-linecap="round" stroke-linejoin="round"/>
<path d="M28.8933 17.9363L27.5866 23.5096C26.4666 28.323 24.2533 30.2696 20.0933 29.8696C19.4266 29.8163 18.7066 29.6963 17.9333 29.5096L15.6933 28.9763C10.1333 27.6563 8.41326 24.9096 9.71993 19.3363L11.0266 13.7496C11.2933 12.6163 11.6133 11.6296 12.0133 10.8163C13.5733 7.58962 16.2266 6.72295 20.6799 7.77629L22.9066 8.29629C28.4933 9.60295 30.1999 12.363 28.8933 17.9363Z" stroke="black" stroke-opacity="0.2" stroke-width="1.5" stroke-linecap="round" stroke-linejoin="round"/>
<path d="M28.8933 17.9363L27.5866 23.5096C26.4666 28.323 24.2533 30.2696 20.0933 29.8696C19.4266 29.8163 18.7066 29.6963 17.9333 29.5096L15.6933 28.9763C10.1333 27.6563 8.41326 24.9096 9.71993 19.3363L11.0266 13.7496C11.2933 12.6163 11.6133 11.6296 12.0133 10.8163C13.5733 7.58962 16.2266 6.72295 20.6799 7.77629L22.9066 8.29629C28.4933 9.60295 30.1999 12.363 28.8933 17.9363Z" stroke="black" stroke-opacity="0.2" stroke-width="1.5" stroke-linecap="round" stroke-linejoin="round"/>
<path d="M28.8933 17.9363L27.5866 23.5096C26.4666 28.323 24.2533 30.2696 20.0933 29.8696C19.4266 29.8163 18.7066 29.6963 17.9333 29.5096L15.6933 28.9763C10.1333 27.6563 8.41326 24.9096 9.71993 19.3363L11.0266 13.7496C11.2933 12.6163 11.6133 11.6296 12.0133 10.8163C13.5733 7.58962 16.2266 6.72295 20.6799 7.77629L22.9066 8.29629C28.4933 9.60295 30.1999 12.363 28.8933 17.9363Z" stroke="black" stroke-opacity="0.2" stroke-width="1.5" stroke-linecap="round" stroke-linejoin="round"/>
<path d="M28.8933 17.9363L27.5866 23.5096C26.4666 28.323 24.2533 30.2696 20.0933 29.8696C19.4266 29.8163 18.7066 29.6963 17.9333 29.5096L15.6933 28.9763C10.1333 27.6563 8.41326 24.9096 9.71993 19.3363L11.0266 13.7496C11.2933 12.6163 11.6133 11.6296 12.0133 10.8163C13.5733 7.58962 16.2266 6.72295 20.6799 7.77629L22.9066 8.29629C28.4933 9.60295 30.1999 12.363 28.8933 17.9363Z" stroke="black" stroke-opacity="0.2" stroke-width="1.5" stroke-linecap="round" stroke-linejoin="round"/>
<path d="M28.8933 17.9363L27.5866 23.5096C26.4666 28.323 24.2533 30.2696 20.0933 29.8696C19.4266 29.8163 18.7066 29.6963 17.9333 29.5096L15.6933 28.9763C10.1333 27.6563 8.41326 24.9096 9.71993 19.3363L11.0266 13.7496C11.2933 12.6163 11.6133 11.6296 12.0133 10.8163C13.5733 7.58962 16.2266 6.72295 20.6799 7.77629L22.9066 8.29629C28.4933 9.60295 30.1999 12.363 28.8933 17.9363Z" stroke="black" stroke-opacity="0.2" stroke-width="1.5" stroke-linecap="round" stroke-linejoin="round"/>
<path d="M28.8933 17.9363L27.5866 23.5096C26.4666 28.323 24.2533 30.2696 20.0933 29.8696C19.4266 29.8163 18.7066 29.6963 17.9333 29.5096L15.6933 28.9763C10.1333 27.6563 8.41326 24.9096 9.71993 19.3363L11.0266 13.7496C11.2933 12.6163 11.6133 11.6296 12.0133 10.8163C13.5733 7.58962 16.2266 6.72295 20.6799 7.77629L22.9066 8.29629C28.4933 9.60295 30.1999 12.363 28.8933 17.9363Z" stroke="black" stroke-opacity="0.2" stroke-width="1.5" stroke-linecap="round" stroke-linejoin="round"/>
<path d="M28.8933 17.9363L27.5866 23.5096C26.4666 28.323 24.2533 30.2696 20.0933 29.8696C19.4266 29.8163 18.7066 29.6963 17.9333 29.5096L15.6933 28.9763C10.1333 27.6563 8.41326 24.9096 9.71993 19.3363L11.0266 13.7496C11.2933 12.6163 11.6133 11.6296 12.0133 10.8163C13.5733 7.58962 16.2266 6.72295 20.6799 7.77629L22.9066 8.29629C28.4933 9.60295 30.1999 12.363 28.8933 17.9363Z" stroke="black" stroke-opacity="0.2" stroke-width="1.5" stroke-linecap="round" stroke-linejoin="round"/>
<path d="M28.8933 17.9363L27.5866 23.5096C26.4666 28.323 24.2533 30.2696 20.0933 29.8696C19.4266 29.8163 18.7066 29.6963 17.9333 29.5096L15.6933 28.9763C10.1333 27.6563 8.41326 24.9096 9.71993 19.3363L11.0266 13.7496C11.2933 12.6163 11.6133 11.6296 12.0133 10.8163C13.5733 7.58962 16.2266 6.72295 20.6799 7.77629L22.9066 8.29629C28.4933 9.60295 30.1999 12.363 28.8933 17.9363Z" stroke="black" stroke-opacity="0.2" stroke-width="1.5" stroke-linecap="round" stroke-linejoin="round"/>
<path d="M20.0961 29.8736C19.2694 30.4336 18.2294 30.9003 16.9627 31.3136L14.8561 32.007C9.56275 33.7136 6.77608 32.287 5.05608 26.9936L3.34941 21.727C1.64275 16.4336 3.05608 13.6336 8.34941 11.927L10.4561 11.2336C11.0027 11.0603 11.5227 10.9136 12.0161 10.8203C11.6161 11.6336 11.2961 12.6203 11.0294 13.7536L9.72275 19.3403C8.41608 24.9136 10.1361 27.6603 15.6961 28.9803L17.9361 29.5136C18.7094 29.7003 19.4294 29.8203 20.0961 29.8736Z" stroke="#040404" stroke-width="1.5" stroke-linecap="round" stroke-linejoin="round"/>
<path d="M20.0961 29.8736C19.2694 30.4336 18.2294 30.9003 16.9627 31.3136L14.8561 32.007C9.56275 33.7136 6.77608 32.287 5.05608 26.9936L3.34941 21.727C1.64275 16.4336 3.05608 13.6336 8.34941 11.927L10.4561 11.2336C11.0027 11.0603 11.5227 10.9136 12.0161 10.8203C11.6161 11.6336 11.2961 12.6203 11.0294 13.7536L9.72275 19.3403C8.41608 24.9136 10.1361 27.6603 15.6961 28.9803L17.9361 29.5136C18.7094 29.7003 19.4294 29.8203 20.0961 29.8736Z" stroke="black" stroke-opacity="0.2" stroke-width="1.5" stroke-linecap="round" stroke-linejoin="round"/>
<path d="M20.0961 29.8736C19.2694 30.4336 18.2294 30.9003 16.9627 31.3136L14.8561 32.007C9.56275 33.7136 6.77608 32.287 5.05608 26.9936L3.34941 21.727C1.64275 16.4336 3.05608 13.6336 8.34941 11.927L10.4561 11.2336C11.0027 11.0603 11.5227 10.9136 12.0161 10.8203C11.6161 11.6336 11.2961 12.6203 11.0294 13.7536L9.72275 19.3403C8.41608 24.9136 10.1361 27.6603 15.6961 28.9803L17.9361 29.5136C18.7094 29.7003 19.4294 29.8203 20.0961 29.8736Z" stroke="black" stroke-opacity="0.2" stroke-width="1.5" stroke-linecap="round" stroke-linejoin="round"/>
<path d="M20.0961 29.8736C19.2694 30.4336 18.2294 30.9003 16.9627 31.3136L14.8561 32.007C9.56275 33.7136 6.77608 32.287 5.05608 26.9936L3.34941 21.727C1.64275 16.4336 3.05608 13.6336 8.34941 11.927L10.4561 11.2336C11.0027 11.0603 11.5227 10.9136 12.0161 10.8203C11.6161 11.6336 11.2961 12.6203 11.0294 13.7536L9.72275 19.3403C8.41608 24.9136 10.1361 27.6603 15.6961 28.9803L17.9361 29.5136C18.7094 29.7003 19.4294 29.8203 20.0961 29.8736Z" stroke="black" stroke-opacity="0.2" stroke-width="1.5" stroke-linecap="round" stroke-linejoin="round"/>
<path d="M20.0961 29.8736C19.2694 30.4336 18.2294 30.9003 16.9627 31.3136L14.8561 32.007C9.56275 33.7136 6.77608 32.287 5.05608 26.9936L3.34941 21.727C1.64275 16.4336 3.05608 13.6336 8.34941 11.927L10.4561 11.2336C11.0027 11.0603 11.5227 10.9136 12.0161 10.8203C11.6161 11.6336 11.2961 12.6203 11.0294 13.7536L9.72275 19.3403C8.41608 24.9136 10.1361 27.6603 15.6961 28.9803L17.9361 29.5136C18.7094 29.7003 19.4294 29.8203 20.0961 29.8736Z" stroke="black" stroke-opacity="0.2" stroke-width="1.5" stroke-linecap="round" stroke-linejoin="round"/>
<path d="M20.0961 29.8736C19.2694 30.4336 18.2294 30.9003 16.9627 31.3136L14.8561 32.007C9.56275 33.7136 6.77608 32.287 5.05608 26.9936L3.34941 21.727C1.64275 16.4336 3.05608 13.6336 8.34941 11.927L10.4561 11.2336C11.0027 11.0603 11.5227 10.9136 12.0161 10.8203C11.6161 11.6336 11.2961 12.6203 11.0294 13.7536L9.72275 19.3403C8.41608 24.9136 10.1361 27.6603 15.6961 28.9803L17.9361 29.5136C18.7094 29.7003 19.4294 29.8203 20.0961 29.8736Z" stroke="black" stroke-opacity="0.2" stroke-width="1.5" stroke-linecap="round" stroke-linejoin="round"/>
<path d="M20.0961 29.8736C19.2694 30.4336 18.2294 30.9003 16.9627 31.3136L14.8561 32.007C9.56275 33.7136 6.77608 32.287 5.05608 26.9936L3.34941 21.727C1.64275 16.4336 3.05608 13.6336 8.34941 11.927L10.4561 11.2336C11.0027 11.0603 11.5227 10.9136 12.0161 10.8203C11.6161 11.6336 11.2961 12.6203 11.0294 13.7536L9.72275 19.3403C8.41608 24.9136 10.1361 27.6603 15.6961 28.9803L17.9361 29.5136C18.7094 29.7003 19.4294 29.8203 20.0961 29.8736Z" stroke="black" stroke-opacity="0.2" stroke-width="1.5" stroke-linecap="round" stroke-linejoin="round"/>
<path d="M20.0961 29.8736C19.2694 30.4336 18.2294 30.9003 16.9627 31.3136L14.8561 32.007C9.56275 33.7136 6.77608 32.287 5.05608 26.9936L3.34941 21.727C1.64275 16.4336 3.05608 13.6336 8.34941 11.927L10.4561 11.2336C11.0027 11.0603 11.5227 10.9136 12.0161 10.8203C11.6161 11.6336 11.2961 12.6203 11.0294 13.7536L9.72275 19.3403C8.41608 24.9136 10.1361 27.6603 15.6961 28.9803L17.9361 29.5136C18.7094 29.7003 19.4294 29.8203 20.0961 29.8736Z" stroke="black" stroke-opacity="0.2" stroke-width="1.5" stroke-linecap="round" stroke-linejoin="round"/>
<path d="M20.0961 29.8736C19.2694 30.4336 18.2294 30.9003 16.9627 31.3136L14.8561 32.007C9.56275 33.7136 6.77608 32.287 5.05608 26.9936L3.34941 21.727C1.64275 16.4336 3.05608 13.6336 8.34941 11.927L10.4561 11.2336C11.0027 11.0603 11.5227 10.9136 12.0161 10.8203C11.6161 11.6336 11.2961 12.6203 11.0294 13.7536L9.72275 19.3403C8.41608 24.9136 10.1361 27.6603 15.6961 28.9803L17.9361 29.5136C18.7094 29.7003 19.4294 29.8203 20.0961 29.8736Z" stroke="black" stroke-opacity="0.2" stroke-width="1.5" stroke-linecap="round" stroke-linejoin="round"/>
<path d="M16.8672 15.3906L23.3339 17.0306" stroke="#040404" stroke-width="1.5" stroke-linecap="round" stroke-linejoin="round"/>
<path d="M16.8672 15.3906L23.3339 17.0306" stroke="black" stroke-opacity="0.2" stroke-width="1.5" stroke-linecap="round" stroke-linejoin="round"/>
<path d="M16.8672 15.3906L23.3339 17.0306" stroke="black" stroke-opacity="0.2" stroke-width="1.5" stroke-linecap="round" stroke-linejoin="round"/>
<path d="M16.8672 15.3906L23.3339 17.0306" stroke="black" stroke-opacity="0.2" stroke-width="1.5" stroke-linecap="round" stroke-linejoin="round"/>
<path d="M16.8672 15.3906L23.3339 17.0306" stroke="black" stroke-opacity="0.2" stroke-width="1.5" stroke-linecap="round" stroke-linejoin="round"/>
<path d="M16.8672 15.3906L23.3339 17.0306" stroke="black" stroke-opacity="0.2" stroke-width="1.5" stroke-linecap="round" stroke-linejoin="round"/>
<path d="M16.8672 15.3906L23.3339 17.0306" stroke="black" stroke-opacity="0.2" stroke-width="1.5" stroke-linecap="round" stroke-linejoin="round"/>
<path d="M16.8672 15.3906L23.3339 17.0306" stroke="black" stroke-opacity="0.2" stroke-width="1.5" stroke-linecap="round" stroke-linejoin="round"/>
<path d="M16.8672 15.3906L23.3339 17.0306" stroke="black" stroke-opacity="0.2" stroke-width="1.5" stroke-linecap="round" stroke-linejoin="round"/>
<path d="M15.5547 20.5469L19.4214 21.5335" stroke="#040404" stroke-width="1.5" stroke-linecap="round" stroke-linejoin="round"/>
<path d="M15.5547 20.5469L19.4214 21.5335" stroke="black" stroke-opacity="0.2" stroke-width="1.5" stroke-linecap="round" stroke-linejoin="round"/>
<path d="M15.5547 20.5469L19.4214 21.5335" stroke="black" stroke-opacity="0.2" stroke-width="1.5" stroke-linecap="round" stroke-linejoin="round"/>
<path d="M15.5547 20.5469L19.4214 21.5335" stroke="black" stroke-opacity="0.2" stroke-width="1.5" stroke-linecap="round" stroke-linejoin="round"/>
<path d="M15.5547 20.5469L19.4214 21.5335" stroke="black" stroke-opacity="0.2" stroke-width="1.5" stroke-linecap="round" stroke-linejoin="round"/>
<path d="M15.5547 20.5469L19.4214 21.5335" stroke="black" stroke-opacity="0.2" stroke-width="1.5" stroke-linecap="round" stroke-linejoin="round"/>
<path d="M15.5547 20.5469L19.4214 21.5335" stroke="black" stroke-opacity="0.2" stroke-width="1.5" stroke-linecap="round" stroke-linejoin="round"/>
<path d="M15.5547 20.5469L19.4214 21.5335" stroke="black" stroke-opacity="0.2" stroke-width="1.5" stroke-linecap="round" stroke-linejoin="round"/>
<path d="M15.5547 20.5469L19.4214 21.5335" stroke="black" stroke-opacity="0.2" stroke-width="1.5" stroke-linecap="round" stroke-linejoin="round"/>
</svg>
