<svg width="18" height="18" viewBox="0 0 18 18" fill="none" xmlns="http://www.w3.org/2000/svg">
<path d="M17 5V13C17 16.2 16 17 12 17H6C2 17 1 16.2 1 13V5C1 1.8 2 1 6 1H12C16 1 17 1.8 17 5Z" stroke="#731054" stroke-linecap="round" stroke-linejoin="round"/>
<path d="M11 3.79688H7" stroke="#731054" stroke-linecap="round" stroke-linejoin="round"/>
<path d="M9.00313 14.6831C9.85917 14.6831 10.5531 14.128 10.5531 13.4431C10.5531 12.7583 9.85917 12.2031 9.00313 12.2031C8.14708 12.2031 7.45312 12.7583 7.45312 13.4431C7.45312 14.128 8.14708 14.6831 9.00313 14.6831Z" stroke="#731054" stroke-linecap="round" stroke-linejoin="round"/>
</svg>
