<svg width="47" height="19" viewBox="0 0 47 19" fill="none" xmlns="http://www.w3.org/2000/svg">
<path fill-rule="evenodd" clip-rule="evenodd" d="M25.4494 2.58025L22.1689 3.25926V0.666667L25.4494 0V2.58025ZM32.2628 4.02469C30.9885 4.02469 30.1557 4.60494 29.7015 5.01235L29.5375 4.22222H26.6607V19L29.9286 18.3333L29.9412 14.7407C30.4081 15.0741 31.102 15.5432 32.2502 15.5432C34.5844 15.5432 36.7168 13.716 36.7168 9.7037C36.6915 6.02469 34.5466 4.02469 32.2628 4.02469ZM31.4679 12.7531C30.6983 12.7531 30.244 12.4815 29.9286 12.1605L29.916 7.45679C30.2566 7.08642 30.7235 6.83951 31.4679 6.83951C32.654 6.83951 33.4741 8.1358 33.4741 9.79012C33.4867 11.4815 32.6792 12.7531 31.4679 12.7531ZM47 9.82716C47 6.58025 45.385 4.02469 42.2811 4.02469C39.1772 4.02469 37.2972 6.58025 37.2972 9.80247C37.2972 13.6173 39.5178 15.5432 42.6974 15.5432C44.2494 15.5432 45.4228 15.1975 46.3187 14.716V12.1852C45.4354 12.6173 44.4134 12.8765 43.1264 12.8765C41.8647 12.8765 40.7417 12.4444 40.5903 10.9506H46.9748C46.9748 10.8765 46.9748 10.716 46.9874 10.5432C46.9874 10.2963 47 10 47 9.82716ZM40.5525 8.61728C40.5525 7.18518 41.4483 6.59259 42.2811 6.59259C43.076 6.59259 43.9213 7.18518 43.9213 8.61728H40.5525ZM25.4494 4.23457H22.1689V15.3333H25.4494V4.23457ZM18.4467 4.23457L18.6612 5.17284C19.4309 3.80247 20.9576 4.08642 21.374 4.23457V7.14815C20.9702 7.01234 19.658 6.82716 18.8883 7.80247V15.321H15.6204V4.23457H18.4467ZM12.1254 1.48148L8.94577 2.1358L8.93316 12.2963C8.93316 14.1728 10.3842 15.5556 12.3146 15.5556C13.3871 15.5556 14.1694 15.3704 14.5984 15.1358V12.5679C14.182 12.7284 12.1128 13.321 12.1128 11.4444V6.93827H14.5984V4.23457H12.1128L12.1254 1.48148ZM4.41611 6.76543C3.72215 6.76543 3.30577 6.95062 3.30577 7.44444C3.30577 7.98765 4.02497 8.22222 4.92081 8.51852C6.37181 9 8.28966 9.62963 8.30228 11.9753C8.30228 14.2469 6.4349 15.5556 3.72215 15.5556C2.59919 15.5556 1.3753 15.3457 0.164027 14.8272V11.8148C1.26174 12.3951 2.64966 12.8272 3.72215 12.8272C4.45396 12.8272 4.97128 12.642 4.97128 12.0494C4.97128 11.4568 4.18899 11.1728 3.2553 10.8519C1.8043 10.358 0 9.71605 0 7.60494C0 5.35802 1.76644 4.01235 4.41611 4.01235C5.50121 4.01235 6.57369 4.17284 7.65879 4.59259V7.5679C6.66201 7.06173 5.40027 6.76543 4.41611 6.76543Z" fill="#040404"/>
<path fill-rule="evenodd" clip-rule="evenodd" d="M25.4494 2.58025L22.1689 3.25926V0.666667L25.4494 0V2.58025ZM32.2628 4.02469C30.9885 4.02469 30.1557 4.60494 29.7015 5.01235L29.5375 4.22222H26.6607V19L29.9286 18.3333L29.9412 14.7407C30.4081 15.0741 31.102 15.5432 32.2502 15.5432C34.5844 15.5432 36.7168 13.716 36.7168 9.7037C36.6915 6.02469 34.5466 4.02469 32.2628 4.02469ZM31.4679 12.7531C30.6983 12.7531 30.244 12.4815 29.9286 12.1605L29.916 7.45679C30.2566 7.08642 30.7235 6.83951 31.4679 6.83951C32.654 6.83951 33.4741 8.1358 33.4741 9.79012C33.4867 11.4815 32.6792 12.7531 31.4679 12.7531ZM47 9.82716C47 6.58025 45.385 4.02469 42.2811 4.02469C39.1772 4.02469 37.2972 6.58025 37.2972 9.80247C37.2972 13.6173 39.5178 15.5432 42.6974 15.5432C44.2494 15.5432 45.4228 15.1975 46.3187 14.716V12.1852C45.4354 12.6173 44.4134 12.8765 43.1264 12.8765C41.8647 12.8765 40.7417 12.4444 40.5903 10.9506H46.9748C46.9748 10.8765 46.9748 10.716 46.9874 10.5432C46.9874 10.2963 47 10 47 9.82716ZM40.5525 8.61728C40.5525 7.18518 41.4483 6.59259 42.2811 6.59259C43.076 6.59259 43.9213 7.18518 43.9213 8.61728H40.5525ZM25.4494 4.23457H22.1689V15.3333H25.4494V4.23457ZM18.4467 4.23457L18.6612 5.17284C19.4309 3.80247 20.9576 4.08642 21.374 4.23457V7.14815C20.9702 7.01234 19.658 6.82716 18.8883 7.80247V15.321H15.6204V4.23457H18.4467ZM12.1254 1.48148L8.94577 2.1358L8.93316 12.2963C8.93316 14.1728 10.3842 15.5556 12.3146 15.5556C13.3871 15.5556 14.1694 15.3704 14.5984 15.1358V12.5679C14.182 12.7284 12.1128 13.321 12.1128 11.4444V6.93827H14.5984V4.23457H12.1128L12.1254 1.48148ZM4.41611 6.76543C3.72215 6.76543 3.30577 6.95062 3.30577 7.44444C3.30577 7.98765 4.02497 8.22222 4.92081 8.51852C6.37181 9 8.28966 9.62963 8.30228 11.9753C8.30228 14.2469 6.4349 15.5556 3.72215 15.5556C2.59919 15.5556 1.3753 15.3457 0.164027 14.8272V11.8148C1.26174 12.3951 2.64966 12.8272 3.72215 12.8272C4.45396 12.8272 4.97128 12.642 4.97128 12.0494C4.97128 11.4568 4.18899 11.1728 3.2553 10.8519C1.8043 10.358 0 9.71605 0 7.60494C0 5.35802 1.76644 4.01235 4.41611 4.01235C5.50121 4.01235 6.57369 4.17284 7.65879 4.59259V7.5679C6.66201 7.06173 5.40027 6.76543 4.41611 6.76543Z" fill="black" fill-opacity="0.2"/>
<path fill-rule="evenodd" clip-rule="evenodd" d="M25.4494 2.58025L22.1689 3.25926V0.666667L25.4494 0V2.58025ZM32.2628 4.02469C30.9885 4.02469 30.1557 4.60494 29.7015 5.01235L29.5375 4.22222H26.6607V19L29.9286 18.3333L29.9412 14.7407C30.4081 15.0741 31.102 15.5432 32.2502 15.5432C34.5844 15.5432 36.7168 13.716 36.7168 9.7037C36.6915 6.02469 34.5466 4.02469 32.2628 4.02469ZM31.4679 12.7531C30.6983 12.7531 30.244 12.4815 29.9286 12.1605L29.916 7.45679C30.2566 7.08642 30.7235 6.83951 31.4679 6.83951C32.654 6.83951 33.4741 8.1358 33.4741 9.79012C33.4867 11.4815 32.6792 12.7531 31.4679 12.7531ZM47 9.82716C47 6.58025 45.385 4.02469 42.2811 4.02469C39.1772 4.02469 37.2972 6.58025 37.2972 9.80247C37.2972 13.6173 39.5178 15.5432 42.6974 15.5432C44.2494 15.5432 45.4228 15.1975 46.3187 14.716V12.1852C45.4354 12.6173 44.4134 12.8765 43.1264 12.8765C41.8647 12.8765 40.7417 12.4444 40.5903 10.9506H46.9748C46.9748 10.8765 46.9748 10.716 46.9874 10.5432C46.9874 10.2963 47 10 47 9.82716ZM40.5525 8.61728C40.5525 7.18518 41.4483 6.59259 42.2811 6.59259C43.076 6.59259 43.9213 7.18518 43.9213 8.61728H40.5525ZM25.4494 4.23457H22.1689V15.3333H25.4494V4.23457ZM18.4467 4.23457L18.6612 5.17284C19.4309 3.80247 20.9576 4.08642 21.374 4.23457V7.14815C20.9702 7.01234 19.658 6.82716 18.8883 7.80247V15.321H15.6204V4.23457H18.4467ZM12.1254 1.48148L8.94577 2.1358L8.93316 12.2963C8.93316 14.1728 10.3842 15.5556 12.3146 15.5556C13.3871 15.5556 14.1694 15.3704 14.5984 15.1358V12.5679C14.182 12.7284 12.1128 13.321 12.1128 11.4444V6.93827H14.5984V4.23457H12.1128L12.1254 1.48148ZM4.41611 6.76543C3.72215 6.76543 3.30577 6.95062 3.30577 7.44444C3.30577 7.98765 4.02497 8.22222 4.92081 8.51852C6.37181 9 8.28966 9.62963 8.30228 11.9753C8.30228 14.2469 6.4349 15.5556 3.72215 15.5556C2.59919 15.5556 1.3753 15.3457 0.164027 14.8272V11.8148C1.26174 12.3951 2.64966 12.8272 3.72215 12.8272C4.45396 12.8272 4.97128 12.642 4.97128 12.0494C4.97128 11.4568 4.18899 11.1728 3.2553 10.8519C1.8043 10.358 0 9.71605 0 7.60494C0 5.35802 1.76644 4.01235 4.41611 4.01235C5.50121 4.01235 6.57369 4.17284 7.65879 4.59259V7.5679C6.66201 7.06173 5.40027 6.76543 4.41611 6.76543Z" fill="black" fill-opacity="0.2"/>
<path fill-rule="evenodd" clip-rule="evenodd" d="M25.4494 2.58025L22.1689 3.25926V0.666667L25.4494 0V2.58025ZM32.2628 4.02469C30.9885 4.02469 30.1557 4.60494 29.7015 5.01235L29.5375 4.22222H26.6607V19L29.9286 18.3333L29.9412 14.7407C30.4081 15.0741 31.102 15.5432 32.2502 15.5432C34.5844 15.5432 36.7168 13.716 36.7168 9.7037C36.6915 6.02469 34.5466 4.02469 32.2628 4.02469ZM31.4679 12.7531C30.6983 12.7531 30.244 12.4815 29.9286 12.1605L29.916 7.45679C30.2566 7.08642 30.7235 6.83951 31.4679 6.83951C32.654 6.83951 33.4741 8.1358 33.4741 9.79012C33.4867 11.4815 32.6792 12.7531 31.4679 12.7531ZM47 9.82716C47 6.58025 45.385 4.02469 42.2811 4.02469C39.1772 4.02469 37.2972 6.58025 37.2972 9.80247C37.2972 13.6173 39.5178 15.5432 42.6974 15.5432C44.2494 15.5432 45.4228 15.1975 46.3187 14.716V12.1852C45.4354 12.6173 44.4134 12.8765 43.1264 12.8765C41.8647 12.8765 40.7417 12.4444 40.5903 10.9506H46.9748C46.9748 10.8765 46.9748 10.716 46.9874 10.5432C46.9874 10.2963 47 10 47 9.82716ZM40.5525 8.61728C40.5525 7.18518 41.4483 6.59259 42.2811 6.59259C43.076 6.59259 43.9213 7.18518 43.9213 8.61728H40.5525ZM25.4494 4.23457H22.1689V15.3333H25.4494V4.23457ZM18.4467 4.23457L18.6612 5.17284C19.4309 3.80247 20.9576 4.08642 21.374 4.23457V7.14815C20.9702 7.01234 19.658 6.82716 18.8883 7.80247V15.321H15.6204V4.23457H18.4467ZM12.1254 1.48148L8.94577 2.1358L8.93316 12.2963C8.93316 14.1728 10.3842 15.5556 12.3146 15.5556C13.3871 15.5556 14.1694 15.3704 14.5984 15.1358V12.5679C14.182 12.7284 12.1128 13.321 12.1128 11.4444V6.93827H14.5984V4.23457H12.1128L12.1254 1.48148ZM4.41611 6.76543C3.72215 6.76543 3.30577 6.95062 3.30577 7.44444C3.30577 7.98765 4.02497 8.22222 4.92081 8.51852C6.37181 9 8.28966 9.62963 8.30228 11.9753C8.30228 14.2469 6.4349 15.5556 3.72215 15.5556C2.59919 15.5556 1.3753 15.3457 0.164027 14.8272V11.8148C1.26174 12.3951 2.64966 12.8272 3.72215 12.8272C4.45396 12.8272 4.97128 12.642 4.97128 12.0494C4.97128 11.4568 4.18899 11.1728 3.2553 10.8519C1.8043 10.358 0 9.71605 0 7.60494C0 5.35802 1.76644 4.01235 4.41611 4.01235C5.50121 4.01235 6.57369 4.17284 7.65879 4.59259V7.5679C6.66201 7.06173 5.40027 6.76543 4.41611 6.76543Z" fill="black" fill-opacity="0.2"/>
<path fill-rule="evenodd" clip-rule="evenodd" d="M25.4494 2.58025L22.1689 3.25926V0.666667L25.4494 0V2.58025ZM32.2628 4.02469C30.9885 4.02469 30.1557 4.60494 29.7015 5.01235L29.5375 4.22222H26.6607V19L29.9286 18.3333L29.9412 14.7407C30.4081 15.0741 31.102 15.5432 32.2502 15.5432C34.5844 15.5432 36.7168 13.716 36.7168 9.7037C36.6915 6.02469 34.5466 4.02469 32.2628 4.02469ZM31.4679 12.7531C30.6983 12.7531 30.244 12.4815 29.9286 12.1605L29.916 7.45679C30.2566 7.08642 30.7235 6.83951 31.4679 6.83951C32.654 6.83951 33.4741 8.1358 33.4741 9.79012C33.4867 11.4815 32.6792 12.7531 31.4679 12.7531ZM47 9.82716C47 6.58025 45.385 4.02469 42.2811 4.02469C39.1772 4.02469 37.2972 6.58025 37.2972 9.80247C37.2972 13.6173 39.5178 15.5432 42.6974 15.5432C44.2494 15.5432 45.4228 15.1975 46.3187 14.716V12.1852C45.4354 12.6173 44.4134 12.8765 43.1264 12.8765C41.8647 12.8765 40.7417 12.4444 40.5903 10.9506H46.9748C46.9748 10.8765 46.9748 10.716 46.9874 10.5432C46.9874 10.2963 47 10 47 9.82716ZM40.5525 8.61728C40.5525 7.18518 41.4483 6.59259 42.2811 6.59259C43.076 6.59259 43.9213 7.18518 43.9213 8.61728H40.5525ZM25.4494 4.23457H22.1689V15.3333H25.4494V4.23457ZM18.4467 4.23457L18.6612 5.17284C19.4309 3.80247 20.9576 4.08642 21.374 4.23457V7.14815C20.9702 7.01234 19.658 6.82716 18.8883 7.80247V15.321H15.6204V4.23457H18.4467ZM12.1254 1.48148L8.94577 2.1358L8.93316 12.2963C8.93316 14.1728 10.3842 15.5556 12.3146 15.5556C13.3871 15.5556 14.1694 15.3704 14.5984 15.1358V12.5679C14.182 12.7284 12.1128 13.321 12.1128 11.4444V6.93827H14.5984V4.23457H12.1128L12.1254 1.48148ZM4.41611 6.76543C3.72215 6.76543 3.30577 6.95062 3.30577 7.44444C3.30577 7.98765 4.02497 8.22222 4.92081 8.51852C6.37181 9 8.28966 9.62963 8.30228 11.9753C8.30228 14.2469 6.4349 15.5556 3.72215 15.5556C2.59919 15.5556 1.3753 15.3457 0.164027 14.8272V11.8148C1.26174 12.3951 2.64966 12.8272 3.72215 12.8272C4.45396 12.8272 4.97128 12.642 4.97128 12.0494C4.97128 11.4568 4.18899 11.1728 3.2553 10.8519C1.8043 10.358 0 9.71605 0 7.60494C0 5.35802 1.76644 4.01235 4.41611 4.01235C5.50121 4.01235 6.57369 4.17284 7.65879 4.59259V7.5679C6.66201 7.06173 5.40027 6.76543 4.41611 6.76543Z" fill="black" fill-opacity="0.2"/>
<path fill-rule="evenodd" clip-rule="evenodd" d="M25.4494 2.58025L22.1689 3.25926V0.666667L25.4494 0V2.58025ZM32.2628 4.02469C30.9885 4.02469 30.1557 4.60494 29.7015 5.01235L29.5375 4.22222H26.6607V19L29.9286 18.3333L29.9412 14.7407C30.4081 15.0741 31.102 15.5432 32.2502 15.5432C34.5844 15.5432 36.7168 13.716 36.7168 9.7037C36.6915 6.02469 34.5466 4.02469 32.2628 4.02469ZM31.4679 12.7531C30.6983 12.7531 30.244 12.4815 29.9286 12.1605L29.916 7.45679C30.2566 7.08642 30.7235 6.83951 31.4679 6.83951C32.654 6.83951 33.4741 8.1358 33.4741 9.79012C33.4867 11.4815 32.6792 12.7531 31.4679 12.7531ZM47 9.82716C47 6.58025 45.385 4.02469 42.2811 4.02469C39.1772 4.02469 37.2972 6.58025 37.2972 9.80247C37.2972 13.6173 39.5178 15.5432 42.6974 15.5432C44.2494 15.5432 45.4228 15.1975 46.3187 14.716V12.1852C45.4354 12.6173 44.4134 12.8765 43.1264 12.8765C41.8647 12.8765 40.7417 12.4444 40.5903 10.9506H46.9748C46.9748 10.8765 46.9748 10.716 46.9874 10.5432C46.9874 10.2963 47 10 47 9.82716ZM40.5525 8.61728C40.5525 7.18518 41.4483 6.59259 42.2811 6.59259C43.076 6.59259 43.9213 7.18518 43.9213 8.61728H40.5525ZM25.4494 4.23457H22.1689V15.3333H25.4494V4.23457ZM18.4467 4.23457L18.6612 5.17284C19.4309 3.80247 20.9576 4.08642 21.374 4.23457V7.14815C20.9702 7.01234 19.658 6.82716 18.8883 7.80247V15.321H15.6204V4.23457H18.4467ZM12.1254 1.48148L8.94577 2.1358L8.93316 12.2963C8.93316 14.1728 10.3842 15.5556 12.3146 15.5556C13.3871 15.5556 14.1694 15.3704 14.5984 15.1358V12.5679C14.182 12.7284 12.1128 13.321 12.1128 11.4444V6.93827H14.5984V4.23457H12.1128L12.1254 1.48148ZM4.41611 6.76543C3.72215 6.76543 3.30577 6.95062 3.30577 7.44444C3.30577 7.98765 4.02497 8.22222 4.92081 8.51852C6.37181 9 8.28966 9.62963 8.30228 11.9753C8.30228 14.2469 6.4349 15.5556 3.72215 15.5556C2.59919 15.5556 1.3753 15.3457 0.164027 14.8272V11.8148C1.26174 12.3951 2.64966 12.8272 3.72215 12.8272C4.45396 12.8272 4.97128 12.642 4.97128 12.0494C4.97128 11.4568 4.18899 11.1728 3.2553 10.8519C1.8043 10.358 0 9.71605 0 7.60494C0 5.35802 1.76644 4.01235 4.41611 4.01235C5.50121 4.01235 6.57369 4.17284 7.65879 4.59259V7.5679C6.66201 7.06173 5.40027 6.76543 4.41611 6.76543Z" fill="black" fill-opacity="0.2"/>
<path fill-rule="evenodd" clip-rule="evenodd" d="M25.4494 2.58025L22.1689 3.25926V0.666667L25.4494 0V2.58025ZM32.2628 4.02469C30.9885 4.02469 30.1557 4.60494 29.7015 5.01235L29.5375 4.22222H26.6607V19L29.9286 18.3333L29.9412 14.7407C30.4081 15.0741 31.102 15.5432 32.2502 15.5432C34.5844 15.5432 36.7168 13.716 36.7168 9.7037C36.6915 6.02469 34.5466 4.02469 32.2628 4.02469ZM31.4679 12.7531C30.6983 12.7531 30.244 12.4815 29.9286 12.1605L29.916 7.45679C30.2566 7.08642 30.7235 6.83951 31.4679 6.83951C32.654 6.83951 33.4741 8.1358 33.4741 9.79012C33.4867 11.4815 32.6792 12.7531 31.4679 12.7531ZM47 9.82716C47 6.58025 45.385 4.02469 42.2811 4.02469C39.1772 4.02469 37.2972 6.58025 37.2972 9.80247C37.2972 13.6173 39.5178 15.5432 42.6974 15.5432C44.2494 15.5432 45.4228 15.1975 46.3187 14.716V12.1852C45.4354 12.6173 44.4134 12.8765 43.1264 12.8765C41.8647 12.8765 40.7417 12.4444 40.5903 10.9506H46.9748C46.9748 10.8765 46.9748 10.716 46.9874 10.5432C46.9874 10.2963 47 10 47 9.82716ZM40.5525 8.61728C40.5525 7.18518 41.4483 6.59259 42.2811 6.59259C43.076 6.59259 43.9213 7.18518 43.9213 8.61728H40.5525ZM25.4494 4.23457H22.1689V15.3333H25.4494V4.23457ZM18.4467 4.23457L18.6612 5.17284C19.4309 3.80247 20.9576 4.08642 21.374 4.23457V7.14815C20.9702 7.01234 19.658 6.82716 18.8883 7.80247V15.321H15.6204V4.23457H18.4467ZM12.1254 1.48148L8.94577 2.1358L8.93316 12.2963C8.93316 14.1728 10.3842 15.5556 12.3146 15.5556C13.3871 15.5556 14.1694 15.3704 14.5984 15.1358V12.5679C14.182 12.7284 12.1128 13.321 12.1128 11.4444V6.93827H14.5984V4.23457H12.1128L12.1254 1.48148ZM4.41611 6.76543C3.72215 6.76543 3.30577 6.95062 3.30577 7.44444C3.30577 7.98765 4.02497 8.22222 4.92081 8.51852C6.37181 9 8.28966 9.62963 8.30228 11.9753C8.30228 14.2469 6.4349 15.5556 3.72215 15.5556C2.59919 15.5556 1.3753 15.3457 0.164027 14.8272V11.8148C1.26174 12.3951 2.64966 12.8272 3.72215 12.8272C4.45396 12.8272 4.97128 12.642 4.97128 12.0494C4.97128 11.4568 4.18899 11.1728 3.2553 10.8519C1.8043 10.358 0 9.71605 0 7.60494C0 5.35802 1.76644 4.01235 4.41611 4.01235C5.50121 4.01235 6.57369 4.17284 7.65879 4.59259V7.5679C6.66201 7.06173 5.40027 6.76543 4.41611 6.76543Z" fill="black" fill-opacity="0.2"/>
<path fill-rule="evenodd" clip-rule="evenodd" d="M25.4494 2.58025L22.1689 3.25926V0.666667L25.4494 0V2.58025ZM32.2628 4.02469C30.9885 4.02469 30.1557 4.60494 29.7015 5.01235L29.5375 4.22222H26.6607V19L29.9286 18.3333L29.9412 14.7407C30.4081 15.0741 31.102 15.5432 32.2502 15.5432C34.5844 15.5432 36.7168 13.716 36.7168 9.7037C36.6915 6.02469 34.5466 4.02469 32.2628 4.02469ZM31.4679 12.7531C30.6983 12.7531 30.244 12.4815 29.9286 12.1605L29.916 7.45679C30.2566 7.08642 30.7235 6.83951 31.4679 6.83951C32.654 6.83951 33.4741 8.1358 33.4741 9.79012C33.4867 11.4815 32.6792 12.7531 31.4679 12.7531ZM47 9.82716C47 6.58025 45.385 4.02469 42.2811 4.02469C39.1772 4.02469 37.2972 6.58025 37.2972 9.80247C37.2972 13.6173 39.5178 15.5432 42.6974 15.5432C44.2494 15.5432 45.4228 15.1975 46.3187 14.716V12.1852C45.4354 12.6173 44.4134 12.8765 43.1264 12.8765C41.8647 12.8765 40.7417 12.4444 40.5903 10.9506H46.9748C46.9748 10.8765 46.9748 10.716 46.9874 10.5432C46.9874 10.2963 47 10 47 9.82716ZM40.5525 8.61728C40.5525 7.18518 41.4483 6.59259 42.2811 6.59259C43.076 6.59259 43.9213 7.18518 43.9213 8.61728H40.5525ZM25.4494 4.23457H22.1689V15.3333H25.4494V4.23457ZM18.4467 4.23457L18.6612 5.17284C19.4309 3.80247 20.9576 4.08642 21.374 4.23457V7.14815C20.9702 7.01234 19.658 6.82716 18.8883 7.80247V15.321H15.6204V4.23457H18.4467ZM12.1254 1.48148L8.94577 2.1358L8.93316 12.2963C8.93316 14.1728 10.3842 15.5556 12.3146 15.5556C13.3871 15.5556 14.1694 15.3704 14.5984 15.1358V12.5679C14.182 12.7284 12.1128 13.321 12.1128 11.4444V6.93827H14.5984V4.23457H12.1128L12.1254 1.48148ZM4.41611 6.76543C3.72215 6.76543 3.30577 6.95062 3.30577 7.44444C3.30577 7.98765 4.02497 8.22222 4.92081 8.51852C6.37181 9 8.28966 9.62963 8.30228 11.9753C8.30228 14.2469 6.4349 15.5556 3.72215 15.5556C2.59919 15.5556 1.3753 15.3457 0.164027 14.8272V11.8148C1.26174 12.3951 2.64966 12.8272 3.72215 12.8272C4.45396 12.8272 4.97128 12.642 4.97128 12.0494C4.97128 11.4568 4.18899 11.1728 3.2553 10.8519C1.8043 10.358 0 9.71605 0 7.60494C0 5.35802 1.76644 4.01235 4.41611 4.01235C5.50121 4.01235 6.57369 4.17284 7.65879 4.59259V7.5679C6.66201 7.06173 5.40027 6.76543 4.41611 6.76543Z" fill="black" fill-opacity="0.2"/>
<path fill-rule="evenodd" clip-rule="evenodd" d="M25.4494 2.58025L22.1689 3.25926V0.666667L25.4494 0V2.58025ZM32.2628 4.02469C30.9885 4.02469 30.1557 4.60494 29.7015 5.01235L29.5375 4.22222H26.6607V19L29.9286 18.3333L29.9412 14.7407C30.4081 15.0741 31.102 15.5432 32.2502 15.5432C34.5844 15.5432 36.7168 13.716 36.7168 9.7037C36.6915 6.02469 34.5466 4.02469 32.2628 4.02469ZM31.4679 12.7531C30.6983 12.7531 30.244 12.4815 29.9286 12.1605L29.916 7.45679C30.2566 7.08642 30.7235 6.83951 31.4679 6.83951C32.654 6.83951 33.4741 8.1358 33.4741 9.79012C33.4867 11.4815 32.6792 12.7531 31.4679 12.7531ZM47 9.82716C47 6.58025 45.385 4.02469 42.2811 4.02469C39.1772 4.02469 37.2972 6.58025 37.2972 9.80247C37.2972 13.6173 39.5178 15.5432 42.6974 15.5432C44.2494 15.5432 45.4228 15.1975 46.3187 14.716V12.1852C45.4354 12.6173 44.4134 12.8765 43.1264 12.8765C41.8647 12.8765 40.7417 12.4444 40.5903 10.9506H46.9748C46.9748 10.8765 46.9748 10.716 46.9874 10.5432C46.9874 10.2963 47 10 47 9.82716ZM40.5525 8.61728C40.5525 7.18518 41.4483 6.59259 42.2811 6.59259C43.076 6.59259 43.9213 7.18518 43.9213 8.61728H40.5525ZM25.4494 4.23457H22.1689V15.3333H25.4494V4.23457ZM18.4467 4.23457L18.6612 5.17284C19.4309 3.80247 20.9576 4.08642 21.374 4.23457V7.14815C20.9702 7.01234 19.658 6.82716 18.8883 7.80247V15.321H15.6204V4.23457H18.4467ZM12.1254 1.48148L8.94577 2.1358L8.93316 12.2963C8.93316 14.1728 10.3842 15.5556 12.3146 15.5556C13.3871 15.5556 14.1694 15.3704 14.5984 15.1358V12.5679C14.182 12.7284 12.1128 13.321 12.1128 11.4444V6.93827H14.5984V4.23457H12.1128L12.1254 1.48148ZM4.41611 6.76543C3.72215 6.76543 3.30577 6.95062 3.30577 7.44444C3.30577 7.98765 4.02497 8.22222 4.92081 8.51852C6.37181 9 8.28966 9.62963 8.30228 11.9753C8.30228 14.2469 6.4349 15.5556 3.72215 15.5556C2.59919 15.5556 1.3753 15.3457 0.164027 14.8272V11.8148C1.26174 12.3951 2.64966 12.8272 3.72215 12.8272C4.45396 12.8272 4.97128 12.642 4.97128 12.0494C4.97128 11.4568 4.18899 11.1728 3.2553 10.8519C1.8043 10.358 0 9.71605 0 7.60494C0 5.35802 1.76644 4.01235 4.41611 4.01235C5.50121 4.01235 6.57369 4.17284 7.65879 4.59259V7.5679C6.66201 7.06173 5.40027 6.76543 4.41611 6.76543Z" fill="black" fill-opacity="0.2"/>
</svg>
