<svg width="56" height="56" viewBox="0 0 56 56" fill="none" xmlns="http://www.w3.org/2000/svg">
<path d="M18.7837 34.3468L16.4504 32.0135L9.21706 34.3235H8.98372C8.87001 34.3306 8.7561 34.3134 8.64951 34.2732C8.54291 34.233 8.44607 34.1706 8.36539 34.0902L6.67372 32.4218C6.53707 32.2918 6.44962 32.1186 6.42623 31.9314C6.40284 31.7443 6.44494 31.5548 6.54539 31.3952L8.51706 28.0002C9.73829 25.9102 11.442 24.1429 13.4859 22.8459C15.5297 21.549 17.8543 20.7601 20.2654 20.5452L23.1704 20.2885M23.1704 20.2885C24.8582 18.2818 26.4137 16.5629 27.8371 15.1318C30.5377 12.2712 33.7613 9.95445 37.3337 8.30683C40.975 6.94576 44.8466 6.30774 48.7321 6.42849C48.9671 6.43058 49.1925 6.5224 49.3621 6.68516C49.4428 6.75936 49.5074 6.84951 49.5515 6.94992C49.5957 7.05032 49.6186 7.1588 49.6187 7.26849C49.6984 11.1655 49.0044 15.0397 47.5771 18.6668C45.9719 22.2497 43.6811 25.4838 40.8337 28.1868C39.3987 29.6335 37.6721 31.1852 35.6771 32.8535L35.4204 35.7468C35.211 38.1567 34.4283 40.4815 33.1375 42.5273C31.8467 44.573 30.0854 46.2804 28.0004 47.5068L24.6287 49.4785C24.4957 49.5486 24.3474 49.5847 24.1971 49.5835C23.9738 49.5789 23.7592 49.4964 23.5904 49.3502L21.8987 47.6468C21.7895 47.5424 21.7119 47.4093 21.6747 47.2628C21.6376 47.1163 21.6424 46.9624 21.6887 46.8185L23.9404 39.5035M23.1704 20.2885L16.5087 32.0718M23.9404 39.5035L21.6771 37.2402M23.9404 39.5035L35.7237 32.8535M43.6571 17.1502C43.6602 15.8836 43.1608 14.6674 42.2684 13.7685C41.3761 12.8696 40.1637 12.3613 38.8971 12.3552C38.2483 12.3231 37.5997 12.4233 36.9908 12.6495C36.3818 12.8757 35.8252 13.2233 35.3547 13.6712C34.8842 14.119 34.5095 14.6578 34.2536 15.2549C33.9976 15.8519 33.8656 16.4947 33.8656 17.1443C33.8656 17.7939 33.9976 18.4367 34.2536 19.0338C34.5095 19.6308 34.8842 20.1696 35.3547 20.6175C35.8252 21.0654 36.3818 21.413 36.9908 21.6392C37.5997 21.8654 38.2483 21.9655 38.8971 21.9335C40.1547 21.9353 41.3622 21.4406 42.2571 20.5568C42.7072 20.1127 43.0624 19.5817 43.3011 18.9961C43.5397 18.4104 43.6569 17.7824 43.6454 17.1502H43.6571Z" stroke="black"  stroke-width="1.25" stroke-linecap="round" stroke-linejoin="round"/>
<path d="M15.167 40.8324C19.8337 39.9691 28.117 32.1991 29.0853 26.9141C23.7653 27.9291 15.9953 36.1657 15.167 40.8324Z" stroke="black"  stroke-width="1.25" stroke-linecap="round" stroke-linejoin="round"/>
</svg>
