<svg width="16" height="16" viewBox="0 0 16 16" fill="none" xmlns="http://www.w3.org/2000/svg">
<path d="M8.00374 8.49577C5.89041 8.49577 4.17041 6.77577 4.17041 4.66243C4.17041 2.5491 5.89041 0.829102 8.00374 0.829102C10.1171 0.829102 11.8371 2.5491 11.8371 4.66243C11.8371 6.77577 10.1171 8.49577 8.00374 8.49577ZM8.00374 1.8291C6.44374 1.8291 5.17041 3.10243 5.17041 4.66243C5.17041 6.22243 6.44374 7.49577 8.00374 7.49577C9.56374 7.49577 10.8371 6.22243 10.8371 4.66243C10.8371 3.10243 9.56374 1.8291 8.00374 1.8291Z" fill="#731054"/>
<path d="M10.5504 15.1633C10.2971 15.1633 10.0571 15.07 9.88378 14.8966C9.67712 14.69 9.58378 14.39 9.63045 14.0767L9.75711 13.1767C9.79045 12.9433 9.93045 12.67 10.0971 12.4967L12.4571 10.1367C13.4038 9.19001 14.2371 9.73001 14.6438 10.1367C14.9905 10.4833 15.1704 10.8566 15.1704 11.23C15.1704 11.61 14.9971 11.9633 14.6438 12.3167L12.2838 14.6767C12.1171 14.8433 11.8371 14.9833 11.6038 15.0167L10.7038 15.1433C10.6504 15.1566 10.6038 15.1633 10.5504 15.1633ZM13.5438 10.61C13.4238 10.61 13.3171 10.69 13.1638 10.8433L10.8038 13.2033C10.7838 13.2233 10.7504 13.29 10.7504 13.3167L10.6304 14.15L11.4638 14.03C11.4904 14.0233 11.5571 13.99 11.5771 13.97L13.9371 11.61C14.0438 11.5033 14.1704 11.35 14.1704 11.23C14.1704 11.13 14.0905 10.99 13.9371 10.8433C13.7771 10.6833 13.6571 10.61 13.5438 10.61Z" fill="#731054"/>
<path d="M13.951 12.8074C13.9043 12.8074 13.8576 12.8007 13.8176 12.7874C12.9376 12.5407 12.2376 11.8407 11.991 10.9607C11.9176 10.6941 12.071 10.4207 12.3376 10.3474C12.6043 10.2741 12.8776 10.4274 12.951 10.694C13.1043 11.2407 13.5376 11.6741 14.0843 11.8274C14.351 11.9007 14.5043 12.1807 14.431 12.4407C14.371 12.6607 14.171 12.8074 13.951 12.8074Z" fill="#731054"/>
<path d="M2.27979 15.1628C2.00645 15.1628 1.77979 14.9361 1.77979 14.6628C1.77979 11.8161 4.57314 9.49609 8.00647 9.49609C8.73314 9.49609 9.45313 9.60278 10.1265 9.80278C10.3931 9.88278 10.5398 10.1628 10.4598 10.4228C10.3798 10.6894 10.0998 10.8361 9.8398 10.7561C9.25314 10.5828 8.6398 10.4894 8.00647 10.4894C5.12647 10.4894 2.77979 12.3561 2.77979 14.6561C2.77979 14.9361 2.55312 15.1628 2.27979 15.1628Z" fill="#731054"/>
</svg>
