<svg width="24" height="24" viewBox="0 0 24 24" fill="none" xmlns="http://www.w3.org/2000/svg">
<path d="M5.54125 11.1172C0.86125 11.4472 0.86125 18.2572 5.54125 18.5872H7.46129" stroke="#20A961" stroke-width="1.25" stroke-miterlimit="10" stroke-linecap="round" stroke-linejoin="round"/>
<path d="M5.59198 11.1187C2.38198 2.18868 15.9219 -1.38132 17.4719 7.99868C21.8019 8.54868 23.552 14.3187 20.272 17.1887C19.272 18.0987 17.982 18.5987 16.632 18.5887H16.5419" stroke="#20A961" stroke-width="1.25" stroke-miterlimit="10" stroke-linecap="round" stroke-linejoin="round"/>
<path d="M17 16.5312C17 17.2713 16.84 17.9712 16.54 18.5912C16.46 18.7712 16.37 18.9413 16.27 19.1013C15.41 20.5513 13.82 21.5312 12 21.5312C10.18 21.5312 8.58998 20.5513 7.72998 19.1013C7.62998 18.9413 7.54002 18.7712 7.46002 18.5912C7.16002 17.9712 7 17.2713 7 16.5312C7 13.7713 9.24 11.5312 12 11.5312C14.76 11.5312 17 13.7713 17 16.5312Z" stroke="#20A961" stroke-width="1.25" stroke-miterlimit="10" stroke-linecap="round" stroke-linejoin="round"/>
<path d="M10.4414 16.5269L11.4314 17.5169L13.5614 15.5469" stroke="#20A961" stroke-width="1.25" stroke-linecap="round" stroke-linejoin="round"/>
</svg>
