<svg width="24" height="25" fill="none" xmlns="http://www.w3.org/2000/svg"><path d="M12 15.016a3 3 0 1 0 0-6 3 3 0 0 0 0 6Z" stroke="#371044"  stroke-width="1.25" stroke-linecap="round"/><path clip-rule="evenodd" d="M10.069 3.378c.646-1.817 3.216-1.817 3.862 0a2.05 2.05 0 0 0 2.811 1.165c1.742-.828 3.559.989 2.73 2.73a2.05 2.05 0 0 0 1.165 2.812c1.817.646 1.817 3.215 0 3.862a2.05 2.05 0 0 0-1.164 2.81c.828 1.742-.99 3.56-2.731 2.731a2.05 2.05 0 0 0-2.811 1.165c-.646 1.817-3.216 1.817-3.862 0a2.05 2.05 0 0 0-2.811-1.165c-1.742.828-3.559-.989-2.73-2.73a2.05 2.05 0 0 0-1.165-2.811c-1.817-.646-1.817-3.216 0-3.862a2.05 2.05 0 0 0 1.164-2.811c-.828-1.742.99-3.56 2.731-2.731a2.05 2.05 0 0 0 2.811-1.165Z" stroke="#371044"  stroke-width="1.25" stroke-linecap="round"/></svg>