<svg width="20" height="20" viewBox="0 0 20 20" fill="none" xmlns="http://www.w3.org/2000/svg">
<path fill-rule="evenodd" clip-rule="evenodd" d="M2 3.75C2 3.55109 2.07902 3.36032 2.21967 3.21967C2.36032 3.07902 2.55109 3 2.75 3H14.25C14.4489 3 14.6397 3.07902 14.7803 3.21967C14.921 3.36032 15 3.55109 15 3.75C15 3.94891 14.921 4.13968 14.7803 4.28033C14.6397 4.42098 14.4489 4.5 14.25 4.5H2.75C2.55109 4.5 2.36032 4.42098 2.21967 4.28033C2.07902 4.13968 2 3.94891 2 3.75ZM2 7.5C2 7.30109 2.07902 7.11032 2.21967 6.96967C2.36032 6.82902 2.55109 6.75 2.75 6.75H9.115C9.31391 6.75 9.50468 6.82902 9.64533 6.96967C9.78598 7.11032 9.865 7.30109 9.865 7.5C9.865 7.69891 9.78598 7.88968 9.64533 8.03033C9.50468 8.17098 9.31391 8.25 9.115 8.25H2.75C2.55109 8.25 2.36032 8.17098 2.21967 8.03033C2.07902 7.88968 2 7.69891 2 7.5ZM14 7C14.1033 6.99999 14.2054 7.0213 14.3 7.0626C14.3947 7.10389 14.4798 7.16429 14.55 7.24L17.8 10.74C17.867 10.8122 17.9191 10.8969 17.9533 10.9893C17.9875 11.0817 18.0032 11.1799 17.9995 11.2783C17.9958 11.3767 17.9728 11.4734 17.9317 11.563C17.8906 11.6525 17.8322 11.733 17.76 11.8C17.6878 11.867 17.6031 11.9191 17.5107 11.9533C17.4183 11.9875 17.3201 12.0032 17.2217 11.9995C17.1233 11.9958 17.0266 11.9728 16.937 11.9317C16.8475 11.8906 16.767 11.8322 16.7 11.76L14.75 9.66V16.25C14.75 16.4489 14.671 16.6397 14.5303 16.7803C14.3897 16.921 14.1989 17 14 17C13.8011 17 13.6103 16.921 13.4697 16.7803C13.329 16.6397 13.25 16.4489 13.25 16.25V9.66L11.3 11.76C11.233 11.8322 11.1525 11.8906 11.063 11.9317C10.9734 11.9728 10.8767 11.9958 10.7783 11.9995C10.6799 12.0032 10.5817 11.9875 10.4893 11.9533C10.3969 11.9191 10.3122 11.867 10.24 11.8C10.1678 11.733 10.1094 11.6525 10.0683 11.563C10.0272 11.4734 10.0042 11.3767 10.0005 11.2783C9.99675 11.1799 10.0125 11.0817 10.0467 10.9893C10.0809 10.8969 10.133 10.8122 10.2 10.74L13.45 7.24C13.5202 7.16429 13.6053 7.10389 13.7 7.0626C13.7946 7.0213 13.8967 6.99999 14 7ZM2 11.25C2 11.0511 2.07902 10.8603 2.21967 10.7197C2.36032 10.579 2.55109 10.5 2.75 10.5H7C7.19891 10.5 7.38968 10.579 7.53033 10.7197C7.67098 10.8603 7.75 11.0511 7.75 11.25C7.75 11.4489 7.67098 11.6397 7.53033 11.7803C7.38968 11.921 7.19891 12 7 12H2.75C2.55109 12 2.36032 11.921 2.21967 11.7803C2.07902 11.6397 2 11.4489 2 11.25Z" fill="#731054"/>
</svg>
