<svg width="48" height="48" fill="none" xmlns="http://www.w3.org/2000/svg"><g filter="url(#a)"><ellipse cx="22" cy="22.5" rx="20" ry="20.5" fill="#731054"/><g clip-path="url(#b)" stroke="#FAFAFA"  stroke-width="1.25" stroke-linecap="round"><path clip-rule="evenodd" d="M25 22c0-.613.346-1.173.894-1.447l3.659-1.829A1 1 0 0 1 31 19.62v4.763a1 1 0 0 1-1.447.895l-3.659-1.83A1.618 1.618 0 0 1 25 22Z"/><path d="M23 16h-8a2 2 0 0 0-2 2v8a2 2 0 0 0 2 2h8a2 2 0 0 0 2-2v-8a2 2 0 0 0-2-2Z"/></g></g><defs><clipPath id="b"><path fill="#fff" transform="translate(10 10.2)" d="M0 0h24v24.6H0z"/></clipPath><filter id="a" x="0" y="0" width="48" height="48" filterUnits="userSpaceOnUse" color-interpolation-filters="sRGB"><feFlood flood-opacity="0" result="BackgroundImageFix"/><feColorMatrix in="SourceAlpha" values="0 0 0 0 0 0 0 0 0 0 0 0 0 0 0 0 0 0 127 0" result="hardAlpha"/><feOffset dx="2" dy="2"/><feGaussianBlur stdDeviation="2"/><feComposite in2="hardAlpha" operator="out"/><feColorMatrix values="0 0 0 0 0.45098 0 0 0 0 0.0627451 0 0 0 0 0.329412 0 0 0 0.25 0"/><feBlend in2="BackgroundImageFix" result="effect1_dropShadow_604_976"/><feBlend in="SourceGraphic" in2="effect1_dropShadow_604_976" result="shape"/></filter></defs></svg>