<svg width="16" height="17" viewBox="0 0 16 17" fill="none" xmlns="http://www.w3.org/2000/svg">
<path d="M7.21318 11.3916C7.08651 11.3916 6.95984 11.3449 6.85984 11.2449L5.85984 10.2449C5.66651 10.0516 5.66651 9.73156 5.85984 9.53823C6.05318 9.3449 6.37318 9.3449 6.56651 9.53823L7.21318 10.1849L9.52651 7.87156C9.71984 7.67823 10.0398 7.67823 10.2332 7.87156C10.4265 8.0649 10.4265 8.3849 10.2332 8.57823L7.56651 11.2449C7.47318 11.3449 7.33984 11.3916 7.21318 11.3916Z" fill="#8F8F8F"/>
<path d="M9.33984 4.59635H6.67318C6.03318 4.59635 4.83984 4.59635 4.83984 2.76302C4.83984 0.929688 6.03318 0.929688 6.67318 0.929688H9.33984C9.97984 0.929688 11.1732 0.929688 11.1732 2.76302C11.1732 3.40302 11.1732 4.59635 9.33984 4.59635ZM6.67318 1.92969C6.01318 1.92969 5.83984 1.92969 5.83984 2.76302C5.83984 3.59635 6.01318 3.59635 6.67318 3.59635H9.33984C10.1732 3.59635 10.1732 3.42302 10.1732 2.76302C10.1732 1.92969 9.99984 1.92969 9.33984 1.92969H6.67318Z" fill="#8F8F8F"/>
<path d="M10.0078 15.2607H6.00781C2.26115 15.2607 1.50781 13.5407 1.50781 10.7607V6.7607C1.50781 3.7207 2.60781 2.4207 5.31448 2.2807C5.58781 2.26736 5.82781 2.47403 5.84115 2.75403C5.85448 3.03403 5.64115 3.2607 5.36781 3.27403C3.47448 3.3807 2.50781 3.94736 2.50781 6.7607V10.7607C2.50781 13.2274 2.99448 14.2607 6.00781 14.2607H10.0078C13.0211 14.2607 13.5078 13.2274 13.5078 10.7607V6.7607C13.5078 3.94736 12.5411 3.3807 10.6478 3.27403C10.3745 3.2607 10.1611 3.0207 10.1745 2.74736C10.1878 2.47403 10.4211 2.2607 10.7011 2.27403C13.4078 2.4207 14.5078 3.7207 14.5078 6.75403V10.754C14.5078 13.5407 13.7545 15.2607 10.0078 15.2607Z" fill="#8F8F8F"/>
</svg>
