<svg width="17" height="16" viewBox="0 0 17 16" fill="none" xmlns="http://www.w3.org/2000/svg">
<path d="M7.38281 12.646C7.47615 12.7194 7.56948 12.786 7.66948 12.8594C8.42948 13.4127 9.19615 13.8527 9.96281 14.1794C10.7295 14.506 11.4561 14.666 12.1361 14.666C12.6028 14.666 13.0361 14.5794 13.4361 14.4127C13.8428 14.246 14.2028 13.986 14.5295 13.626C14.7228 13.4127 14.8695 13.186 14.9828 12.946C15.0961 12.706 15.1495 12.4594 15.1495 12.2194C15.1495 12.0327 15.1095 11.866 15.0428 11.6994C14.9695 11.5327 14.8495 11.3927 14.6761 11.2727L12.4695 9.70604C12.3028 9.59271 12.1495 9.50604 12.0028 9.44604C11.8561 9.38604 11.7228 9.35938 11.5961 9.35938C11.4295 9.35938 11.2761 9.40604 11.1228 9.49938C10.9695 9.57938 10.8095 9.70604 10.6428 9.87271L10.1361 10.3727C10.0628 10.446 9.97615 10.486 9.86281 10.486C9.80281 10.486 9.74948 10.4794 9.69615 10.4594C9.64948 10.4394 9.60948 10.4194 9.57615 10.406C9.44948 10.3394 9.30281 10.246 9.14281 10.126" stroke="white" stroke-miterlimit="10" stroke-linecap="round" stroke-linejoin="round"/>
<path d="M7.65594 8.81594C7.30927 8.4626 6.98927 8.10927 6.68927 7.7626C6.39594 7.41594 6.18927 7.12927 6.06927 6.90927C6.05594 6.86927 6.03594 6.82927 6.01594 6.77594C6.0026 6.7226 5.99594 6.67594 5.99594 6.6226C5.99594 6.51594 6.02927 6.42927 6.1026 6.35594L6.60927 5.82927C6.76927 5.66927 6.89594 5.50927 6.9826 5.35594C7.07594 5.2026 7.1226 5.0426 7.1226 4.8826C7.1226 4.75594 7.08927 4.61594 7.02927 4.47594C6.96927 4.32927 6.8826 4.17594 6.7626 4.00927L5.21594 1.82927C5.09594 1.65594 4.9426 1.53594 4.76927 1.45594C4.6026 1.37594 4.41594 1.33594 4.22927 1.33594C3.73594 1.33594 3.26927 1.5426 2.8426 1.9626C2.48927 2.29594 2.23594 2.66927 2.07594 3.07594C1.91594 3.47594 1.83594 3.90927 1.83594 4.3626C1.83594 5.05594 1.99594 5.7826 2.31594 6.5426C2.63594 7.29594 3.07594 8.05594 3.6226 8.81594C4.17594 9.57594 4.79594 10.3026 5.4826 10.9959" stroke="white" stroke-miterlimit="10" stroke-linecap="round" stroke-linejoin="round"/>
<path d="M15.1693 1.33594L1.83594 14.6693" stroke="white" stroke-linecap="round" stroke-linejoin="round"/>
</svg>
