<svg width="24" height="24" viewBox="0 0 24 24" fill="none" xmlns="http://www.w3.org/2000/svg">
<g clip-path="url(#clip0_7114_18826)">
<path d="M12.0008 0L11.3408 0.03L15.1508 3.84L16.5008 2.5C19.7508 4.07 22.0908 7.24 22.4508 11H23.9508C23.4408 4.84 18.2908 0 12.0008 0ZM12.0008 4C10.0708 4 8.50078 5.57 8.50078 7.5C8.50078 9.43 10.0708 11 12.0008 11C13.9308 11 15.5008 9.43 15.5008 7.5C15.5008 5.57 13.9308 4 12.0008 4ZM12.0008 6C12.8308 6 13.5008 6.67 13.5008 7.5C13.5008 8.33 12.8308 9 12.0008 9C11.1708 9 10.5008 8.33 10.5008 7.5C10.5008 6.67 11.1708 6 12.0008 6ZM0.0507812 13C0.560781 19.16 5.71078 24 12.0008 24L12.6608 23.97L8.85078 20.16L7.50078 21.5C4.25078 19.94 1.91078 16.76 1.55078 13H0.0507812ZM12.0008 13C8.13078 13 5.00078 14.57 5.00078 16.5V18H19.0008V16.5C19.0008 14.57 15.8708 13 12.0008 13ZM12.0008 15C14.1108 15 15.6108 15.53 16.3908 16H7.61078C8.39078 15.53 9.89078 15 12.0008 15Z" fill="url(#paint0_linear_7114_18826)"/>
</g>
<defs>
<linearGradient id="paint0_linear_7114_18826" x1="23.9508" y1="12" x2="4.50418" y2="2.6939" gradientUnits="userSpaceOnUse">
<stop stop-color="#DE0D6F"/>
<stop offset="1" stop-color="#731054"/>
</linearGradient>
<clipPath id="clip0_7114_18826">
<rect width="24" height="24" fill="white"/>
</clipPath>
</defs>
</svg>
