<svg width="24" height="24" viewBox="0 0 24 24" fill="none" xmlns="http://www.w3.org/2000/svg">
<g clip-path="url(#clip0_7108_4279)">
<path d="M6 6L6.96683 19.5356C6.98552 19.7973 7.20324 20 7.46556 20H16.5344C16.7968 20 17.0145 19.7973 17.0332 19.5356L18 6" stroke="url(#paint0_linear_7108_4279)"  stroke-width="1.25" stroke-linecap="round"/>
<path d="M4 6H20" stroke="url(#paint1_linear_7108_4279)"  stroke-width="1.25" stroke-linecap="round"/>
<path d="M10 10V16" stroke="url(#paint2_linear_7108_4279)"  stroke-width="1.25" stroke-linecap="round"/>
<path d="M14 10V16" stroke="url(#paint3_linear_7108_4279)"  stroke-width="1.25" stroke-linecap="round"/>
<path d="M15 6C15 4.34315 13.6569 3 12 3C10.3431 3 9 4.34315 9 6" stroke="url(#paint4_linear_7108_4279)"  stroke-width="1.25" stroke-linecap="round"/>
</g>
<defs>
<linearGradient id="paint0_linear_7108_4279" x1="18" y1="13" x2="7.74061" y2="8.77417" gradientUnits="userSpaceOnUse">
<stop stop-color="#DE0D6F"/>
<stop offset="1" stop-color="#731054"/>
</linearGradient>
<linearGradient id="paint1_linear_7108_4279" x1="20" y1="6.5" x2="19.7339" y2="4.45366" gradientUnits="userSpaceOnUse">
<stop stop-color="#DE0D6F"/>
<stop offset="1" stop-color="#731054"/>
</linearGradient>
<linearGradient id="paint2_linear_7108_4279" x1="11" y1="13" x2="10.0064" y2="12.9204" gradientUnits="userSpaceOnUse">
<stop stop-color="#DE0D6F"/>
<stop offset="1" stop-color="#731054"/>
</linearGradient>
<linearGradient id="paint3_linear_7108_4279" x1="15" y1="13" x2="14.0064" y2="12.9204" gradientUnits="userSpaceOnUse">
<stop stop-color="#DE0D6F"/>
<stop offset="1" stop-color="#731054"/>
</linearGradient>
<linearGradient id="paint4_linear_7108_4279" x1="15" y1="4.5" x2="11.881" y2="1.50236" gradientUnits="userSpaceOnUse">
<stop stop-color="#DE0D6F"/>
<stop offset="1" stop-color="#731054"/>
</linearGradient>
<clipPath id="clip0_7108_4279">
<rect width="24" height="24" fill="white"/>
</clipPath>
</defs>
</svg>
