<svg width="24" height="24" viewBox="0 0 24 24" fill="none" xmlns="http://www.w3.org/2000/svg">
<g clip-path="url(#clip0_9583_44864)">
<path d="M21 24H3C1.344 24 0 22.656 0 21V3C0 1.344 1.344 0 3 0H21C22.656 0 24 1.344 24 3V21C24 22.656 22.656 24 21 24Z" fill="#1DA1F2"/>
<path d="M9.21781 18.0983C14.8758 18.0983 17.9718 13.4062 17.9718 9.34425C17.9718 9.21225 17.9718 9.08025 17.9658 8.94825C18.5658 8.51625 19.0878 7.97025 19.5018 7.35225C18.9498 7.59825 18.3558 7.76025 17.7318 7.83825C18.3678 7.46025 18.8538 6.85425 19.0878 6.13425C18.4938 6.48825 17.8338 6.74025 17.1318 6.87825C16.5678 6.27825 15.7698 5.90625 14.8878 5.90625C13.1898 5.90625 11.8098 7.28625 11.8098 8.98425C11.8098 9.22425 11.8398 9.45825 11.8878 9.68625C9.33181 9.56025 7.06381 8.33025 5.54581 6.47025C5.28181 6.92625 5.13181 7.45425 5.13181 8.01825C5.13181 9.08625 5.67781 10.0282 6.49981 10.5802C5.99581 10.5623 5.52181 10.4242 5.10781 10.1962V10.2382C5.10781 11.7262 6.16981 12.9743 7.57381 13.2563C7.31581 13.3283 7.04581 13.3643 6.76381 13.3643C6.56581 13.3643 6.37381 13.3462 6.18781 13.3102C6.57781 14.5343 7.71781 15.4222 9.06181 15.4462C8.00581 16.2742 6.67981 16.7662 5.23981 16.7662C4.99381 16.7662 4.74781 16.7542 4.50781 16.7242C5.86381 17.5883 7.48381 18.0983 9.21781 18.0983Z" fill="white"/>
</g>
<defs>
<clipPath id="clip0_9583_44864">
<rect width="24" height="24" fill="white"/>
</clipPath>
</defs>
</svg>
