<svg width="16" height="16" viewBox="0 0 16 16" fill="none" xmlns="http://www.w3.org/2000/svg">
<path d="M7.9974 8.5026C5.88406 8.5026 4.16406 6.7826 4.16406 4.66927C4.16406 2.55594 5.88406 0.835938 7.9974 0.835938C10.1107 0.835938 11.8307 2.55594 11.8307 4.66927C11.8307 6.7826 10.1107 8.5026 7.9974 8.5026ZM7.9974 1.83594C6.4374 1.83594 5.16406 3.10927 5.16406 4.66927C5.16406 6.22927 6.4374 7.5026 7.9974 7.5026C9.5574 7.5026 10.8307 6.22927 10.8307 4.66927C10.8307 3.10927 9.5574 1.83594 7.9974 1.83594Z" fill="#731054"/>
<path d="M2.27344 15.1667C2.0001 15.1667 1.77344 14.94 1.77344 14.6667C1.77344 11.82 4.56677 9.5 8.0001 9.5C8.67344 9.5 9.33343 9.58668 9.97343 9.76668C10.2401 9.84002 10.3934 10.1133 10.3201 10.38C10.2468 10.6467 9.97343 10.8 9.70677 10.7267C9.1601 10.5734 8.58677 10.5 8.0001 10.5C5.1201 10.5 2.77344 12.3667 2.77344 14.6667C2.77344 14.94 2.54677 15.1667 2.27344 15.1667Z" fill="#731054"/>
<path d="M12.0026 15.1693C11.2159 15.1693 10.4693 14.876 9.88926 14.3493C9.65593 14.1493 9.44927 13.9026 9.28927 13.6293C8.99593 13.1493 8.83594 12.5826 8.83594 12.0026C8.83594 11.1693 9.15594 10.3893 9.72927 9.79594C10.3293 9.17594 11.1359 8.83594 12.0026 8.83594C12.9093 8.83594 13.7693 9.22262 14.3559 9.88928C14.8759 10.4693 15.1693 11.2159 15.1693 12.0026C15.1693 12.2559 15.1359 12.5093 15.0693 12.7493C15.0026 13.0493 14.8759 13.3626 14.7026 13.6359C14.1493 14.5826 13.1093 15.1693 12.0026 15.1693ZM12.0026 9.83594C11.4093 9.83594 10.8626 10.0693 10.4493 10.4893C10.0559 10.8959 9.83594 11.4293 9.83594 12.0026C9.83594 12.3959 9.94261 12.7826 10.1493 13.1159C10.2559 13.3026 10.3959 13.4693 10.5559 13.6093C10.9559 13.9759 11.4693 14.1759 12.0026 14.1759C12.7559 14.1759 13.4693 13.7759 13.8559 13.1293C13.9693 12.9426 14.0559 12.7293 14.1026 12.5226C14.1493 12.3493 14.1693 12.1826 14.1693 12.0093C14.1693 11.4759 13.9693 10.9626 13.6093 10.5626C13.2093 10.096 12.6226 9.83594 12.0026 9.83594Z" fill="#731054"/>
<path d="M13.0011 12.4844H11.0078C10.7345 12.4844 10.5078 12.2577 10.5078 11.9844C10.5078 11.711 10.7345 11.4844 11.0078 11.4844H13.0011C13.2745 11.4844 13.5011 11.711 13.5011 11.9844C13.5011 12.2577 13.2745 12.4844 13.0011 12.4844Z" fill="#731054"/>
<path d="M12 13.509C11.7267 13.509 11.5 13.2823 11.5 13.009V11.0156C11.5 10.7423 11.7267 10.5156 12 10.5156C12.2733 10.5156 12.5 10.7423 12.5 11.0156V13.009C12.5 13.289 12.2733 13.509 12 13.509Z" fill="#731054"/>
</svg>
