<svg width="64" height="64" viewBox="0 0 64 64" fill="none" xmlns="http://www.w3.org/2000/svg">
<rect width="64" height="64" rx="32" fill="#FF0000" fill-opacity="0.05"/>
<path d="M32.0052 25.6719C32.2704 25.6719 32.5248 25.7772 32.7123 25.9648C32.8999 26.1523 33.0052 26.4067 33.0052 26.6719V33.3385C33.0052 33.6038 32.8999 33.8581 32.7123 34.0456C32.5248 34.2332 32.2704 34.3385 32.0052 34.3385C31.74 34.3385 31.4856 34.2332 31.2981 34.0456C31.1106 33.8581 31.0052 33.6038 31.0052 33.3385V26.6719C31.0052 26.4067 31.1106 26.1523 31.2981 25.9648C31.4856 25.7772 31.74 25.6719 32.0052 25.6719ZM32.0052 38.6719C32.3588 38.6719 32.698 38.5314 32.948 38.2814C33.1981 38.0313 33.3385 37.6922 33.3385 37.3385C33.3385 36.9849 33.1981 36.6458 32.948 36.3957C32.698 36.1457 32.3588 36.0052 32.0052 36.0052C31.6516 36.0052 31.3124 36.1457 31.0624 36.3957C30.8124 36.6458 30.6719 36.9849 30.6719 37.3385C30.6719 37.6922 30.8124 38.0313 31.0624 38.2814C31.3124 38.5314 31.6516 38.6719 32.0052 38.6719Z" fill="#FF0000"/>
<path fill-rule="evenodd" clip-rule="evenodd" d="M27.0641 21.9602C28.4934 20.1455 30.0081 18.9922 32.0054 18.9922C34.0027 18.9922 35.5174 20.1455 36.9467 21.9602C38.3521 23.7469 39.8401 26.3869 41.7467 29.7669L42.3281 30.7962C43.9027 33.5895 45.1481 35.7962 45.8014 37.5655C46.4681 39.3762 46.6281 41.0189 45.6174 42.4682C44.6374 43.8749 43.0014 44.4495 40.9374 44.7215C38.8827 44.9922 36.1174 44.9922 32.5721 44.9922H31.4387C27.8921 44.9922 25.1281 44.9922 23.0734 44.7215C21.0094 44.4495 19.3734 43.8749 18.3934 42.4682C17.3827 41.0189 17.5414 39.3749 18.2094 37.5655C18.8627 35.7949 20.1081 33.5895 21.6827 30.7962L22.2641 29.7669C24.1694 26.3869 25.6587 23.7455 27.0641 21.9602ZM28.6361 23.1975C27.3374 24.8469 25.9214 27.3522 23.9587 30.8322L23.4734 31.6922C21.8387 34.5909 20.6774 36.6575 20.0867 38.2589C19.5027 39.8402 19.5827 40.6775 20.0334 41.3255C20.5147 42.0135 21.4174 42.4855 23.3347 42.7389C25.2441 42.9895 27.8761 42.9922 31.5214 42.9922H32.4907C36.1347 42.9922 38.7667 42.9895 40.6774 42.7389C42.5934 42.4855 43.4961 42.0135 43.9761 41.3255C44.4281 40.6775 44.5094 39.8402 43.9254 38.2589C43.3334 36.6575 42.1721 34.5909 40.5374 31.6922L40.0521 30.8322C38.0894 27.3522 36.6734 24.8469 35.3747 23.1975C34.0881 21.5655 33.0894 20.9922 32.0054 20.9922C30.9214 20.9922 29.9227 21.5642 28.6361 23.1975Z" fill="#FF0000"/>
</svg>
