<svg width="20" height="20" viewBox="0 0 20 20" fill="none" xmlns="http://www.w3.org/2000/svg">
<g clip-path="url(#clip0_17867_75443)">
<path fill-rule="evenodd" clip-rule="evenodd" d="M5.96335 1.08002C6.11963 0.923735 6.33159 0.835938 6.5526 0.835938H13.4526C13.6736 0.835938 13.8856 0.923735 14.0419 1.08002L18.9252 5.96335C19.0815 6.11963 19.1693 6.33159 19.1693 6.5526V13.4526C19.1693 13.6736 19.0815 13.8856 18.9252 14.0419L14.0419 18.9252C13.8856 19.0815 13.6736 19.1693 13.4526 19.1693H6.5526C6.33159 19.1693 6.11963 19.0815 5.96335 18.9252L1.08002 14.0419C0.923735 13.8856 0.835938 13.6736 0.835938 13.4526V6.5526C0.835938 6.33159 0.923735 6.11963 1.08002 5.96335L5.96335 1.08002ZM6.89778 2.5026L2.5026 6.89778V13.1074L6.89778 17.5026H13.1074L17.5026 13.1074V6.89778L13.1074 2.5026H6.89778Z" fill="white"/>
<path fill-rule="evenodd" clip-rule="evenodd" d="M13.0867 6.90814C13.4121 7.23358 13.4121 7.76121 13.0867 8.08665L8.08665 13.0867C7.76121 13.4121 7.23358 13.4121 6.90814 13.0867C6.5827 12.7612 6.5827 12.2336 6.90814 11.9081L11.9081 6.90814C12.2336 6.5827 12.7612 6.5827 13.0867 6.90814Z" fill="white"/>
<path fill-rule="evenodd" clip-rule="evenodd" d="M6.90814 6.90814C7.23358 6.5827 7.76121 6.5827 8.08665 6.90814L13.0867 11.9081C13.4121 12.2336 13.4121 12.7612 13.0867 13.0867C12.7612 13.4121 12.2336 13.4121 11.9081 13.0867L6.90814 8.08665C6.5827 7.76121 6.5827 7.23358 6.90814 6.90814Z" fill="white"/>
</g>
<defs>
<clipPath id="clip0_17867_75443">
<rect width="20" height="20" fill="white"/>
</clipPath>
</defs>
</svg>
