<svg width="32" height="33" viewBox="0 0 32 33" fill="none" xmlns="http://www.w3.org/2000/svg">
<path d="M16 3.16683C8.66671 3.16683 2.66671 9.16683 2.66671 16.5002C2.66671 23.8335 8.66671 29.8335 16 29.8335C23.3334 29.8335 29.3334 23.8335 29.3334 16.5002C29.3334 9.16683 23.3334 3.16683 16 3.16683Z" stroke="#040404" stroke-width="1.5" stroke-linecap="round" stroke-linejoin="round"/>
<path d="M16 3.16683C8.66671 3.16683 2.66671 9.16683 2.66671 16.5002C2.66671 23.8335 8.66671 29.8335 16 29.8335C23.3334 29.8335 29.3334 23.8335 29.3334 16.5002C29.3334 9.16683 23.3334 3.16683 16 3.16683Z" stroke="black" stroke-opacity="0.2" stroke-width="1.5" stroke-linecap="round" stroke-linejoin="round"/>
<path d="M16 3.16683C8.66671 3.16683 2.66671 9.16683 2.66671 16.5002C2.66671 23.8335 8.66671 29.8335 16 29.8335C23.3334 29.8335 29.3334 23.8335 29.3334 16.5002C29.3334 9.16683 23.3334 3.16683 16 3.16683Z" stroke="black" stroke-opacity="0.2" stroke-width="1.5" stroke-linecap="round" stroke-linejoin="round"/>
<path d="M16 3.16683C8.66671 3.16683 2.66671 9.16683 2.66671 16.5002C2.66671 23.8335 8.66671 29.8335 16 29.8335C23.3334 29.8335 29.3334 23.8335 29.3334 16.5002C29.3334 9.16683 23.3334 3.16683 16 3.16683Z" stroke="black" stroke-opacity="0.2" stroke-width="1.5" stroke-linecap="round" stroke-linejoin="round"/>
<path d="M16 3.16683C8.66671 3.16683 2.66671 9.16683 2.66671 16.5002C2.66671 23.8335 8.66671 29.8335 16 29.8335C23.3334 29.8335 29.3334 23.8335 29.3334 16.5002C29.3334 9.16683 23.3334 3.16683 16 3.16683Z" stroke="black" stroke-opacity="0.2" stroke-width="1.5" stroke-linecap="round" stroke-linejoin="round"/>
<path d="M16 3.16683C8.66671 3.16683 2.66671 9.16683 2.66671 16.5002C2.66671 23.8335 8.66671 29.8335 16 29.8335C23.3334 29.8335 29.3334 23.8335 29.3334 16.5002C29.3334 9.16683 23.3334 3.16683 16 3.16683Z" stroke="black" stroke-opacity="0.2" stroke-width="1.5" stroke-linecap="round" stroke-linejoin="round"/>
<path d="M16 3.16683C8.66671 3.16683 2.66671 9.16683 2.66671 16.5002C2.66671 23.8335 8.66671 29.8335 16 29.8335C23.3334 29.8335 29.3334 23.8335 29.3334 16.5002C29.3334 9.16683 23.3334 3.16683 16 3.16683Z" stroke="black" stroke-opacity="0.2" stroke-width="1.5" stroke-linecap="round" stroke-linejoin="round"/>
<path d="M16 3.16683C8.66671 3.16683 2.66671 9.16683 2.66671 16.5002C2.66671 23.8335 8.66671 29.8335 16 29.8335C23.3334 29.8335 29.3334 23.8335 29.3334 16.5002C29.3334 9.16683 23.3334 3.16683 16 3.16683Z" stroke="black" stroke-opacity="0.2" stroke-width="1.5" stroke-linecap="round" stroke-linejoin="round"/>
<path d="M16 3.16683C8.66671 3.16683 2.66671 9.16683 2.66671 16.5002C2.66671 23.8335 8.66671 29.8335 16 29.8335C23.3334 29.8335 29.3334 23.8335 29.3334 16.5002C29.3334 9.16683 23.3334 3.16683 16 3.16683Z" stroke="black" stroke-opacity="0.2" stroke-width="1.5" stroke-linecap="round" stroke-linejoin="round"/>
<path d="M16 21.8335V15.1668" stroke="#040404" stroke-width="1.5" stroke-linecap="round" stroke-linejoin="round"/>
<path d="M16 21.8335V15.1668" stroke="black" stroke-opacity="0.2" stroke-width="1.5" stroke-linecap="round" stroke-linejoin="round"/>
<path d="M16 21.8335V15.1668" stroke="black" stroke-opacity="0.2" stroke-width="1.5" stroke-linecap="round" stroke-linejoin="round"/>
<path d="M16 21.8335V15.1668" stroke="black" stroke-opacity="0.2" stroke-width="1.5" stroke-linecap="round" stroke-linejoin="round"/>
<path d="M16 21.8335V15.1668" stroke="black" stroke-opacity="0.2" stroke-width="1.5" stroke-linecap="round" stroke-linejoin="round"/>
<path d="M16 21.8335V15.1668" stroke="black" stroke-opacity="0.2" stroke-width="1.5" stroke-linecap="round" stroke-linejoin="round"/>
<path d="M16 21.8335V15.1668" stroke="black" stroke-opacity="0.2" stroke-width="1.5" stroke-linecap="round" stroke-linejoin="round"/>
<path d="M16 21.8335V15.1668" stroke="black" stroke-opacity="0.2" stroke-width="1.5" stroke-linecap="round" stroke-linejoin="round"/>
<path d="M16 21.8335V15.1668" stroke="black" stroke-opacity="0.2" stroke-width="1.5" stroke-linecap="round" stroke-linejoin="round"/>
<path d="M16.0073 11.1665H15.9953" stroke="#040404" stroke-width="2" stroke-linecap="round" stroke-linejoin="round"/>
<path d="M16.0073 11.1665H15.9953" stroke="black" stroke-opacity="0.2" stroke-width="2" stroke-linecap="round" stroke-linejoin="round"/>
<path d="M16.0073 11.1665H15.9953" stroke="black" stroke-opacity="0.2" stroke-width="2" stroke-linecap="round" stroke-linejoin="round"/>
<path d="M16.0073 11.1665H15.9953" stroke="black" stroke-opacity="0.2" stroke-width="2" stroke-linecap="round" stroke-linejoin="round"/>
<path d="M16.0073 11.1665H15.9953" stroke="black" stroke-opacity="0.2" stroke-width="2" stroke-linecap="round" stroke-linejoin="round"/>
<path d="M16.0073 11.1665H15.9953" stroke="black" stroke-opacity="0.2" stroke-width="2" stroke-linecap="round" stroke-linejoin="round"/>
<path d="M16.0073 11.1665H15.9953" stroke="black" stroke-opacity="0.2" stroke-width="2" stroke-linecap="round" stroke-linejoin="round"/>
<path d="M16.0073 11.1665H15.9953" stroke="black" stroke-opacity="0.2" stroke-width="2" stroke-linecap="round" stroke-linejoin="round"/>
<path d="M16.0073 11.1665H15.9953" stroke="black" stroke-opacity="0.2" stroke-width="2" stroke-linecap="round" stroke-linejoin="round"/>
</svg>
