 <svg
            width="24"
            height="24"
            viewBox="0 0 24 24"
            fill="none"
            xmlns="http://www.w3.org/2000/svg">
            <path
              d="M3.47452 2.40468C3.34466 2.36702 3.20703 2.36517 3.07621 2.39931C2.94538 2.43346 2.82622 2.50234 2.73133 2.59866C2.63644 2.69499 2.56936 2.81517 2.53718 2.94649C2.505 3.07782 2.50892 3.2154 2.54852 3.34468L4.98052 11.2497H13.4965C13.6954 11.2497 13.8862 11.3287 14.0268 11.4693C14.1675 11.61 14.2465 11.8008 14.2465 11.9997C14.2465 12.1986 14.1675 12.3894 14.0268 12.53C13.8862 12.6707 13.6954 12.7497 13.4965 12.7497H4.98052L2.54852 20.6547C2.50892 20.784 2.505 20.9215 2.53718 21.0529C2.56936 21.1842 2.63644 21.3044 2.73133 21.4007C2.82622 21.497 2.94538 21.5659 3.07621 21.6C3.20703 21.6342 3.34466 21.6323 3.47452 21.5947C10.0895 19.671 16.3274 16.632 21.9195 12.6087C22.0161 12.5392 22.0949 12.4478 22.1492 12.3419C22.2035 12.236 22.2318 12.1187 22.2318 11.9997C22.2318 11.8807 22.2035 11.7634 22.1492 11.6575C22.0949 11.5516 22.0161 11.4601 21.9195 11.3907C16.3275 7.36733 10.0895 4.32833 3.47452 2.40468Z"
              fill="#731054"
            />
          </svg>