<svg width="24" height="24" viewBox="0 0 24 24" fill="none" xmlns="http://www.w3.org/2000/svg">
<path d="M18 10.5L18 20.25M18 10.5C17.6022 10.5 17.2206 10.342 16.9393 10.0607C16.658 9.77936 16.5 9.39782 16.5 9C16.5 8.60218 16.658 8.22064 16.9393 7.93934C17.2206 7.65803 17.6022 7.5 18 7.5M18 10.5C18.3978 10.5 18.7794 10.342 19.0607 10.0607C19.342 9.77936 19.5 9.39782 19.5 9C19.5 8.60218 19.342 8.22064 19.0607 7.93934C18.7794 7.65804 18.3978 7.5 18 7.5M18 7.5L18 3.75M6 10.5L6 20.25M6 10.5C5.60217 10.5 5.22064 10.342 4.93934 10.0607C4.65804 9.77936 4.5 9.39782 4.5 9C4.5 8.60217 4.65804 8.22064 4.93934 7.93934C5.22064 7.65803 5.60218 7.5 6 7.5M6 10.5C6.39782 10.5 6.77935 10.342 7.06066 10.0607C7.34196 9.77936 7.5 9.39782 7.5 9C7.5 8.60217 7.34196 8.22064 7.06066 7.93934C6.77935 7.65803 6.39782 7.5 6 7.5M6 7.5L6 3.75M12 16.5L12 20.25M12 16.5C11.6022 16.5 11.2206 16.342 10.9393 16.0607C10.658 15.7794 10.5 15.3978 10.5 15C10.5 14.6022 10.658 14.2206 10.9393 13.9393C11.2206 13.658 11.6022 13.5 12 13.5M12 16.5C12.3978 16.5 12.7794 16.342 13.0607 16.0607C13.342 15.7794 13.5 15.3978 13.5 15C13.5 14.6022 13.342 14.2206 13.0607 13.9393C12.7794 13.658 12.3978 13.5 12 13.5M12 13.5L12 3.75" stroke="black" stroke-width="1.25" stroke-linecap="round" stroke-linejoin="round"/>
</svg>
