<svg width="16" height="16" viewBox="0 0 16 16" fill="none" xmlns="http://www.w3.org/2000/svg">
<path d="M10.6426 15.1621H5.30924C3.02924 15.1621 2.14258 14.2754 2.14258 11.9954V6.66211C2.14258 6.38878 2.36924 6.16211 2.64258 6.16211H13.3092C13.5826 6.16211 13.8092 6.38878 13.8092 6.66211V11.9954C13.8092 14.2754 12.9226 15.1621 10.6426 15.1621ZM3.14258 7.16211V11.9954C3.14258 13.7154 3.58924 14.1621 5.30924 14.1621H10.6426C12.3626 14.1621 12.8092 13.7154 12.8092 11.9954V7.16211H3.14258Z" fill="url(#paint0_linear_901_6380)"/>
<path d="M12.9954 7.16341H2.99544C1.82878 7.16341 1.16211 6.49674 1.16211 5.33008V4.66341C1.16211 3.49674 1.82878 2.83008 2.99544 2.83008H12.9954C14.1288 2.83008 14.8288 3.53008 14.8288 4.66341V5.33008C14.8288 6.46341 14.1288 7.16341 12.9954 7.16341ZM2.99544 3.83008C2.38878 3.83008 2.16211 4.05674 2.16211 4.66341V5.33008C2.16211 5.93674 2.38878 6.16341 2.99544 6.16341H12.9954C13.5821 6.16341 13.8288 5.91674 13.8288 5.33008V4.66341C13.8288 4.07674 13.5821 3.83008 12.9954 3.83008H2.99544Z" fill="url(#paint1_linear_901_6380)"/>
<path d="M7.75681 3.8287H4.07681C3.93681 3.8287 3.80347 3.7687 3.71014 3.6687C3.30347 3.22203 3.31681 2.53536 3.74347 2.1087L4.69014 1.16203C5.13014 0.722031 5.85681 0.722031 6.29681 1.16203L8.11014 2.97536C8.25014 3.11536 8.29681 3.33536 8.21681 3.52203C8.14347 3.7087 7.96347 3.8287 7.75681 3.8287ZM4.44347 2.8287H6.55681L5.59014 1.8687C5.53681 1.81536 5.45014 1.81536 5.39681 1.8687L4.45014 2.81536C4.45014 2.82203 4.44347 2.82203 4.44347 2.8287Z" fill="url(#paint2_linear_901_6380)"/>
<path d="M11.9095 3.8287H8.22949C8.02949 3.8287 7.84282 3.7087 7.76948 3.52203C7.68948 3.33536 7.73615 3.12203 7.87615 2.97536L9.68948 1.16203C10.1295 0.722031 10.8562 0.722031 11.2962 1.16203L12.2428 2.1087C12.6695 2.53536 12.6895 3.22203 12.2762 3.6687C12.1828 3.7687 12.0495 3.8287 11.9095 3.8287ZM9.44282 2.8287H11.5562C11.5495 2.82203 11.5495 2.82203 11.5428 2.81536L10.5962 1.8687C10.5428 1.81536 10.4562 1.81536 10.4028 1.8687L9.44282 2.8287Z" fill="url(#paint3_linear_901_6380)"/>
<path d="M6.6237 11.2621C6.43703 11.2621 6.2437 11.2154 6.07036 11.1221C5.69036 10.9154 5.45703 10.5221 5.45703 10.0954V6.66211C5.45703 6.38878 5.6837 6.16211 5.95703 6.16211H9.9837C10.257 6.16211 10.4837 6.38878 10.4837 6.66211V10.0821C10.4837 10.5154 10.2504 10.9088 9.87037 11.1088C9.49037 11.3154 9.03037 11.2888 8.67037 11.0488L8.07703 10.6488C8.0237 10.6088 7.95037 10.6088 7.89037 10.6488L7.2637 11.0621C7.07036 11.1954 6.8437 11.2621 6.6237 11.2621ZM6.45703 7.16211V10.0888C6.45703 10.1754 6.51036 10.2154 6.5437 10.2354C6.57703 10.2554 6.6437 10.2754 6.71703 10.2288L7.3437 9.81544C7.73703 9.55544 8.2437 9.55544 8.63036 9.81544L9.2237 10.2154C9.29703 10.2621 9.3637 10.2421 9.39703 10.2221C9.43037 10.2021 9.4837 10.1621 9.4837 10.0754V7.15544H6.45703V7.16211Z" fill="url(#paint4_linear_901_6380)"/>
<defs>
<linearGradient id="paint0_linear_901_6380" x1="13.8092" y1="10.6621" x2="5.40414" y2="5.42629" gradientUnits="userSpaceOnUse">
<stop stop-color="#DE0D6F"/>
<stop offset="1" stop-color="#731054"/>
</linearGradient>
<linearGradient id="paint1_linear_901_6380" x1="14.8288" y1="4.99674" x2="10.6836" y2="-1.28565" gradientUnits="userSpaceOnUse">
<stop stop-color="#DE0D6F"/>
<stop offset="1" stop-color="#731054"/>
</linearGradient>
<linearGradient id="paint2_linear_901_6380" x1="8.25582" y1="2.33036" x2="5.23509" y2="-0.0150218" gradientUnits="userSpaceOnUse">
<stop stop-color="#DE0D6F"/>
<stop offset="1" stop-color="#731054"/>
</linearGradient>
<linearGradient id="paint3_linear_901_6380" x1="12.5748" y1="2.33036" x2="9.55367" y2="-0.0165771" gradientUnits="userSpaceOnUse">
<stop stop-color="#DE0D6F"/>
<stop offset="1" stop-color="#731054"/>
</linearGradient>
<linearGradient id="paint4_linear_901_6380" x1="10.4837" y1="8.71211" x2="6.37806" y2="6.76752" gradientUnits="userSpaceOnUse">
<stop stop-color="#DE0D6F"/>
<stop offset="1" stop-color="#731054"/>
</linearGradient>
</defs>
</svg>
