<svg width="16" height="16" viewBox="0 0 16 16" fill="none" xmlns="http://www.w3.org/2000/svg">
<g id="Lock">
<path id="Vector" fill-rule="evenodd" clip-rule="evenodd" d="M8.00039 0.799805C7.04561 0.799805 6.12994 1.17909 5.45481 1.85422C4.77968 2.52935 4.40039 3.44503 4.40039 4.3998V7.1998H4.00039C3.57604 7.1998 3.16908 7.36838 2.86902 7.66843C2.56896 7.96849 2.40039 8.37546 2.40039 8.7998V13.5998C2.40039 14.0242 2.56896 14.4311 2.86902 14.7312C3.16908 15.0312 3.57604 15.1998 4.00039 15.1998H12.0004C12.4247 15.1998 12.8317 15.0312 13.1318 14.7312C13.4318 14.4311 13.6004 14.0242 13.6004 13.5998V8.7998C13.6004 8.37546 13.4318 7.96849 13.1318 7.66843C12.8317 7.36838 12.4247 7.1998 12.0004 7.1998H11.6004V4.3998C11.6004 3.44503 11.2211 2.52935 10.546 1.85422C9.87084 1.17909 8.95517 0.799805 8.00039 0.799805ZM10.4004 7.1998V4.3998C10.4004 3.76328 10.1475 3.15284 9.69745 2.70275C9.24736 2.25266 8.63691 1.9998 8.00039 1.9998C7.36387 1.9998 6.75342 2.25266 6.30333 2.70275C5.85325 3.15284 5.60039 3.76328 5.60039 4.3998V7.1998H10.4004Z" fill="url(#paint0_linear_1241_2594)"/>
</g>
<defs>
<linearGradient id="paint0_linear_1241_2594" x1="13.6004" y1="7.9998" x2="3.77321" y2="4.3268" gradientUnits="userSpaceOnUse">
<stop stop-color="#DE0D6F"/>
<stop offset="1" stop-color="#731054"/>
</linearGradient>
</defs>
</svg>
