<svg width="16" height="16" viewBox="0 0 16 16" fill="none" xmlns="http://www.w3.org/2000/svg">
<path d="M11.332 12.2858H8.66536L5.69869 14.2592C5.25869 14.5525 4.66536 14.2392 4.66536 13.7059V12.2858C2.66536 12.2858 1.33203 10.9525 1.33203 8.95251V4.95247C1.33203 2.95247 2.66536 1.61914 4.66536 1.61914H11.332C13.332 1.61914 14.6654 2.95247 14.6654 4.95247V8.95251C14.6654 10.9525 13.332 12.2858 11.332 12.2858Z" stroke="#731054" stroke-miterlimit="10" stroke-linecap="round" stroke-linejoin="round"/>
<path d="M8.00118 7.57422V7.43424C8.00118 6.98091 8.2812 6.7409 8.5612 6.54757C8.83453 6.3609 9.10783 6.12091 9.10783 5.68091C9.10783 5.06757 8.61451 4.57422 8.00118 4.57422C7.38785 4.57422 6.89453 5.06757 6.89453 5.68091" stroke="#731054" stroke-linecap="round" stroke-linejoin="round"/>
<path d="M7.9983 9.16732H8.0043" stroke="#731054" stroke-linecap="round" stroke-linejoin="round"/>
</svg>
