<svg width="16" height="16" viewBox="0 0 16 16" fill="none" xmlns="http://www.w3.org/2000/svg">
<path d="M14.4408 6.96033L13.7874 9.747C13.2274 12.1537 12.1208 13.127 10.0408 12.927C9.70744 12.9003 9.34744 12.8403 8.96077 12.747L7.84077 12.4803C5.06077 11.8203 4.20077 10.447 4.8541 7.66033L5.50744 4.867C5.64077 4.30033 5.80077 3.807 6.00077 3.40033C6.78077 1.787 8.10744 1.35366 10.3341 1.88033L11.4474 2.14033C14.2408 2.79366 15.0941 4.17366 14.4408 6.96033Z" stroke="#731054" stroke-linecap="round" stroke-linejoin="round"/>
<path d="M10.0402 12.9271C9.62689 13.2071 9.10689 13.4404 8.47356 13.6471L7.42023 13.9937C4.77356 14.8471 3.38023 14.1337 2.52023 11.4871L1.66689 8.85372C0.813561 6.20706 1.52023 4.80706 4.16689 3.95372L5.22023 3.60706C5.49356 3.52039 5.75356 3.44706 6.00023 3.40039C5.80023 3.80706 5.64023 4.30039 5.50689 4.86706L4.85356 7.66039C4.20023 10.4471 5.06023 11.8204 7.84023 12.4804L8.96023 12.7471C9.34689 12.8404 9.70689 12.9004 10.0402 12.9271Z" stroke="#731054" stroke-linecap="round" stroke-linejoin="round"/>
<path d="M8.42578 5.6875L11.6591 6.5075" stroke="#731054" stroke-linecap="round" stroke-linejoin="round"/>
<path d="M7.77344 8.26758L9.70677 8.76091" stroke="#731054" stroke-linecap="round" stroke-linejoin="round"/>
</svg>
