<svg width="16" height="16" viewBox="0 0 16 16" fill="none" xmlns="http://www.w3.org/2000/svg">
<path d="M8.0013 7.99967C9.84225 7.99967 11.3346 6.50729 11.3346 4.66634C11.3346 2.82539 9.84225 1.33301 8.0013 1.33301C6.16035 1.33301 4.66797 2.82539 4.66797 4.66634C4.66797 6.50729 6.16035 7.99967 8.0013 7.99967Z" stroke="#731054" stroke-linecap="round" stroke-linejoin="round"/>
<path d="M2.27344 14.6667C2.27344 12.0867 4.8401 10 8.0001 10C8.6401 10 9.26011 10.0867 9.84011 10.2467" stroke="#731054" stroke-linecap="round" stroke-linejoin="round"/>
<path d="M14.6654 11.9997C14.6654 12.213 14.6387 12.4197 14.5854 12.6197C14.5254 12.8863 14.4187 13.1463 14.2787 13.373C13.8187 14.1463 12.972 14.6663 11.9987 14.6663C11.312 14.6663 10.692 14.4063 10.2254 13.9797C10.0254 13.8063 9.85202 13.5997 9.71869 13.373C9.47202 12.973 9.33203 12.4997 9.33203 11.9997C9.33203 11.2797 9.6187 10.6197 10.0854 10.1397C10.572 9.63969 11.252 9.33301 11.9987 9.33301C12.7854 9.33301 13.4987 9.67302 13.9787 10.2197C14.4054 10.693 14.6654 11.3197 14.6654 11.9997Z" stroke="#731054" stroke-miterlimit="10" stroke-linecap="round" stroke-linejoin="round"/>
<path d="M12.9945 11.9873H11.0078" stroke="#731054" stroke-miterlimit="10" stroke-linecap="round" stroke-linejoin="round"/>
<path d="M12 11.0137V13.007" stroke="#731054" stroke-miterlimit="10" stroke-linecap="round" stroke-linejoin="round"/>
</svg>
