<svg width="18" height="18" viewBox="0 0 16 16" fill="none" xmlns="http://www.w3.org/2000/svg">
<path d="M8.09792 7.74634C8.07792 7.74634 8.06458 7.74634 8.04458 7.74634C8.01125 7.73967 7.96458 7.73967 7.92458 7.74634C5.99125 7.68634 4.53125 6.16634 4.53125 4.29301C4.53125 2.38634 6.08458 0.833008 7.99125 0.833008C9.89792 0.833008 11.4513 2.38634 11.4513 4.29301C11.4446 6.16634 9.97792 7.68634 8.11792 7.74634C8.11125 7.74634 8.10458 7.74634 8.09792 7.74634ZM7.99125 1.83301C6.63792 1.83301 5.53125 2.93967 5.53125 4.29301C5.53125 5.62634 6.57125 6.69967 7.89792 6.74634C7.93125 6.73967 8.02458 6.73967 8.11125 6.74634C9.41792 6.68634 10.4446 5.61301 10.4512 4.29301C10.4512 2.93967 9.34458 1.83301 7.99125 1.83301Z" fill="#731054"/>
<path d="M8.10526 15.0337C6.79859 15.0337 5.48526 14.7003 4.49193 14.0337C3.56526 13.4203 3.05859 12.5803 3.05859 11.667C3.05859 10.7537 3.56526 9.90699 4.49193 9.28699C6.49193 7.96033 9.73193 7.96033 11.7186 9.28699C12.6386 9.90033 13.1519 10.7403 13.1519 11.6537C13.1519 12.567 12.6453 13.4137 11.7186 14.0337C10.7186 14.7003 9.41193 15.0337 8.10526 15.0337ZM5.04526 10.127C4.40526 10.5537 4.05859 11.1003 4.05859 11.6737C4.05859 12.2403 4.41193 12.787 5.04526 13.207C6.70526 14.3203 9.50526 14.3203 11.1653 13.207C11.8053 12.7803 12.1519 12.2337 12.1519 11.6603C12.1519 11.0937 11.7986 10.547 11.1653 10.127C9.50526 9.02033 6.70526 9.02033 5.04526 10.127Z" fill="#731054"/>
</svg>
