<svg width="16" height="16" viewBox="0 0 16 16" fill="none" xmlns="http://www.w3.org/2000/svg">
<path d="M3.69723 13.0156C3.29056 13.0156 2.91056 12.8756 2.63723 12.6156C2.29056 12.289 2.1239 11.7956 2.1839 11.2623L2.43056 9.10231C2.47723 8.69564 2.7239 8.15565 3.01056 7.86231L8.4839 2.06898C9.85056 0.622311 11.2772 0.582311 12.7239 1.94898C14.1706 3.31564 14.2106 4.74231 12.8439 6.18898L7.37056 11.9823C7.09056 12.2823 6.57056 12.5623 6.1639 12.629L4.01723 12.9956C3.9039 13.0023 3.8039 13.0156 3.69723 13.0156ZM10.6239 1.94231C10.1106 1.94231 9.6639 2.26231 9.21056 2.74231L3.73723 8.54231C3.6039 8.68231 3.45056 9.01565 3.4239 9.20898L3.17723 11.369C3.15056 11.589 3.2039 11.769 3.3239 11.8823C3.4439 11.9956 3.6239 12.0356 3.8439 12.0023L5.99056 11.6356C6.1839 11.6023 6.5039 11.429 6.63723 11.289L12.1106 5.49564C12.9372 4.61564 13.2372 3.80231 12.0306 2.66898C11.4972 2.15564 11.0372 1.94231 10.6239 1.94231Z" fill="#731054"/>
<path d="M11.5629 7.29925C11.5496 7.29925 11.5296 7.29925 11.5162 7.29925C9.43623 7.09258 7.76289 5.51258 7.44289 3.44592C7.40289 3.17258 7.58956 2.91925 7.86289 2.87258C8.13623 2.83258 8.38956 3.01925 8.43623 3.29258C8.68956 4.90592 9.99623 6.14592 11.6229 6.30592C11.8962 6.33258 12.0962 6.57925 12.0696 6.85258C12.0362 7.10592 11.8162 7.29925 11.5629 7.29925Z" fill="#731054"/>
<path d="M14 15.1641H2C1.72667 15.1641 1.5 14.9374 1.5 14.6641C1.5 14.3907 1.72667 14.1641 2 14.1641H14C14.2733 14.1641 14.5 14.3907 14.5 14.6641C14.5 14.9374 14.2733 15.1641 14 15.1641Z" fill="#731054"/>
</svg>
