<svg width="16" height="16" viewBox="0 0 16 16" fill="none" xmlns="http://www.w3.org/2000/svg">
<path d="M8 10C9.10457 10 10 9.10457 10 8C10 6.89543 9.10457 6 8 6C6.89543 6 6 6.89543 6 8C6 9.10457 6.89543 10 8 10Z" stroke="#731054" stroke-miterlimit="10" stroke-linecap="round" stroke-linejoin="round"/>
<path d="M1.33594 8.59021V7.41687C1.33594 6.72354 1.9026 6.15021 2.6026 6.15021C3.80927 6.15021 4.3026 5.29687 3.69594 4.25021C3.34927 3.65021 3.55594 2.87021 4.1626 2.52354L5.31594 1.86354C5.8426 1.55021 6.5226 1.73687 6.83594 2.26354L6.90927 2.39021C7.50927 3.43687 8.49594 3.43687 9.1026 2.39021L9.17594 2.26354C9.48927 1.73687 10.1693 1.55021 10.6959 1.86354L11.8493 2.52354C12.4559 2.87021 12.6626 3.65021 12.3159 4.25021C11.7093 5.29687 12.2026 6.15021 13.4093 6.15021C14.1026 6.15021 14.6759 6.71687 14.6759 7.41687V8.59021C14.6759 9.28354 14.1093 9.85687 13.4093 9.85687C12.2026 9.85687 11.7093 10.7102 12.3159 11.7569C12.6626 12.3635 12.4559 13.1369 11.8493 13.4835L10.6959 14.1435C10.1693 14.4569 9.48927 14.2702 9.17594 13.7435L9.1026 13.6169C8.5026 12.5702 7.51594 12.5702 6.90927 13.6169L6.83594 13.7435C6.5226 14.2702 5.8426 14.4569 5.31594 14.1435L4.1626 13.4835C3.55594 13.1369 3.34927 12.3569 3.69594 11.7569C4.3026 10.7102 3.80927 9.85687 2.6026 9.85687C1.9026 9.85687 1.33594 9.28354 1.33594 8.59021Z" stroke="#731054" stroke-miterlimit="10" stroke-linecap="round" stroke-linejoin="round"/>
</svg>
