<svg width="16" height="16" viewBox="0 0 16 16" fill="none" xmlns="http://www.w3.org/2000/svg">
<path d="M7.99996 0.825602C11.9533 0.825602 15.1666 4.03894 15.1666 7.99227C15.1666 11.9456 11.9533 15.1589 7.99996 15.1589C4.04663 15.1589 0.833292 11.9456 0.833292 7.99227C0.833292 4.03894 4.04663 0.825602 7.99996 0.825602ZM7.99996 14.1589C11.4 14.1589 14.1666 11.3923 14.1666 7.99227C14.1666 4.59227 11.4 1.8256 7.99996 1.8256C4.59996 1.8256 1.83329 4.59227 1.83329 7.99227C1.83329 11.3923 4.59996 14.1589 7.99996 14.1589Z" fill="#707070"/>
<path d="M8 6.8256C8.27333 6.8256 8.5 7.05227 8.5 7.3256V10.6589C8.5 10.9323 8.27333 11.1589 8 11.1589C7.72667 11.1589 7.5 10.9323 7.5 10.6589V7.3256C7.5 7.05227 7.72667 6.8256 8 6.8256Z" fill="#707070"/>
<path d="M7.99996 4.65877C8.08663 4.65877 8.17329 4.67877 8.25329 4.7121C8.33329 4.74544 8.40663 4.7921 8.47329 4.8521C8.53329 4.91877 8.57996 4.98544 8.61329 5.0721C8.64663 5.1521 8.66663 5.23877 8.66663 5.32544C8.66663 5.4121 8.64663 5.49877 8.61329 5.57877C8.57996 5.65877 8.53329 5.7321 8.47329 5.79877C8.40663 5.85877 8.33329 5.90544 8.25329 5.93877C8.09329 6.00544 7.90663 6.00544 7.74663 5.93877C7.66663 5.90544 7.59329 5.85877 7.52663 5.79877C7.46663 5.7321 7.41996 5.65877 7.38663 5.57877C7.35329 5.49877 7.33329 5.4121 7.33329 5.32544C7.33329 5.23877 7.35329 5.1521 7.38663 5.0721C7.41996 4.98544 7.46663 4.91877 7.52663 4.8521C7.59329 4.7921 7.66663 4.74544 7.74663 4.7121C7.82663 4.67877 7.91329 4.65877 7.99996 4.65877Z" fill="#707070"/>
</svg>
