<svg width="16" height="16" viewBox="0 0 16 16" fill="none" xmlns="http://www.w3.org/2000/svg">
<path d="M7.99219 15.1667C4.03886 15.1667 0.825523 11.9534 0.825523 8.00004C0.825523 4.04671 4.03886 0.833374 7.99219 0.833374C11.9455 0.833374 15.1589 4.04671 15.1589 8.00004C15.1589 11.9534 11.9455 15.1667 7.99219 15.1667ZM7.99219 1.83337C4.59219 1.83337 1.82552 4.60004 1.82552 8.00004C1.82552 11.4 4.59219 14.1667 7.99219 14.1667C11.3922 14.1667 14.1589 11.4 14.1589 8.00004C14.1589 4.60004 11.3922 1.83337 7.99219 1.83337Z" fill="#F3404F"/>
<path d="M6.10511 10.3863C5.97844 10.3863 5.85177 10.3396 5.75177 10.2396C5.55844 10.0463 5.55844 9.72629 5.75177 9.53296L9.52511 5.75962C9.71844 5.56629 10.0384 5.56629 10.2318 5.75962C10.4251 5.95296 10.4251 6.27296 10.2318 6.46629L6.45844 10.2396C6.36511 10.3396 6.23177 10.3863 6.10511 10.3863Z" fill="#F3404F"/>
<path d="M9.87844 10.3863C9.75177 10.3863 9.62511 10.3396 9.52511 10.2396L5.75177 6.46629C5.55844 6.27296 5.55844 5.95296 5.75177 5.75962C5.94511 5.56629 6.26511 5.56629 6.45844 5.75962L10.2318 9.53296C10.4251 9.72629 10.4251 10.0463 10.2318 10.2396C10.1318 10.3396 10.0051 10.3863 9.87844 10.3863Z" fill="#F3404F"/>
</svg>
