<svg width="16" height="16" viewBox="0 0 16 16" fill="none" xmlns="http://www.w3.org/2000/svg">
<path d="M7.33337 1.3335H6.00004C2.66671 1.3335 1.33337 2.66683 1.33337 6.00016V10.0002C1.33337 13.3335 2.66671 14.6668 6.00004 14.6668H10C13.3334 14.6668 14.6667 13.3335 14.6667 10.0002V8.66683" stroke="#731054" stroke-linecap="round" stroke-linejoin="round"/>
<path d="M10.6934 2.0135L5.44004 7.26684C5.24004 7.46684 5.04004 7.86017 5.00004 8.14684L4.71337 10.1535C4.60671 10.8802 5.12004 11.3868 5.84671 11.2868L7.85337 11.0002C8.13337 10.9602 8.52671 10.7602 8.73337 10.5602L13.9867 5.30684C14.8934 4.40017 15.32 3.34684 13.9867 2.0135C12.6534 0.680168 11.6 1.10684 10.6934 2.0135Z" stroke="#731054" stroke-miterlimit="10" stroke-linecap="round" stroke-linejoin="round"/>
<path d="M9.93994 2.7666C10.3866 4.35993 11.6333 5.6066 13.2333 6.05993" stroke="#731054" stroke-miterlimit="10" stroke-linecap="round" stroke-linejoin="round"/>
</svg>
