<svg version="1.1" id="Layer_1" xmlns="http://www.w3.org/2000/svg" xmlns:xlink="http://www.w3.org/1999/xlink" x="0px" y="0px"
	 width="100%" viewBox="1 1 100 100" enable-background="new 0 0 100 100" xml:space="preserve" style="
    margin: -1px;
   ">
<path fill="#731054" opacity="1.000000" stroke="none" 
	d="
M101.000000,38.000000 
	C101.000000,59.333328 101.000000,80.166656 101.000000,100.999985 
	C67.666679,100.999992 34.333366,100.999992 1.000036,101.000000 
	C1.000024,67.666695 1.000024,34.333385 1.000012,1.000059 
	C34.333298,1.000039 67.666595,1.000039 100.999947,1.000020 
	C101.000000,13.166667 101.000000,25.333334 101.000000,38.000000 
M64.494843,80.999931 
	C68.494820,80.998489 72.497269,81.086174 76.494194,80.975121 
	C82.784676,80.800323 86.890411,76.905029 86.952477,70.670197 
	C87.086845,57.171852 87.117989,43.669617 86.942421,30.172211 
	C86.848938,22.985268 83.267105,19.151747 76.203926,19.083834 
	C55.706375,18.886755 35.205086,18.929419 14.706657,19.074806 
	C9.424427,19.112270 5.100612,23.215038 5.055942,28.005922 
	C4.922313,42.337669 4.887961,56.672947 5.064406,71.003777 
	C5.140950,77.220627 9.398230,80.937096 15.720066,80.995674 
	C17.978937,81.016602 20.238165,80.999023 22.497231,80.999023 
	C22.889540,81.493988 23.281849,81.988945 23.674158,82.483910 
	C21.602261,86.160179 19.530361,89.836456 16.787689,94.702919 
	C19.383936,94.702919 21.393009,94.921974 23.338539,94.663231 
	C30.084763,93.766022 35.033943,89.809410 38.575584,84.370094 
	C40.301147,81.719948 42.043217,80.861252 44.998821,80.946373 
	C51.160240,81.123810 57.330334,80.999985 64.494843,80.999931 
M97.000305,33.501839 
	C97.000031,29.172701 97.034683,24.843216 96.991669,20.514503 
	C96.918655,13.166844 93.444870,9.148995 86.129349,9.079327 
	C65.651207,8.884301 45.169205,8.927180 24.690683,9.103427 
	C21.276596,9.132810 17.889738,10.325682 16.558998,15.000364 
	C18.616251,15.000364 20.230862,15.000363 21.845472,15.000364 
	C38.995476,15.000381 56.145481,14.997677 73.295486,15.001311 
	C86.058846,15.004017 90.995949,20.010241 90.999115,32.945496 
	C91.001724,43.601810 90.988075,54.258148 91.013741,64.914406 
	C91.017120,66.316422 91.211006,67.717979 91.328987,69.283401 
	C95.549904,67.197281 96.937592,64.662270 96.982643,58.977154 
	C97.047295,50.818920 96.999878,42.659805 97.000305,33.501839 
z"/>
</svg>