<svg width="17" height="16" viewBox="0 0 17 16" fill="none" xmlns="http://www.w3.org/2000/svg">
<path d="M8.33333 0.825357C12.2867 0.825357 15.5 4.03869 15.5 7.99202C15.5 11.9454 12.2867 15.1587 8.33333 15.1587C4.38 15.1587 1.16667 11.9454 1.16667 7.99202C1.16667 4.03869 4.38 0.825357 8.33333 0.825357ZM8.33333 14.1587C11.7333 14.1587 14.5 11.392 14.5 7.99202C14.5 4.59202 11.7333 1.82536 8.33333 1.82536C4.93333 1.82536 2.16667 4.59202 2.16667 7.99202C2.16667 11.392 4.93333 14.1587 8.33333 14.1587Z" fill="#707070"/>
<path d="M8.33398 6.82536C8.60732 6.82536 8.83398 7.05202 8.83398 7.32536V10.6587C8.83398 10.932 8.60732 11.1587 8.33398 11.1587C8.06065 11.1587 7.83398 10.932 7.83398 10.6587V7.32536C7.83398 7.05202 8.06065 6.82536 8.33398 6.82536Z" fill="#707070"/>
<path d="M8.33333 4.65877C8.42 4.65877 8.50667 4.67877 8.58667 4.7121C8.66667 4.74544 8.74 4.7921 8.80667 4.8521C8.86667 4.91877 8.91333 4.98544 8.94667 5.0721C8.98 5.1521 9 5.23877 9 5.32544C9 5.4121 8.98 5.49877 8.94667 5.57877C8.91333 5.65877 8.86667 5.7321 8.80667 5.79877C8.74 5.85877 8.66667 5.90544 8.58667 5.93877C8.42667 6.00544 8.24 6.00544 8.08 5.93877C8 5.90544 7.92667 5.85877 7.86 5.79877C7.8 5.7321 7.75333 5.65877 7.72 5.57877C7.68667 5.49877 7.66667 5.4121 7.66667 5.32544C7.66667 5.23877 7.68667 5.1521 7.72 5.0721C7.75333 4.98544 7.8 4.91877 7.86 4.8521C7.92667 4.7921 8 4.74544 8.08 4.7121C8.16 4.67877 8.24667 4.65877 8.33333 4.65877Z" fill="#707070"/>
</svg>
