<svg width="17" height="16" viewBox="0 0 17 16" fill="none" xmlns="http://www.w3.org/2000/svg">
<path d="M4.10091 1.3999H12.9009C13.6342 1.3999 14.2342 1.9999 14.2342 2.73324V4.1999C14.2342 4.73324 13.9009 5.3999 13.5676 5.73324L10.7009 8.26657C10.3009 8.5999 10.0342 9.26657 10.0342 9.7999V12.6666C10.0342 13.0666 9.76758 13.5999 9.43424 13.7999L8.50091 14.3999C7.63425 14.9332 6.43424 14.3332 6.43424 13.2666V9.73324C6.43424 9.26657 6.16758 8.66657 5.90091 8.33324L3.36758 5.66657C3.03424 5.33324 2.76758 4.73324 2.76758 4.33324V2.7999C2.76758 1.9999 3.36758 1.3999 4.10091 1.3999Z" stroke="#731054" stroke-miterlimit="10" stroke-linecap="round" stroke-linejoin="round"/>
<path d="M7.78667 1.3999L4.5 6.66657" stroke="#731054" stroke-miterlimit="10" stroke-linecap="round" stroke-linejoin="round"/>
</svg>
