<svg width="24" height="24" viewBox="0 0 24 24" fill="none" xmlns="http://www.w3.org/2000/svg">
<path d="M9.3125 14.7031L10.8125 16.2031L14.8125 12.2031" stroke="#731054" stroke-width="1.25" stroke-linecap="round" stroke-linejoin="round"/>
<path d="M10 6H14C16 6 16 5 16 4C16 2 15 2 14 2H10C9 2 8 2 8 4C8 6 9 6 10 6Z" stroke="#731054" stroke-width="1.25" stroke-miterlimit="10" stroke-linecap="round" stroke-linejoin="round"/>
<path d="M16 4.02344C19.33 4.20344 21 5.43344 21 10.0034V16.0034C21 20.0034 20 22.0034 15 22.0034H9C4 22.0034 3 20.0034 3 16.0034V10.0034C3 5.44344 4.67 4.20344 8 4.02344" stroke="#731054" stroke-width="1.25" stroke-miterlimit="10" stroke-linecap="round" stroke-linejoin="round"/>
</svg>
