<svg width="108" height="62" viewBox="0 0 108 62" fill="none" xmlns="http://www.w3.org/2000/svg">
<g clip-path="url(#clip0_119_2298)">
<path d="M49.1074 41.7538C49.4816 41.5166 49.9305 41.4111 50.3795 41.4111C50.7288 41.4111 51.078 41.4902 51.3773 41.6484C51.7016 41.8065 51.9759 42.0438 52.2004 42.3074L53.0236 41.4375C52.6993 41.0157 52.3002 40.6993 51.8512 40.4884C51.3025 40.2512 50.7288 40.1457 50.1301 40.1721C49.5314 40.1984 48.9577 40.383 48.4589 40.673C47.9101 41.0157 47.4611 41.4902 47.1368 42.0965C46.8126 42.7292 46.6629 43.4146 46.6629 44.1264C46.6629 44.8382 46.8126 45.5236 47.1368 46.1563C47.4362 46.7363 47.8851 47.2372 48.4339 47.5799C49.0076 47.9226 49.6562 48.1071 50.3047 48.0807C50.8285 48.0807 51.3523 47.9753 51.8512 47.7644C52.3002 47.5535 52.7243 47.2108 53.0236 46.8154L52.2004 45.9454C51.9759 46.2354 51.7016 46.4727 51.3773 46.6308C51.053 46.789 50.7038 46.8681 50.3546 46.8681C49.9056 46.8681 49.4816 46.7626 49.0825 46.5254C48.7083 46.2881 48.409 45.9718 48.2094 45.5763C48.0099 45.1545 47.8851 44.6537 47.8851 44.1791C47.8851 43.7046 47.9849 43.2301 48.2094 42.782C48.4339 42.3338 48.7332 41.9911 49.1074 41.7538ZM47.8353 32.8434H51.3274V36.1387H52.5746V28.4409H51.3274V31.6044H47.8353V28.4409H46.5881V36.1387H47.8353V32.8434ZM54.1211 36.1387H55.3683V28.4409H54.1211V36.1387ZM60.7063 28.7836C60.2324 28.5464 59.7086 28.4409 59.1847 28.4673H56.9398V36.1387H58.187V33.9242H59.1847C59.7086 33.9242 60.2324 33.8188 60.7063 33.6079C61.1304 33.397 61.4796 33.0807 61.7041 32.6589C61.9286 32.2107 62.0533 31.7098 62.0533 31.2089C62.0533 30.7081 61.9286 30.2072 61.7041 29.759C61.4796 29.3109 61.1304 28.9945 60.7063 28.7836ZM60.3571 32.3162C60.0827 32.5798 59.6587 32.7116 59.1099 32.7116H58.187V29.6536H59.1099C59.6587 29.6536 60.0827 29.7854 60.3571 30.049C60.6315 30.3126 60.7811 30.6817 60.7811 31.1826C60.7811 31.6835 60.6564 32.0525 60.3571 32.3162ZM72.9787 28.4673L69.6113 36.1387H71.0331L71.7814 34.3724H75.523L76.2713 36.1387H77.7181L74.3506 28.4409H72.9787V28.4673ZM72.2554 33.2388L73.6522 29.8908L75.0491 33.2388H72.2554ZM59.5838 40.673C59.0101 40.3303 58.3616 40.1721 57.6881 40.1721C57.0146 40.1721 56.391 40.3566 55.7924 40.673C55.2436 41.0157 54.7697 41.4902 54.4703 42.0965C54.1461 42.7292 53.9964 43.4146 53.9964 44.1264C53.9964 44.8382 54.171 45.5236 54.4703 46.1563C54.7697 46.7363 55.2436 47.2372 55.7924 47.5799C56.3661 47.9226 57.0146 48.0807 57.6881 48.0807C58.3616 48.0807 58.9852 47.8962 59.5838 47.5799C60.1326 47.2372 60.5816 46.7626 60.9059 46.1563C61.2301 45.5236 61.3798 44.8382 61.3798 44.1264C61.3798 43.4146 61.2052 42.7292 60.9059 42.0965C60.5816 41.4902 60.1326 41.0157 59.5838 40.673ZM59.7834 45.4973C59.5838 45.8927 59.2845 46.2354 58.9353 46.4727C58.5611 46.7099 58.1371 46.8154 57.7131 46.8154C57.289 46.8154 56.865 46.6836 56.4908 46.4727C56.1166 46.2354 55.8173 45.9191 55.6427 45.4973C55.4431 45.0755 55.3184 44.6009 55.3184 44.1001C55.3184 43.5992 55.4182 43.151 55.6427 42.7029C55.8423 42.3074 56.1416 41.9647 56.4908 41.7275C56.865 41.4902 57.289 41.3848 57.7131 41.3848C58.1371 41.3848 58.5611 41.5166 58.9353 41.7275C59.3095 41.9647 59.6088 42.2811 59.7834 42.7029C59.9829 43.1247 60.1077 43.5992 60.1077 44.1001C60.1077 44.6009 59.9829 45.0755 59.7834 45.4973ZM102.188 40.2775V41.4902H104.458V47.9753H105.73V41.4902H108V40.2775H102.188ZM100.168 45.4709L96.4011 40.2775H95.3534V47.9753H96.6256V42.782L100.392 47.9753H101.44V40.2775H100.168V45.4709ZM68.6884 40.2775L66.5681 44.3637L64.398 40.2775H62.8266V47.9753H64.1735V42.6501L66.5432 47.079L68.9628 42.571V47.9489H70.3097V40.2512H68.6884V40.2775ZM75.5729 40.5939C75.099 40.3566 74.5502 40.2512 74.0264 40.2775H71.7565V47.9753H73.0286V45.7609H74.0264C74.5502 45.7609 75.099 45.6554 75.5729 45.4445C75.9969 45.2336 76.3462 44.9173 76.5956 44.4955C76.8201 44.0473 76.9448 43.5465 76.9448 43.0456C76.9448 42.5447 76.8201 42.0438 76.5956 41.5956C76.3462 41.1475 75.9969 40.8048 75.5729 40.5939ZM75.2237 44.1528C74.9493 44.4164 74.5253 44.5482 73.9515 44.5482H73.0037V41.4902H73.9515C74.5003 41.4902 74.9244 41.622 75.2237 41.8856C75.4981 42.1493 75.6477 42.5183 75.6477 43.0192C75.6727 43.4937 75.523 43.8892 75.2237 44.1528ZM67.2167 34.3724L67.965 36.1387H69.4118L66.0443 28.4409H64.6724L61.3299 36.1387H62.7517L63.5 34.3724H67.2167ZM65.3708 29.8908L66.7677 33.2388H63.974L65.3708 29.8908ZM79.3893 40.2775H78.1172V47.9753H82.9563V46.7626H79.3893V40.2775ZM84.0039 47.9489H85.2761V40.2512H84.0039V47.9489ZM32.8689 56.6221C32.8938 58.4675 32.9188 59.8119 32.9437 60.471C32.9687 60.5501 32.9687 60.6555 32.9437 60.7346C32.9437 60.8401 32.9437 60.9191 32.9437 60.9191C32.9437 61.2882 32.9936 61.6573 33.0934 62C33.1932 61.6573 33.2431 61.2882 33.2431 60.9191C33.2431 60.7873 33.2929 58.8629 33.3678 55.7785C33.3428 55.8049 33.3179 55.8312 33.3179 55.8576C33.1433 56.0949 32.9936 56.3585 32.8689 56.6221ZM27.6806 18.1333C28.0797 17.6851 28.4538 17.1579 28.7282 16.6043C28.5287 17.0788 27.7554 18.8714 28.5037 19.0296C29.3269 19.1878 30.2498 18.9241 31.921 16.6834C31.8711 13.8099 31.8213 11.3055 31.7963 9.40739H30.8983C30.8484 9.40739 30.8235 9.40739 30.7736 9.40739C30.2747 9.40739 29.4516 9.35466 28.9028 8.48471C28.3042 7.53567 28.2792 6.56027 28.2543 5.84849C28.2293 4.82036 27.9799 2.94865 26.7576 1.89416C25.9095 1.18238 23.6147 0.628771 21.4945 1.52509C20.796 1.81507 19.3992 2.57958 18.0273 3.29136C16.7801 3.95041 15.1837 4.76764 14.6848 4.76764C15.5079 4.37221 16.6055 3.79224 17.8028 3.08046C19.1747 2.28959 20.6214 1.446 21.3448 1.12965C22.7916 0.523322 25.5603 0.338788 26.9821 1.55145C28.3291 2.71139 28.6035 4.71491 28.6284 5.79576C28.6534 6.50754 28.6783 7.3775 29.2021 8.24745C29.6761 8.98559 30.4244 8.98559 30.8734 8.98559H30.9732H31.7714C31.7714 8.74833 31.7714 8.53743 31.7714 8.30017C30.9732 8.3529 29.8257 8.40562 29.3269 7.27205C28.7282 5.90121 29.3767 2.39504 27.3812 0.918756C25.3857 -0.557527 22.1929 -0.188456 19.3493 1.55145C16.5306 3.26499 12.789 5.50578 8.17442 7.45658C3.55979 9.40739 0.69124 10.1983 0.142474 10.2773C-0.381349 10.3828 0.56652 10.7519 2.53709 10.8046C4.50766 10.8573 6.15396 10.6991 6.15396 10.6991L20.6214 3.73951C20.6214 3.73951 8.14947 10.3037 7.10183 11.0155C6.05418 11.7273 5.20609 11.9645 5.28092 12.6236C5.35575 13.2826 6.15396 13.2035 8.34902 13.1508C10.5441 13.0981 11.018 12.8872 11.7663 12.6499C12.5147 12.4127 20.6214 8.45835 20.6214 8.45835C20.6214 8.45835 11.9409 13.019 10.6938 14.0735C9.44656 15.128 10.7935 15.4707 11.6416 15.4971C12.5147 15.5234 14.8344 15.3916 16.1315 14.7062C17.4286 14.0208 21.4695 11.2791 21.4695 11.2791C21.4695 11.2791 17.4785 14.3108 16.7052 14.9962C16.0816 15.5498 15.7574 16.0243 15.907 16.6043C16.1315 17.3424 17.3288 17.2633 18.9252 16.657C18.9252 16.657 20.5715 16.0507 21.1951 15.4707C21.8187 14.8644 23.5648 13.2299 23.5648 13.2299C23.5648 13.2299 21.4945 15.4971 20.9706 16.4725C20.4718 17.4479 20.372 17.6851 20.6214 18.2387C20.9706 19.0296 23.6147 18.2124 24.363 17.3688C24.9118 16.7097 25.4356 16.0243 25.9095 15.2862C25.9095 15.2862 25.1113 16.657 24.9367 17.4479C24.7621 18.2387 24.5626 18.8714 25.2859 18.9505C26.0842 19.0823 26.8325 19.1087 27.6806 18.1333ZM32.6195 36.0859C32.6943 36.0332 32.7691 35.9805 32.844 35.9278C32.9936 35.8223 33.1183 35.7432 33.2181 35.6378C33.4177 35.506 33.6172 35.3478 33.8168 35.216C33.8417 33.7133 33.8916 32.1843 33.9165 30.6817C33.5174 30.4972 33.0934 30.3126 32.6444 30.1281C32.6195 30.1281 32.5945 30.1017 32.5696 30.1017C32.5197 30.0754 32.4947 30.0754 32.4449 30.049C32.1455 29.9435 31.8711 29.8117 31.5469 29.7063C31.1727 29.5481 30.7986 29.4163 30.4244 29.2581C27.93 30.6553 27.4311 31.3144 27.4311 32.6061C27.4311 34.4251 28.9028 35.2424 31.4471 36.9559C31.8462 36.6396 32.2453 36.3496 32.6195 36.0859ZM29.5514 32.8434C29.5514 32.8434 29.3768 31.6835 32.1954 30.339C32.2702 30.3126 32.3451 30.2599 32.4199 30.2335C32.4449 32.0525 32.4698 33.8715 32.5197 35.6905C31.1228 34.6888 29.5514 33.7397 29.5514 32.8434ZM33.8168 55.2249C33.6921 55.3831 33.5673 55.5413 33.4426 55.6731C34.166 56.7012 34.1161 57.703 33.717 58.9947C34.0912 58.5466 34.8395 57.413 34.2159 55.9367C34.0912 55.6994 33.9664 55.4622 33.8168 55.2249ZM32.6693 44.4164C32.9437 44.7064 33.268 45.0491 33.5923 45.3918C33.7918 45.6027 33.9914 45.8136 34.2159 46.0509C34.2408 46.0772 34.2907 46.1036 34.3406 46.1563C36.0368 44.6009 37.5833 43.1247 37.5833 41.2793C37.5833 39.8294 36.2613 38.5113 34.9392 37.4568C34.8145 37.5359 34.6898 37.615 34.5651 37.7204C34.2658 37.9313 33.9914 38.1158 33.7419 38.3004C33.7419 38.3004 33.717 38.3004 33.717 38.3267C33.6671 38.3795 33.5923 38.4058 33.5424 38.4585C33.1932 38.7222 32.8689 38.9594 32.5696 39.1967C32.6195 40.963 32.6444 42.7292 32.6693 44.4164ZM33.7419 38.5904C35.3882 39.8557 36.0368 40.673 36.0368 41.5693C36.0368 42.492 35.1139 43.5728 33.6172 45.1545C33.6422 43.0456 33.6921 40.8575 33.7419 38.5904ZM42.8465 13.2563C42.8465 13.2563 44.5925 14.8907 45.2161 15.4971C45.8397 16.1034 47.486 16.6834 47.486 16.6834C49.0825 17.2897 50.2798 17.3688 50.5043 16.6306C50.6789 16.0507 50.3296 15.5498 49.706 15.0225C48.9328 14.3371 44.9418 11.3055 44.9418 11.3055C44.9418 11.3055 48.9827 14.0471 50.2798 14.7326C51.5768 15.418 53.8966 15.5498 54.7697 15.5234C55.6427 15.4971 56.9647 15.1543 55.7175 14.0999C54.4703 13.0454 45.7898 8.48471 45.7898 8.48471C45.7898 8.48471 53.8717 12.4654 54.6449 12.6763C55.3933 12.9136 55.8672 13.0981 58.0623 13.1772C60.2573 13.2299 61.0306 13.309 61.1304 12.6499C61.2301 12.0172 60.3571 11.78 59.3095 11.0418C58.2618 10.3301 45.7898 3.76587 45.7898 3.76587L60.2573 10.7255C60.2573 10.7255 61.9036 10.8837 63.8742 10.8309C65.8448 10.7782 66.7926 10.4092 66.2688 10.3037C65.745 10.1983 62.8515 9.43375 58.2369 7.48295C53.6222 5.53214 49.8807 3.31772 47.062 1.57781C44.2433 -0.135732 41.0256 -0.531165 39.03 0.945118C37.0345 2.4214 37.6831 5.90122 37.0844 7.29841C36.5855 8.43199 35.4381 8.37926 34.6399 8.32654C34.6399 8.53743 34.6399 8.7747 34.615 9.01196H35.4381H35.5379C35.9869 9.01196 36.7352 9.01196 37.2091 8.27381C37.733 7.43022 37.7579 6.53391 37.7829 5.82213C37.8078 4.74128 38.0822 2.73775 39.4292 1.57781C40.851 0.36515 43.6197 0.549686 45.0665 1.15602C45.7899 1.446 47.2366 2.28959 48.6085 3.10682C49.8058 3.8186 50.9034 4.39857 51.7265 4.794C51.2027 4.794 49.6312 3.97677 48.384 3.31772C47.0371 2.57958 45.6402 1.84143 44.9168 1.55145C42.7966 0.655135 40.5017 1.20874 39.6536 1.92052C38.4065 2.97501 38.182 4.84672 38.157 5.87485C38.1321 6.58663 38.1071 7.58839 37.5085 8.51107C36.9846 9.38102 36.1615 9.43375 35.6377 9.43375C35.5878 9.43375 35.5628 9.43375 35.513 9.43375H34.615C34.5651 11.3318 34.5152 13.8099 34.4653 16.6306C36.1615 18.9241 37.1343 19.2141 37.9325 19.0296C38.6808 18.8714 37.9325 17.0788 37.708 16.6043C38.0073 17.1579 38.3566 17.6588 38.7557 18.1333C39.5788 19.1087 40.3521 19.0823 41.1004 18.9769C41.8487 18.8714 41.6242 18.2651 41.4496 17.4742C41.275 16.6834 40.4768 15.3125 40.4768 15.3125C40.9507 16.0243 41.4746 16.7361 42.0233 17.3951C42.7716 18.2387 45.4157 19.0823 45.7649 18.2651C45.9894 17.7378 45.9146 17.4742 45.4157 16.4988C44.9418 15.5234 42.8465 13.2563 42.8465 13.2563ZM33.2431 5.18943C33.6422 5.18943 34.0413 5.05762 34.3655 4.82036C34.6898 4.5831 34.9642 4.24039 35.1139 3.87132C35.2635 3.47589 35.3134 3.0541 35.2386 2.6323C35.1637 2.2105 34.9642 1.84143 34.6898 1.52509C34.4154 1.2351 34.0413 1.0242 33.6422 0.945118C33.2431 0.866032 32.844 0.892394 32.4698 1.07693C32.0956 1.2351 31.7714 1.52509 31.5718 1.8678C31.3473 2.2105 31.2226 2.6323 31.2226 3.0541C31.2226 3.34408 31.2725 3.6077 31.3723 3.87132C31.472 4.13495 31.6217 4.3722 31.8213 4.55674C32.0208 4.76764 32.2204 4.92581 32.4698 5.03126C32.6943 5.13671 32.9687 5.18943 33.2431 5.18943ZM39.8781 21.2177C39.8781 21.2177 39.8283 19.7414 37.5584 19.5832C35.2386 19.425 35.1388 20.4795 35.1887 20.875C35.3633 20.875 35.513 20.9277 35.513 20.9804C35.513 21.0331 35.3882 21.0858 35.2386 21.0858C35.3633 21.4813 35.7125 21.9558 36.7103 22.483C37.5334 22.9048 37.9325 22.8785 38.4065 22.7994C38.4065 22.7994 38.9552 23.1421 38.9552 23.6957C38.9552 24.223 38.0822 25.2511 33.9914 27.4128C34.2408 15.7607 34.4653 5.53214 34.4653 5.53214H34.7147C34.8145 5.53214 34.9143 5.47942 34.9891 5.40033C35.064 5.32124 35.1139 5.2158 35.1139 5.11035V4.97854C35.1139 4.92581 35.1139 4.87309 35.0889 4.82036C35.064 4.76764 35.039 4.71491 34.9891 4.68855C34.7646 4.95217 34.5152 5.16307 34.2159 5.32125C33.9165 5.47942 33.5923 5.53214 33.268 5.53214C32.9437 5.53214 32.6195 5.45306 32.3201 5.32125C32.0208 5.18944 31.7464 4.95217 31.5469 4.68855C31.497 4.74128 31.472 4.76764 31.4471 4.82036C31.4222 4.87309 31.4221 4.92581 31.4221 4.97854V5.11035C31.4221 5.2158 31.472 5.32124 31.5469 5.40033C31.6217 5.47942 31.7215 5.53214 31.8213 5.53214H32.0707C32.0707 5.53214 32.2453 15.4707 32.4199 26.9119C32.7691 27.0964 33.1183 27.281 33.5174 27.4919C33.5673 27.5182 33.6422 27.5446 33.6921 27.571C34.615 28.0455 35.3882 28.4409 36.0368 28.81C38.2318 27.9137 40.377 26.8855 41.0256 25.4356C42.173 22.7467 39.8781 21.2177 39.8781 21.2177ZM36.835 20.6113C36.5855 20.6113 36.386 20.4795 36.386 20.3213C36.386 20.1632 36.5855 20.0314 36.835 20.0314C37.0844 20.0314 37.284 20.1632 37.284 20.3213C37.284 20.4795 37.0844 20.6113 36.835 20.6113ZM32.8689 53.9859C33.0685 53.7223 33.2431 53.4586 33.4426 53.2214C33.4676 51.7187 33.5174 50.0316 33.5424 48.2126C33.2929 47.9489 33.0186 47.6853 32.7192 47.3953C32.6195 47.3162 32.5446 47.2108 32.4449 47.1317C32.3201 46.9999 32.1954 46.8945 32.0707 46.789C31.3723 47.4744 30.0003 49.0034 30.0003 50.3215C30.0003 51.8769 31.4222 53.4586 32.4947 54.5922C32.5945 54.355 32.7192 54.1704 32.8689 53.9859ZM32.7192 47.7117C32.7691 49.9525 32.7941 52.0087 32.819 53.775C31.9959 52.6151 31.1228 51.4287 31.1228 50.6115C31.1228 49.847 31.5469 48.9771 32.7192 47.7117ZM33.2929 27.8346C28.4289 25.3565 27.4311 24.2229 27.4311 23.6693C27.4311 23.1157 27.9799 22.773 27.9799 22.773C28.4538 22.8785 28.8529 22.8785 29.6761 22.4567C30.6738 21.9558 31.0231 21.4549 31.1478 21.0595C30.9981 21.0595 30.8734 21.0068 30.8734 20.954C30.8734 20.9013 31.0231 20.8486 31.1977 20.8486V20.8222C31.2226 20.4268 31.0979 19.3987 28.803 19.5568C26.5331 19.715 26.4833 21.1913 26.4833 21.1913C26.4833 21.1913 24.1884 22.7467 25.3857 25.3829C26.4334 27.7291 31.3473 28.9681 34.1909 30.3126C37.0096 31.6571 36.835 32.817 36.835 32.817C36.835 33.8188 34.9392 34.8733 33.4426 35.9805C31.946 37.0877 28.7781 39.0121 28.7781 41.2793C28.7781 43.3619 30.7487 44.97 32.6693 46.7626C34.615 48.5553 35.2386 49.6361 35.2386 50.6379C35.2386 52.0087 33.0934 53.8541 31.9959 56.1476C30.8983 58.4411 33.0685 62 32.395 60.1283C31.6965 58.2566 32.0707 56.9385 32.9687 55.6203C34.0662 54.0122 36.4109 52.4305 36.4109 50.2952C36.4109 48.5026 33.9415 46.3936 33.9415 46.3936C31.7464 44.0737 30.3496 42.7556 30.3496 41.5956C30.3496 40.4357 31.3972 39.4076 34.3406 37.3777C37.259 35.3742 38.9802 34.5833 38.9802 32.6325C38.9802 30.919 38.157 30.3126 33.2929 27.8346ZM29.5514 20.0577C29.8008 20.0577 30.0003 20.1895 30.0003 20.3477C30.0003 20.5059 29.8008 20.6377 29.5514 20.6377C29.3019 20.6377 29.1024 20.5059 29.1024 20.3477C29.1024 20.1895 29.3019 20.0577 29.5514 20.0577ZM89.6163 40.2775L86.2489 47.9753H87.6707L88.419 46.209H92.1606L92.9089 47.9753H94.3557L90.9882 40.2775H89.6163ZM88.893 45.0755L90.2898 41.7275L91.6867 45.0755H88.893Z" fill="#8F8F8F"/>
</g>
<defs>
<clipPath id="clip0_119_2298">
<rect width="108" height="62" fill="white"/>
</clipPath>
</defs>
</svg>
