<svg width="32" height="32" viewBox="0 0 32 32" fill="none" xmlns="http://www.w3.org/2000/svg">
<path d="M17.3327 29.3334H6.66602C3.99935 29.3334 2.66602 28.0001 2.66602 25.3334V14.6667C2.66602 12.0001 3.99935 10.6667 6.66602 10.6667H13.3327V25.3334C13.3327 28.0001 14.666 29.3334 17.3327 29.3334Z" stroke="#731054" stroke-width="1.25" stroke-miterlimit="10" stroke-linecap="round" stroke-linejoin="round"/>
<path d="M13.4793 5.33325C13.3727 5.73325 13.3327 6.17325 13.3327 6.66659V10.6666H6.66602V7.99992C6.66602 6.53325 7.86602 5.33325 9.33268 5.33325H13.4793Z" stroke="#731054" stroke-width="1.25" stroke-miterlimit="10" stroke-linecap="round" stroke-linejoin="round"/>
<path d="M18.666 10.6667V17.3334" stroke="#731054" stroke-width="1.25" stroke-miterlimit="10" stroke-linecap="round" stroke-linejoin="round"/>
<path d="M24 10.6667V17.3334" stroke="#731054" stroke-width="1.25" stroke-miterlimit="10" stroke-linecap="round" stroke-linejoin="round"/>
<path d="M22.666 22.6667H19.9993C19.266 22.6667 18.666 23.2667 18.666 24.0001V29.3334H23.9993V24.0001C23.9993 23.2667 23.3993 22.6667 22.666 22.6667Z" stroke="#731054" stroke-width="1.25" stroke-miterlimit="10" stroke-linecap="round" stroke-linejoin="round"/>
<path d="M8 17.3333V22.6666" stroke="#731054" stroke-width="1.25" stroke-miterlimit="10" stroke-linecap="round" stroke-linejoin="round"/>
<path d="M13.334 25.3334V6.66675C13.334 4.00008 14.6673 2.66675 17.334 2.66675H25.334C28.0007 2.66675 29.334 4.00008 29.334 6.66675V25.3334C29.334 28.0001 28.0007 29.3334 25.334 29.3334H17.334C14.6673 29.3334 13.334 28.0001 13.334 25.3334Z" stroke="#731054" stroke-width="1.25" stroke-miterlimit="10" stroke-linecap="round" stroke-linejoin="round"/>
</svg>
