<svg width="16" height="16" viewBox="0 0 16 16" fill="none" xmlns="http://www.w3.org/2000/svg">
<path d="M8.66533 7.82706C8.53866 7.82706 8.41199 7.78039 8.31199 7.68039C8.11866 7.48706 8.11866 7.16706 8.31199 6.97373L13.7787 1.50706C13.972 1.31373 14.292 1.31373 14.4853 1.50706C14.6787 1.70039 14.6787 2.02039 14.4853 2.21373L9.01866 7.68039C8.91866 7.78039 8.79199 7.82706 8.66533 7.82706Z" fill="white"/>
<path d="M14.6688 5.02544C14.3954 5.02544 14.1687 4.79877 14.1687 4.52544V1.82544H11.4688C11.1954 1.82544 10.9688 1.59877 10.9688 1.32544C10.9688 1.05211 11.1954 0.825439 11.4688 0.825439H14.6688C14.9421 0.825439 15.1687 1.05211 15.1687 1.32544V4.52544C15.1687 4.79877 14.9421 5.02544 14.6688 5.02544Z" fill="white"/>
<path d="M9.99967 15.1588H5.99967C2.37967 15.1588 0.833008 13.6121 0.833008 9.99211V5.99211C0.833008 2.37211 2.37967 0.825439 5.99967 0.825439H7.33301C7.60634 0.825439 7.83301 1.05211 7.83301 1.32544C7.83301 1.59877 7.60634 1.82544 7.33301 1.82544H5.99967C2.92634 1.82544 1.83301 2.91877 1.83301 5.99211V9.99211C1.83301 13.0654 2.92634 14.1588 5.99967 14.1588H9.99967C13.073 14.1588 14.1663 13.0654 14.1663 9.99211V8.65877C14.1663 8.38544 14.393 8.15877 14.6663 8.15877C14.9397 8.15877 15.1663 8.38544 15.1663 8.65877V9.99211C15.1663 13.6121 13.6197 15.1588 9.99967 15.1588Z" fill="white"/>
</svg>
