<svg width="32" height="40" viewBox="0 0 32 40" fill="none" xmlns="http://www.w3.org/2000/svg">
<path d="M15.9999 6.66634C8.66659 6.66634 2.66659 12.6663 2.66659 19.9997C2.66659 27.333 8.66659 33.333 15.9999 33.333C23.3333 33.333 29.3333 27.333 29.3333 19.9997C29.3333 12.6663 23.3333 6.66634 15.9999 6.66634Z" stroke="#040404" stroke-width="1.5" stroke-linecap="round" stroke-linejoin="round"/>
<path d="M15.9999 6.66634C8.66659 6.66634 2.66659 12.6663 2.66659 19.9997C2.66659 27.333 8.66659 33.333 15.9999 33.333C23.3333 33.333 29.3333 27.333 29.3333 19.9997C29.3333 12.6663 23.3333 6.66634 15.9999 6.66634Z" stroke="black" stroke-opacity="0.2" stroke-width="1.5" stroke-linecap="round" stroke-linejoin="round"/>
<path d="M15.9999 6.66634C8.66659 6.66634 2.66659 12.6663 2.66659 19.9997C2.66659 27.333 8.66659 33.333 15.9999 33.333C23.3333 33.333 29.3333 27.333 29.3333 19.9997C29.3333 12.6663 23.3333 6.66634 15.9999 6.66634Z" stroke="black" stroke-opacity="0.2" stroke-width="1.5" stroke-linecap="round" stroke-linejoin="round"/>
<path d="M15.9999 6.66634C8.66659 6.66634 2.66659 12.6663 2.66659 19.9997C2.66659 27.333 8.66659 33.333 15.9999 33.333C23.3333 33.333 29.3333 27.333 29.3333 19.9997C29.3333 12.6663 23.3333 6.66634 15.9999 6.66634Z" stroke="black" stroke-opacity="0.2" stroke-width="1.5" stroke-linecap="round" stroke-linejoin="round"/>
<path d="M15.9999 6.66634C8.66659 6.66634 2.66659 12.6663 2.66659 19.9997C2.66659 27.333 8.66659 33.333 15.9999 33.333C23.3333 33.333 29.3333 27.333 29.3333 19.9997C29.3333 12.6663 23.3333 6.66634 15.9999 6.66634Z" stroke="black" stroke-opacity="0.2" stroke-width="1.5" stroke-linecap="round" stroke-linejoin="round"/>
<path d="M15.9999 6.66634C8.66659 6.66634 2.66659 12.6663 2.66659 19.9997C2.66659 27.333 8.66659 33.333 15.9999 33.333C23.3333 33.333 29.3333 27.333 29.3333 19.9997C29.3333 12.6663 23.3333 6.66634 15.9999 6.66634Z" stroke="black" stroke-opacity="0.2" stroke-width="1.5" stroke-linecap="round" stroke-linejoin="round"/>
<path d="M15.9999 6.66634C8.66659 6.66634 2.66659 12.6663 2.66659 19.9997C2.66659 27.333 8.66659 33.333 15.9999 33.333C23.3333 33.333 29.3333 27.333 29.3333 19.9997C29.3333 12.6663 23.3333 6.66634 15.9999 6.66634Z" stroke="black" stroke-opacity="0.2" stroke-width="1.5" stroke-linecap="round" stroke-linejoin="round"/>
<path d="M15.9999 6.66634C8.66659 6.66634 2.66659 12.6663 2.66659 19.9997C2.66659 27.333 8.66659 33.333 15.9999 33.333C23.3333 33.333 29.3333 27.333 29.3333 19.9997C29.3333 12.6663 23.3333 6.66634 15.9999 6.66634Z" stroke="black" stroke-opacity="0.2" stroke-width="1.5" stroke-linecap="round" stroke-linejoin="round"/>
<path d="M15.9999 6.66634C8.66659 6.66634 2.66659 12.6663 2.66659 19.9997C2.66659 27.333 8.66659 33.333 15.9999 33.333C23.3333 33.333 29.3333 27.333 29.3333 19.9997C29.3333 12.6663 23.3333 6.66634 15.9999 6.66634Z" stroke="black" stroke-opacity="0.2" stroke-width="1.5" stroke-linecap="round" stroke-linejoin="round"/>
<path d="M16 25.333V18.6663" stroke="#040404" stroke-width="1.5" stroke-linecap="round" stroke-linejoin="round"/>
<path d="M16 25.333V18.6663" stroke="black" stroke-opacity="0.2" stroke-width="1.5" stroke-linecap="round" stroke-linejoin="round"/>
<path d="M16 25.333V18.6663" stroke="black" stroke-opacity="0.2" stroke-width="1.5" stroke-linecap="round" stroke-linejoin="round"/>
<path d="M16 25.333V18.6663" stroke="black" stroke-opacity="0.2" stroke-width="1.5" stroke-linecap="round" stroke-linejoin="round"/>
<path d="M16 25.333V18.6663" stroke="black" stroke-opacity="0.2" stroke-width="1.5" stroke-linecap="round" stroke-linejoin="round"/>
<path d="M16 25.333V18.6663" stroke="black" stroke-opacity="0.2" stroke-width="1.5" stroke-linecap="round" stroke-linejoin="round"/>
<path d="M16 25.333V18.6663" stroke="black" stroke-opacity="0.2" stroke-width="1.5" stroke-linecap="round" stroke-linejoin="round"/>
<path d="M16 25.333V18.6663" stroke="black" stroke-opacity="0.2" stroke-width="1.5" stroke-linecap="round" stroke-linejoin="round"/>
<path d="M16 25.333V18.6663" stroke="black" stroke-opacity="0.2" stroke-width="1.5" stroke-linecap="round" stroke-linejoin="round"/>
<path d="M16.0073 14.667H15.9953" stroke="#040404" stroke-width="2" stroke-linecap="round" stroke-linejoin="round"/>
<path d="M16.0073 14.667H15.9953" stroke="black" stroke-opacity="0.2" stroke-width="2" stroke-linecap="round" stroke-linejoin="round"/>
<path d="M16.0073 14.667H15.9953" stroke="black" stroke-opacity="0.2" stroke-width="2" stroke-linecap="round" stroke-linejoin="round"/>
<path d="M16.0073 14.667H15.9953" stroke="black" stroke-opacity="0.2" stroke-width="2" stroke-linecap="round" stroke-linejoin="round"/>
<path d="M16.0073 14.667H15.9953" stroke="black" stroke-opacity="0.2" stroke-width="2" stroke-linecap="round" stroke-linejoin="round"/>
<path d="M16.0073 14.667H15.9953" stroke="black" stroke-opacity="0.2" stroke-width="2" stroke-linecap="round" stroke-linejoin="round"/>
<path d="M16.0073 14.667H15.9953" stroke="black" stroke-opacity="0.2" stroke-width="2" stroke-linecap="round" stroke-linejoin="round"/>
<path d="M16.0073 14.667H15.9953" stroke="black" stroke-opacity="0.2" stroke-width="2" stroke-linecap="round" stroke-linejoin="round"/>
<path d="M16.0073 14.667H15.9953" stroke="black" stroke-opacity="0.2" stroke-width="2" stroke-linecap="round" stroke-linejoin="round"/>
</svg>
