<svg width="16" height="16" viewBox="0 0 16 16" fill="none" xmlns="http://www.w3.org/2000/svg">
<path d="M7.66927 14.5026C3.9026 14.5026 0.835938 11.4359 0.835938 7.66927C0.835938 3.9026 3.9026 0.835938 7.66927 0.835938C11.4359 0.835938 14.5026 3.9026 14.5026 7.66927C14.5026 11.4359 11.4359 14.5026 7.66927 14.5026ZM7.66927 1.83594C4.44927 1.83594 1.83594 4.45594 1.83594 7.66927C1.83594 10.8826 4.44927 13.5026 7.66927 13.5026C10.8893 13.5026 13.5026 10.8826 13.5026 7.66927C13.5026 4.45594 10.8893 1.83594 7.66927 1.83594Z" fill="#731054"/>
<path d="M14.6676 15.1676C14.5409 15.1676 14.4143 15.1209 14.3143 15.0209L12.9809 13.6876C12.7876 13.4943 12.7876 13.1743 12.9809 12.9809C13.1743 12.7876 13.4943 12.7876 13.6876 12.9809L15.0209 14.3143C15.2143 14.5076 15.2143 14.8276 15.0209 15.0209C14.9209 15.1209 14.7943 15.1676 14.6676 15.1676Z" fill="#731054"/>
</svg>
