<svg xmlns="http://www.w3.org/2000/svg" width="20" height="20" viewBox="0 0 20 20" fill="none">
  <path fill-rule="evenodd" clip-rule="evenodd" d="M8.77446 1.90357C9.14887 1.69277 9.57128 1.58203 10.001 1.58203C10.4306 1.58203 10.853 1.69277 11.2274 1.90357C11.6019 2.11436 11.9156 2.41809 12.1385 2.78546L12.1409 2.78942L19.1992 14.5728L19.2059 14.5843C19.4242 14.9623 19.5397 15.3909 19.541 15.8274C19.5422 16.2639 19.4291 16.6932 19.2129 17.0724C18.9967 17.4517 18.685 17.7677 18.3088 17.9891C17.9326 18.2105 17.5049 18.3295 17.0684 18.3343L17.0593 18.3344L2.93346 18.3343C2.49696 18.3295 2.06932 18.2105 1.6931 17.9891C1.31687 17.7677 1.00516 17.4517 0.788994 17.0724C0.572825 16.6932 0.459725 16.2639 0.460947 15.8274C0.46217 15.3909 0.577672 14.9623 0.795961 14.5843L0.80273 14.5728L7.86344 2.78545C8.08628 2.41809 8.40005 2.11436 8.77446 1.90357ZM10.001 3.2487C9.85773 3.2487 9.71692 3.28561 9.59212 3.35588C9.46788 3.42582 9.36368 3.52647 9.28946 3.64818L2.23653 15.4225C2.16554 15.5473 2.12801 15.6884 2.12761 15.8321C2.1272 15.9776 2.1649 16.1207 2.23696 16.2471C2.30901 16.3735 2.41292 16.4788 2.53832 16.5526C2.66264 16.6258 2.80378 16.6654 2.94795 16.6677H17.054C17.1981 16.6654 17.3393 16.6258 17.4636 16.5526C17.589 16.4788 17.6929 16.3735 17.7649 16.2471C17.837 16.1207 17.8747 15.9776 17.8743 15.8321C17.8739 15.6884 17.8364 15.5474 17.7654 15.4225L10.7135 3.64984C10.7131 3.64929 10.7128 3.64874 10.7124 3.64818C10.6382 3.52647 10.534 3.42582 10.4098 3.35588C10.285 3.28561 10.1442 3.2487 10.001 3.2487Z" fill="#F3404F"/>
  <path fill-rule="evenodd" clip-rule="evenodd" d="M9.9974 6.66797C10.4576 6.66797 10.8307 7.04106 10.8307 7.5013V10.8346C10.8307 11.2949 10.4576 11.668 9.9974 11.668C9.53716 11.668 9.16406 11.2949 9.16406 10.8346V7.5013C9.16406 7.04106 9.53716 6.66797 9.9974 6.66797Z" fill="#F3404F"/>
  <path fill-rule="evenodd" clip-rule="evenodd" d="M9.16406 14.1654C9.16406 13.7051 9.53716 13.332 9.9974 13.332H10.0057C10.466 13.332 10.8391 13.7051 10.8391 14.1654C10.8391 14.6256 10.466 14.9987 10.0057 14.9987H9.9974C9.53716 14.9987 9.16406 14.6256 9.16406 14.1654Z" fill="#F3404F"/>
</svg>