<svg width="256" height="256" viewBox="0 0 256 256" fill="none" xmlns="http://www.w3.org/2000/svg">
<rect width="256" height="256" rx="20" fill="#FC0A7E"/>
<rect width="256" height="256" rx="20" fill="url(#paint0_linear)" fill-opacity="0.6"/>
<path d="M140.578 123.5C142.089 121.729 143.651 120.089 145.266 118.578C146.88 117.068 148.495 115.766 150.109 114.672C151.724 113.578 153.312 112.745 154.875 112.172C156.49 111.547 158.026 111.234 159.484 111.234C160.63 111.234 161.75 111.443 162.844 111.859C163.99 112.224 165.005 112.823 165.891 113.656C166.776 114.438 167.479 115.453 168 116.703C168.521 117.953 168.781 119.438 168.781 121.156C168.781 123.656 168.443 126.13 167.766 128.578C167.089 130.974 166.229 133.318 165.188 135.609C164.146 137.901 163.026 140.115 161.828 142.25C160.682 144.385 159.589 146.443 158.547 148.422C157.505 150.349 156.646 152.198 155.969 153.969C155.292 155.688 154.953 157.276 154.953 158.734C154.953 159.88 155.24 160.714 155.812 161.234C156.438 161.703 157.089 161.938 157.766 161.938C159.12 161.938 160.708 161.156 162.531 159.594C164.406 158.031 166.359 156.026 168.391 153.578C170.422 151.13 172.453 148.448 174.484 145.531C176.568 142.562 178.547 139.672 180.422 136.859L183.234 139.047C182.557 140.141 181.672 141.599 180.578 143.422C179.536 145.193 178.312 147.12 176.906 149.203C175.5 151.234 173.964 153.318 172.297 155.453C170.63 157.536 168.859 159.438 166.984 161.156C165.161 162.823 163.26 164.203 161.281 165.297C159.302 166.339 157.323 166.859 155.344 166.859C154.25 166.859 153.182 166.703 152.141 166.391C151.151 166.078 150.266 165.583 149.484 164.906C148.703 164.177 148.078 163.24 147.609 162.094C147.141 160.948 146.906 159.542 146.906 157.875C146.906 155.583 147.297 153.344 148.078 151.156C148.859 148.969 149.849 146.807 151.047 144.672C152.245 142.536 153.521 140.427 154.875 138.344C156.281 136.208 157.583 134.099 158.781 132.016C159.979 129.932 160.969 127.849 161.75 125.766C162.531 123.63 162.922 121.469 162.922 119.281C162.922 118.188 162.714 117.328 162.297 116.703C161.88 116.026 161.099 115.688 159.953 115.688C158.13 115.688 156.203 116.443 154.172 117.953C152.141 119.411 150.031 121.391 147.844 123.891C145.656 126.391 143.417 129.307 141.125 132.641C138.833 135.922 136.542 139.411 134.25 143.109C132.01 146.755 129.771 150.479 127.531 154.281C125.344 158.031 123.234 161.651 121.203 165.141L114.641 161.703C117.401 156.026 119.979 150.948 122.375 146.469C124.823 141.99 126.958 137.953 128.781 134.359C130.604 130.714 132.036 127.406 133.078 124.438C134.12 121.417 134.641 118.578 134.641 115.922C134.641 115.401 134.589 114.88 134.484 114.359C134.38 113.786 134.172 113.292 133.859 112.875C133.547 112.458 133.13 112.12 132.609 111.859C132.141 111.547 131.516 111.391 130.734 111.391C128.964 111.391 127.167 112.224 125.344 113.891C123.521 115.505 121.594 117.745 119.562 120.609C117.531 123.422 115.344 126.729 113 130.531C110.708 134.281 108.208 138.266 105.5 142.484C102.844 146.703 99.9531 151.052 96.8281 155.531C93.7031 159.958 90.2917 164.255 86.5938 168.422L81.2031 164.828C82.8698 162.328 84.6146 159.698 86.4375 156.938C88.3125 154.125 90.1354 151.286 91.9062 148.422C93.7292 145.557 95.4479 142.719 97.0625 139.906C98.7292 137.042 100.188 134.333 101.438 131.781C102.688 129.229 103.677 126.885 104.406 124.75C105.135 122.615 105.5 120.792 105.5 119.281C105.5 117.51 105.057 116.234 104.172 115.453C103.286 114.672 102.141 114.281 100.734 114.281C99.0677 114.281 97.4271 114.88 95.8125 116.078C94.25 117.276 92.5833 118.969 90.8125 121.156C89.0938 123.344 87.2188 125.974 85.1875 129.047C83.2083 132.068 80.9427 135.401 78.3906 139.047L75.5781 136.859C78.3385 132.484 80.8125 128.63 83 125.297C85.2396 121.964 87.349 119.177 89.3281 116.938C91.3073 114.698 93.2604 113.005 95.1875 111.859C97.1667 110.714 99.3021 110.141 101.594 110.141C102.271 110.141 103.13 110.271 104.172 110.531C105.266 110.792 106.333 111.26 107.375 111.938C108.417 112.615 109.328 113.552 110.109 114.75C110.943 115.948 111.438 117.484 111.594 119.359C114.51 115.609 117.557 112.615 120.734 110.375C123.911 108.135 126.906 107.016 129.719 107.016C131.75 107.016 133.469 107.432 134.875 108.266C136.281 109.047 137.401 110.089 138.234 111.391C139.12 112.693 139.745 114.177 140.109 115.844C140.526 117.458 140.734 119.099 140.734 120.766C140.734 121.182 140.708 121.625 140.656 122.094C140.656 122.562 140.63 123.031 140.578 123.5Z" fill="white"/>
<defs>
<linearGradient id="paint0_linear" x1="17.7231" y1="-2.86689e-06" x2="256" y2="256" gradientUnits="userSpaceOnUse">
<stop stop-color="#5825AD"/>
<stop offset="1" stop-color="#5825AD" stop-opacity="0"/>
</linearGradient>
</defs>
</svg>
